<svg width="364" height="297" viewBox="0 0 364 297" fill="none" xmlns="http://www.w3.org/2000/svg">
<path d="M0 211.031L45.4264 210.821L90.8528 210.745L181.705 210.601L272.557 210.744L317.983 210.82L363.409 211.031L317.983 211.242L272.557 211.317L181.705 211.46L90.8528 211.317L45.4264 211.24L0 211.031Z" fill="#A8BEC9"/>
<path d="M41.4299 211.031H151.059L129.2 83.8784H47.223L41.4299 211.031Z" fill="#DBDBDB"/>
<path d="M41.4299 211.031H51.0429L56.4371 83.8784H47.223L41.4299 211.031Z" fill="#A6A6A6"/>
<path d="M127.448 103.7C141.16 132.119 173.681 179.086 187.299 166.847C207.669 148.541 220.666 108.958 225.815 92.9592C228.701 83.9925 183.068 70.4123 180.523 78.5484C176.906 90.1165 171.402 114.22 167.915 117.709C166.077 119.546 150.704 99.1702 139.207 89.6253C122.632 75.8659 123.068 94.6205 127.448 103.7Z" fill="#EB9481"/>
<path d="M235.484 73.6601C233.539 83.3868 221.781 101.723 217.244 105.056C212.706 108.388 180.77 90.3483 180.07 84.6138C179.369 78.8793 188.55 45.7251 196.303 39.2185C204.056 32.7119 237.498 63.5835 235.484 73.6601Z" fill="#EB9481"/>
<path d="M180.75 77.9374C180.75 77.9374 178.557 65.2224 172.999 55.3078C168.324 46.9719 160.441 35.1211 164.829 32.4395C173.839 26.9342 193.488 56.4952 193.488 56.4952C193.488 56.4952 200.063 70.9285 191.62 77.174C186.324 81.0903 180.75 77.9374 180.75 77.9374Z" fill="#EB9481"/>
<path d="M186.389 51.6224C188.174 56.565 192.977 51.6319 192.977 51.6319C192.977 51.6319 187.774 60.3987 191.585 64.7838C195.27 68.9991 200.862 62.8355 201.269 62.3995C200.997 62.8657 196.427 71.0465 200.71 75.0585C205.165 79.2239 209.717 72.0719 210.01 71.6092C209.892 72.1297 208.45 79.0395 212.396 81.3471C219.181 85.3092 223.355 67.7428 228.907 64.6364C228.907 64.6364 235.245 73.4446 235.483 73.6609C235.483 73.6609 239.796 57.0295 235.189 49.7758C232.76 45.9516 228.717 47.4604 228.717 47.4604C228.717 47.4604 230.7 42.2516 227.428 38.9875C225.743 37.3167 221.572 38.5239 221.572 38.5239C221.572 38.5239 222.986 34.287 219.893 31.5649C217.432 29.384 213.63 30.935 213.63 30.935C213.63 30.935 213.1 26.2371 209.862 24.8265C203.338 21.9649 182.576 41.0349 186.389 51.6224Z" fill="#EB9481"/>
<path d="M212.99 31.0866C213.065 31.0289 212.998 30.9134 212.913 30.96C204.555 35.5657 196.782 43.1864 192.689 51.8705C192.555 52.1557 192.959 52.4969 193.167 52.2117C199.097 44.0679 205.009 37.3132 212.99 31.0866Z" fill="#263238"/>
<path d="M221.636 38.386C221.723 38.3188 221.612 38.174 221.509 38.2318C212.923 43.0236 204.404 51.849 200.865 62.4141C200.744 62.7769 200.998 63.2232 201.169 62.8174C204.056 55.9696 214.423 43.9542 221.636 38.386Z" fill="#263238"/>
<path d="M210.017 72.4302C213.802 62.4303 220.412 54.6501 228.349 47.6343C228.452 47.5429 228.313 47.4059 228.205 47.4585C223.387 49.8324 218.794 54.8311 215.548 59.0232C212.441 63.0386 210.443 67.2868 209.667 72.2966C209.637 72.4922 209.936 72.6439 210.017 72.4302Z" fill="#263238"/>
<path d="M192.801 51.6645C192.64 52.0066 193.317 51.8653 193.167 52.2125C192.536 53.6722 189.494 62.7845 192.277 64.7845C194.512 66.3821 198.208 64.489 199.342 63.205L202.195 59.9763L200.638 64.0021C199.958 65.7591 199.487 67.71 199.417 69.5815C199.343 71.4488 199.766 73.3299 201.004 74.4871C202.273 75.7219 203.99 76.0407 205.489 75.1472C207.007 74.3251 208.317 72.7637 209.261 71.1989L211.901 66.8285L210.841 71.7995C210.554 73.1463 210.417 74.6224 210.488 76.0123C210.567 77.3996 210.877 78.7904 211.642 79.7779C212.388 80.749 213.677 81.3212 214.817 81.0515C216.02 80.7852 217.147 79.8029 218.119 78.7688C220.082 76.6336 221.612 74.0477 223.256 71.5608C224.07 70.3079 224.886 69.0482 225.763 67.828C226.652 66.6363 227.579 65.3687 228.907 64.6354C227.67 65.4954 226.911 66.8224 226.107 68.0572C225.334 69.3273 224.621 70.6363 223.905 71.9477C222.472 74.5707 221 77.1962 219.041 79.5848C218.032 80.7317 216.895 81.9407 215.167 82.4474C213.38 82.9558 211.479 82.1173 210.413 80.7481C209.318 79.3556 208.977 77.6788 208.854 76.1149C208.754 74.5216 208.868 72.9956 209.178 71.4169L210.756 72.0175C209.655 73.8745 208.345 75.5599 206.346 76.7258C205.36 77.2936 204.089 77.5961 202.872 77.372C201.647 77.1523 200.626 76.5302 199.796 75.7219C198.078 74.0347 197.669 71.5936 197.785 69.5109C197.909 67.3679 198.427 65.367 199.223 63.3946L200.519 64.1917C199.021 65.7746 195.12 68.3416 191.344 66.2994C186.821 62.9026 191.772 53.3474 192.801 51.6645Z" fill="#263238"/>
<path d="M192.976 51.6319C192.017 52.2592 191.025 52.7806 190.074 53.0382C189.124 53.3028 188.233 53.1003 187.654 52.529C187.059 51.968 186.751 50.959 186.546 49.9327C186.371 48.8892 186.24 47.7828 186.149 46.6342C185.675 47.6914 185.408 48.8392 185.401 50.0292C185.403 51.1994 185.615 52.5307 186.63 53.5845C187.17 54.0679 187.82 54.3859 188.522 54.4746C189.227 54.541 189.905 54.3919 190.471 54.111C191.618 53.5656 192.426 52.6453 192.976 51.6319Z" fill="#263238"/>
<path d="M177.795 79.4952L225.786 110.942C225.786 110.942 199.315 169.985 181.937 170.318C164.56 170.65 138.235 127.727 129.012 109.118C119.788 90.5084 124.54 74.3785 142.533 91.0866C160.635 107.896 166.996 114.672 167.558 114.425C168.648 113.941 177.795 79.4952 177.795 79.4952Z" fill="#4AA09B"/>
<path d="M225.787 110.945C225.787 110.945 207.436 151.891 191.254 165.772C188.013 168.563 184.852 170.262 181.94 170.313C164.563 170.65 138.233 127.725 129.009 109.122C123.296 97.5992 122.947 87.0263 127.779 84.6179C130.752 83.1289 135.686 84.7213 142.538 91.0874C160.634 107.894 166.998 114.671 167.561 114.421C168.648 113.942 177.802 79.4995 177.802 79.4995L225.787 110.945Z" fill="#4AA09B"/>
<path d="M214.811 116.721C213.54 115.729 212.254 114.762 210.962 113.796C208.347 111.84 205.725 109.897 203.097 107.961C197.872 104.111 192.547 100.415 187.176 96.7765C184.128 94.7102 181.134 92.5258 177.997 90.5939C177.843 90.4999 177.698 90.7059 177.835 90.8205C180.341 92.9092 183.015 94.8075 185.609 96.7842C188.208 98.7644 190.785 100.763 193.42 102.695C198.651 106.532 203.945 110.276 209.282 113.963C210.779 114.997 212.247 116.095 213.788 117.061C214.579 117.558 215.329 118.114 216.128 118.6C216.928 119.086 217.763 119.513 218.549 120.023C218.635 120.079 218.722 119.958 218.641 119.893C217.343 118.862 216.121 117.744 214.811 116.721Z" fill="#263238"/>
<path d="M167.931 113.346C166.186 118.213 165.016 123.279 163.927 128.327C163.386 130.832 162.972 133.363 162.567 135.893C162.17 138.379 161.835 140.953 161.779 143.473C161.778 143.567 161.913 143.568 161.936 143.486C162.642 141.041 163.148 138.498 163.641 136.003C164.138 133.49 164.687 130.989 165.178 128.475C166.159 123.448 167.336 118.454 168.171 113.4C168.199 113.238 167.983 113.2 167.931 113.346Z" fill="#263238"/>
<path opacity="0.1" d="M191.254 165.773C188.013 168.564 184.852 170.262 181.94 170.314C164.563 170.651 138.233 127.726 129.009 109.122C123.296 97.5995 122.947 87.0266 127.779 84.6182L191.254 165.773Z" fill="black"/>
<path d="M163.504 211.031H50.4714C49.9725 208.78 67.7508 109.735 105.871 81.856C114.328 75.6708 129.332 79.6484 133.506 85.6621C154.482 115.892 163.504 211.031 163.504 211.031Z" fill="#FFDE7D"/>
<path d="M103.366 82.5987C103.366 82.5987 113.347 126.437 114.376 130.22C115.405 134.003 119.098 211.031 119.098 211.031H49.4463C49.4463 211.031 65.1178 112.795 103.366 82.5987Z" fill="#4AA09B"/>
<path d="M133.506 85.6628C133.506 85.6628 137.867 119.231 138.389 121.213C138.912 123.194 153.188 211.03 153.188 211.03H164.041C164.041 211.03 154.579 109.467 133.506 85.6628Z" fill="#4AA09B"/>
<path d="M90.0075 95.3132C69.6347 124.001 40.1202 175.37 53.7219 184.516C76.0844 199.551 137.601 203.582 151.662 203.93C157.731 204.08 166.006 163.726 161.519 159.037C157.031 154.347 92.6348 156.87 91.8102 152.982C91.3431 150.778 99.2181 130.447 103.209 106.055C107.809 77.9304 95.7507 87.2263 90.0075 95.3132Z" fill="#EB9481"/>
<path d="M150.715 156.806C150.715 156.806 169.084 154.913 181.153 154.24C187.887 153.865 199.49 154.252 204.563 156.239C212.152 159.211 241.989 176.488 237.957 183.813C234.306 190.444 210.555 172.345 210.555 172.345C210.555 172.345 236.135 188.489 230.271 195.665C224.407 202.84 200.292 178.823 200.292 178.823C200.292 178.823 226.203 196 218.985 202.443C213.53 207.312 190.463 186.79 190.463 186.79C190.463 186.79 212.632 201.708 207.238 206.957C201.278 212.757 178.798 195.15 178.798 195.15C162.842 206.184 150.731 204.911 142.224 202.98C140.165 202.511 150.715 156.806 150.715 156.806Z" fill="#EB9481"/>
<path d="M202.067 166.195C205.14 167.982 208.263 169.771 211.167 171.826C214.071 173.88 216.906 176.038 219.606 178.354C226.228 184.033 229.485 188.626 229.253 188.364C223.763 182.174 213.482 174.657 210.576 172.602C207.678 170.552 204.883 168.356 201.985 166.302C201.912 166.251 201.994 166.152 202.067 166.195Z" fill="#263238"/>
<path d="M194.457 176.545C198.283 178.997 202.17 181.292 205.889 183.914C209.589 186.523 214.652 190.357 218.164 193.214C218.434 193.433 218.231 193.915 217.95 193.705C214.328 190.99 208.985 187.318 205.332 184.646C201.691 181.983 198.126 179.159 194.392 176.631C194.334 176.592 194.399 176.508 194.457 176.545Z" fill="#263238"/>
<path d="M186.328 184.255C192.366 187.704 197.762 192.262 202.947 196.861C203.204 197.09 202.927 197.155 202.649 196.936C197.204 192.641 192.963 189.233 186.208 184.466C186.102 184.391 186.201 184.182 186.328 184.255Z" fill="#263238"/>
<path d="M150.746 154.403L133.493 206.471C133.493 206.471 54.9002 196.462 49.0424 182.265C43.1855 168.068 66.6605 125.046 86.0992 98.6063C105.218 72.6006 106.838 90.179 103.284 109.231C99.7303 128.283 93.0375 150.481 94.1646 151.986C95.2926 153.491 150.746 154.403 150.746 154.403Z" fill="#4AA09B"/>
<path d="M123.894 199.058C124.508 197.568 125.093 196.067 125.674 194.564C126.853 191.519 128.018 188.47 129.176 185.417C131.476 179.348 133.601 173.225 135.661 167.073C136.83 163.58 138.127 160.109 139.143 156.569C139.192 156.396 138.954 156.31 138.881 156.474C137.544 159.45 136.435 162.536 135.231 165.566C134.023 168.602 132.794 171.622 131.642 174.681C129.356 180.752 127.176 186.859 125.062 192.991C124.469 194.711 123.807 196.422 123.292 198.166C123.027 199.061 122.693 199.933 122.441 200.833C122.188 201.735 122.001 202.653 121.722 203.548C121.691 203.645 121.832 203.696 121.872 203.602C122.515 202.073 123.262 200.596 123.894 199.058Z" fill="#263238"/>
<path d="M134.867 202.891L133.646 206.528L133.607 206.642L133.476 206.63C126.059 205.955 118.672 205.015 111.311 203.881C103.954 202.73 96.6221 201.392 89.3417 199.783C82.0699 198.153 74.8266 196.308 67.7668 193.844C64.239 192.614 60.7552 191.219 57.4274 189.487C55.773 188.605 54.1582 187.636 52.664 186.495C51.1914 185.352 49.786 183.991 49.0449 182.263C49.9454 183.908 51.4163 185.1 52.9216 186.138C54.458 187.155 56.103 188 57.785 188.757C61.1473 190.281 64.6501 191.487 68.1778 192.598C75.2514 194.778 82.4646 196.524 89.7096 198.112C96.9564 199.701 104.245 201.123 111.551 202.462C118.856 203.806 126.177 205.098 133.514 206.31L133.344 206.412L134.867 202.891Z" fill="#263238"/>
<path d="M150.075 156.435L150.66 154.374L150.747 154.497C142.979 154.699 135.211 154.79 127.442 154.715C119.673 154.647 111.907 154.482 104.133 154.067C102.189 153.949 100.246 153.822 98.2942 153.633C97.3153 153.534 96.3442 153.435 95.3377 153.254C95.0844 153.208 94.8328 153.158 94.5544 153.082C94.4252 153.051 94.2675 152.996 94.1055 152.933C94.0349 152.909 93.8892 152.825 93.791 152.762C93.7643 152.756 93.6109 152.622 93.5282 152.501C93.4825 152.438 93.4429 152.371 93.411 152.304C93.3834 152.243 93.3912 152.238 93.38 152.202C93.2585 151.653 93.33 151.47 93.33 151.167C93.3584 150.912 93.3774 150.644 93.4162 150.4C94.0254 146.475 94.9207 142.723 95.8228 138.931C97.6324 131.371 99.6651 123.871 101.843 116.411L97.118 139.219C96.3717 143.012 95.517 146.835 95.0198 150.597C94.987 150.833 94.9793 151.051 94.9569 151.278C94.9431 151.459 94.9612 151.765 94.9457 151.694C94.9422 151.686 94.9448 151.715 94.9345 151.678C94.9224 151.635 94.9017 151.591 94.8759 151.551C94.8336 151.474 94.7104 151.397 94.7432 151.414C94.7526 151.406 94.7061 151.396 94.7509 151.411C94.8164 151.433 94.8871 151.462 94.9939 151.486C95.1835 151.538 95.4084 151.582 95.6333 151.62C96.538 151.777 97.5006 151.872 98.4536 151.961C100.367 152.132 102.299 152.247 104.231 152.35C108.096 152.564 111.971 152.734 115.846 152.872L127.477 153.319C135.233 153.594 142.992 153.94 150.751 154.309L150.883 154.315L150.839 154.431L150.075 156.435Z" fill="#263238"/>
<path d="M103.136 121.103C102.715 122.471 102.101 123.746 101.419 124.983C100.718 126.205 99.9577 127.419 98.9297 128.424C99.5337 127.133 100.171 125.895 100.856 124.667C101.551 123.447 102.264 122.237 103.136 121.103Z" fill="#263238"/>
<path d="M128.026 101.083C121.47 102.949 109.636 93.3364 104.772 85.3322C104.442 84.7815 105.76 62.1683 105.557 57.66C105.511 56.7345 134.143 63.2506 134.143 63.2506C134.143 63.2506 131.79 72.8265 132.194 80.6842C132.235 81.34 134.362 99.2742 128.026 101.083Z" fill="#EB9481"/>
<path d="M105.161 71.8209C118.544 81.2701 131.58 77.6415 132.167 77.4718C132.376 70.4404 134.145 63.2479 134.145 63.2479C134.145 63.2479 105.509 56.731 105.558 57.6582C105.651 59.7779 105.414 65.8804 105.161 71.8209Z" fill="#263238"/>
<path d="M132.629 41.6876C133.363 48.3605 138.703 53.2471 144.557 52.6034C150.411 51.9597 154.562 46.0287 153.828 39.3567C153.094 32.6847 147.754 27.7972 141.9 28.4409C136.046 29.0845 131.895 35.0155 132.629 41.6876Z" fill="#455A64"/>
<path d="M129.241 42.4864C130.057 49.909 135.999 55.3462 142.51 54.6302C149.022 53.9141 153.64 47.3162 152.824 39.8936C152.008 32.471 146.066 27.0338 139.555 27.7499C133.043 28.4659 128.425 35.0638 129.241 42.4864Z" fill="#C7C7C7"/>
<path d="M101.604 23.6908C98.4801 33.7079 103.604 62.7313 110.702 69.2387C120.993 78.6724 137.93 79.672 145.967 67.2809C153.758 55.2708 146.411 17.5642 138.474 11.6419C126.783 2.91816 106.217 8.89309 101.604 23.6908Z" fill="#EB9481"/>
<path d="M125.726 41.9127C125.697 41.8421 125.592 42.0342 125.61 42.1144C126.045 44.0523 126.217 46.3452 124.577 47.3293C124.526 47.3603 124.551 47.4568 124.614 47.4353C126.708 46.7201 126.449 43.6792 125.726 41.9127Z" fill="#263238"/>
<path d="M123.596 40.211C120.414 40.573 121.373 46.9098 124.32 46.5737C127.221 46.2429 126.263 39.9069 123.596 40.211Z" fill="#263238"/>
<path d="M137.01 40.3894C137.014 40.3118 137.177 40.4592 137.188 40.5393C137.422 42.5117 138.023 44.7306 139.897 45.114C139.956 45.1261 139.965 45.226 139.898 45.226C137.685 45.2493 136.916 42.2954 137.01 40.3894Z" fill="#263238"/>
<path d="M138.454 38.074C141.574 37.3571 142.78 43.6508 139.889 44.3152C137.043 44.9692 135.838 38.6755 138.454 38.074Z" fill="#263238"/>
<path d="M120.657 37.6913C121.486 37.3431 122.194 36.8847 122.98 36.4556C123.865 35.9713 124.621 35.6775 125.109 34.7434C125.37 34.2428 125.111 33.4535 124.648 33.1545C123.57 32.4565 122.338 32.7796 121.247 33.3191C120.063 33.9041 119.301 34.6573 118.754 35.8559C118.224 37.0174 119.562 38.1497 120.657 37.6913Z" fill="#263238"/>
<path d="M140.421 34.5125C139.52 34.5022 138.692 34.3428 137.804 34.2403C136.8 34.1248 135.99 34.136 135.188 33.4535C134.757 33.0873 134.702 32.2592 135.018 31.8068C135.755 30.7556 137.018 30.5919 138.231 30.6815C139.548 30.7789 140.537 31.1907 141.494 32.0964C142.422 32.9744 141.607 34.5272 140.421 34.5125Z" fill="#263238"/>
<path d="M126.802 60.3124C127.341 60.701 127.907 61.2628 128.628 61.2146C129.32 61.1689 130.074 60.7389 130.663 60.4012C130.721 60.3684 130.794 60.4244 130.764 60.4891C130.368 61.3197 129.368 61.9539 128.434 61.9315C127.521 61.9108 126.966 61.2094 126.628 60.4287C126.58 60.321 126.723 60.2564 126.802 60.3124Z" fill="#263238"/>
<path d="M127.976 54.1237C129.333 55.661 131.089 56.3486 132.887 56.4227C133.691 56.4615 134.515 56.3641 135.307 56.1694C135.465 56.1418 135.62 56.1004 135.759 56.047C135.899 56.0082 136.026 55.972 136.179 55.916C136.403 55.8479 136.5 55.6394 136.506 55.4171L136.503 55.4024C136.491 55.3309 136.482 55.2732 136.454 55.2043C136.454 55.2043 136.454 55.2043 136.453 55.1896L136.423 55.0181C136.236 53.5007 135.742 51.225 135.742 51.225C136.336 51.418 139.343 52.259 139.179 51.4757C137.8 44.9984 136.267 37.7956 133.526 31.6414C133.446 31.4338 133.124 31.5337 133.176 31.7457C134.254 38.0231 136.43 44.0678 137.614 50.3564C136.665 50.1513 135.103 49.7403 134.315 49.8765C134.11 49.9704 135.349 54.2581 135.378 54.9466C135.378 54.9466 135.383 54.9759 135.376 55.0207C132.887 55.729 130.857 55.2517 128.134 53.9195C127.97 53.8299 127.835 53.9858 127.976 54.1237Z" fill="#263238"/>
<path d="M134.3 55.5377C134.3 55.5377 133.233 57.548 131.498 58.4786C130.858 58.8233 130.145 59.0292 129.351 58.9413C127.722 58.7664 127.465 57.3343 127.566 56.0598C127.646 55.012 127.984 54.0693 127.984 54.0693C127.984 54.0693 130.595 55.866 134.3 55.5377Z" fill="#263238"/>
<path d="M131.496 58.4786C130.857 58.8233 130.144 59.0292 129.35 58.9413C127.72 58.7664 127.464 57.3343 127.565 56.0598C129.272 55.978 131.107 56.8664 131.496 58.4786Z" fill="#FF99BA"/>
<path d="M102.437 49.1673C109.682 47.7644 108.589 34.3351 108.589 34.3351C108.589 34.3351 120.651 29.9292 120.68 20.2146C120.68 20.2146 133.928 25.5131 142.579 20.3775C151.228 15.2418 147.282 5.10666 145.825 3.05412C144.37 1.00158 140.012 6.15447 140.012 6.15447C140.012 6.15447 138.293 0.320855 136.589 0.0166794C134.885 -0.287496 133.843 3.6392 133.843 3.6392C133.843 3.6392 121.111 1.89774 110.309 4.27082C99.5072 6.64391 96.2104 18.6127 96.2104 18.6127C96.2104 18.6127 90.6379 20.9488 89.5289 25.3744C88.4182 29.8009 97.8183 50.0617 102.437 49.1673Z" fill="#263238"/>
<path d="M105.675 34.9829C115.546 34.4314 120.717 26.8202 120.363 17.3295C120.359 17.2124 120.527 17.1917 120.546 17.3097C121.902 25.9542 115.698 37.0544 105.664 35.4258C105.422 35.387 105.417 34.9976 105.675 34.9829Z" fill="#263238"/>
<path d="M96.4372 18.3887C96.544 18.3413 96.6319 18.4999 96.5371 18.5671C94.0804 20.3284 91.1714 21.8518 89.7436 24.6678C88.0185 28.0689 89.2507 31.8663 90.7457 35.077C93.0611 40.0498 97.0438 46.3246 102.297 48.5081C102.6 48.6339 102.395 49.0768 102.092 48.9691C95.8615 46.7304 90.9301 38.5444 88.9887 32.5402C86.8138 25.819 90.3545 21.0832 96.4372 18.3887Z" fill="#263238"/>
<path d="M131.737 20.8971C136.463 22.6463 142.781 21.5597 146.383 17.8648C150.771 13.3633 148.588 7.73048 145.47 3.28159C145.317 3.06272 145.614 2.73959 145.822 2.94209C149.634 6.65251 151.113 13.1057 147.67 17.5727C144.111 22.1896 136.654 23.4769 131.444 21.5554C131.008 21.396 131.303 20.7359 131.737 20.8971Z" fill="#263238"/>
<path d="M107.654 47.3554C107.654 47.3554 100.968 38.0724 96.747 40.4696C92.5256 42.8668 97.6458 56.3867 102.665 58.1756C107.685 59.9644 109.432 55.3501 109.432 55.3501L107.654 47.3554Z" fill="#EB9481"/>
<path d="M98.3111 44.3085C98.231 44.3024 98.2172 44.4153 98.287 44.4429C101.809 45.8121 103.698 49.0331 105.035 52.3816C103.975 51.1003 102.548 50.4101 100.829 51.6741C100.739 51.7405 100.828 51.8827 100.926 51.8603C102.357 51.5328 103.395 51.7663 104.38 52.9021C105.078 53.706 105.56 54.728 106.065 55.6603C106.233 55.9714 106.797 55.7956 106.672 55.4371C106.663 55.4104 106.652 55.3829 106.643 55.357C106.669 50.89 103.111 44.691 98.3111 44.3085Z" fill="#263238"/>
<path d="M100.356 40.7986C100.356 40.7986 96.7393 26.386 99.5553 17.5649C102.69 7.74513 115.636 -0.984617 133.844 3.64005C133.844 3.64005 112.97 4.21652 105.44 17.1634C101.977 23.1176 105.298 40.3048 105.298 40.3048L100.356 40.7986Z" fill="#C7C7C7"/>
<path d="M115.355 45.6972C116.776 53.1172 112.65 60.1433 106.14 61.3893C99.6302 62.6362 93.2012 57.6307 91.7803 50.2107C90.3594 42.7907 94.4851 35.7645 100.994 34.5177C107.505 33.2717 113.934 38.2763 115.355 45.6972Z" fill="#C7C7C7"/>
<path d="M111.84 45.9334C113.117 52.6037 109.409 58.919 103.557 60.0392C97.7057 61.1594 91.9264 56.6605 90.6493 49.991C89.3723 43.3216 93.081 37.0054 98.9319 35.8852C104.784 34.7651 110.563 39.2639 111.84 45.9334Z" fill="#455A64"/>
<path d="M262.43 206.433H147.418V211.591H262.43V206.433Z" fill="#E0E0E0"/>
<path d="M262.43 206.433H204.542V211.591H262.43V206.433Z" fill="#37474F"/>
<path d="M208.055 211.587H320.143L334.798 135.46H222.71L208.055 211.587Z" fill="#ACAFB4"/>
<path d="M212.615 211.587H324.703L339.358 135.46H227.27L212.615 211.587Z" fill="#E0E0E0"/>
<path d="M269.163 173.524C268.833 177.292 271.621 180.347 275.389 180.347C279.157 180.347 282.479 177.292 282.809 173.524C283.139 169.756 280.351 166.701 276.583 166.701C272.815 166.701 269.493 169.756 269.163 173.524Z" fill="white"/>
<path d="M25.2193 280.879L29.6833 272.455H32.0113L26.2993 282.943V289.591H24.1393V283.039L18.4273 272.455H20.7793L25.2193 280.879ZM44.0497 283.135C44.0497 284.207 43.9057 285.159 43.6177 285.991C43.3457 286.807 42.9457 287.503 42.4177 288.079C41.9057 288.655 41.2737 289.095 40.5217 289.399C39.7857 289.687 38.9617 289.831 38.0497 289.831C37.2017 289.831 36.4177 289.687 35.6977 289.399C34.9777 289.095 34.3537 288.655 33.8257 288.079C33.2977 287.503 32.8817 286.807 32.5777 285.991C32.2897 285.159 32.1457 284.207 32.1457 283.135C32.1457 281.711 32.3857 280.511 32.8657 279.535C33.3457 278.543 34.0337 277.791 34.9297 277.279C35.8257 276.751 36.8897 276.487 38.1217 276.487C39.2897 276.487 40.3137 276.751 41.1937 277.279C42.0897 277.791 42.7857 278.543 43.2817 279.535C43.7937 280.511 44.0497 281.711 44.0497 283.135ZM34.3297 283.135C34.3297 284.143 34.4577 285.023 34.7137 285.775C34.9857 286.511 35.4017 287.079 35.9617 287.479C36.5217 287.879 37.2337 288.079 38.0977 288.079C38.9617 288.079 39.6737 287.879 40.2337 287.479C40.7937 287.079 41.2017 286.511 41.4577 285.775C41.7297 285.023 41.8657 284.143 41.8657 283.135C41.8657 282.111 41.7297 281.239 41.4577 280.519C41.1857 279.799 40.7697 279.247 40.2097 278.863C39.6657 278.463 38.9537 278.263 38.0737 278.263C36.7617 278.263 35.8097 278.695 35.2177 279.559C34.6257 280.423 34.3297 281.615 34.3297 283.135ZM58.149 276.727V289.591H56.421L56.109 287.887H56.013C55.741 288.335 55.389 288.703 54.957 288.991C54.525 289.279 54.053 289.487 53.541 289.615C53.029 289.759 52.493 289.831 51.933 289.831C50.909 289.831 50.045 289.671 49.341 289.351C48.653 289.015 48.133 288.503 47.781 287.815C47.429 287.127 47.253 286.239 47.253 285.151V276.727H49.389V285.007C49.389 286.031 49.621 286.799 50.085 287.311C50.549 287.823 51.269 288.079 52.245 288.079C53.205 288.079 53.957 287.903 54.501 287.551C55.061 287.183 55.453 286.655 55.677 285.967C55.917 285.263 56.037 284.415 56.037 283.423V276.727H58.149ZM64.1049 272.719C63.9609 273.279 63.7769 273.887 63.5529 274.543C63.3289 275.199 63.0809 275.855 62.8089 276.511C62.5529 277.151 62.2969 277.759 62.0409 278.335H60.4809C60.5929 277.887 60.7049 277.407 60.8169 276.895C60.9449 276.383 61.0569 275.871 61.1529 275.359C61.2649 274.831 61.3609 274.319 61.4409 273.823C61.5369 273.327 61.6169 272.871 61.6809 272.455H63.9369L64.1049 272.719ZM71.7017 276.487C71.9417 276.487 72.1977 276.503 72.4697 276.535C72.7577 276.551 73.0057 276.583 73.2137 276.631L72.9497 278.575C72.7417 278.527 72.5097 278.487 72.2537 278.455C72.0137 278.423 71.7817 278.407 71.5577 278.407C71.0617 278.407 70.5897 278.511 70.1417 278.719C69.6937 278.927 69.2937 279.223 68.9417 279.607C68.5897 279.975 68.3097 280.423 68.1017 280.951C67.9097 281.479 67.8137 282.071 67.8137 282.727V289.591H65.7017V276.727H67.4297L67.6697 279.079H67.7657C68.0377 278.599 68.3657 278.167 68.7497 277.783C69.1337 277.383 69.5737 277.071 70.0697 276.847C70.5657 276.607 71.1097 276.487 71.7017 276.487ZM80.115 276.487C81.219 276.487 82.163 276.727 82.947 277.207C83.747 277.687 84.355 278.367 84.771 279.247C85.203 280.111 85.419 281.127 85.419 282.295V283.567H76.611C76.643 285.023 77.011 286.135 77.715 286.903C78.435 287.655 79.435 288.031 80.715 288.031C81.531 288.031 82.251 287.959 82.875 287.815C83.515 287.655 84.171 287.431 84.843 287.143V288.991C84.187 289.279 83.539 289.487 82.899 289.615C82.259 289.759 81.499 289.831 80.619 289.831C79.403 289.831 78.323 289.583 77.379 289.087C76.451 288.591 75.723 287.855 75.195 286.879C74.683 285.887 74.427 284.679 74.427 283.255C74.427 281.847 74.659 280.639 75.123 279.631C75.603 278.623 76.267 277.847 77.115 277.303C77.979 276.759 78.979 276.487 80.115 276.487ZM80.091 278.215C79.083 278.215 78.283 278.543 77.691 279.199C77.115 279.839 76.771 280.735 76.659 281.887H83.211C83.211 281.151 83.099 280.511 82.875 279.967C82.651 279.423 82.307 278.999 81.843 278.695C81.395 278.375 80.811 278.215 80.091 278.215ZM103.304 286.039C103.304 286.871 103.096 287.567 102.68 288.127C102.264 288.687 101.672 289.111 100.904 289.399C100.136 289.687 99.2242 289.831 98.1682 289.831C97.2722 289.831 96.4962 289.759 95.8402 289.615C95.2002 289.471 94.6322 289.271 94.1362 289.015V287.095C94.6482 287.351 95.2642 287.591 95.9842 287.815C96.7202 288.023 97.4642 288.127 98.2162 288.127C99.2882 288.127 100.064 287.959 100.544 287.623C101.024 287.271 101.264 286.807 101.264 286.231C101.264 285.911 101.176 285.623 101 285.367C100.824 285.111 100.504 284.855 100.04 284.599C99.5922 284.343 98.9442 284.055 98.0962 283.735C97.2642 283.415 96.5522 283.095 95.9602 282.775C95.3682 282.455 94.9122 282.071 94.5922 281.623C94.2722 281.175 94.1122 280.599 94.1122 279.895C94.1122 278.807 94.5522 277.967 95.4322 277.375C96.3282 276.783 97.4962 276.487 98.9362 276.487C99.7202 276.487 100.448 276.567 101.12 276.727C101.808 276.871 102.448 277.079 103.04 277.351L102.32 279.031C101.968 278.871 101.592 278.735 101.192 278.623C100.808 278.495 100.416 278.399 100.016 278.335C99.6162 278.255 99.2082 278.215 98.7922 278.215C97.9282 278.215 97.2642 278.359 96.8002 278.647C96.3522 278.919 96.1282 279.295 96.1282 279.775C96.1282 280.127 96.2322 280.431 96.4402 280.687C96.6482 280.927 96.9922 281.167 97.4722 281.407C97.9682 281.631 98.6242 281.903 99.4402 282.223C100.256 282.527 100.952 282.839 101.528 283.159C102.104 283.479 102.544 283.871 102.848 284.335C103.152 284.783 103.304 285.351 103.304 286.039ZM117.165 276.727V289.591H115.437L115.125 287.887H115.029C114.757 288.335 114.405 288.703 113.973 288.991C113.541 289.279 113.069 289.487 112.557 289.615C112.045 289.759 111.509 289.831 110.949 289.831C109.925 289.831 109.061 289.671 108.357 289.351C107.669 289.015 107.149 288.503 106.797 287.815C106.445 287.127 106.269 286.239 106.269 285.151V276.727H108.405V285.007C108.405 286.031 108.637 286.799 109.101 287.311C109.565 287.823 110.285 288.079 111.261 288.079C112.221 288.079 112.973 287.903 113.517 287.551C114.077 287.183 114.469 286.655 114.693 285.967C114.933 285.263 115.053 284.415 115.053 283.423V276.727H117.165ZM126.409 289.831C125.273 289.831 124.257 289.599 123.361 289.135C122.481 288.671 121.785 287.951 121.273 286.975C120.777 285.999 120.529 284.751 120.529 283.231C120.529 281.647 120.793 280.359 121.321 279.367C121.849 278.375 122.561 277.647 123.457 277.183C124.369 276.719 125.401 276.487 126.553 276.487C127.209 276.487 127.841 276.559 128.449 276.703C129.057 276.831 129.553 276.991 129.937 277.183L129.289 278.935C128.905 278.791 128.457 278.655 127.945 278.527C127.433 278.399 126.953 278.335 126.505 278.335C125.641 278.335 124.929 278.519 124.369 278.887C123.809 279.255 123.393 279.799 123.121 280.519C122.849 281.239 122.713 282.135 122.713 283.207C122.713 284.231 122.849 285.103 123.121 285.823C123.393 286.543 123.801 287.087 124.345 287.455C124.889 287.823 125.569 288.007 126.385 288.007C127.089 288.007 127.705 287.935 128.233 287.791C128.777 287.647 129.273 287.471 129.721 287.263V289.135C129.289 289.359 128.809 289.527 128.281 289.639C127.769 289.767 127.145 289.831 126.409 289.831ZM137.94 289.831C136.804 289.831 135.788 289.599 134.892 289.135C134.012 288.671 133.316 287.951 132.804 286.975C132.308 285.999 132.06 284.751 132.06 283.231C132.06 281.647 132.324 280.359 132.852 279.367C133.38 278.375 134.092 277.647 134.988 277.183C135.9 276.719 136.932 276.487 138.084 276.487C138.74 276.487 139.372 276.559 139.98 276.703C140.588 276.831 141.084 276.991 141.468 277.183L140.82 278.935C140.436 278.791 139.988 278.655 139.476 278.527C138.964 278.399 138.484 278.335 138.036 278.335C137.172 278.335 136.46 278.519 135.9 278.887C135.34 279.255 134.924 279.799 134.652 280.519C134.38 281.239 134.244 282.135 134.244 283.207C134.244 284.231 134.38 285.103 134.652 285.823C134.924 286.543 135.332 287.087 135.876 287.455C136.42 287.823 137.1 288.007 137.916 288.007C138.62 288.007 139.236 287.935 139.764 287.791C140.308 287.647 140.804 287.471 141.252 287.263V289.135C140.82 289.359 140.34 289.527 139.812 289.639C139.3 289.767 138.676 289.831 137.94 289.831ZM149.279 276.487C150.383 276.487 151.327 276.727 152.111 277.207C152.911 277.687 153.519 278.367 153.935 279.247C154.367 280.111 154.583 281.127 154.583 282.295V283.567H145.775C145.807 285.023 146.175 286.135 146.879 286.903C147.599 287.655 148.599 288.031 149.879 288.031C150.695 288.031 151.415 287.959 152.039 287.815C152.679 287.655 153.335 287.431 154.007 287.143V288.991C153.351 289.279 152.703 289.487 152.063 289.615C151.423 289.759 150.663 289.831 149.783 289.831C148.567 289.831 147.487 289.583 146.543 289.087C145.615 288.591 144.887 287.855 144.359 286.879C143.847 285.887 143.591 284.679 143.591 283.255C143.591 281.847 143.823 280.639 144.287 279.631C144.767 278.623 145.431 277.847 146.279 277.303C147.143 276.759 148.143 276.487 149.279 276.487ZM149.255 278.215C148.247 278.215 147.447 278.543 146.855 279.199C146.279 279.839 145.935 280.735 145.823 281.887H152.375C152.375 281.151 152.263 280.511 152.039 279.967C151.815 279.423 151.471 278.999 151.007 278.695C150.559 278.375 149.975 278.215 149.255 278.215ZM166.234 286.039C166.234 286.871 166.026 287.567 165.61 288.127C165.194 288.687 164.602 289.111 163.834 289.399C163.066 289.687 162.154 289.831 161.098 289.831C160.202 289.831 159.426 289.759 158.77 289.615C158.13 289.471 157.562 289.271 157.066 289.015V287.095C157.578 287.351 158.194 287.591 158.914 287.815C159.65 288.023 160.394 288.127 161.146 288.127C162.218 288.127 162.994 287.959 163.474 287.623C163.954 287.271 164.194 286.807 164.194 286.231C164.194 285.911 164.106 285.623 163.93 285.367C163.754 285.111 163.434 284.855 162.97 284.599C162.522 284.343 161.874 284.055 161.026 283.735C160.194 283.415 159.482 283.095 158.89 282.775C158.298 282.455 157.842 282.071 157.522 281.623C157.202 281.175 157.042 280.599 157.042 279.895C157.042 278.807 157.482 277.967 158.362 277.375C159.258 276.783 160.426 276.487 161.866 276.487C162.65 276.487 163.378 276.567 164.05 276.727C164.738 276.871 165.378 277.079 165.97 277.351L165.25 279.031C164.898 278.871 164.522 278.735 164.122 278.623C163.738 278.495 163.346 278.399 162.946 278.335C162.546 278.255 162.138 278.215 161.722 278.215C160.858 278.215 160.194 278.359 159.73 278.647C159.282 278.919 159.058 279.295 159.058 279.775C159.058 280.127 159.162 280.431 159.37 280.687C159.578 280.927 159.922 281.167 160.402 281.407C160.898 281.631 161.554 281.903 162.37 282.223C163.186 282.527 163.882 282.839 164.458 283.159C165.034 283.479 165.474 283.871 165.778 284.335C166.082 284.783 166.234 285.351 166.234 286.039ZM177.718 286.039C177.718 286.871 177.51 287.567 177.094 288.127C176.678 288.687 176.086 289.111 175.318 289.399C174.55 289.687 173.638 289.831 172.582 289.831C171.686 289.831 170.91 289.759 170.254 289.615C169.614 289.471 169.046 289.271 168.55 289.015V287.095C169.062 287.351 169.678 287.591 170.398 287.815C171.134 288.023 171.878 288.127 172.63 288.127C173.702 288.127 174.478 287.959 174.958 287.623C175.438 287.271 175.678 286.807 175.678 286.231C175.678 285.911 175.59 285.623 175.414 285.367C175.238 285.111 174.918 284.855 174.454 284.599C174.006 284.343 173.358 284.055 172.51 283.735C171.678 283.415 170.966 283.095 170.374 282.775C169.782 282.455 169.326 282.071 169.006 281.623C168.686 281.175 168.526 280.599 168.526 279.895C168.526 278.807 168.966 277.967 169.846 277.375C170.742 276.783 171.91 276.487 173.35 276.487C174.134 276.487 174.862 276.567 175.534 276.727C176.222 276.871 176.862 277.079 177.454 277.351L176.734 279.031C176.382 278.871 176.006 278.735 175.606 278.623C175.222 278.495 174.83 278.399 174.43 278.335C174.03 278.255 173.622 278.215 173.206 278.215C172.342 278.215 171.678 278.359 171.214 278.647C170.766 278.919 170.542 279.295 170.542 279.775C170.542 280.127 170.646 280.431 170.854 280.687C171.062 280.927 171.406 281.167 171.886 281.407C172.382 281.631 173.038 281.903 173.854 282.223C174.67 282.527 175.366 282.839 175.942 283.159C176.518 283.479 176.958 283.871 177.262 284.335C177.566 284.783 177.718 285.351 177.718 286.039ZM186.755 278.359H183.515V289.591H181.403V278.359H179.147V277.375L181.403 276.655V275.911C181.403 274.807 181.563 273.911 181.883 273.223C182.219 272.535 182.699 272.031 183.323 271.711C183.947 271.391 184.699 271.231 185.579 271.231C186.091 271.231 186.555 271.279 186.971 271.375C187.403 271.455 187.771 271.551 188.075 271.663L187.523 273.319C187.267 273.239 186.971 273.159 186.635 273.079C186.299 272.999 185.955 272.959 185.603 272.959C184.899 272.959 184.371 273.199 184.019 273.679C183.683 274.143 183.515 274.879 183.515 275.887V276.727H186.755V278.359ZM199.829 276.727V289.591H198.101L197.789 287.887H197.693C197.421 288.335 197.069 288.703 196.637 288.991C196.205 289.279 195.733 289.487 195.221 289.615C194.709 289.759 194.173 289.831 193.613 289.831C192.589 289.831 191.725 289.671 191.021 289.351C190.333 289.015 189.813 288.503 189.461 287.815C189.109 287.127 188.933 286.239 188.933 285.151V276.727H191.069V285.007C191.069 286.031 191.301 286.799 191.765 287.311C192.229 287.823 192.949 288.079 193.925 288.079C194.885 288.079 195.637 287.903 196.181 287.551C196.741 287.183 197.133 286.655 197.357 285.967C197.597 285.263 197.717 284.415 197.717 283.423V276.727H199.829ZM206.025 289.591H203.913V271.351H206.025V289.591ZM212.212 289.591H210.1V271.351H212.212V289.591ZM214.272 276.727H216.528L219.312 284.047C219.472 284.479 219.616 284.895 219.744 285.295C219.888 285.695 220.016 286.087 220.128 286.471C220.24 286.839 220.328 287.199 220.392 287.551H220.488C220.584 287.151 220.736 286.631 220.944 285.991C221.152 285.335 221.368 284.679 221.592 284.023L224.208 276.727H226.488L220.944 291.367C220.64 292.167 220.28 292.863 219.864 293.455C219.464 294.063 218.968 294.527 218.376 294.847C217.8 295.183 217.096 295.351 216.264 295.351C215.88 295.351 215.544 295.327 215.256 295.279C214.968 295.247 214.72 295.207 214.512 295.159V293.479C214.688 293.511 214.896 293.543 215.136 293.575C215.392 293.607 215.656 293.623 215.928 293.623C216.424 293.623 216.848 293.527 217.2 293.335C217.568 293.159 217.88 292.895 218.136 292.543C218.392 292.207 218.608 291.807 218.784 291.343L219.456 289.639L214.272 276.727ZM236.868 289.591H234.756V271.351H236.868V289.591ZM252.128 283.135C252.128 284.207 251.984 285.159 251.696 285.991C251.424 286.807 251.024 287.503 250.496 288.079C249.984 288.655 249.352 289.095 248.6 289.399C247.864 289.687 247.04 289.831 246.128 289.831C245.28 289.831 244.496 289.687 243.776 289.399C243.056 289.095 242.432 288.655 241.904 288.079C241.376 287.503 240.96 286.807 240.656 285.991C240.368 285.159 240.224 284.207 240.224 283.135C240.224 281.711 240.464 280.511 240.944 279.535C241.424 278.543 242.112 277.791 243.008 277.279C243.904 276.751 244.968 276.487 246.2 276.487C247.368 276.487 248.392 276.751 249.272 277.279C250.168 277.791 250.864 278.543 251.36 279.535C251.872 280.511 252.128 281.711 252.128 283.135ZM242.408 283.135C242.408 284.143 242.536 285.023 242.792 285.775C243.064 286.511 243.48 287.079 244.04 287.479C244.6 287.879 245.312 288.079 246.176 288.079C247.04 288.079 247.752 287.879 248.312 287.479C248.872 287.079 249.28 286.511 249.536 285.775C249.808 285.023 249.944 284.143 249.944 283.135C249.944 282.111 249.808 281.239 249.536 280.519C249.264 279.799 248.848 279.247 248.288 278.863C247.744 278.463 247.032 278.263 246.152 278.263C244.84 278.263 243.888 278.695 243.296 279.559C242.704 280.423 242.408 281.615 242.408 283.135ZM260.035 276.487C260.883 276.487 261.643 276.647 262.315 276.967C263.003 277.287 263.587 277.775 264.067 278.431H264.187L264.475 276.727H266.155V289.807C266.155 291.023 265.947 292.039 265.531 292.855C265.115 293.687 264.483 294.311 263.635 294.727C262.787 295.143 261.707 295.351 260.395 295.351C259.467 295.351 258.611 295.279 257.827 295.135C257.059 295.007 256.371 294.807 255.763 294.535V292.591C256.179 292.799 256.635 292.975 257.131 293.119C257.627 293.279 258.163 293.399 258.739 293.479C259.315 293.559 259.907 293.599 260.515 293.599C261.619 293.599 262.483 293.271 263.107 292.615C263.747 291.975 264.067 291.095 264.067 289.975V289.471C264.067 289.279 264.075 289.007 264.091 288.655C264.107 288.287 264.123 288.031 264.139 287.887H264.043C263.595 288.543 263.035 289.031 262.363 289.351C261.707 289.671 260.939 289.831 260.059 289.831C258.395 289.831 257.091 289.247 256.147 288.079C255.219 286.911 254.755 285.279 254.755 283.183C254.755 281.807 254.963 280.623 255.379 279.631C255.811 278.623 256.419 277.847 257.203 277.303C257.987 276.759 258.931 276.487 260.035 276.487ZM260.323 278.263C259.603 278.263 258.987 278.455 258.475 278.839C257.979 279.223 257.595 279.783 257.323 280.519C257.067 281.255 256.939 282.151 256.939 283.207C256.939 284.791 257.227 286.007 257.803 286.855C258.395 287.687 259.251 288.103 260.371 288.103C261.027 288.103 261.587 288.023 262.051 287.863C262.515 287.687 262.899 287.423 263.203 287.071C263.507 286.703 263.731 286.239 263.875 285.679C264.019 285.119 264.091 284.455 264.091 283.687V283.183C264.091 282.015 263.955 281.071 263.683 280.351C263.427 279.631 263.019 279.103 262.459 278.767C261.899 278.431 261.187 278.263 260.323 278.263ZM274.801 276.487C275.649 276.487 276.409 276.647 277.081 276.967C277.769 277.287 278.353 277.775 278.833 278.431H278.953L279.241 276.727H280.921V289.807C280.921 291.023 280.713 292.039 280.297 292.855C279.881 293.687 279.249 294.311 278.401 294.727C277.553 295.143 276.473 295.351 275.161 295.351C274.233 295.351 273.377 295.279 272.593 295.135C271.825 295.007 271.137 294.807 270.529 294.535V292.591C270.945 292.799 271.401 292.975 271.897 293.119C272.393 293.279 272.929 293.399 273.505 293.479C274.081 293.559 274.673 293.599 275.281 293.599C276.385 293.599 277.249 293.271 277.873 292.615C278.513 291.975 278.833 291.095 278.833 289.975V289.471C278.833 289.279 278.841 289.007 278.857 288.655C278.873 288.287 278.889 288.031 278.905 287.887H278.809C278.361 288.543 277.801 289.031 277.129 289.351C276.473 289.671 275.705 289.831 274.825 289.831C273.161 289.831 271.857 289.247 270.913 288.079C269.985 286.911 269.521 285.279 269.521 283.183C269.521 281.807 269.729 280.623 270.145 279.631C270.577 278.623 271.185 277.847 271.969 277.303C272.753 276.759 273.697 276.487 274.801 276.487ZM275.089 278.263C274.369 278.263 273.753 278.455 273.241 278.839C272.745 279.223 272.361 279.783 272.089 280.519C271.833 281.255 271.705 282.151 271.705 283.207C271.705 284.791 271.993 286.007 272.569 286.855C273.161 287.687 274.017 288.103 275.137 288.103C275.793 288.103 276.353 288.023 276.817 287.863C277.281 287.687 277.665 287.423 277.969 287.071C278.273 286.703 278.497 286.239 278.641 285.679C278.785 285.119 278.857 284.455 278.857 283.687V283.183C278.857 282.015 278.721 281.071 278.449 280.351C278.193 279.631 277.785 279.103 277.225 278.767C276.665 278.431 275.953 278.263 275.089 278.263ZM289.974 276.487C291.078 276.487 292.022 276.727 292.806 277.207C293.606 277.687 294.214 278.367 294.63 279.247C295.062 280.111 295.278 281.127 295.278 282.295V283.567H286.47C286.502 285.023 286.87 286.135 287.574 286.903C288.294 287.655 289.294 288.031 290.574 288.031C291.39 288.031 292.11 287.959 292.734 287.815C293.374 287.655 294.03 287.431 294.702 287.143V288.991C294.046 289.279 293.398 289.487 292.758 289.615C292.118 289.759 291.358 289.831 290.478 289.831C289.262 289.831 288.182 289.583 287.238 289.087C286.31 288.591 285.582 287.855 285.054 286.879C284.542 285.887 284.286 284.679 284.286 283.255C284.286 281.847 284.518 280.639 284.982 279.631C285.462 278.623 286.126 277.847 286.974 277.303C287.838 276.759 288.838 276.487 289.974 276.487ZM289.95 278.215C288.942 278.215 288.142 278.543 287.55 279.199C286.974 279.839 286.63 280.735 286.518 281.887H293.07C293.07 281.151 292.958 280.511 292.734 279.967C292.51 279.423 292.166 278.999 291.702 278.695C291.254 278.375 290.67 278.215 289.95 278.215ZM303.113 289.831C301.513 289.831 300.233 289.279 299.273 288.175C298.313 287.055 297.833 285.391 297.833 283.183C297.833 280.975 298.313 279.311 299.273 278.191C300.249 277.055 301.537 276.487 303.137 276.487C303.809 276.487 304.393 276.575 304.889 276.751C305.385 276.911 305.817 277.135 306.185 277.423C306.553 277.711 306.865 278.031 307.121 278.383H307.265C307.249 278.175 307.217 277.871 307.169 277.471C307.137 277.055 307.121 276.727 307.121 276.487V271.351H309.233V289.591H307.529L307.217 287.863H307.121C306.865 288.231 306.553 288.567 306.185 288.871C305.817 289.159 305.377 289.391 304.865 289.567C304.369 289.743 303.785 289.831 303.113 289.831ZM303.449 288.079C304.809 288.079 305.761 287.711 306.305 286.975C306.865 286.223 307.145 285.095 307.145 283.591V283.207C307.145 281.607 306.881 280.383 306.353 279.535C305.825 278.671 304.849 278.239 303.425 278.239C302.289 278.239 301.433 278.695 300.857 279.607C300.297 280.503 300.017 281.711 300.017 283.231C300.017 284.767 300.297 285.959 300.857 286.807C301.433 287.655 302.297 288.079 303.449 288.079ZM321.665 276.727V289.591H319.553V276.727H321.665ZM320.633 271.903C320.953 271.903 321.233 272.015 321.473 272.239C321.729 272.447 321.857 272.783 321.857 273.247C321.857 273.695 321.729 274.031 321.473 274.255C321.233 274.479 320.953 274.591 320.633 274.591C320.281 274.591 319.985 274.479 319.745 274.255C319.505 274.031 319.385 273.695 319.385 273.247C319.385 272.783 319.505 272.447 319.745 272.239C319.985 272.015 320.281 271.903 320.633 271.903ZM331.933 276.487C333.469 276.487 334.629 276.863 335.413 277.615C336.197 278.351 336.589 279.551 336.589 281.215V289.591H334.501V281.359C334.501 280.319 334.269 279.543 333.805 279.031C333.341 278.519 332.613 278.263 331.621 278.263C330.197 278.263 329.213 278.663 328.669 279.463C328.125 280.263 327.853 281.415 327.853 282.919V289.591H325.741V276.727H327.445L327.757 278.479H327.877C328.165 278.031 328.517 277.663 328.933 277.375C329.365 277.071 329.837 276.847 330.349 276.703C330.861 276.559 331.389 276.487 331.933 276.487ZM342.449 284.767H341.081L340.481 272.455H343.049L342.449 284.767ZM340.265 288.295C340.265 287.703 340.409 287.287 340.697 287.047C340.985 286.807 341.337 286.687 341.753 286.687C342.153 286.687 342.497 286.807 342.785 287.047C343.089 287.287 343.241 287.703 343.241 288.295C343.241 288.871 343.089 289.287 342.785 289.543C342.497 289.799 342.153 289.927 341.753 289.927C341.337 289.927 340.985 289.799 340.697 289.543C340.409 289.287 340.265 288.871 340.265 288.295Z" fill="#4A4A4C"/>
</svg>
