<svg width="101" height="23" viewBox="0 0 101 23" fill="none" xmlns="http://www.w3.org/2000/svg">
<path d="M98.8455 0C95.806 0 93.1879 1.20451 91.0215 3.52171L91.02 3.52343L91.0184 3.52472C88.8832 5.84735 87.8132 8.69871 87.8132 12.0007V19.9913C87.8132 20.6117 88.0139 21.2103 88.4455 21.6455C88.8457 22.1161 89.3967 22.3349 89.9677 22.3349C90.5115 22.3349 91.0557 22.116 91.4557 21.6455C91.8771 21.2218 92.1222 20.6362 92.1222 19.9913V12.0007C92.1222 9.96517 92.7596 8.2689 94.0695 6.84408C95.4162 5.37913 96.9742 4.68818 98.8455 4.68818C99.422 4.68818 99.9393 4.42697 100.352 4.02263L100.371 4.00418L100.388 3.98363C100.76 3.53438 101 2.97166 101 2.3445C101 1.71734 100.773 1.12209 100.371 0.684837L100.362 0.674772L100.352 0.665565C99.9393 0.26125 99.422 0 98.8455 0ZM9.39555 0.075858C6.81039 0.075858 4.57339 1.09012 2.75283 3.07034C0.932391 5.05059 0 7.48279 0 10.2588V19.9912C0 20.6466 0.23593 21.2612 0.663838 21.7267C1.10315 22.2046 1.67247 22.4107 2.22424 22.4107C2.80373 22.4107 3.37963 22.2046 3.81894 21.7267C4.25825 21.2488 4.44849 20.6215 4.44849 19.9912V10.2588C4.44849 8.80189 4.9437 7.55167 5.90833 6.50237L5.91103 6.49975L5.91374 6.49638C6.87418 5.4168 8.01145 4.91467 9.39586 4.91467C10.7804 4.91467 11.8814 5.41227 12.8835 6.50224C13.8443 7.5474 14.3083 8.79333 14.3083 10.2587V20.0284C14.3083 20.6556 14.5442 21.2607 14.9721 21.7262C15.4 22.1917 15.956 22.4479 16.5325 22.4479C17.135 22.4479 17.7001 22.1917 18.128 21.7262C18.5673 21.2483 18.7568 20.621 18.7568 19.9907V10.2585C18.7568 7.48249 17.8265 5.05364 16.0428 3.07391L16.041 3.07197L16.0394 3.07026C14.2167 1.08754 11.948 0.0757729 9.39594 0.0757729L9.39555 0.075858ZM51.2513 0.41659C49.3671 0.41659 47.6398 0.893305 46.1344 1.85161C46.134 1.85182 46.1332 1.85225 46.1328 1.85268C44.5991 2.80727 43.4151 4.13561 42.576 5.8027C41.7319 7.47931 41.333 9.39093 41.333 11.4707C41.333 13.514 41.7326 15.4291 42.6152 17.1092C43.4914 18.777 44.709 20.1005 46.2424 21.0535C47.7792 22.0087 49.5071 22.4868 51.4251 22.4868C54.0302 22.4868 56.2621 21.6022 58.0223 19.8071L58.028 19.8012L58.0338 19.7953C58.3835 19.4149 58.5928 18.9195 58.5928 18.4006C58.5928 17.7195 58.2523 17.1264 57.7745 16.65L57.7568 16.6323L57.7383 16.6164C57.3824 16.3261 56.9635 16.1705 56.5427 16.1705C55.9907 16.1705 55.4473 16.4122 54.9642 16.8063L54.9519 16.8164L54.9403 16.8277C54.0699 17.6392 52.9128 18.0259 51.425 18.0259C50.2802 18.0259 49.2952 17.7461 48.4341 17.191C47.5668 16.632 46.9035 15.8769 46.4202 14.8957C45.9431 13.9269 45.7117 12.7659 45.7117 11.4707C45.7117 9.45022 46.2317 7.85975 47.2517 6.68083C48.2828 5.48909 49.5526 4.87702 51.2512 4.87702C52.0571 4.87702 52.7565 5.05054 53.4038 5.33217C54.0252 5.60256 54.5922 6.04286 55.1468 6.68169L55.1268 6.65738C55.5561 7.21779 56.178 7.52829 56.8559 7.52829C57.215 7.52829 57.6016 7.4263 57.9374 7.16535C58.5028 6.72605 58.906 6.09099 58.906 5.33595C58.906 4.817 58.7012 4.38415 58.4614 4.03631L58.4506 4.0208L58.4394 4.00698C56.5488 1.63392 54.0905 0.417029 51.2513 0.417029L51.2513 0.41659ZM72.7808 0.41659C70.0163 0.41659 67.5762 1.54379 65.6161 3.67587C63.656 5.80806 62.6544 8.43143 62.6544 11.4703C62.6544 14.5092 63.656 17.1327 65.6161 19.2648C67.5784 21.3993 70.0205 22.4865 72.7808 22.4865C74.9681 22.4865 76.9486 21.7703 78.6798 20.4132C78.7307 20.9329 78.8996 21.4283 79.2666 21.7979C79.6668 22.2681 80.2173 22.4865 80.7881 22.4865C81.3399 22.4865 81.8859 22.2672 82.3138 21.8017C82.7031 21.3782 82.9426 20.7975 82.9426 20.1421V11.4704C82.9426 8.43298 81.9409 5.80779 79.9464 3.67592C77.9884 1.54604 75.5786 0.41659 72.7808 0.41659ZM24.4193 0.568725C23.8398 0.568725 23.3068 0.765416 22.9286 1.17685C22.5504 1.58829 22.4039 2.13447 22.4039 2.64665C22.4039 3.30205 22.6395 3.90174 23.0384 4.4224L23.0396 4.42433L28.5279 11.48L23.3864 18.4803C23.3862 18.4805 23.3858 18.4801 23.3854 18.4803C22.9767 19.014 22.7867 19.618 22.7867 20.2179C22.7867 20.76 22.9328 21.3148 23.311 21.7263C23.675 22.1222 24.1875 22.3344 24.767 22.3344C25.3695 22.3344 25.9497 22.0693 26.3783 21.5565L26.3887 21.5435L31.2864 14.8396L36.4419 21.5399L36.4215 21.5118C36.7943 22.0694 37.4081 22.3345 38.0659 22.3345C38.6176 22.3345 39.1436 22.1378 39.5219 21.7264C39.8716 21.3459 40.116 20.8185 40.116 20.218C40.116 19.5908 39.8866 19.0025 39.5041 18.5403L34.2293 11.6833L39.2522 4.55473L39.2534 4.55301C39.6157 4.02752 39.8375 3.4077 39.8375 2.72278C39.8375 2.15148 39.6421 1.61077 39.2781 1.21485C38.9284 0.834416 38.4333 0.568594 37.8568 0.568594C37.1789 0.568594 36.554 0.866409 36.1781 1.42859L31.4303 8.31409L26.1069 1.39212L26.0996 1.38375C25.6808 0.882656 25.0972 0.568725 24.4193 0.568725ZM72.7808 5.10477C74.4054 5.10477 75.7536 5.71818 76.8902 6.98992L76.8949 6.99537L76.9003 7.00039C78.0694 8.23681 78.6337 9.70326 78.6337 11.4706C78.6337 13.2378 78.0694 14.7043 76.9003 15.9407L76.8949 15.9458L76.8902 15.9508C75.7567 17.219 74.4118 17.7986 72.7808 17.7986C71.1497 17.7986 69.8053 17.219 68.6718 15.9508L68.6668 15.9458L68.6622 15.9407C67.4962 14.7077 66.9634 13.2447 66.9634 11.4706C66.9634 9.69631 67.4963 8.23338 68.6622 7.00039L68.6668 6.99537L68.6718 6.98992C69.8084 5.71818 71.1561 5.10477 72.7808 5.10477Z" fill="#41CBC3"/>
</svg>
