<svg width="149" height="76" viewBox="0 0 149 76" fill="none" xmlns="http://www.w3.org/2000/svg">
<path d="M149 68.633C149 68.6653 116.265 68.6913 75.8931 68.6913C35.5076 68.6913 2.7793 68.665 2.7793 68.633C2.7793 68.6007 35.5076 68.5746 75.8931 68.5746C116.265 68.5744 149 68.6007 149 68.633Z" fill="#263238"/>
<path d="M120.615 47.4944H7.7168V62.8346H120.615V47.4944Z" fill="#E0E0E0"/>
<g opacity="0.4">
<path d="M120.615 47.4944H7.7168V62.8346H120.615V47.4944Z" fill="black"/>
</g>
<path d="M127.13 46.586C123.922 44.6019 115.597 41.4883 113.287 41.2223C111.888 41.0612 105.658 40.2042 105.658 40.2042L103.64 40.0434C103.64 40.0434 82.1752 29.4034 78.7611 28.0831C73.4736 26.0386 62.3002 24.2631 50.4519 25.7246C50.4519 25.7246 34.6198 27.1725 31.1014 28.1915C27.583 29.2105 10.561 34.5195 10.561 34.5195C10.561 34.5195 3.09895 35.305 3.21402 35.5921C3.21402 35.5921 3.31742 36.0748 3.93829 36.6647V41.4376C3.93829 41.4376 3.11039 42.5638 2.90358 43.1001C2.69655 43.6365 2.2309 47.8731 2.2309 47.8731C2.2309 47.8731 0 53.1823 0 54.5766C0 55.9708 4.04192 61.3337 5.02503 62.1382C6.00814 62.9426 13.9478 64.1152 13.9478 64.1152L13.9343 60.1004C14.1431 53.9871 18.9026 49.0982 24.7468 49.0982C30.5909 49.0982 35.3504 53.9873 35.5594 60.1004L35.5837 65.3024H96.6554H97.5194L97.4777 61.4413C97.4546 61.1367 97.4396 60.8296 97.4396 60.5188C97.4396 54.2114 102.285 49.0982 108.262 49.0982C114.239 49.0982 119.085 54.2114 119.085 60.5188C119.085 60.8296 119.069 61.1367 119.047 61.4413H119.265V65.3024H126.405C126.405 65.3024 132.2 60.8514 132.045 58.599V52.2548C132.045 51.4119 131.74 50.6008 131.186 49.9831C130.379 49.0823 129.013 47.7511 127.13 46.586Z" fill="#E0E0E0"/>
<g opacity="0.2">
<path d="M132.045 54.0948L127.476 52.4053L126.932 54.9796L119.637 54.5775C119.637 54.5775 116.425 48.2187 109.858 47.6593C104.235 47.1804 99.7683 50.078 99.7683 50.078L67.6373 46.7744C67.6373 46.7744 51.3391 46.1309 45.0526 46.2114C38.7661 46.292 33.2258 51.0279 33.2258 51.0279C33.2258 51.0279 31.3704 48.2385 24.7961 48.1745C18.2218 48.1106 15.4791 52.1126 15.4791 52.1126C10.8445 51.4837 6.37734 49.5737 2.66291 46.6327L2.34238 46.8989C2.27532 47.4709 2.2309 47.8735 2.2309 47.8735C2.2309 47.8735 0 53.1827 0 54.577C0 55.9713 4.04192 61.3341 5.02503 62.1387C6.00814 62.943 13.9478 64.1157 13.9478 64.1157L13.9343 60.1009C14.1431 53.9875 18.9026 49.0987 24.7468 49.0987C30.5909 49.0987 35.3504 53.9878 35.5594 60.1009L35.5837 65.3029H96.6554H97.5194L97.4777 61.4418C97.4546 61.1372 97.4396 60.8301 97.4396 60.5192C97.4396 54.2118 102.285 49.0987 108.262 49.0987C114.239 49.0987 119.085 54.2118 119.085 60.5192C119.085 60.8301 119.069 61.1372 119.047 61.4418H119.265V65.3029H126.405C126.405 65.3029 132.2 60.8519 132.045 58.5994V54.0948Z" fill="black"/>
</g>
<path d="M21.8375 34.8666C21.2862 35.277 21.5029 36.1751 22.1758 36.268L27.6198 37.021L58.553 40.5555L96.2698 42.7241C96.8745 42.7588 97.4772 42.4901 97.8132 41.9677C98.1328 41.4707 98.2546 40.7765 97.4631 39.9876C95.8799 38.4096 88.8772 34.3347 87.2331 33.5322C85.589 32.7294 74.0532 25.5564 56.834 26.536C51.6212 26.7235 41.6185 28.2667 28.6913 30.0216C28.4149 30.0591 28.1503 30.1672 27.924 30.3357L21.8375 34.8666Z" fill="#263238"/>
<path d="M28.2715 36.4442C28.3489 36.2037 31.1331 30.7523 31.6746 30.4317C32.2161 30.111 54.7227 27.1448 55.032 27.5459C55.3413 27.9467 56.1147 39.4106 56.1147 39.4106L28.2715 36.4442Z" fill="#455A64"/>
<path d="M36.8462 29.5985L36.6504 37.5991H37.8109V29.4644L36.8462 29.5985Z" fill="#263238"/>
<path d="M90.9335 35.6038C90.9335 35.6038 90.9539 35.6439 90.9903 35.7251C91.0273 35.8092 91.0804 35.9297 91.1502 36.088C91.2175 36.2495 91.3133 36.4449 91.4034 36.6874C91.4947 36.9298 91.6001 37.21 91.7192 37.5269C92.1651 38.8061 92.7048 40.7358 93.0399 43.2513C93.3809 45.7637 93.5215 48.8542 93.3151 52.3741C93.214 54.134 93.0285 56.0009 92.7416 57.9539C92.596 58.93 92.4291 59.928 92.2179 60.942C92.1613 61.1937 92.1196 61.4534 92.0187 61.7042C91.9204 61.9509 91.7966 62.1838 91.6663 62.4132C91.4032 62.871 91.1094 63.3124 90.796 63.748L90.7787 63.772L90.7491 63.7716C83.2545 63.6298 74.4967 63.4641 65.183 63.288C60.35 63.1734 55.6668 63.0621 51.2296 62.9569C49.0111 62.9118 46.8537 62.8661 44.7707 62.8508C44.5105 62.8502 44.2507 62.8457 43.9935 62.8502C43.7371 62.8553 43.4796 62.8553 43.2178 62.8414C42.699 62.8017 42.1968 62.6465 41.7428 62.4101C41.2879 62.1739 40.8797 61.8617 40.5174 61.5106C40.1552 61.158 39.8347 60.772 39.5671 60.3463L39.5698 60.3503C37.1881 56.9499 35.0355 53.8081 33.1523 51.0039C32.2149 49.5988 31.3381 48.2829 30.5486 47.0508C29.7559 45.8209 29.0397 44.6824 28.4323 43.6277C28.1273 43.1019 27.848 42.595 27.6331 42.0939C27.5822 41.9672 27.5322 41.8425 27.4828 41.7198C27.433 41.5973 27.4061 41.4684 27.3678 41.3463C27.3352 41.2223 27.2902 41.1039 27.27 40.9814C27.2478 40.8594 27.226 40.7394 27.2045 40.6218C27.0428 39.6737 27.1809 38.8449 27.3599 38.2173C27.5463 37.5852 27.7906 37.1402 27.97 36.8563C28.151 36.5719 28.2708 36.4456 28.2708 36.4456C28.2708 36.4456 28.2452 36.4806 28.195 36.5492C28.1452 36.6183 28.0734 36.7233 27.985 36.8664C27.8112 37.1523 27.5732 37.5983 27.3936 38.2279C27.2213 38.853 27.0899 39.6753 27.2554 40.6133C27.2771 40.7297 27.2994 40.8484 27.3222 40.9691C27.3429 41.0902 27.3884 41.2075 27.4212 41.3302C27.46 41.4509 27.4871 41.5783 27.5369 41.6994C27.5862 41.8207 27.6365 41.9441 27.6876 42.0695C27.903 42.5654 28.1831 43.069 28.4899 43.5925C29.1005 44.6427 29.8203 45.7779 30.6161 47.0046C31.4088 48.2335 32.2889 49.5466 33.2292 50.9489C35.1185 53.7478 37.2765 56.8851 39.6622 60.281L39.6649 60.285C40.19 61.0999 40.9131 61.8359 41.7962 62.3011C42.2383 62.5308 42.725 62.6799 43.2268 62.7178C43.4764 62.7308 43.7328 62.7313 43.9928 62.7255C44.2518 62.7207 44.5109 62.725 44.7718 62.7252C46.8567 62.7382 49.0138 62.7822 51.2328 62.8257C55.6701 62.9296 60.3533 63.039 65.1866 63.1523C74.5 63.3347 83.2577 63.506 90.752 63.6527L90.7052 63.6763C91.0158 63.2458 91.3097 62.8055 91.5699 62.354C91.6988 62.1279 91.8208 61.8982 91.9157 61.6611C92.0111 61.4281 92.0537 61.1699 92.1104 60.9182C92.3224 59.9082 92.4906 58.9119 92.6375 57.9379C92.9273 55.9892 93.116 54.1255 93.2212 52.369C93.4352 48.8553 93.3037 45.7705 92.9733 43.2616C92.6487 40.7497 92.1207 38.8214 91.6863 37.5402C91.5703 37.2225 91.4676 36.9417 91.379 36.6988C91.2917 36.4557 91.1986 36.2594 91.1343 36.0965C91.0681 35.9368 91.0178 35.815 90.9829 35.73C90.9485 35.6468 90.9335 35.6038 90.9335 35.6038Z" fill="#263238"/>
<path d="M59.0261 40.5823C59.0306 40.5809 59.0559 40.6581 59.0907 40.8086C59.1257 40.9589 59.1699 41.1823 59.2161 41.4721C59.3076 42.0515 59.4027 42.896 59.4653 43.943C59.6008 46.0387 59.5463 48.9369 59.5066 52.1334C59.4577 55.3319 59.389 58.2266 59.3327 60.3215C59.3009 61.3596 59.2749 62.2039 59.2565 62.8023C59.2448 63.0858 59.2354 63.3108 59.2284 63.4766C59.2242 63.5468 59.2206 63.6042 59.2177 63.6517C59.2145 63.6912 59.2118 63.7114 59.2096 63.7114C59.2073 63.7114 59.2055 63.691 59.2042 63.6515C59.2035 63.6037 59.2029 63.5461 59.2017 63.4759C59.2026 63.3099 59.2038 63.0849 59.2051 62.801C59.2134 62.2023 59.2253 61.3578 59.2396 60.3193C59.2744 58.2131 59.3222 55.3239 59.3751 52.1311C59.415 48.9346 59.4841 46.0389 59.3727 43.9484C59.3222 42.9029 59.2412 42.0598 59.1656 41.4797C59.1273 41.1899 59.0912 40.9656 59.0649 40.8142C59.0526 40.7454 59.0425 40.6886 59.0342 40.642C59.027 40.6032 59.0239 40.583 59.0261 40.5823Z" fill="#263238"/>
<path d="M59.2852 27.3198L61.5925 39.4106L86.2023 41.2225L89.9923 35.8949C89.9923 35.8949 80.4574 30.2726 72.0802 28.5762C63.5817 26.8551 59.2852 27.3198 59.2852 27.3198Z" fill="#455A64"/>
<g opacity="0.2">
<path d="M39.9336 55.2533C39.9336 55.2533 51.4297 60.2629 53.5202 60.7346C55.6109 61.2063 89.2959 61.4766 89.2959 61.4766L89.9926 59.919L54.8348 59.6777C54.8348 59.6777 40.7097 54.2077 39.9336 55.2533Z" fill="black"/>
</g>
<path d="M33.2291 51.028C33.2271 51.0298 33.2078 51.0092 33.1681 50.971C33.1298 50.9313 33.0688 50.8768 32.9907 50.8032C32.8301 50.6613 32.5852 50.4616 32.2512 50.2322C31.9136 50.0083 31.4854 49.7593 30.9686 49.5126C30.4467 49.2778 29.84 49.0389 29.1484 48.8431C28.4558 48.6569 27.6878 48.4781 26.8498 48.3832C26.433 48.3173 25.997 48.2985 25.5497 48.2599C25.3261 48.2404 25.0982 48.2493 24.8679 48.2426C24.6375 48.2433 24.4036 48.226 24.1678 48.2493C22.2794 48.3263 20.2102 48.833 18.2635 49.8641C17.4338 50.3022 16.6501 50.8075 15.9801 51.3831L15.9254 51.4302L15.885 51.3723C14.7886 49.8029 13.769 48.3191 12.8843 46.9567C11.999 45.5947 11.2521 44.3532 10.6438 43.3091C10.0355 42.2647 9.56286 41.4189 9.23852 40.8366C9.08173 40.5502 8.95881 40.3257 8.87089 40.1651C8.83275 40.0928 8.80225 40.0352 8.77825 39.9896C8.75806 39.9499 8.74842 39.9289 8.75021 39.928C8.75201 39.9268 8.76502 39.9457 8.78857 39.9834C8.81526 40.0273 8.84891 40.083 8.8913 40.1527C8.98394 40.3106 9.11313 40.5311 9.27822 40.8126C9.61983 41.3949 10.1084 42.2275 10.7162 43.2636C11.3339 44.301 12.088 45.5353 12.9785 46.891C13.8683 48.2473 14.8916 49.7264 15.9898 51.294L15.8947 51.2832C16.5804 50.6927 17.3656 50.1869 18.2043 49.7434C20.1683 48.7029 22.2581 48.1953 24.1636 48.1246C24.4015 48.102 24.6375 48.1204 24.8699 48.1206C25.102 48.1284 25.3322 48.1204 25.5569 48.141C26.0066 48.182 26.4449 48.2034 26.8639 48.272C27.7064 48.3723 28.4784 48.5578 29.174 48.7511C29.8682 48.9543 30.4772 49.2011 30.9996 49.4442C31.5173 49.6995 31.9446 49.9567 32.2799 50.1889C32.6119 50.4266 32.8532 50.6343 33.0089 50.7837C33.0847 50.8609 33.1428 50.919 33.1782 50.962C33.2146 51.0026 33.2307 51.0266 33.2291 51.028Z" fill="#263238"/>
<path d="M3.81039 57.3995C3.80142 57.4013 3.76822 57.2651 3.71573 57.0175C3.66302 56.7699 3.59282 56.4103 3.51184 55.9649C3.34878 55.0742 3.14578 53.8394 2.95087 52.4709C2.75662 51.102 2.60746 49.8589 2.51572 48.9572C2.46929 48.5064 2.43654 48.1412 2.41815 47.8884C2.39953 47.6356 2.39348 47.4954 2.40267 47.4943C2.41165 47.4934 2.43497 47.6316 2.46907 47.8826C2.50518 48.1583 2.55183 48.5158 2.60813 48.9458C2.72342 49.8437 2.88694 51.0834 3.08096 52.4512C3.27543 53.8183 3.46384 55.054 3.60336 55.9483C3.66908 56.3767 3.72381 56.7331 3.76598 57.0079C3.80299 57.2584 3.81936 57.3977 3.81039 57.3995Z" fill="#263238"/>
<path d="M14.1631 58.2987C14.1629 58.3035 14.1176 58.3068 14.031 58.3088C13.9296 58.3095 13.8047 58.3102 13.6529 58.3111C13.3245 58.3111 12.8494 58.3012 12.2624 58.2808C11.0886 58.2404 9.46805 58.144 7.68441 57.9614C5.90031 57.7775 4.29274 57.542 3.13445 57.3428C2.55508 57.2434 2.08741 57.1564 1.76554 57.0895C1.61682 57.0577 1.49458 57.0314 1.39521 57.0101C1.31088 56.9906 1.26691 56.9781 1.26759 56.9733C1.26848 56.9686 1.31379 56.9722 1.3997 56.983C1.50019 56.9976 1.62378 57.0153 1.77406 57.037C2.11791 57.0898 2.58267 57.1609 3.14858 57.2474C4.30957 57.4222 5.91624 57.6422 7.69742 57.8259C9.47815 58.0083 11.0951 58.1198 12.2664 58.1848C12.8377 58.2151 13.307 58.24 13.6542 58.2584C13.8058 58.2678 13.9303 58.2754 14.0317 58.2815C14.1181 58.2882 14.1634 58.294 14.1631 58.2987Z" fill="#263238"/>
<path d="M127.477 52.4053C127.477 52.4053 126.054 48.9908 126.095 48.8762C126.314 48.2645 127.131 46.5861 127.131 46.5861C127.131 46.5861 127.8 46.9676 128.611 47.5712C129.515 48.2448 130.608 49.1882 131.366 50.0565C131.804 50.5587 132.046 51.2112 132.047 51.8886L132.049 54.7489L127.477 52.4053Z" fill="white"/>
<path d="M96.51 36.5869C96.5374 36.6136 96.2189 37.0066 95.8497 37.5084C95.4792 38.0092 95.1968 38.4307 95.1647 38.4103C95.1346 38.3917 95.3701 37.933 95.7454 37.4256C96.1195 36.9176 96.4849 36.5618 96.51 36.5869Z" fill="#263238"/>
<path d="M3.93665 36.665C3.93665 36.665 14.717 37.5795 14.5982 37.826C14.4793 38.0723 3.93665 41.4379 3.93665 41.4379V36.665Z" fill="#FF725E"/>
<path d="M3.90234 41.5744C3.866 41.5744 3.83639 40.48 3.83594 39.1304C3.83549 37.7803 3.86465 36.6862 3.90099 36.6862C3.9371 36.6862 3.96693 37.7803 3.96738 39.1304C3.96761 40.48 3.93845 41.5744 3.90234 41.5744Z" fill="#263238"/>
<path d="M119.635 54.5774C119.635 54.5774 119.616 54.5455 119.579 54.4818C119.541 54.4186 119.488 54.3221 119.411 54.1996C119.264 53.9504 119.028 53.5934 118.705 53.1409C118.371 52.6984 117.958 52.1513 117.402 51.5778C116.852 51.0007 116.185 50.3672 115.351 49.7867C114.522 49.2069 113.549 48.6262 112.398 48.2532C111.255 47.8638 109.96 47.6657 108.574 47.6462C107.189 47.6173 105.713 47.7539 104.211 48.1296C103.459 48.3108 102.703 48.5632 101.959 48.8888C101.217 49.2145 100.472 49.6075 99.8049 50.1257L99.7843 50.1416L99.7612 50.1393C94.8104 49.6322 89.2327 49.0609 83.3526 48.4586C77.9442 47.9006 72.7923 47.3692 68.1059 46.8856C67.9595 46.8704 67.8134 46.8553 67.6681 46.8403C67.5223 46.8324 67.3767 46.8246 67.2318 46.8167C66.9418 46.8024 66.6538 46.788 66.3676 46.7737C65.7947 46.7477 65.2297 46.7219 64.6725 46.6965C63.558 46.655 62.476 46.6149 61.4298 46.5761C59.3371 46.5097 57.3872 46.4689 55.6069 46.4417C52.0464 46.3886 49.1645 46.3829 47.173 46.3713C46.1798 46.3655 45.4079 46.3607 44.8797 46.3578C44.6202 46.3549 44.4215 46.3527 44.2833 46.3511C44.1489 46.3489 44.0801 46.3441 44.0801 46.3441C44.0801 46.3441 44.1489 46.3394 44.2833 46.3372C44.4215 46.3356 44.6202 46.3334 44.8797 46.3305C45.4079 46.3278 46.1798 46.3237 47.173 46.3184C49.1645 46.3139 52.0466 46.3049 55.6081 46.3457C57.3888 46.3668 59.3393 46.4018 61.433 46.4635C62.4798 46.4944 63.5622 46.5323 64.677 46.577C65.2344 46.6014 65.8001 46.6263 66.3734 46.6512C66.6603 46.6651 66.949 46.679 67.2397 46.6929C67.385 46.7006 67.5306 46.7082 67.6768 46.716C67.8224 46.7308 67.9684 46.7459 68.1149 46.7607C72.8019 47.2409 77.9546 47.7689 83.3638 48.3232C89.2441 48.9299 94.8218 49.5057 99.7728 50.0166L99.7293 50.0303C100.417 49.4978 101.164 49.1082 101.914 48.7794C102.665 48.4524 103.427 48.1996 104.185 48.0188C105.698 47.6437 107.184 47.5105 108.575 47.5437C109.967 47.5673 111.275 47.7714 112.425 48.1686C113.584 48.5495 114.561 49.1385 115.392 49.7262C116.228 50.3145 116.894 50.9547 117.441 51.5383C117.995 52.1181 118.405 52.6706 118.736 53.1181C119.055 53.5752 119.286 53.9368 119.428 54.1898C119.574 54.4396 119.635 54.5774 119.635 54.5774Z" fill="#263238"/>
<path d="M89.2941 61.477C89.2941 61.477 89.2506 61.4808 89.1658 61.4812C89.0757 61.481 88.9505 61.4805 88.7892 61.4801C88.4526 61.4761 87.9658 61.4702 87.3416 61.4628C86.079 61.4417 84.2615 61.4115 82.0182 61.374C77.5188 61.2858 71.3119 61.1641 64.4563 61.0297C61.0265 60.9566 57.7596 60.887 54.7871 60.8238C54.6014 60.8197 54.4168 60.8157 54.2333 60.8117C54.0514 60.8056 53.8666 60.811 53.6809 60.7834C53.3067 60.7383 52.9761 60.5638 52.6525 60.4337C52.0006 60.1594 51.3634 59.9037 50.747 59.6576C49.5129 59.1687 48.3575 58.7284 47.3031 58.3255C45.1929 57.5232 43.4893 56.8604 42.3218 56.3768C41.7377 56.1359 41.286 55.9441 40.9816 55.8093C40.8336 55.7433 40.7185 55.6922 40.6357 55.6552C40.5581 55.6198 40.5195 55.5984 40.5195 55.5984C40.5195 55.5984 40.5615 55.6112 40.6409 55.6424C40.725 55.6763 40.8414 55.7234 40.9917 55.7839C41.3055 55.9105 41.759 56.0933 42.3404 56.3277C43.5133 56.7958 45.2207 57.4445 47.3352 58.2353C48.3918 58.6326 49.5492 59.0677 50.786 59.5524C51.4038 59.7965 52.0424 60.0504 52.6957 60.3231C53.0261 60.4553 53.3449 60.6219 53.6968 60.6623C53.8702 60.6879 54.0512 60.6825 54.2358 60.6881C54.4193 60.6917 54.6039 60.6953 54.7896 60.6989C57.762 60.759 61.029 60.8249 64.459 60.894C71.3141 61.0441 77.5208 61.1798 82.02 61.2782C84.2631 61.3338 86.0801 61.3789 87.3427 61.4103C87.9665 61.4287 88.4532 61.4431 88.7897 61.4532C88.9507 61.4595 89.0759 61.4642 89.1661 61.4678C89.2509 61.4713 89.2941 61.477 89.2941 61.477Z" fill="#263238"/>
<path d="M86.4475 35.809C85.9841 36.7948 85.4754 38.2516 85.5701 39.7632C85.6317 40.7479 86.4139 41.5183 87.3658 41.5258L91.7985 41.5601C92.4507 41.565 93.0436 41.0879 93.1279 40.4175C93.1555 40.1988 93.1306 39.9615 93.0153 39.7183C92.5546 38.7451 92.1706 38.9299 92.1706 38.9299C92.1706 38.9299 90.829 36.0597 88.7881 34.9705C87.9326 34.5141 86.869 34.9127 86.4475 35.809Z" fill="#E0E0E0"/>
<path d="M91.0406 41.5544C91.0475 41.5719 91.2164 41.5214 91.443 41.3518C91.6603 41.1841 91.969 40.8947 92.0865 40.4479C92.1995 40.0137 92.176 39.6164 92.1769 39.3374C92.1722 39.0557 92.1585 38.8811 92.1374 38.8803C92.1163 38.8796 92.0914 39.0527 92.0685 39.3336C92.0407 39.6135 92.0439 40.0058 91.9389 40.4044C91.8371 40.8001 91.5675 41.0809 91.3752 41.2639C91.1767 41.4472 91.03 41.5322 91.0406 41.5544Z" fill="#263238"/>
<path d="M91.371 38.3239C91.3876 38.3163 91.3113 38.0803 91.1245 37.7284C90.9385 37.3769 90.6297 36.9168 90.2093 36.483C89.7876 36.0504 89.341 35.7339 89.0008 35.5439C88.6598 35.3528 88.4315 35.2758 88.4243 35.2929C88.3999 35.3384 89.28 35.7419 90.1012 36.5959C90.9311 37.4401 91.3272 38.3495 91.371 38.3239Z" fill="white"/>
<path d="M57.1579 26.5188C57.1624 26.5179 57.1752 26.5661 57.1956 26.6585C57.2173 26.7662 57.2443 26.9001 57.2775 27.0638C57.3452 27.4164 57.4387 27.9276 57.5482 28.5601C57.7669 29.8254 58.0558 31.5761 58.3335 33.5165C58.612 35.4574 58.8247 37.2211 58.933 38.5027C58.9635 38.8228 58.9819 39.1133 58.9967 39.3683C59.0124 39.6234 59.0266 39.843 59.0272 40.0231C59.0292 40.1904 59.0308 40.3274 59.0322 40.4374C59.0317 40.532 59.0295 40.5818 59.025 40.5818C59.0205 40.5818 59.014 40.5322 59.0057 40.438C58.9978 40.3286 58.9882 40.1922 58.9763 40.0255C58.9678 39.8463 58.9463 39.6276 58.9236 39.3737C58.9021 39.1198 58.8772 38.8307 58.8408 38.5117C58.7092 37.235 58.4822 35.4756 58.2038 33.536C57.9261 31.5969 57.652 29.8447 57.4567 28.5756C57.362 27.9552 57.2844 27.4465 57.2272 27.0723C57.2041 26.9068 57.185 26.7713 57.1698 26.6625C57.1577 26.5692 57.1536 26.5196 57.1579 26.5188Z" fill="#455A64"/>
<g opacity="0.2">
<path d="M3.93665 41.438L9.26785 38.1603L9.42172 37.1639C11.4911 37.3768 14.0031 37.5796 14.5979 37.8261C14.599 37.9939 8.04204 40.1474 3.93665 41.438Z" fill="black"/>
</g>
<g opacity="0.2">
<path d="M126.092 48.876L128.94 51.383L132.044 51.8886L132.046 54.7489L127.474 52.4054C126.911 51.0454 126.398 49.7734 126.092 48.876Z" fill="black"/>
</g>
<path d="M126.064 48.876C126.063 48.8782 126.039 48.8692 125.992 48.8502C125.938 48.8275 125.87 48.7984 125.785 48.762C125.596 48.6786 125.332 48.5617 124.995 48.413C124.302 48.1053 123.312 47.6663 122.093 47.1257C120.866 46.5874 119.403 45.9486 117.765 45.2788C116.944 44.9525 116.081 44.5981 115.166 44.3267C114.706 44.2067 114.223 44.1333 113.735 44.0465C113.246 43.9664 112.75 43.8852 112.248 43.8032C108.227 43.1668 104.58 42.6292 101.942 42.2283C100.63 42.0283 99.5655 41.8659 98.8188 41.7519C98.4575 41.6943 98.1735 41.649 97.9705 41.6164C97.8797 41.6005 97.8072 41.5877 97.7503 41.5779C97.7007 41.5684 97.6756 41.5624 97.6758 41.5601C97.676 41.5579 97.702 41.5592 97.752 41.5642C97.8092 41.5707 97.8824 41.579 97.9741 41.5893C98.178 41.6155 98.4631 41.6525 98.826 41.6994C99.5743 41.8031 100.641 41.9509 101.955 42.133C104.597 42.5094 108.245 43.032 112.268 43.6686C112.771 43.7511 113.267 43.8325 113.757 43.9128C114.245 44.0003 114.729 44.0741 115.199 44.1977C116.128 44.4752 116.987 44.8318 117.809 45.1622C119.447 45.8394 120.907 46.4874 122.13 47.0374C123.352 47.5885 124.337 48.0452 125.016 48.3648C125.348 48.5234 125.609 48.6481 125.796 48.7371C125.879 48.7786 125.945 48.8116 125.997 48.8376C126.042 48.8607 126.065 48.8739 126.064 48.876Z" fill="#263238"/>
<path d="M24.6931 71.3692C30.2633 71.3692 34.7789 66.6889 34.7789 60.9154C34.7789 55.1419 30.2633 50.4616 24.6931 50.4616C19.123 50.4616 14.6074 55.1419 14.6074 60.9154C14.6074 66.6889 19.123 71.3692 24.6931 71.3692Z" fill="#263238"/>
<path d="M14.5995 60.7362C14.5993 60.7452 14.598 60.7542 14.5977 60.7631C14.5174 66.536 18.9674 71.2833 24.537 71.3665C30.1066 71.4498 34.6869 66.8374 34.7672 61.0646C34.7674 61.0556 34.7663 61.0466 34.7663 61.0377L14.5995 60.7362Z" fill="#263238"/>
<path d="M17.6015 60.8086C17.5452 64.8615 20.669 68.1946 24.5793 68.2532C28.4897 68.3117 31.7053 65.0734 31.7616 61.0203C31.8181 56.9674 28.6938 53.6343 24.7836 53.5757C20.8733 53.5172 17.658 56.7554 17.6015 60.8086Z" fill="#FAFAFA"/>
<path d="M24.772 53.5746C20.8617 53.5161 17.6461 56.7543 17.5898 60.8075L31.75 61.0192C31.8065 56.9661 28.6825 53.633 24.772 53.5746Z" fill="#E0E0E0"/>
<path d="M20.3803 60.8506C20.346 63.3195 22.249 65.3499 24.6309 65.3853C27.0127 65.421 28.9718 63.4485 29.0061 60.9796C29.0404 58.5107 27.1372 56.4803 24.7553 56.4446C22.3733 56.4092 20.4147 58.3817 20.3803 60.8506Z" fill="#263238"/>
<path d="M108.135 71.3692C113.705 71.3692 118.22 66.6889 118.22 60.9154C118.22 55.1419 113.705 50.4616 108.135 50.4616C102.564 50.4616 98.0488 55.1419 98.0488 60.9154C98.0488 66.6889 102.564 71.3692 108.135 71.3692Z" fill="#263238"/>
<path d="M98.0644 60.7362C98.0642 60.7452 98.0628 60.7542 98.0626 60.7631C97.9823 66.536 102.432 71.2833 108.002 71.3665C113.571 71.4498 118.152 66.8374 118.232 61.0646C118.232 61.0556 118.231 61.0466 118.231 61.0377L98.0644 60.7362Z" fill="#263238"/>
<path d="M101.066 60.8084C101.01 64.8614 104.134 68.1945 108.044 68.253C111.954 68.3116 115.17 65.0733 115.226 61.0202C115.283 56.9673 112.159 53.6342 108.248 53.5756C104.338 53.5171 101.123 56.7553 101.066 60.8084Z" fill="#FAFAFA"/>
<path d="M108.26 53.5746C104.35 53.5161 101.135 56.7543 101.078 60.8075L115.238 61.0192C115.295 56.9661 112.171 53.633 108.26 53.5746Z" fill="#E0E0E0"/>
<path d="M103.845 60.8506C103.811 63.3195 105.714 65.3499 108.096 65.3853C110.478 65.421 112.437 63.4485 112.471 60.9796C112.505 58.5107 110.602 56.4803 108.22 56.4446C105.838 56.4092 103.88 58.3817 103.845 60.8506Z" fill="#263238"/>
<path d="M70.0636 37.3817C70.0472 37.348 71.9156 36.3353 74.2363 35.1198C76.5578 33.9039 78.4522 32.9457 78.4686 32.9793C78.485 33.013 76.617 34.0255 74.2955 35.2414C71.9751 36.4569 70.08 37.4153 70.0636 37.3817Z" fill="white"/>
<path d="M67.464 37.1172C67.4472 37.084 69.2214 36.0825 71.4267 34.8809C73.6327 33.6789 75.4339 32.7316 75.4509 32.7648C75.4677 32.798 73.6937 33.7993 71.488 35.0013C69.2826 36.2029 67.4808 37.1504 67.464 37.1172Z" fill="white"/>
<path d="M41.4561 36.6682C41.453 36.6594 41.5828 36.5996 41.8204 36.4993C42.0801 36.3918 42.4197 36.2514 42.8288 36.0821C43.7011 35.721 44.8666 35.2387 46.155 34.7053C47.438 34.1571 48.5985 33.6612 49.4668 33.2902C49.8742 33.1161 50.2119 32.9717 50.4706 32.8611C50.7083 32.7615 50.8418 32.7106 50.8454 32.7194C50.849 32.7279 50.7227 32.7952 50.4912 32.9098C50.2597 33.0244 49.9224 33.1848 49.5036 33.3788C48.6663 33.7668 47.5017 34.2859 46.2043 34.8316C44.9072 35.3769 43.7234 35.8457 42.8618 36.1723C42.4311 36.3355 42.0812 36.4643 41.8381 36.5491C41.5952 36.6341 41.4593 36.6769 41.4561 36.6682Z" fill="white"/>
<path d="M43.8605 33.8007C43.8457 33.7664 44.8127 33.2833 46.0199 32.7219C47.2275 32.1602 48.2183 31.7327 48.2331 31.767C48.2479 31.8013 47.2813 32.2842 46.0735 32.8461C44.8665 33.4075 43.8755 33.8351 43.8605 33.8007Z" fill="white"/>
<path d="M132.049 54.749C132.041 54.749 132.032 54.6026 132.023 54.3374C132.018 54.0483 132.01 53.6704 132.002 53.2153C131.99 52.7442 132.002 52.1709 131.974 51.5572C131.923 50.9446 131.484 50.3868 131.055 49.8328C130.62 49.2779 130.096 48.8485 129.628 48.4578C129.154 48.0729 128.712 47.7432 128.34 47.4698C127.98 47.21 127.681 46.9947 127.452 46.8296C127.242 46.6789 127.126 46.5941 127.131 46.586C127.136 46.5779 127.26 46.6479 127.48 46.7852C127.698 46.9225 128.012 47.1266 128.393 47.3904C128.773 47.6546 129.221 47.9769 129.703 48.3587C130.177 48.746 130.709 49.1767 131.157 49.7462C131.379 50.027 131.591 50.307 131.765 50.6026C131.942 50.8942 132.071 51.2205 132.095 51.5449C132.117 52.1826 132.095 52.7386 132.095 53.2148C132.087 53.6701 132.08 54.0479 132.075 54.337C132.067 54.6026 132.059 54.749 132.049 54.749Z" fill="#263238"/>
<path d="M80.2912 24.3719C80.2959 24.2174 80.389 24.0806 80.5182 23.9951C82.5345 22.6605 84.0539 19.7031 84.2071 17.1992C84.2111 17.0566 84.2156 16.9119 84.2203 16.7661C84.2203 16.7654 84.2203 16.765 84.2203 16.7643C84.337 13.1842 84.8641 8.84217 85.3373 7.68478C86.2114 5.54695 89.1722 5.3462 89.1722 5.3462C93.1027 5.06493 93.8045 8.08493 94.2013 10.8358C94.448 12.5463 95.3986 18.6572 95.3986 18.6572L94.6761 18.9367C93.8249 21.4587 91.9085 23.4983 89.4176 24.4363C88.6931 24.7091 88.0796 24.8187 87.7916 24.5839C86.6473 25.7438 85.2151 26.6203 83.6557 27.0947C83.021 27.2879 82.3557 27.4168 81.6951 27.3552C81.266 27.315 80.8138 27.1732 80.5579 26.8265C80.3377 26.5277 80.3074 26.1006 80.4832 25.7738C80.6593 25.447 81.0325 25.2373 81.4031 25.2568C81.2546 24.7739 80.2746 24.9161 80.2912 24.3719Z" fill="#263238"/>
<path d="M88.6171 6.34664L88.8629 6.11224L90.9406 6.94956C91.3251 6.97087 91.9634 7.7086 91.9751 8.0935L91.9354 16.5443C91.9388 17.1313 92.0828 17.6548 91.7284 18.1227L91.3551 18.6155C90.5041 19.7388 88.7537 19.6464 88.0801 18.4087C88.033 18.3221 88.0003 18.2463 87.9861 18.1848C87.972 18.1077 87.9509 18.0568 87.9467 17.9913C87.8675 17.2948 87.7834 16.8074 87.7834 16.8074C87.7834 16.8074 87.8002 15.6121 87.8 15.6193C87.8 15.6193 86.1724 15.4322 85.7326 13.3431C85.5137 12.3041 85.5549 10.8746 85.6164 9.4678C85.7016 7.52086 87.0521 6.34462 88.6171 6.34664Z" fill="#FFBF9D"/>
<path d="M88.8877 10.8994C88.8897 11.0423 89.0127 11.1583 89.1618 11.1589C89.3108 11.1596 89.4301 11.0443 89.4281 10.9014C89.4258 10.7585 89.3031 10.6424 89.1542 10.6419C89.0048 10.6412 88.8855 10.7565 88.8877 10.8994Z" fill="#263238"/>
<path d="M86.1758 10.8982C86.1778 11.0411 86.3008 11.157 86.4499 11.1577C86.5988 11.1584 86.7182 11.0431 86.7162 10.9002C86.7139 10.7573 86.5912 10.6411 86.4423 10.6407C86.2929 10.64 86.1736 10.7553 86.1758 10.8982Z" fill="#263238"/>
<path d="M85.9142 10.1347C85.9494 10.1684 86.1466 10.0067 86.437 9.99276C86.7273 9.97482 86.948 10.1137 86.9776 10.0764C86.9924 10.0598 86.9549 9.99792 86.8587 9.93511C86.7638 9.87231 86.6046 9.81466 86.4238 9.82453C86.2428 9.83463 86.0938 9.90887 86.0097 9.98154C85.924 10.0547 85.8969 10.1197 85.9142 10.1347Z" fill="#263238"/>
<path d="M88.8687 10.1652C88.9073 10.195 89.087 10.0138 89.3745 9.97028C89.6612 9.9225 89.8951 10.038 89.9209 9.99786C89.9337 9.97992 89.8907 9.92205 89.7881 9.86956C89.6874 9.81685 89.5232 9.77581 89.3443 9.80407C89.1653 9.83278 89.0248 9.92183 88.9486 10.0028C88.8705 10.0844 88.8501 10.1522 88.8687 10.1652Z" fill="#263238"/>
<path d="M87.8636 12.2815C87.8642 12.2649 87.6819 12.2427 87.3874 12.2201C87.3127 12.216 87.2418 12.2048 87.2268 12.1548C87.2066 12.1021 87.2335 12.0204 87.2653 11.9323C87.3261 11.7493 87.3898 11.5572 87.4564 11.3563C87.7209 10.5365 87.9084 9.86377 87.8752 9.85345C87.842 9.84313 87.6007 10.4992 87.3364 11.319C87.273 11.5211 87.2124 11.7138 87.1548 11.898C87.1308 11.9836 87.0875 12.0819 87.1308 12.1911C87.1536 12.2456 87.2099 12.2831 87.2584 12.2934C87.3066 12.3055 87.3483 12.3042 87.3853 12.3046C87.6803 12.306 87.8631 12.2981 87.8636 12.2815Z" fill="#263238"/>
<path d="M87.7971 15.616C87.7971 15.616 89.2185 15.6364 90.5797 14.7224C90.5797 14.7224 89.9057 16.2198 87.7881 16.1283L87.7971 15.616Z" fill="#FF9A6C"/>
<path d="M88.0116 12.9745C88.1092 12.8312 88.2886 12.7459 88.4714 12.7565C88.5982 12.7637 88.7287 12.8182 88.8104 12.9171C88.8922 13.016 88.9155 13.1609 88.8507 13.2623C88.7778 13.3765 88.6152 13.4101 88.4746 13.3776C88.3339 13.3451 88.2099 13.2598 88.0919 13.1746C88.0594 13.151 88.026 13.1264 88.0047 13.0927C87.9834 13.0593 87.9768 13.0144 87.9997 12.9846" fill="#FF9A6C"/>
<path d="M88.7244 12.4392C88.677 12.4387 88.6923 12.7543 88.4334 12.9916C88.1753 13.2298 87.8372 13.2112 87.837 13.2554C87.8336 13.2756 87.9151 13.313 88.0571 13.3097C88.1966 13.3074 88.3975 13.2525 88.5559 13.1074C88.7138 12.9618 88.7755 12.7749 88.7798 12.6451C88.7849 12.5127 88.7459 12.4363 88.7244 12.4392Z" fill="#263238"/>
<path d="M88.5962 9.0325C88.6366 9.1063 88.9181 9.02533 89.2617 9.01411C89.6053 8.99617 89.8924 9.05314 89.9265 8.9762C89.9413 8.93964 89.8826 8.87325 89.761 8.81448C89.6403 8.75571 89.4553 8.71041 89.2494 8.71893C89.0435 8.72768 88.8629 8.78846 88.7476 8.85732C88.6312 8.92618 88.5783 8.99729 88.5962 9.0325Z" fill="#263238"/>
<path d="M85.9669 8.88675C86.0214 8.95022 86.2181 8.87172 86.4588 8.85647C86.6988 8.83269 86.9056 8.87845 86.9491 8.80712C86.9682 8.77258 86.9325 8.70798 86.8403 8.65011C86.7495 8.59224 86.6001 8.54872 86.4348 8.56196C86.2697 8.57542 86.1293 8.64248 86.049 8.71426C85.9671 8.78626 85.9427 8.85557 85.9669 8.88675Z" fill="#263238"/>
<path d="M92.1993 11.7072C92.1993 11.7072 90.7108 12.1706 89.8686 8.49675C89.5806 7.24043 88.416 6.22322 88.416 6.22322L88.8884 6.08124C88.8884 6.08124 91.8238 6.90824 91.8732 6.94525C91.9225 6.98226 92.6138 8.46333 92.6138 8.46333L92.1993 11.7072Z" fill="#263238"/>
<path d="M91.6184 11.5018C91.611 11.345 91.7736 10.9662 91.9273 10.9343C92.3375 10.8491 93.0847 10.8451 93.1443 11.895C93.2258 13.3303 91.768 13.1161 91.7631 13.0751C91.7593 13.043 91.6444 12.0435 91.6184 11.5018Z" fill="#FFBF9D"/>
<path d="M92.1701 12.5063C92.1762 12.5013 92.1961 12.5224 92.2394 12.5392C92.2818 12.5558 92.3534 12.5648 92.4267 12.5325C92.5752 12.4683 92.6892 12.2203 92.6815 11.9612C92.6777 11.8302 92.6434 11.7075 92.5914 11.607C92.5416 11.5045 92.4696 11.435 92.3924 11.4258C92.3155 11.4126 92.2641 11.4612 92.2486 11.5027C92.2316 11.544 92.2423 11.5723 92.2349 11.5749C92.2311 11.5788 92.2029 11.5527 92.2109 11.4929C92.2152 11.4639 92.2302 11.4292 92.2623 11.3995C92.2953 11.3697 92.3449 11.3524 92.3985 11.3551C92.5097 11.3565 92.6149 11.4527 92.6723 11.5628C92.7358 11.6732 92.7775 11.8111 92.7818 11.9581C92.789 12.2479 92.6564 12.5269 92.4521 12.5987C92.3527 12.6307 92.2666 12.6049 92.2213 12.5735C92.1746 12.541 92.1652 12.5092 92.1701 12.5063Z" fill="#FF9A6C"/>
<path d="M93.1517 17.1291C93.1533 17.1294 93.1584 17.1058 93.1672 17.0598C93.1761 17.0094 93.188 16.9416 93.2033 16.8557C93.2338 16.6713 93.2773 16.4091 93.3325 16.0763L93.2977 16.0713C93.2905 16.1234 93.2825 16.1812 93.2742 16.2409L93.2757 16.2355C93.2668 16.255 93.2562 16.2772 93.2457 16.2999L93.2818 16.3131C93.4518 15.7259 93.6382 14.9361 93.742 14.0024C93.7957 13.5361 93.8262 13.0341 93.8297 12.5076C93.8246 11.983 93.8284 11.4258 93.6878 10.8691C93.6299 10.6392 93.5415 10.4185 93.4267 10.2175C93.3118 10.0165 93.175 9.8335 93.0297 9.66483C92.7376 9.32748 92.4234 9.03768 92.1363 8.74967C91.5569 8.17972 91.035 7.66607 90.5951 7.23362C90.1575 6.80632 89.802 6.45955 89.5521 6.21551C89.4307 6.0991 89.3352 6.00714 89.2661 5.94119C89.2352 5.91248 89.2103 5.88938 89.1905 5.87098C89.1733 5.85551 89.1641 5.84788 89.1632 5.84855C89.1623 5.84945 89.1701 5.85842 89.1858 5.87569C89.2044 5.89521 89.2278 5.91988 89.2567 5.95061C89.3235 6.0188 89.4162 6.11345 89.5339 6.23368C89.7802 6.48109 90.1306 6.83301 90.5621 7.26659C90.9991 7.70218 91.5177 8.21898 92.0932 8.79274C92.3792 9.08186 92.6932 9.37346 92.9805 9.70677C93.2679 10.0385 93.5151 10.4315 93.6238 10.8857C93.7618 11.4301 93.7595 11.9852 93.7656 12.5076C93.7631 13.0318 93.7349 13.5316 93.6837 13.9961C93.585 14.9265 93.4058 15.7147 93.2443 16.3026L93.2804 16.3158C93.2908 16.2929 93.3008 16.2705 93.3096 16.251L93.3109 16.2483L93.3112 16.2456C93.3186 16.186 93.3257 16.1281 93.3323 16.0758L93.2975 16.0709C93.2493 16.4049 93.2114 16.668 93.1847 16.8528C93.1732 16.9394 93.1643 17.0073 93.1575 17.0583C93.1521 17.1047 93.1501 17.1289 93.1517 17.1291Z" fill="#455A64"/>
<path d="M94.1116 10.1689C94.1136 10.1678 94.1049 10.1469 94.0865 10.1081C94.0641 10.0628 94.0363 10.0072 94.0028 9.93967C93.9302 9.79343 93.8153 9.58639 93.6648 9.33585C93.5152 9.08463 93.3232 8.79393 93.0969 8.48036C92.8679 8.1688 92.603 7.83572 92.3055 7.50308C92.0061 7.17178 91.7031 6.87301 91.4175 6.61215C91.1298 6.35375 90.861 6.13192 90.6273 5.95652C90.3943 5.78021 90.2007 5.64406 90.063 5.55614C89.9993 5.51554 89.947 5.48212 89.9044 5.45498C89.8678 5.43255 89.8479 5.42156 89.8468 5.42358C89.8454 5.42537 89.8629 5.43995 89.8972 5.46597C89.9378 5.4958 89.9878 5.53258 90.0486 5.577C90.1816 5.6712 90.3705 5.81274 90.5991 5.99285C90.8283 6.17229 91.0928 6.39682 91.3769 6.65634C91.6587 6.91855 91.959 7.21687 92.2569 7.54637C92.5527 7.87744 92.8176 8.20761 93.0482 8.5158C93.2761 8.82601 93.4712 9.11267 93.6253 9.35985C93.7803 9.60636 93.901 9.80912 93.9804 9.95133C94.0183 10.0166 94.0495 10.0702 94.0748 10.1137C94.0968 10.1512 94.1096 10.17 94.1116 10.1689Z" fill="#455A64"/>
<path d="M69.4943 21.3961L68.083 22.3568C68.083 22.3568 68.2582 22.7832 68.7467 22.5674C69.2352 22.3516 70.1031 21.8173 70.1031 21.8173L70.7731 22.0874L71.2869 21.467L69.6266 21.36C69.5798 21.3571 69.5331 21.3696 69.4943 21.3961Z" fill="#FF9A6C"/>
<path d="M74.9702 23.562L71.4494 21.4584C71.433 21.4486 71.4141 21.4434 71.3951 21.4434H71.0245C71.0198 21.4434 71.0151 21.4436 71.0104 21.4443L69.5888 21.6359C69.5697 21.6383 69.5515 21.6462 69.5365 21.6583L68.2145 22.7224C68.1494 22.7749 68.1674 22.8783 68.2463 22.9054C68.4258 22.9671 68.7923 22.9797 68.9094 22.9458C69.3775 22.8103 69.7761 22.4658 69.9174 22.3579C69.9409 22.34 69.9705 22.3328 69.9999 22.3379L70.9359 22.5044C70.9846 22.5131 71.0209 22.5544 71.0232 22.6037L71.0286 22.7172C71.0306 22.7603 71.0073 22.7998 70.9682 22.8179C70.8164 22.8888 70.42 23.0508 70.0813 22.9875C69.6357 22.9043 69.4154 22.9187 69.4154 22.9187C69.2741 22.9254 68.7743 22.9976 68.6884 23.0662C68.5301 23.193 68.5924 23.4482 68.7898 23.4949C69.2111 23.5947 70.2825 23.7403 70.5124 23.8105C70.8294 23.9074 70.9667 24.2743 71.8529 24.5563C72.3039 24.6998 73.0336 24.4928 73.2169 24.4233L74.021 25.2314C74.0721 25.2622 74.1385 25.2447 74.1679 25.1929L75.0079 23.7044C75.0364 23.6548 75.0196 23.5913 74.9702 23.562Z" fill="#FFBF9D"/>
<path d="M68.3501 25.5313L68.8301 25.639C69.0426 25.6868 69.2536 25.5531 69.3012 25.3407L69.5383 24.2846C69.586 24.0722 69.4524 23.8612 69.2399 23.8134L68.7599 23.7057C68.5475 23.658 68.3365 23.7916 68.2887 24.004L68.0516 25.0601C68.004 25.2727 68.1377 25.4835 68.3501 25.5313Z" fill="#455A64"/>
<path d="M69.1448 22.9506C69.1439 22.9383 69.0809 22.9237 68.9786 22.9423C68.8801 22.9594 68.7269 23.0177 68.637 23.1651C68.5473 23.3104 68.5517 23.4686 68.5744 23.5677C68.5989 23.6695 68.6403 23.7216 68.6529 23.7157C68.6682 23.7095 68.6547 23.6502 68.652 23.5576C68.6504 23.4659 68.6608 23.336 68.731 23.2236C68.7996 23.1101 68.9149 23.052 69.0001 23.0175C69.0863 22.9823 69.1468 22.9686 69.1448 22.9506Z" fill="#263238"/>
<path d="M69.0025 23.9078C68.9921 23.9309 69.1417 24.0165 69.3391 23.9331C69.4363 23.8856 69.4849 23.7878 69.489 23.725C69.4966 23.6606 69.4816 23.6229 69.4681 23.6222C69.4322 23.6164 69.419 23.7725 69.2896 23.8342C69.1563 23.8952 69.0065 23.8755 69.0025 23.9078Z" fill="#263238"/>
<path d="M68.3559 25.5357C68.3581 25.5323 68.3303 25.5204 68.3061 25.4776C68.2803 25.4354 68.2709 25.3627 68.294 25.2761C68.3547 25.0449 68.4126 24.8255 68.475 24.5878C68.5335 24.3489 68.5876 24.1286 68.6448 23.8962C68.6634 23.8081 68.7109 23.7511 68.7589 23.7381C68.8054 23.7226 68.8325 23.7401 68.8334 23.7361C68.8359 23.7354 68.8094 23.7096 68.7542 23.7215C68.6984 23.7296 68.6367 23.7971 68.6147 23.8877C68.5649 24.064 68.501 24.3072 68.4321 24.577C68.3637 24.8468 68.3032 25.0904 68.2632 25.2699C68.2426 25.3609 68.2581 25.4444 68.2915 25.487C68.3233 25.5312 68.3559 25.5377 68.3559 25.5357Z" fill="#263238"/>
<path d="M68.5352 24.2927C68.5318 24.3043 68.7359 24.3727 68.9908 24.4452C69.2458 24.5176 69.4551 24.567 69.4584 24.5553C69.4618 24.5434 69.2579 24.4752 69.0029 24.4028C68.7481 24.3301 68.5386 24.2808 68.5352 24.2927Z" fill="#263238"/>
<path d="M68.4044 24.8574C68.4003 24.8688 68.5946 24.9357 68.8384 25.0068C69.0824 25.0777 69.2823 25.1254 69.285 25.1136C69.2877 25.1017 69.0932 25.0348 68.8507 24.9644C68.6085 24.8937 68.4086 24.846 68.4044 24.8574Z" fill="#263238"/>
<path d="M68.2398 25.5051C68.2398 25.5051 68.1241 25.4174 68.162 25.2361C68.1999 25.0549 68.4731 23.9444 68.4731 23.9444L68.3125 23.8964L68.0319 25.1318C68.0319 25.1318 67.9839 25.4449 68.2398 25.5051Z" fill="#E0E0E0"/>
<path d="M89.5977 70.1689L89.5988 70.3739C89.5988 70.3739 86.1372 71.8029 86.1064 72.4626L93.0064 72.3612L92.8788 70.0666C91.86 70.5567 90.7869 70.626 89.5977 70.1689Z" fill="url(#paint0_linear_203_839)"/>
<path d="M93.0075 72.3615L92.977 71.8094L86.3751 72.1089C86.3751 72.1089 86.0698 72.2471 86.1078 72.4628L93.0075 72.3615Z" fill="#E0FFFA"/>
<path d="M89.585 70.3938C89.5866 70.4274 89.7553 70.4402 89.9228 70.5461C90.0929 70.6477 90.1806 70.7921 90.2113 70.7784C90.2422 70.7715 90.1891 70.5707 89.9841 70.4462C89.7804 70.3197 89.5774 70.3628 89.585 70.3938Z" fill="white"/>
<path d="M88.8762 70.7036C88.8691 70.7363 89.0157 70.7915 89.1324 70.9324C89.2531 71.0697 89.2842 71.2233 89.3177 71.2215C89.3495 71.2262 89.3699 71.0286 89.2217 70.8563C89.075 70.6825 88.8765 70.6715 88.8762 70.7036Z" fill="white"/>
<path d="M88.447 71.5746C88.4778 71.5813 88.5222 71.4122 88.4329 71.2291C88.345 71.0452 88.185 70.9748 88.1711 71.003C88.1525 71.0311 88.2564 71.1286 88.3273 71.2801C88.4017 71.4299 88.4134 71.5719 88.447 71.5746Z" fill="white"/>
<path d="M94.5522 68.0889L91.6141 68.9105L92.3478 70.5764L91.5865 74.7924C91.545 75.0297 91.6807 75.274 91.918 75.3395C92.1006 75.39 92.2913 75.3334 92.4124 75.1977C93.0611 74.4705 95.4331 71.7841 95.3761 71.4557L95.2821 70.5791C95.2626 70.3974 95.0863 69.965 95.0863 69.9257L94.5522 68.0889Z" fill="url(#paint1_linear_203_839)"/>
<path d="M91.9834 75.3542L95.3266 71.149L95.3441 71.3408C95.3825 71.5467 95.2972 71.6377 95.2086 71.7806C94.9462 72.2036 94.1993 73.165 92.4049 75.1954C92.3003 75.3134 92.1418 75.3733 91.9834 75.3542Z" fill="#E0FFFA"/>
<path d="M92.8796 73.281C92.8545 73.2958 92.728 73.0686 92.44 72.9663C92.1551 72.8557 91.9044 72.9432 91.8958 72.9156C91.8907 72.9048 91.9465 72.8642 92.0537 72.8393C92.1601 72.814 92.3186 72.8144 92.4768 72.873C92.6347 72.932 92.7529 73.0343 92.8146 73.122C92.8774 73.2101 92.8908 73.2763 92.8796 73.281Z" fill="white"/>
<path d="M92.6195 73.9179C92.5991 73.9394 92.4367 73.806 92.1902 73.7609C91.9448 73.7107 91.7413 73.773 91.7313 73.7454C91.7158 73.7237 91.9307 73.607 92.2108 73.6629C92.4914 73.716 92.6426 73.9036 92.6195 73.9179Z" fill="white"/>
<path d="M93.4244 72.4479C93.4046 72.4713 93.1556 72.2649 92.7788 72.162C92.4038 72.0534 92.079 72.0987 92.0754 72.0687C92.0655 72.0451 92.4051 71.9507 92.8078 72.066C93.2115 72.1774 93.4457 72.4331 93.4244 72.4479Z" fill="white"/>
<path d="M92.3042 70.0027C92.3181 70.0027 92.3307 70.223 92.3385 70.57V70.5722L92.3379 70.576C92.3011 70.82 92.25 71.1323 92.1907 71.471C92.1205 71.872 92.0521 72.2343 91.9983 72.4956C91.9445 72.7569 91.9052 72.9177 91.8933 72.9155C91.8814 72.9135 91.8991 72.749 91.9373 72.4848C91.9756 72.2206 92.0344 71.8568 92.1046 71.4557C92.1638 71.117 92.2219 70.8059 92.2704 70.5641L92.2699 70.57C92.2778 70.223 92.2901 70.0027 92.3042 70.0027Z" fill="#E0FFFA"/>
<path d="M96.4878 42.8639C96.7195 41.746 97.3051 39.7261 97.0743 38.796C96.5391 36.6402 95.5995 35.3929 94.3156 32.6559H93.3623L84.2059 32.4969L83.4563 34.1576C82.6248 36.3971 82.0564 37.7341 81.8225 39.3722C81.5529 41.2588 82.0261 43.9921 83.0745 46.7519C85.3373 52.7087 86.601 57.4731 86.688 58.7561C86.7751 60.0391 86.9114 61.3659 88.1011 65.4289C88.9696 68.3953 89.6116 70.1691 89.6116 70.1691C90.5137 70.6782 91.4708 70.8157 92.3415 70.3211L94.9984 69.2954C94.9984 69.2954 94.1842 62.2988 93.2336 60.4427C92.5492 59.1065 91.4298 58.4719 91.9519 56.7307C92.4741 54.9894 95.7772 46.2928 96.4878 42.8639Z" fill="url(#paint2_linear_203_839)"/>
<path d="M85.7657 37.2141C85.7668 37.2135 85.7789 37.2289 85.802 37.2603C85.8267 37.2947 85.8601 37.3411 85.9032 37.401C85.9932 37.5291 86.123 37.7137 86.2908 37.9523C86.6293 38.4393 87.1209 39.1465 87.7425 40.0403L87.7479 40.0482L87.747 40.0574C87.6763 40.8391 87.6496 41.747 87.6012 42.7578C87.5532 43.7687 87.5 44.8817 87.4433 46.0768C87.3807 47.2721 87.3138 48.549 87.2439 49.8874C87.1642 51.2256 87.0958 52.625 86.9617 54.0641C86.8222 55.2615 86.699 56.4375 86.8013 57.5682C86.8273 57.8501 86.8621 58.1287 86.9153 58.4017C86.9702 58.6727 87.0205 58.9476 87.1133 59.2002C87.3029 59.7078 87.5231 60.1995 87.7317 60.6775C88.5767 62.5896 89.3682 64.2986 90.0274 65.7359C90.6887 67.1694 91.2243 68.3304 91.5964 69.1368C91.7797 69.536 91.9226 69.8474 92.0213 70.0623C92.0679 70.1659 92.104 70.2462 92.1298 70.3038C92.1538 70.3586 92.1641 70.3875 92.1641 70.3875C92.1641 70.3875 92.1484 70.361 92.1217 70.3079C92.0939 70.2511 92.0551 70.1722 92.0051 70.0701C91.9028 69.8568 91.755 69.5479 91.5653 69.1516C91.1871 68.3479 90.6427 67.191 89.9707 65.7624C89.3043 64.3282 88.5069 62.6222 87.6572 60.7104C87.4469 60.2309 87.2273 59.7441 87.0332 59.2267C86.9372 58.9654 86.8874 58.6926 86.8311 58.4174C86.7771 58.1419 86.7416 57.8605 86.7152 57.5758C86.6109 56.4343 86.7347 55.2505 86.874 54.0545C87.0074 52.6212 87.077 51.2193 87.1582 49.8825C87.2308 48.5445 87.2999 47.2678 87.3648 46.0727C87.4258 44.8781 87.4825 43.7651 87.5341 42.7546C87.5868 41.7448 87.6187 40.8355 87.6949 40.0534L87.6994 40.0702C87.0864 39.1703 86.6017 38.4583 86.2677 37.9682C86.1049 37.7262 85.9788 37.5391 85.8913 37.4093C85.8507 37.3476 85.8193 37.2998 85.796 37.2646C85.7747 37.2319 85.7646 37.2148 85.7657 37.2141Z" fill="#E0FFFA"/>
<path d="M86.9841 17.6557L87.7624 16.2639L89.4429 18.1521L91.9829 16.1094L92.416 16.6282L93.3448 33.0619C93.3448 33.0619 90.0992 33.7166 88.4766 33.489C86.8538 33.2613 84.9463 32.5211 84.9463 32.5211V23.1753L86.9841 17.6557Z" fill="#F5F5F5"/>
<path d="M92.0293 18.3231C92.0302 18.324 92.0224 18.3341 92.0062 18.3528C91.9872 18.3741 91.9632 18.401 91.9336 18.4342C91.869 18.5044 91.773 18.606 91.6474 18.7309C91.3964 18.9808 91.0254 19.3244 90.5505 19.6909L90.5344 19.7033L90.5207 19.6883C90.1973 19.3339 89.8478 18.9075 89.5149 18.4297C89.4811 18.3803 89.4472 18.3312 89.4158 18.2855L89.4559 18.2864C89.1693 18.6722 88.8976 19.0382 88.6505 19.3706C88.6179 19.4121 88.5829 19.4525 88.539 19.4839C88.4959 19.5155 88.4387 19.5355 88.3835 19.5263C88.3279 19.5178 88.2835 19.4841 88.2487 19.45C88.2135 19.4151 88.1853 19.3771 88.1566 19.3417C88.0424 19.1988 87.9361 19.0656 87.8387 18.9436C87.6481 18.7027 87.4933 18.5069 87.3825 18.3671C87.3318 18.3014 87.2914 18.2491 87.2607 18.2094C87.2333 18.1731 87.2196 18.1536 87.2208 18.1525C87.2221 18.1513 87.2383 18.1691 87.2681 18.2034C87.3004 18.2417 87.3432 18.2922 87.3968 18.3554C87.5106 18.4929 87.6694 18.6856 87.865 18.9223C87.9636 19.0429 88.0718 19.1748 88.1875 19.3166C88.2449 19.3854 88.303 19.4696 88.3898 19.4841C88.4775 19.498 88.5558 19.422 88.615 19.3433C88.8609 19.0102 89.1311 18.6435 89.4162 18.257L89.4366 18.2292L89.4564 18.2579C89.4878 18.3034 89.5214 18.3523 89.5553 18.4014C89.8868 18.8774 90.2334 19.3033 90.5532 19.6586L90.5234 19.656C90.9991 19.2937 91.373 18.9559 91.6287 18.7121C91.7568 18.5901 91.8557 18.4916 91.9233 18.4245C91.9549 18.3934 91.9804 18.368 92.0009 18.348C92.0188 18.3308 92.0284 18.3223 92.0293 18.3231Z" fill="#263238"/>
<g opacity="0.3">
<path d="M88.2012 19.3653C88.2012 19.3653 88.626 19.8886 88.7453 19.7571C88.8647 19.6257 89.4938 18.6513 89.5692 18.6107C89.6446 18.5704 90.4052 19.9361 90.7035 19.8406C91.002 19.745 92.0661 18.6812 92.0661 18.6812L92.087 18.2624L90.5368 19.673L89.4359 18.2714L88.51 19.4763C88.51 19.4763 88.3138 19.6302 88.2012 19.3653Z" fill="black"/>
</g>
<path d="M88.9139 33.5887C88.9107 33.5885 88.9103 33.5353 88.9125 33.4344C88.9161 33.3252 88.9208 33.178 88.9267 32.9932C88.9426 32.6009 88.965 32.0489 88.9926 31.3708C89.05 30.001 89.1272 28.1088 89.1996 26.0185C89.2719 23.9274 89.3252 22.0343 89.3627 20.6638C89.382 19.9855 89.3977 19.4333 89.4089 19.041C89.4159 18.8561 89.4213 18.709 89.4253 18.5998C89.43 18.4988 89.434 18.4459 89.4374 18.4461C89.4405 18.4461 89.443 18.4993 89.4444 18.6002C89.4448 18.7097 89.4452 18.8568 89.4457 19.0416C89.4419 19.4342 89.4363 19.9866 89.4295 20.6653C89.4094 22.0363 89.3663 23.9303 89.2941 26.0219C89.2216 28.1128 89.1337 30.0051 89.0592 31.3742C89.0191 32.0518 88.9865 32.6034 88.9632 32.9952C88.9498 33.1798 88.9392 33.3265 88.9314 33.4358C88.9231 33.536 88.9172 33.5887 88.9139 33.5887Z" fill="#263238"/>
<g opacity="0.3">
<path d="M85.9622 26.9548C85.3752 30.8052 84.7882 34.6556 84.2012 38.5059L84.3378 39.7578C84.4923 39.9338 84.8001 39.8753 84.9571 39.7015C85.1141 39.5276 85.1603 39.2834 85.1991 39.0523C85.8698 35.0586 86.2318 30.9956 85.9622 26.9548Z" fill="black"/>
</g>
<path d="M83.4835 17.6979C82.8379 17.8998 82.5452 18.3185 82.1197 19.0883L78.9858 25.2066C78.9858 25.2066 74.6238 23.0268 74.6146 23.0769L72.998 25.5139L78.1126 28.6779C79.2955 29.4098 80.8437 29.0942 81.646 27.9581L83.2563 25.6779L84.6005 17.4799L83.4835 17.6979Z" fill="#E0E0E0"/>
<path d="M85.906 17.2243L83.9189 17.613L83.2272 25.021L83.4802 30.1432C83.4883 30.2737 83.4925 30.3471 83.4925 30.3471L80.0607 38.0267C80.8272 39.3954 82.902 40.0369 84.3653 40.3855C84.3653 40.3855 85.8466 29.8873 85.9419 27.5732C86.0375 25.259 87.6101 16.4736 87.6101 16.4736L85.906 17.2243Z" fill="#E0E0E0"/>
<path d="M80.4844 37.1632C80.4838 37.163 80.4883 37.1511 80.4974 37.1282C80.5078 37.1038 80.5217 37.0704 80.5396 37.0275C80.5784 36.9371 80.6345 36.8073 80.7063 36.6399C80.8541 36.3013 81.0676 35.8123 81.3336 35.2028C81.8715 33.9808 82.622 32.2762 83.476 30.3366L83.4739 30.3472C83.458 29.825 83.4389 29.2813 83.4125 28.7261C83.3546 27.4743 83.2857 26.2821 83.2402 25.197C83.1931 24.1118 83.1666 23.1338 83.1577 22.3127C83.1476 21.4913 83.1539 20.8267 83.1613 20.3673C83.1666 20.1394 83.1707 19.9618 83.1736 19.8386C83.1754 19.7798 83.177 19.7341 83.1781 19.7011C83.1794 19.6702 83.1812 19.6542 83.1812 19.6542C83.1812 19.6542 83.1828 19.6702 83.183 19.7011C83.183 19.7341 83.1832 19.7798 83.1835 19.8386C83.1828 19.9618 83.1817 20.1394 83.1803 20.3673C83.179 20.8264 83.1779 21.491 83.1924 22.312C83.2059 23.1329 83.236 24.1102 83.2855 25.1949C83.3396 26.2797 83.3992 27.4721 83.4616 28.7239C83.4881 29.2793 83.5069 29.8232 83.5224 30.3458L83.5226 30.3512L83.5204 30.3561C82.6604 32.293 81.9045 33.9952 81.3628 35.2154C81.0912 35.8224 80.8732 36.3093 80.722 36.6467C80.6466 36.8124 80.5883 36.9412 80.5475 37.0309C80.528 37.0731 80.5125 37.1058 80.5013 37.1298C80.4909 37.1525 80.4853 37.1635 80.4844 37.1632Z" fill="#263238"/>
<path d="M85.8327 26.4262C85.8318 26.4264 85.8291 26.4179 85.8249 26.4015C85.8199 26.3823 85.8139 26.3578 85.8065 26.3278C85.7906 26.2591 85.7686 26.1638 85.7405 26.0429C85.689 25.7944 85.6156 25.4341 85.5483 24.9849C85.4804 24.536 85.4137 23.9991 85.3615 23.4011C85.3088 22.8031 85.267 22.1443 85.2347 21.4528C85.2231 21.1944 85.2119 20.9407 85.2006 20.6931C85.1953 20.5692 85.1899 20.4472 85.1845 20.3266C85.1816 20.2662 85.1787 20.2063 85.1757 20.1469L85.1731 20.0574L85.1735 20.0121C85.1737 20.0045 85.1744 19.9966 85.1753 19.9879C85.176 19.9834 85.1764 19.9787 85.1793 19.9713C85.1809 19.9679 85.1829 19.9648 85.1852 19.9618C85.1897 19.9551 85.2078 19.9513 85.2116 19.9549C85.2294 19.9636 85.224 19.9648 85.2289 19.9695L85.195 19.9621C85.3785 19.834 85.5559 19.7102 85.7269 19.5908L85.7302 19.6294C85.5288 19.535 85.3359 19.4446 85.1522 19.3587L85.1367 19.3513L85.141 19.3349C85.2278 19.0061 85.3323 18.7145 85.4234 18.4561C85.5156 18.1982 85.6004 17.9754 85.6712 17.7926C85.7421 17.61 85.7995 17.4674 85.8399 17.3707C85.8594 17.3249 85.8749 17.2886 85.8868 17.2608C85.8978 17.2361 85.9038 17.2236 85.905 17.224C85.9061 17.2245 85.9018 17.2377 85.8928 17.2633C85.8825 17.2915 85.8688 17.3288 85.8518 17.3754C85.8141 17.477 85.761 17.6201 85.6939 17.8011C85.6264 17.9851 85.5447 18.2087 85.4555 18.4673C85.3673 18.7262 85.2652 19.0189 85.1816 19.345L85.1704 19.3215C85.3545 19.4065 85.5481 19.4957 85.75 19.5891L85.785 19.6052L85.7533 19.6274C85.5829 19.7474 85.4059 19.8719 85.2229 20.0006L85.189 19.9932C85.1888 19.9962 85.2056 19.9809 85.2045 19.9809C85.2049 19.9769 85.2047 19.9816 85.2063 19.9809C85.209 19.9838 85.2123 19.9858 85.2161 19.9863L85.2235 19.9894C85.2235 19.9894 85.2233 19.9897 85.2233 19.9906L85.2226 19.9944L85.2213 20.0141L85.2211 20.0569L85.224 20.1451C85.2271 20.2043 85.23 20.2642 85.2332 20.3243C85.2388 20.445 85.2444 20.5672 85.25 20.6913C85.2612 20.9389 85.2729 21.1926 85.2845 21.4508C85.3171 22.1421 85.3572 22.8002 85.4075 23.3975C85.457 23.995 85.5201 24.5313 85.5835 24.9801C85.6463 25.4292 85.7143 25.7899 85.7601 26.0393C85.7841 26.1609 85.8031 26.2567 85.8168 26.326C85.8224 26.3565 85.8269 26.3811 85.8305 26.4007C85.8325 26.4172 85.8336 26.426 85.8327 26.4262Z" fill="#263238"/>
<path d="M95.8285 31.3127L97.094 18.5237L93.5332 17.2185C93.5332 17.2185 92.6761 16.7468 92.2314 16.3489L92.0981 18.061C92.0981 18.061 91.6166 26.2693 92.3742 30.4032C93.1322 34.5371 93.0252 34.3973 93.5799 37.0863C93.9836 39.0435 94.05 40.7527 94.6581 40.925C95.2662 41.0972 98.3447 39.9723 98.3447 39.9723L95.8285 31.3127Z" fill="#E0E0E0"/>
<path d="M97.0968 18.5239C97.0968 18.5239 98.1757 19.0534 98.3377 20.561C98.4801 21.8873 98.7134 30.0281 98.6849 30.6851C98.6564 31.3423 98.0894 33.1975 97.0724 33.2618C95.4673 33.3637 95.0254 32.1251 95.0254 32.1251L95.4567 27.9665L97.0968 18.5239Z" fill="#E0E0E0"/>
<path d="M93.0121 25.987C93.0112 25.9868 93.0121 25.9785 93.0147 25.9626C93.0181 25.9437 93.0224 25.9204 93.0275 25.8917C93.0405 25.8257 93.0587 25.7351 93.0814 25.62C93.1244 25.3836 93.1899 25.042 93.2503 24.6165C93.3772 23.7666 93.4856 22.5834 93.5479 21.2733C93.5625 20.9647 93.5766 20.663 93.5905 20.3712C93.597 20.2251 93.6035 20.0818 93.6098 19.9412C93.6136 19.871 93.6172 19.8014 93.6208 19.7328C93.6222 19.6987 93.6235 19.6646 93.6246 19.6307L93.6248 19.5809C93.6246 19.5729 93.6244 19.5648 93.6235 19.5576C93.6233 19.5545 93.6224 19.55 93.6224 19.55C93.6222 19.5491 93.6224 19.5502 93.6237 19.5527C93.6248 19.554 93.6239 19.5531 93.6269 19.556C93.6302 19.5594 93.6367 19.5616 93.6412 19.561C93.6468 19.5623 93.656 19.5542 93.6545 19.5554L93.6556 19.554L93.6226 19.5612C93.4376 19.4309 93.2608 19.3062 93.0924 19.1875L93.0621 19.1662L93.0955 19.1507C93.3012 19.0561 93.495 18.9668 93.6753 18.8838L93.665 18.9056C93.6031 18.6469 93.5755 18.4083 93.547 18.1997C93.5201 17.9909 93.4939 17.8112 93.4651 17.6656C93.4367 17.5201 93.4062 17.4084 93.383 17.3334C93.3716 17.2987 93.3626 17.2706 93.3552 17.2484C93.3492 17.2291 93.3465 17.219 93.3472 17.2188C93.3481 17.2186 93.3525 17.2278 93.3604 17.2464C93.368 17.2652 93.3804 17.2926 93.3934 17.3298C93.4201 17.4041 93.4539 17.5153 93.4858 17.6611C93.5179 17.8069 93.5472 17.9868 93.5768 18.1954C93.6078 18.4036 93.6383 18.6413 93.7016 18.8961L93.7054 18.9112L93.6912 18.9179C93.5116 19.0022 93.3185 19.0929 93.1134 19.1891L93.1166 19.1523C93.2855 19.2701 93.4629 19.3936 93.6486 19.5233L93.6157 19.5305L93.6204 19.524C93.6201 19.5231 93.6314 19.5143 93.6388 19.515C93.6444 19.5148 93.6518 19.5172 93.656 19.5211C93.6598 19.5244 93.6594 19.5249 93.661 19.5269C93.6637 19.5309 93.6648 19.5341 93.665 19.5352C93.6675 19.5433 93.6677 19.5473 93.6684 19.5525C93.6695 19.5621 93.6697 19.5708 93.6699 19.5798V19.6319C93.6688 19.666 93.6677 19.7005 93.6663 19.735C93.663 19.8039 93.6594 19.8734 93.656 19.9436C93.65 20.084 93.6441 20.2276 93.6379 20.3734C93.6244 20.6652 93.6105 20.9671 93.5961 21.276C93.5336 22.5868 93.4198 23.772 93.2837 24.6219C93.2189 25.0474 93.1482 25.3886 93.0993 25.6241C93.0726 25.7383 93.0515 25.8284 93.0363 25.8939C93.0291 25.9224 93.0233 25.9453 93.0188 25.9639C93.0154 25.9794 93.013 25.9872 93.0121 25.987Z" fill="#263238"/>
<g opacity="0.3">
<path d="M87.7758 32.6786C87.7758 32.6786 87.5329 32.9947 88.0674 33.0918C88.6019 33.1889 94.6603 32.7412 94.6603 32.7412L95.8114 33.4099L95.6611 32.9263L94.7011 31.9021L87.7758 32.6786Z" fill="black"/>
</g>
<path d="M95.0586 22.6032L87.4322 22.9924C87.2529 23.0016 87.1094 23.1443 87.0995 23.3235L86.5933 32.37C86.5816 32.5786 86.7537 32.7513 86.9623 32.7404L94.3624 32.3534C94.538 32.3442 94.6798 32.2065 94.6941 32.0311L95.4267 22.9823C95.4438 22.7708 95.2706 22.5925 95.0586 22.6032Z" fill="#263238"/>
<path d="M96.6569 20.6205C96.6585 20.621 96.6542 20.6488 96.6446 20.7017C96.6336 20.7589 96.6186 20.8359 96.6 20.9328C96.5596 21.1378 96.5028 21.4265 96.4329 21.7813C96.2936 22.4982 96.1114 23.4903 95.9372 24.5905C95.7633 25.6913 95.6308 26.6913 95.5422 27.416C95.4991 27.7751 95.4641 28.0671 95.4394 28.2746C95.4273 28.3726 95.4177 28.4503 95.4107 28.5081C95.4035 28.5615 95.3991 28.5893 95.3973 28.5891C95.3955 28.5889 95.3968 28.5606 95.4009 28.507C95.4056 28.4491 95.4123 28.3709 95.4204 28.2726C95.4381 28.0692 95.4677 27.7751 95.5076 27.412C95.5872 26.6859 95.7147 25.6842 95.8885 24.5826C96.0628 23.4815 96.2505 22.4897 96.3985 21.7744C96.4726 21.4166 96.5351 21.1277 96.5811 20.9287C96.6036 20.8327 96.6215 20.7563 96.6347 20.6997C96.6477 20.6475 96.6554 20.6203 96.6569 20.6205Z" fill="#263238"/>
<path d="M95.2151 28.5274C95.2151 28.5274 95.6543 28.5527 96.0428 29.203L96.7861 29.6761C96.7861 29.6761 97.4364 30.698 96.7861 31.6524C96.1359 32.6068 95.3504 31.7959 95.3504 31.7959C95.3504 31.7959 94.5649 32.1851 94.3453 32.1171C94.1257 32.0492 92.6372 31.2491 92.4196 31.0649C92.355 31.0104 91.8759 30.4602 91.8759 30.4602C91.8759 30.4602 91.212 30.3178 91.1359 30.1657C91.0599 30.0136 91.0545 29.6648 91.502 29.6987C91.502 29.6987 91.0664 29.5675 91.0157 29.3479C90.965 29.1283 91.0195 28.8419 91.7882 28.9516C92.5569 29.0615 94.0386 29.4731 94.2102 29.4311C94.2513 29.421 94.3168 29.2945 94.1934 29.2369C94.1382 29.2111 92.3961 28.5337 92.115 28.4567C91.8127 28.3738 91.7694 27.6997 92.3943 27.8603C93.0192 28.0207 95.0547 28.5106 95.0547 28.5106L95.2151 28.5274Z" fill="#FFBF9D"/>
<path d="M94.0671 31.1144C94.0646 31.1211 93.9422 31.081 93.7441 31.0164C93.5463 30.9518 93.2726 30.8643 92.9678 30.7752C92.663 30.6864 92.3851 30.6133 92.1834 30.5615C91.9818 30.5097 91.8568 30.4776 91.8584 30.4706C91.8591 30.4673 91.8914 30.4711 91.9488 30.4805C92.0064 30.4899 92.0892 30.5058 92.1913 30.5276C92.3954 30.5709 92.6755 30.6391 92.9815 30.7281C93.2872 30.8174 93.5602 30.9105 93.7553 30.9836C93.8531 31.0202 93.9316 31.0511 93.9852 31.0742C94.0391 31.0969 94.0682 31.1112 94.0671 31.1144Z" fill="#FF9A6C"/>
<path d="M94.3157 30.3059C94.3153 30.3093 94.2747 30.3064 94.2016 30.2983C94.1284 30.2905 94.0232 30.2763 93.8932 30.2571C93.6334 30.2185 93.2757 30.1561 92.8836 30.0722C92.4915 29.9881 92.1396 29.8984 91.8868 29.8273C91.7603 29.7916 91.6584 29.7613 91.5887 29.7387C91.5187 29.7163 91.4806 29.7021 91.4815 29.6988C91.4824 29.6954 91.5223 29.7032 91.5938 29.7201C91.675 29.7398 91.7762 29.7643 91.8957 29.7934C92.1505 29.856 92.5029 29.9401 92.8941 30.024C93.2853 30.1077 93.641 30.1752 93.899 30.2225C94.0201 30.2449 94.1222 30.264 94.2045 30.2793C94.2767 30.2932 94.3164 30.3026 94.3157 30.3059Z" fill="#FF9A6C"/>
<path d="M96.427 30.1318C96.4303 30.1321 96.4308 30.1603 96.4283 30.2119C96.427 30.2633 96.4175 30.3375 96.3994 30.4277C96.3639 30.6083 96.2783 30.8532 96.123 31.0898C95.9669 31.3258 95.7754 31.5012 95.6235 31.6048C95.5477 31.6571 95.4833 31.695 95.4365 31.7165C95.39 31.739 95.364 31.7497 95.3624 31.7468C95.3582 31.739 95.4589 31.6867 95.6029 31.5768C95.7469 31.4676 95.9295 31.2928 96.0818 31.0627C96.2332 30.8319 96.3218 30.5955 96.3653 30.4198C96.4097 30.2442 96.418 30.1312 96.427 30.1318Z" fill="#FF9A6C"/>
<path d="M96.6733 31.9019C96.6661 31.8956 96.7686 31.7967 96.8839 31.6026C96.9994 31.4111 97.1185 31.1139 97.1295 30.7705C97.14 30.4271 97.0396 30.1229 96.9364 29.9244C96.8332 29.7237 96.7374 29.6187 96.7448 29.6128C96.7471 29.6108 96.7729 29.6351 96.8144 29.684C96.8558 29.7326 96.9108 29.808 96.9671 29.908C97.0804 30.1061 97.1898 30.4176 97.1788 30.772C97.1676 31.1262 97.0391 31.4304 96.9137 31.621C96.8511 31.7175 96.7917 31.789 96.7473 31.8352C96.7027 31.8814 96.6755 31.9039 96.6733 31.9019Z" fill="#263238"/>
<path d="M98.3905 28.6545C98.3847 28.6625 98.266 28.571 98.0511 28.4661C97.9441 28.4127 97.8111 28.3615 97.66 28.3165C97.5079 28.2745 97.3374 28.2409 97.1559 28.2261C96.9743 28.2137 96.8004 28.2216 96.6439 28.2404C96.4878 28.2624 96.3485 28.2934 96.2347 28.3301C96.0066 28.4019 95.8756 28.4748 95.8711 28.4658C95.8696 28.4629 95.9014 28.4436 95.9609 28.4111C95.9903 28.3943 96.027 28.3752 96.0717 28.3573C96.1161 28.3387 96.1657 28.3147 96.2237 28.2969C96.3377 28.2552 96.4788 28.2202 96.6376 28.1953C96.7968 28.1736 96.974 28.1642 97.1593 28.1767C97.3444 28.1917 97.5184 28.2274 97.6725 28.2727C97.8259 28.3209 97.9598 28.3766 98.0666 28.4347C98.1213 28.4607 98.1669 28.4919 98.2081 28.5168C98.2496 28.5412 98.2831 28.5657 98.3098 28.5865C98.364 28.628 98.3925 28.6518 98.3905 28.6545Z" fill="#263238"/>
<g opacity="0.3">
<path d="M93.4046 17.3832C93.4046 17.3832 94.0477 18.8825 93.9584 19.0074C93.8691 19.1323 93.53 19.2216 93.53 19.2216C93.53 19.2216 94.0838 19.4609 94.0833 19.6736C94.0824 20.0968 93.4894 22.6032 93.4894 22.6032L93.6356 19.5424L93.1045 19.17L93.6832 18.9009L93.4046 17.3832Z" fill="black"/>
</g>
<path d="M89.685 22.8774C89.6567 22.9671 89.7507 22.1211 89.7507 22.1211L93.3483 21.9643L93.2447 22.6957L89.685 22.8774Z" fill="#455A64"/>
<path d="M68.9076 26.8068C68.7506 27.1316 68.625 27.4135 68.6052 27.4581L68.4323 26.2164C68.4323 26.2164 68.059 26.1899 68.0081 26.6549C67.957 27.1201 67.872 27.5073 67.872 27.5073L67.6793 27.5445L67.2069 27.584L65.9035 26.8745L66.3028 27.8917C66.3028 27.8917 67.0326 28.1488 67.0914 28.1595C67.1502 28.1703 69.1814 27.8439 69.1814 27.8439C69.2164 27.8549 69.6285 26.4436 69.6285 26.4436C69.6285 26.4436 69.0787 26.4528 68.9076 26.8068Z" fill="#6F4439"/>
<path d="M43.0039 46.9326C43.0039 46.9326 43.553 41.8912 44.7335 41.3307C45.914 40.7702 47.5503 40.4025 47.9969 41.1571C48.4432 41.9116 48.908 43.0486 49.0858 44.2547C49.2637 45.4608 49.1621 47.3041 49.1621 47.3041L47.817 47.1543C47.817 47.1543 47.8829 42.1299 47.4742 41.3872C47.0656 40.6446 44.9937 41.2412 44.7669 42.136C44.5401 43.0307 44.0426 47.0464 44.0426 47.0464L43.0039 46.9326Z" fill="#455A64"/>
<path d="M38.3169 54.0398C38.3799 51.9599 38.5789 47.3758 38.6677 45.3596C38.6919 44.8098 39.1463 44.3778 39.6968 44.3809L52.0623 44.455C52.6141 44.4583 53.064 44.8982 53.0797 45.4497L53.3215 53.9894C53.3379 54.5642 52.8774 55.04 52.3021 55.0422L39.3444 55.0947C38.765 55.0974 38.2994 54.619 38.3169 54.0398Z" fill="#455A64"/>
<path d="M38.3159 54.0397C38.3292 54.0361 38.2904 54.2212 38.4301 54.5163C38.5014 54.6592 38.6291 54.825 38.8339 54.9423C38.9357 55.0002 39.0561 55.045 39.1896 55.0641C39.3222 55.0827 39.4698 55.0722 39.6245 55.0731C40.8674 55.0641 42.6593 55.0511 44.8721 55.0349C45.9801 55.0284 47.1934 55.0215 48.4957 55.0138C49.147 55.0102 49.8206 55.0067 50.5144 55.0031C50.8614 55.0013 51.2133 54.9995 51.5702 54.9977C51.7485 54.9968 51.9281 54.9959 52.1089 54.995C52.2922 54.9946 52.4669 55.0006 52.6309 54.934C52.9613 54.8187 53.2177 54.5053 53.2614 54.1498C53.2816 53.9764 53.2603 53.7804 53.2594 53.5929C53.2538 53.4034 53.2484 53.2127 53.2428 53.0211C53.2206 52.2547 53.1981 51.4723 53.175 50.6758C53.1295 49.0826 53.0824 47.4331 53.0342 45.7437C53.0248 45.5301 53.0398 45.3213 52.9631 45.1369C52.8953 44.9492 52.763 44.7886 52.6008 44.676C52.4364 44.5643 52.2408 44.5064 52.0419 44.5075C51.8346 44.5062 51.628 44.5051 51.4221 44.5037C50.5989 44.4986 49.7876 44.4934 48.9907 44.4882C47.3966 44.4777 45.859 44.4674 44.3941 44.4575C42.9294 44.447 41.5376 44.4371 40.2346 44.4277C40.0718 44.4266 39.9103 44.4252 39.7504 44.4241C39.5929 44.4207 39.4419 44.4405 39.3029 44.5031C39.0241 44.6206 38.8146 44.8691 38.7406 45.1502C38.6995 45.2886 38.7062 45.4379 38.6975 45.5869C38.6912 45.7347 38.6849 45.8812 38.6789 46.0261C38.6665 46.3156 38.6544 46.5989 38.6428 46.8757C38.5463 49.0862 38.4682 50.8764 38.414 52.1179C38.3848 52.7338 38.3622 53.2134 38.3465 53.5429C38.3377 53.703 38.331 53.8262 38.3263 53.9134C38.3213 53.9971 38.3159 54.0397 38.3159 54.0397C38.3159 54.0397 38.3142 53.9969 38.3157 53.9132C38.318 53.8257 38.3213 53.7026 38.3254 53.5424C38.3364 53.2127 38.3525 52.7327 38.3731 52.1165C38.4194 50.8746 38.486 49.084 38.5683 46.8726C38.5788 46.5958 38.5898 46.3125 38.6008 46.0227C38.6064 45.8778 38.612 45.7313 38.6176 45.5835C38.6259 45.4379 38.6179 45.2834 38.6618 45.1291C38.741 44.8243 38.9671 44.554 39.2695 44.4252C39.4182 44.357 39.5891 44.3346 39.7508 44.338C39.9107 44.3386 40.0722 44.3393 40.2351 44.3402C41.538 44.3465 42.9298 44.3532 44.3945 44.3602C45.8594 44.368 47.397 44.3761 48.9911 44.3846C49.7883 44.3891 50.5994 44.3938 51.4226 44.3983C51.6285 44.3994 51.8351 44.4008 52.0423 44.4019C52.2583 44.4003 52.4788 44.4647 52.66 44.5885C52.8399 44.713 52.9864 44.8913 53.0618 45.0995C53.0994 45.2029 53.1259 45.3121 53.1293 45.4229L53.1396 45.7405C53.1872 47.43 53.2336 49.0795 53.2782 50.6727C53.3004 51.4692 53.322 52.2518 53.3433 53.0182C53.3486 53.2098 53.3538 53.4004 53.359 53.59C53.3592 53.7813 53.3816 53.9632 53.3594 54.1631C53.3101 54.5554 53.0274 54.8992 52.6636 55.0255C52.4837 55.0986 52.2848 55.0914 52.1089 55.0914C51.9281 55.0919 51.7485 55.0926 51.5702 55.093C51.2133 55.0941 50.8614 55.095 50.5144 55.0962C49.8206 55.098 49.147 55.1 48.4957 55.1018C47.1934 55.1047 45.9801 55.1074 44.8718 55.1101C42.6591 55.1119 40.8672 55.1134 39.6243 55.1146C39.4698 55.1121 39.3233 55.1215 39.1838 55.1004C39.0456 55.0791 38.9218 55.0311 38.8175 54.9699C38.608 54.8461 38.4804 54.6736 38.4106 54.526C38.3408 54.3764 38.3207 54.2501 38.3148 54.1667C38.3112 54.0825 38.3159 54.0397 38.3159 54.0397Z" fill="#263238"/>
<path d="M52.2204 47.5885C52.2204 47.5885 52.2225 47.6184 52.2229 47.68C52.2231 47.7458 52.2234 47.8373 52.2236 47.9555C52.2229 48.2031 52.2218 48.5618 52.2204 49.0218C52.2148 49.9571 52.2068 51.3039 52.1969 52.9666C52.196 53.0709 52.1953 53.1763 52.1944 53.2831C52.1987 53.389 52.1807 53.511 52.122 53.6106C52.0646 53.7108 51.9757 53.7959 51.8672 53.8441C51.76 53.8979 51.6319 53.8972 51.5226 53.8948C51.0691 53.8943 50.5972 53.8937 50.1089 53.893C49.1316 53.8912 48.0877 53.8894 46.9893 53.8876C45.8906 53.8851 44.7373 53.8824 43.542 53.8795C42.9442 53.8779 42.3359 53.8762 41.7186 53.8746C41.41 53.8737 41.0991 53.8728 40.786 53.8719L40.5509 53.8712C40.4749 53.8694 40.3919 53.8771 40.3058 53.8557C40.1384 53.8174 39.9906 53.6994 39.9188 53.5419C39.8874 53.4749 39.8695 53.4015 39.8659 53.328C39.8637 53.2537 39.8677 53.1905 39.8684 53.1214C39.8713 52.9859 39.8742 52.8509 39.8769 52.7163C39.8825 52.4469 39.8883 52.1793 39.8939 51.9133C39.9054 51.3812 39.9166 50.8564 39.9276 50.3398C39.95 49.3069 39.9718 48.3074 39.9926 47.3532L39.9935 47.3079L40.0388 47.3106C43.5916 47.5271 46.6391 47.5863 48.796 47.5957C49.8747 47.6006 50.7309 47.5953 51.3174 47.5905C51.6094 47.5888 51.8358 47.5874 51.993 47.5865C52.0661 47.5865 52.1226 47.5867 52.1646 47.5867C52.2023 47.5872 52.2213 47.5876 52.2204 47.5885C52.2195 47.5894 52.1989 47.5908 52.1592 47.5923C52.1166 47.5939 52.0592 47.5962 51.9849 47.5991C51.8295 47.6038 51.6059 47.6105 51.3174 47.6193C50.7309 47.6329 49.8747 47.6468 48.7956 47.6495C46.6378 47.6554 43.5884 47.6078 40.033 47.3974L40.0792 47.3548C40.0597 48.309 40.0393 49.3085 40.0184 50.3414C40.0077 50.8579 39.9967 51.383 39.9857 51.9149C39.9801 52.1809 39.9745 52.4487 39.9689 52.7179C39.9659 52.8524 39.9633 52.9875 39.9603 53.1229C39.9581 53.2616 39.944 53.3903 40.0021 53.5022C40.0619 53.6344 40.1864 53.733 40.3262 53.7651C40.3939 53.7831 40.4702 53.7768 40.5507 53.7781L40.7858 53.7788C41.0987 53.7799 41.4098 53.7808 41.7184 53.7819C42.3357 53.7842 42.944 53.7862 43.5418 53.7882C44.7371 53.7929 45.8904 53.7974 46.9891 53.8017C48.0875 53.8066 49.1314 53.8113 50.1086 53.8156C50.5972 53.8181 51.0689 53.8203 51.5224 53.8225C51.6384 53.8252 51.7422 53.8261 51.8378 53.7797C51.9329 53.738 52.0109 53.6637 52.0619 53.576C52.1137 53.4861 52.1298 53.3883 52.1269 53.2822C52.1283 53.1763 52.1296 53.0716 52.1309 52.9682C52.1558 51.3131 52.176 49.9722 52.1902 49.0411C52.1985 48.5777 52.205 48.2166 52.2095 47.9671C52.2121 47.8465 52.2144 47.7529 52.216 47.6859C52.2177 47.6228 52.2204 47.5885 52.2204 47.5885Z" fill="#263238"/>
<path d="M48.6709 53.0747C48.6707 53.0684 48.7471 53.0731 48.8871 53.0451C49.0239 53.0137 49.2318 52.941 49.4225 52.7488C49.6145 52.5595 49.7567 52.2392 49.7237 51.8498C49.7253 51.4609 49.7271 51.0194 49.7289 50.532C49.7302 50.2878 49.7316 50.0321 49.7329 49.7656C49.7498 49.5016 49.6881 49.2293 49.5129 49.0097C49.344 48.7903 49.0728 48.6387 48.7783 48.6196C48.478 48.6109 48.1592 48.6136 47.8378 48.6095C46.5461 48.5988 45.1271 48.5871 43.6375 48.5748C43.2798 48.5707 42.9328 48.765 42.7558 49.0658C42.6632 49.2131 42.6154 49.3843 42.608 49.5547C42.6058 49.7328 42.6033 49.9096 42.601 50.0848C42.5975 50.436 42.5939 50.7812 42.5905 51.1192C42.5887 51.2881 42.5869 51.4555 42.5853 51.6208C42.5867 51.785 42.5735 51.953 42.5927 52.1039C42.6327 52.4128 42.8215 52.6853 43.0734 52.8369C43.1988 52.9139 43.3386 52.9626 43.4803 52.9803C43.62 52.9949 43.7715 52.9884 43.9134 52.9926C44.487 52.9998 45.0217 53.0067 45.5105 53.0128C46.4821 53.0278 47.2706 53.0399 47.823 53.0487C48.0911 53.055 48.3017 53.0597 48.4517 53.063C48.5195 53.0655 48.5733 53.0675 48.6152 53.0691C48.652 53.0713 48.6709 53.0731 48.6709 53.0747C48.6709 53.0763 48.652 53.0776 48.6152 53.079C48.5733 53.0799 48.5195 53.0808 48.4517 53.0821C48.3017 53.0828 48.0911 53.0837 47.8228 53.085C47.2703 53.0835 46.4817 53.0812 45.51 53.0787C45.0213 53.0761 44.4865 53.0731 43.9128 53.0698C43.7679 53.0662 43.6266 53.0743 43.4709 53.0595C43.3181 53.0413 43.1667 52.9897 43.0313 52.9072C42.7587 52.7448 42.5528 52.4511 42.5084 52.1165C42.4869 51.9469 42.5006 51.7865 42.4985 51.6206C42.4999 51.4552 42.501 51.2879 42.5024 51.119C42.505 50.781 42.5077 50.436 42.5107 50.0848C42.5127 49.9087 42.5147 49.731 42.5167 49.5518C42.5246 49.3661 42.5768 49.1793 42.6773 49.0184C42.87 48.6907 43.2486 48.4781 43.6387 48.4828C45.1283 48.4976 46.5472 48.512 47.8389 48.5247C48.1628 48.5299 48.4739 48.5281 48.7846 48.5389C49.1024 48.5609 49.3936 48.7262 49.5737 48.9628C49.7605 49.1963 49.8245 49.5007 49.8047 49.7667C49.8014 50.033 49.798 50.2889 49.7948 50.5331C49.7879 51.0206 49.7816 51.462 49.776 51.8509C49.7749 51.9476 49.7742 52.0413 49.7652 52.134C49.7513 52.2251 49.7327 52.3121 49.7002 52.3906C49.6392 52.5492 49.5477 52.6779 49.4485 52.7748C49.2471 52.9695 49.0316 53.0377 48.8911 53.0639C48.7471 53.0859 48.6709 53.0747 48.6709 53.0747Z" fill="#263238"/>
<g opacity="0.3">
<path d="M40.251 53.8143C43.9141 54.9273 47.9047 54.9367 51.5729 53.8408L40.251 53.8143Z" fill="black"/>
</g>
<path d="M47.3136 49.8961L45.7432 49.8817C45.5452 49.8799 45.3862 49.718 45.388 49.5199L45.3891 49.4089C45.3909 49.2108 45.5528 49.0518 45.7509 49.0536L47.3212 49.068C47.5193 49.0698 47.6783 49.2317 47.6765 49.4298L47.6756 49.5408C47.6736 49.7389 47.5116 49.8979 47.3136 49.8961Z" fill="#E0E0E0"/>
<path d="M47.1928 39.2342C47.1928 39.2342 47.6095 39.6047 47.7555 39.8609C47.9013 40.117 48.1593 41.2294 48.1593 41.2294C48.1593 41.2294 47.9538 41.4153 47.5851 40.8287C47.2163 40.242 47.1086 39.947 47.1086 39.947L47.1928 39.2342Z" fill="#FFBF9D"/>
<path d="M45.373 37.0259L45.8634 37.8913L47.2159 39.2577L47.7246 41.2852C47.7782 41.4994 47.7587 41.7282 47.6553 41.9233C47.6181 41.9938 47.5725 42.0519 47.5189 42.0743C47.3673 42.1376 46.9391 41.9184 46.9391 41.9184C46.9391 41.9184 46.6271 42.3062 46.294 42.0774C46.294 42.0774 45.8131 42.3251 45.5464 42.0848C45.5464 42.0848 45.2416 42.3264 45.0144 42.1761C44.7874 42.0259 44.1376 41.0782 44.1376 41.0782L43.2668 37.9534L45.373 37.0259Z" fill="#FFBF9D"/>
<path d="M64.353 28.6943L67.4731 29C67.4731 29 70.0638 28.0481 70.3585 27.9245C70.4323 27.8936 70.4742 27.8433 70.496 27.7854C70.572 27.5827 70.3796 27.3772 70.1654 27.4084L67.2633 27.8312C67.0888 27.8521 66.9139 27.7964 66.7833 27.6789L65.7749 26.7709C65.7749 26.7709 66.3296 26.4172 66.6932 26.1305C67.0568 25.8439 66.9036 25.4863 66.9036 25.4863C66.5252 25.4653 64.3905 26.4719 64.3905 26.4719L63.4933 26.9183L64.353 28.6943Z" fill="#AE7461"/>
<path d="M53.5966 4.51268C54.0407 4.55328 54.4877 4.21773 54.5727 3.77989C54.6577 3.34205 54.3688 2.86361 53.9418 2.73509C54.2109 2.44664 54.2695 1.98211 54.0804 1.63556C53.8913 1.28924 53.4689 1.08737 53.0807 1.1578C53.0558 0.769085 52.8146 0.401005 52.4683 0.22291C52.122 0.0445897 51.6826 0.0625329 51.3518 0.268218C50.9132 -0.0908895 50.2195 -0.0890939 49.783 0.272256C49.4032 0.211022 48.9952 0.421642 48.8254 0.766842C48.6556 1.11204 48.7377 1.56379 49.0181 1.82712" fill="#263238"/>
<path d="M53.7317 4.63744C53.5269 2.63554 51.8191 1.12711 49.8073 1.1704L49.6075 1.17466C47.4546 1.34693 46.3984 3.27144 46.6301 5.41868L46.8237 13.1057L50.5262 17.1055L52.0887 14.5489L52.0717 11.9986C52.0717 11.9986 54.1368 11.6318 54.118 9.55952C54.1088 8.55868 53.9221 6.49937 53.7317 4.63744Z" fill="#AE7461"/>
<path d="M52.0883 11.9952C52.0883 11.9952 50.767 12.1033 49.3566 11.259C49.3566 11.259 49.9961 12.7764 52.0592 12.5454L52.0883 11.9952Z" fill="#6F4439"/>
<path d="M53.2277 6.53346C53.2367 6.68958 53.1118 6.82595 52.9489 6.83807C52.7863 6.85018 52.647 6.73399 52.6383 6.57788C52.6293 6.42176 52.7542 6.28539 52.9169 6.27305C53.0797 6.26071 53.219 6.37735 53.2277 6.53346Z" fill="#263238"/>
<path d="M53.3075 5.66063C53.2717 5.70011 53.044 5.53883 52.7257 5.54668C52.4076 5.54982 52.1775 5.71872 52.1421 5.68037C52.1246 5.66332 52.1605 5.59289 52.2607 5.51663C52.3592 5.44059 52.5285 5.36522 52.727 5.36186C52.9253 5.35872 53.0938 5.42825 53.1914 5.5007C53.2907 5.57382 53.3253 5.64291 53.3075 5.66063Z" fill="#263238"/>
<path d="M50.3293 6.65477C50.3382 6.81089 50.2133 6.94704 50.0505 6.95937C49.8879 6.97171 49.7486 6.8553 49.7398 6.69918C49.7311 6.54307 49.8558 6.40669 50.0184 6.39436C50.1812 6.38225 50.3205 6.49888 50.3293 6.65477Z" fill="#263238"/>
<path d="M50.1788 5.78724C50.1429 5.82671 49.915 5.66566 49.5967 5.67329C49.2787 5.67643 49.0485 5.84533 49.0131 5.80697C48.9958 5.79015 49.0313 5.71972 49.1318 5.64346C49.2302 5.56742 49.3996 5.49205 49.5979 5.48869C49.7961 5.48555 49.9646 5.55508 50.0622 5.62753C50.1615 5.70065 50.1965 5.76974 50.1788 5.78724Z" fill="#263238"/>
<path d="M51.3868 8.1236C51.385 8.10543 51.5822 8.06707 51.9018 8.01907C51.983 8.00898 52.0595 7.99104 52.0721 7.93541C52.09 7.87619 52.0541 7.78939 52.0126 7.69563C51.9319 7.50071 51.8476 7.29615 51.759 7.08172C51.4061 6.20761 51.1489 5.48805 51.1841 5.47414C51.2195 5.46024 51.534 6.15759 51.8868 7.03169C51.9718 7.24725 52.0532 7.45294 52.1306 7.64943C52.1634 7.74116 52.2185 7.84479 52.1795 7.96748C52.1589 8.02872 52.1001 8.07403 52.0485 8.08928C51.9967 8.10633 51.951 8.10812 51.9108 8.11149C51.5885 8.13594 51.3884 8.14154 51.3868 8.1236Z" fill="#263238"/>
<path d="M50.2538 4.70129C50.2134 4.78294 49.9389 4.70129 49.6027 4.6977C49.2667 4.68649 48.9849 4.7558 48.9524 4.67258C48.9383 4.63288 48.9964 4.55908 49.1161 4.49179C49.2348 4.4245 49.4163 4.37067 49.6179 4.37493C49.8193 4.37964 49.9956 4.44132 50.1076 4.51355C50.2206 4.58622 50.2715 4.66249 50.2538 4.70129Z" fill="#263238"/>
<path d="M53.3228 4.53266C53.2573 4.60646 52.9928 4.53692 52.6768 4.54029C52.3607 4.53423 52.0943 4.60152 52.031 4.52705C52.0032 4.49094 52.0438 4.41759 52.1593 4.34649C52.273 4.27583 52.4646 4.21595 52.6817 4.21662C52.8988 4.21774 53.0886 4.2792 53.2001 4.35098C53.3133 4.4232 53.3515 4.49677 53.3228 4.53266Z" fill="#263238"/>
<path d="M47.0064 7.42791C46.9864 7.1085 46.7054 6.862 46.3875 6.89901C46.002 6.94409 45.5767 7.17266 45.6193 7.9705C45.6951 9.38584 47.1004 9.01799 47.1008 8.97717C47.101 8.94958 47.0434 8.01984 47.0064 7.42791Z" fill="#AE7461"/>
<path d="M46.7641 8.46121C46.7576 8.45695 46.7403 8.47983 46.6997 8.50113C46.6602 8.52199 46.5909 8.53859 46.5155 8.51482C46.363 8.46794 46.2244 8.23736 46.204 7.98255C46.1934 7.85402 46.2139 7.72976 46.254 7.62591C46.2917 7.52004 46.3547 7.44423 46.4294 7.42673C46.5034 7.40542 46.559 7.44759 46.5786 7.48662C46.5996 7.5252 46.5922 7.55391 46.5999 7.55593C46.6041 7.55929 46.629 7.53058 46.6145 7.47271C46.6071 7.4449 46.5887 7.41237 46.5541 7.38703C46.5187 7.36123 46.468 7.34979 46.4157 7.35832C46.3069 7.37155 46.2141 7.47742 46.1699 7.59159C46.1196 7.70666 46.0936 7.84617 46.1055 7.99062C46.13 8.27549 46.2901 8.53456 46.4978 8.58256C46.5988 8.60319 46.6802 8.56865 46.7214 8.53299C46.7634 8.49553 46.7692 8.46345 46.7641 8.46121Z" fill="#6F4439"/>
<path d="M52.4913 1.71636C52.4776 1.68137 52.4601 1.6475 52.4395 1.61632C52.2831 1.38148 52.0063 1.24331 51.7257 1.22985C51.5541 1.14686 51.3848 1.08069 51.2249 1.03201C51.0194 0.700718 50.6585 0.464305 50.2684 0.431781C49.8257 0.394547 49.3755 0.621094 49.129 0.988949C49.0711 0.99837 49.0132 1.00958 48.9554 1.02102C48.6595 0.81601 48.2746 0.741543 47.9249 0.829245C47.5329 0.927714 47.1966 1.22626 47.0526 1.60421C46.7061 1.52099 46.3162 1.66275 46.1041 1.94896C45.8919 2.23517 45.8697 2.64945 46.05 2.95675C45.7986 3.1077 45.5859 3.36543 45.587 3.65859C45.5879 3.93448 45.8466 4.19983 46.1112 4.16147C46.0758 4.84111 46.166 5.63895 46.2169 6.34303C46.2525 6.83874 46.8905 7.11979 46.9409 7.45557C47.1986 9.16946 47.7401 8.20743 47.8794 4.64507C47.9146 4.61681 47.9501 4.58653 47.9862 4.55243C48.0591 4.4838 48.075 4.39834 48.138 4.32073C48.2134 4.22809 48.3567 4.25366 48.4756 4.26353C48.8883 4.2983 49.3037 3.99796 49.3999 3.59511C49.5083 3.7501 49.7532 3.73799 49.91 3.63212C50.0668 3.52625 50.1655 3.35623 50.2868 3.21111C50.4082 3.06598 50.58 2.93476 50.7677 2.95742C50.8727 2.96998 50.9721 3.03032 51.0773 3.01866C51.263 2.99802 51.3491 2.77843 51.3731 2.59315C51.3935 2.43704 51.4099 2.26007 51.5073 2.1459C51.6199 2.09094 51.7367 2.0481 51.865 2.03554C51.9357 2.04204 52.0075 2.05483 52.0761 2.06335C52.1082 2.06739 52.142 2.06829 52.1759 2.06717C52.2178 2.07995 52.2607 2.09565 52.3055 2.11629C52.9376 2.40564 53.5121 3.69134 53.5121 3.69134C53.5381 2.86882 53.0765 2.19323 52.4913 1.71636Z" fill="#263238"/>
<path d="M45.8665 3.03525C45.8656 3.03458 45.8698 3.02741 45.8792 3.0144C45.8891 3.00161 45.9021 2.9812 45.9232 2.95787C45.9656 2.91167 46.0347 2.84752 46.1408 2.79234C46.2464 2.73895 46.3888 2.69095 46.5582 2.6932C46.7255 2.6923 46.9231 2.74209 47.0882 2.87847L47.0501 2.89125C47.108 2.61222 47.3179 2.33521 47.6205 2.1699C47.771 2.08646 47.9428 2.02702 48.1252 2.00392C48.3077 1.98081 48.4977 1.99293 48.6852 2.03151C49.0509 2.10867 49.3718 2.27891 49.6435 2.45701L49.6022 2.47069C49.7244 2.14635 49.9714 1.91061 50.2269 1.78724C50.485 1.66073 50.7486 1.65019 50.9518 1.68384C51.1575 1.71793 51.3076 1.79442 51.4022 1.85386C51.4495 1.88391 51.4843 1.91016 51.5063 1.92945C51.5285 1.94851 51.5395 1.95883 51.5384 1.96018C51.5355 1.96376 51.489 1.92474 51.3928 1.86978C51.2968 1.81617 51.1476 1.74642 50.9467 1.71816C50.7479 1.69012 50.4942 1.70514 50.248 1.82963C50.0037 1.9512 49.7691 2.18044 49.6545 2.48998L49.6423 2.5225L49.6132 2.50344C49.3442 2.32915 49.0287 2.1634 48.6734 2.0887C48.4915 2.05125 48.3075 2.03958 48.1323 2.06111C47.9576 2.08265 47.7921 2.13917 47.6472 2.21835C47.3554 2.37581 47.1539 2.63757 47.0956 2.90135L47.0873 2.93925L47.0577 2.91413C46.905 2.78471 46.7181 2.73335 46.5575 2.7311C46.3951 2.7255 46.2565 2.76811 46.1524 2.81634C45.9425 2.91884 45.8732 3.04333 45.8665 3.03525Z" fill="#455A64"/>
<path d="M51.518 2.0546C51.5198 2.0555 51.5108 2.07434 51.4949 2.11C51.4808 2.14656 51.4617 2.20129 51.4449 2.27464C51.4276 2.34799 51.4121 2.43928 51.3906 2.54604C51.3662 2.65102 51.3462 2.77954 51.2594 2.89752C51.215 2.95517 51.1425 2.99936 51.0625 3.00766C50.9828 3.01865 50.9021 3.00519 50.8213 2.99734C50.7413 2.98971 50.6565 2.98657 50.5809 3.01999C50.5053 3.05364 50.4394 3.11599 50.3781 3.18418C50.3169 3.25282 50.2595 3.33065 50.1982 3.40781C50.1388 3.48363 50.0827 3.57514 49.991 3.6384C49.9017 3.70098 49.7938 3.73709 49.6828 3.7492C49.6269 3.75503 49.5691 3.75481 49.5112 3.7418C49.4538 3.72991 49.3937 3.69739 49.3575 3.64198L49.4091 3.63256C49.3907 3.71488 49.3634 3.7972 49.3199 3.87346C49.2754 3.94883 49.2187 4.01814 49.1516 4.07758C49.0155 4.19399 48.8421 4.27003 48.6597 4.29694C48.5844 4.31018 48.5083 4.31108 48.4332 4.30996C48.3551 4.30457 48.2892 4.29044 48.2275 4.31467C48.164 4.3362 48.1176 4.37859 48.0779 4.43825C48.0348 4.4968 47.9871 4.55063 47.9368 4.6011C47.737 4.80005 47.4833 4.94944 47.215 4.95796C46.9483 4.95774 46.7139 4.83841 46.5443 4.68723C46.3741 4.53336 46.2669 4.34024 46.2232 4.15474L46.2474 4.16932C46.067 4.21126 45.8966 4.15563 45.7844 4.06883C45.6694 3.9809 45.6146 3.86247 45.5931 3.76692C45.5711 3.6698 45.5794 3.59174 45.5897 3.54172C45.5953 3.5166 45.6007 3.49776 45.6059 3.48565C45.6106 3.47331 45.6135 3.46725 45.6144 3.46748C45.6236 3.46725 45.5686 3.57335 45.6146 3.76176C45.6386 3.85305 45.6938 3.96363 45.8035 4.04371C45.9105 4.12311 46.0724 4.17201 46.2377 4.13051L46.257 4.12558L46.262 4.14509C46.3066 4.32207 46.4116 4.50577 46.576 4.65157C46.7388 4.7949 46.9665 4.90615 47.2134 4.90436C47.4608 4.89561 47.7044 4.75317 47.8962 4.5605C47.9444 4.51183 47.9904 4.45979 48.0315 4.40371C48.0694 4.34495 48.1329 4.28326 48.2084 4.25971C48.2461 4.2467 48.2863 4.24109 48.3262 4.24289L48.4354 4.25186C48.5068 4.25298 48.5792 4.25208 48.6505 4.23952C48.8235 4.21418 48.9863 4.14218 49.1133 4.03429C49.1756 3.97911 49.2283 3.91518 49.2696 3.84542C49.31 3.77499 49.3356 3.69873 49.3533 3.62224L49.3683 3.55675L49.4049 3.61283C49.4574 3.69335 49.5771 3.70546 49.6767 3.69514C49.7799 3.68438 49.879 3.65163 49.96 3.59555C50.0414 3.54082 50.0953 3.45559 50.1574 3.37731C50.2195 3.30037 50.2772 3.22299 50.3416 3.15233C50.4057 3.08257 50.4752 3.01641 50.5623 2.9785C50.6509 2.94082 50.7437 2.94665 50.8254 2.9554C50.9077 2.96459 50.9853 2.97805 51.0569 2.96908C51.1289 2.96235 51.1901 2.92579 51.2309 2.87554C51.3117 2.7708 51.3363 2.64384 51.3628 2.54066C51.387 2.43524 51.4056 2.34373 51.4258 2.27038C51.4458 2.19681 51.4682 2.14208 51.4855 2.10619C51.505 2.07075 51.5169 2.0537 51.518 2.0546Z" fill="#455A64"/>
<path d="M50.4051 8.70105C50.2851 9.06666 50.3865 9.46143 50.7212 9.65119C50.8371 9.71691 50.984 9.73216 51.1119 9.69381C51.2682 9.64693 51.4113 9.56394 51.4737 9.40177C51.5322 9.24947 51.5805 9.09133 51.5618 8.92916C51.2377 8.85514 50.729 8.77507 50.4051 8.70105Z" fill="#6F4439"/>
<path d="M51.4256 9.49826C51.4278 9.50006 51.404 9.53639 51.3426 9.5835C51.2811 9.62881 51.1779 9.68421 51.038 9.69632C50.8998 9.71135 50.7242 9.67053 50.5795 9.55232C50.4333 9.43748 50.3274 9.24234 50.3139 9.02858C50.3059 8.92024 50.3184 8.81369 50.346 8.7159L50.3532 8.69055L50.379 8.69549C50.7118 8.76031 51.0028 8.8193 51.2102 8.86394C51.4177 8.90857 51.5415 8.93863 51.5402 8.94558C51.5388 8.95254 51.4126 8.93504 51.2033 8.90027C50.994 8.86551 50.7015 8.81369 50.3682 8.75156L50.4012 8.73115C50.3761 8.82311 50.3644 8.92315 50.372 9.02409C50.3848 9.22349 50.4804 9.40181 50.6136 9.5106C50.7457 9.62208 50.9052 9.6638 51.0351 9.65505C51.1665 9.64877 51.267 9.60234 51.3298 9.56443C51.3928 9.52518 51.422 9.49467 51.4256 9.49826Z" fill="#263238"/>
<path d="M49.6328 65.7284L49.431 70.3453C49.431 70.3453 54.0561 72.1009 54.1018 72.9577L45.136 72.8879L45.1553 65.6813L49.6328 65.7284Z" fill="url(#paint3_linear_203_839)"/>
<path d="M45.136 72.8877L45.1665 72.1614L53.7514 72.5001C53.7514 72.5001 54.1493 72.6769 54.102 72.9577L45.136 72.8877Z" fill="#E0FFFA"/>
<path d="M49.5585 70.2989C49.5567 70.3426 49.3376 70.3608 49.1211 70.4998C48.9009 70.6333 48.7885 70.8222 48.7484 70.8044C48.708 70.7957 48.7755 70.5344 49.0404 70.3706C49.3039 70.2046 49.5684 70.2589 49.5585 70.2989Z" fill="url(#paint4_linear_203_839)"/>
<path d="M50.5279 70.698C50.5375 70.7404 50.3473 70.8135 50.1973 70.9974C50.0418 71.1771 50.0028 71.3769 49.9591 71.3747C49.9178 71.3812 49.8895 71.1246 50.0806 70.8994C50.2695 70.6726 50.5272 70.6562 50.5279 70.698Z" fill="url(#paint5_linear_203_839)"/>
<path d="M51.0467 71.8266C51.0068 71.8356 50.9476 71.6165 51.062 71.3776C51.1746 71.1378 51.3818 71.0449 51.4 71.0815C51.4244 71.1176 51.2905 71.2452 51.1997 71.4428C51.1041 71.638 51.0902 71.8226 51.0467 71.8266Z" fill="url(#paint6_linear_203_839)"/>
<path d="M49.4942 69.2421C49.4756 69.2818 49.275 69.2199 49.0276 69.2347C48.7798 69.2446 48.5867 69.3262 48.564 69.2883C48.5389 69.2565 48.7282 69.0959 49.02 69.0824C49.3118 69.0669 49.5162 69.2078 49.4942 69.2421Z" fill="url(#paint7_linear_203_839)"/>
<path d="M49.612 69.191C49.6344 69.1919 49.6378 69.6188 49.6243 70.3027L49.5887 70.248C50.1122 70.4469 50.8089 70.7152 51.5484 71.064C52.3583 71.4428 53.0721 71.8383 53.535 72.2081C53.7672 72.3905 53.9383 72.5641 54.0265 72.7088C54.1198 72.8525 54.1074 72.9627 54.0929 72.9575C54.0859 72.9562 54.0794 72.8676 53.9785 72.742C53.8816 72.6161 53.7059 72.4602 53.4711 72.2927C53.0032 71.9526 52.2895 71.576 51.4847 71.1997C50.7499 70.8531 50.061 70.5727 49.5472 70.3529L49.509 70.3365L49.5113 70.298C49.5525 69.6154 49.5896 69.1901 49.612 69.191Z" fill="url(#paint8_linear_203_839)"/>
<path d="M43.8145 33.5345L42.9211 38.7901L45.1157 51.1281C45.1157 51.1281 44.9419 57.3462 44.6207 60.8832C44.3416 63.955 44.7979 69.3046 44.7979 69.3046H49.6915L51.4424 51.4638L52.5291 40.3373L54.5003 33.7465L43.8145 33.5345Z" fill="url(#paint9_linear_203_839)"/>
<path d="M52.5096 64.9263L51.228 69.3664C51.228 69.3664 55.3105 72.1603 55.1535 73.0039L46.4555 70.828L48.1687 63.8279L52.5096 64.9263Z" fill="url(#paint10_linear_203_839)"/>
<path d="M46.4438 70.8284L46.6441 70.1297L54.9087 72.4772C54.9087 72.4772 55.2539 72.7426 55.1418 73.0044L46.4438 70.8284Z" fill="#E0FFFA"/>
<path d="M51.3798 69.3575C51.3677 69.3996 51.1505 69.3658 50.9074 69.4501C50.662 69.5279 50.5084 69.6852 50.4734 69.6585C50.4364 69.6403 50.5631 69.4023 50.8594 69.3054C51.1546 69.2058 51.3988 69.3207 51.3798 69.3575Z" fill="#E0FFFA"/>
<path d="M52.1808 69.962C52.1802 70.0055 51.9783 70.0318 51.789 70.1753C51.5956 70.3133 51.5106 70.4983 51.4687 70.486C51.4272 70.4826 51.4599 70.2264 51.6986 70.0526C51.9357 69.8765 52.19 69.9214 52.1808 69.962Z" fill="#E0FFFA"/>
<path d="M52.4366 71.1849C52.3957 71.1842 52.3897 70.9572 52.557 70.752C52.7228 70.5454 52.9459 70.5037 52.9551 70.5436C52.9704 70.5845 52.8102 70.6771 52.6754 70.8478C52.5368 71.0153 52.4799 71.1914 52.4366 71.1849Z" fill="#E0FFFA"/>
<path d="M51.547 68.3131C51.5196 68.3474 51.3393 68.24 51.0953 68.1962C50.8519 68.1475 50.6451 68.1814 50.6321 68.1392C50.615 68.1025 50.8369 67.9908 51.1238 68.0464C51.4109 68.1 51.5762 68.2848 51.547 68.3131Z" fill="url(#paint11_linear_203_839)"/>
<path d="M56.399 33.8201L56.6235 36.0958L56.534 52.0206C56.5306 52.6036 56.4409 53.1829 56.2673 53.7396L52.4793 65.8948L51.541 69.114L46.5422 68.1726L50.3953 33.8248L56.399 33.8201Z" fill="url(#paint12_linear_203_839)"/>
<path d="M56.2539 53.8004C56.2539 53.8004 56.2488 53.8258 56.2348 53.8749C56.22 53.9263 56.199 53.9985 56.1718 54.0925C56.1137 54.2867 56.0294 54.5693 55.9199 54.9356C55.6961 55.674 55.3706 56.7475 54.9604 58.101C54.1316 60.8119 52.9607 64.6416 51.5893 69.1279L51.5783 69.1642L51.5391 69.1573C49.9589 68.8758 48.2789 68.5765 46.5401 68.2666L46.4943 68.2585L46.5031 68.2152C46.7581 66.9376 47.0246 65.6025 47.2964 64.2412C48.1039 60.2094 48.8654 56.4066 49.5309 53.084L49.5307 53.0977C48.7028 48.1687 48.0427 44.238 47.6636 41.9813L47.6659 41.9871C47.3023 41.3598 47.0221 40.8762 46.831 40.5464C46.7381 40.384 46.6673 40.26 46.6179 40.1739C46.5706 40.09 46.5486 40.046 46.5486 40.046C46.5486 40.046 46.5764 40.0868 46.6267 40.1692C46.6778 40.2542 46.7516 40.3766 46.8483 40.537C47.043 40.8647 47.3287 41.3456 47.6993 41.9692L47.7008 41.9719L47.7013 41.975C48.0893 44.2304 48.7652 48.1588 49.6128 53.0847L49.6139 53.0916L49.6126 53.0986C48.9502 56.4219 48.1921 60.2253 47.3884 64.2578C47.1163 65.6191 46.8492 66.9542 46.5939 68.2316L46.5569 68.1802C48.2955 68.4915 49.9753 68.7926 51.555 69.0754L51.5048 69.1048C52.8896 64.6221 54.0717 60.7955 54.9085 58.0868C55.3291 56.7363 55.6629 55.6651 55.8923 54.9282C56.0076 54.5635 56.0965 54.282 56.1575 54.0889C56.1877 53.9956 56.2111 53.9243 56.2277 53.8731C56.244 53.8244 56.2539 53.8004 56.2539 53.8004Z" fill="#E0FFFA"/>
<path d="M40.3957 23.2461C40.3957 23.2461 39.7058 27.3322 40.1196 28.8889C40.5335 30.4453 43.8991 34.3784 43.8991 34.3784L48.4917 31.5305L45.4668 24.0917L40.3957 23.2461Z" fill="#E0E0E0"/>
<path d="M42.9972 14.9467C42.9972 14.9467 46.1619 15.042 46.1939 18.052C46.226 21.0619 45.6312 25.0883 45.6312 25.0883L40.1887 24.7045C40.1887 24.7045 40.5241 19.066 40.9605 17.4024C41.4031 15.7152 42.9972 14.9467 42.9972 14.9467Z" fill="#E0E0E0"/>
<path d="M46.7648 12.0097L46.7809 11.4451C46.7809 11.4451 51.5011 12.7634 52.1915 13.2032C52.8819 13.6428 52.3584 14.3548 52.3584 14.3548L46.7648 12.0097Z" fill="white"/>
<path d="M55.9505 27.392L54.292 15.0845L52.6232 14.0482C52.3164 13.5545 51.9171 13.3688 51.2913 13.1553L46.7869 11.6711L46.4973 12.7973L42.4855 15.2218L43.8909 28.5473L42.6111 39.7277H44.9985L45.8818 37.121L46.1432 39.7277L57.0821 39.4058L55.9505 27.392Z" fill="#E0E0E0"/>
<path d="M53.5993 14.6318C53.5993 14.6318 55.2464 15.2636 55.7694 17.5533C55.9435 18.3155 57.4051 25.6995 57.4051 25.6995L64.1583 26.3002L64.7242 29.7825L57.3212 30.2661C55.2737 30.5076 53.2936 29.887 52.7432 26.9459C52.7299 26.8751 52.708 26.8058 52.6929 26.7347C52.1454 24.1435 51.4117 20.5228 51.3137 19.2847C51.1722 17.4925 51.5781 15.1071 53.5993 14.6318Z" fill="#E0E0E0"/>
<path d="M50.2461 29.3163C50.2464 29.3237 50.1685 29.3326 50.0277 29.343C49.8868 29.3533 49.6829 29.365 49.4308 29.3764C48.9266 29.3997 48.2299 29.4235 47.4599 29.4365C46.6894 29.4497 45.9923 29.4461 45.4878 29.443C45.2539 29.4399 45.0545 29.437 44.8903 29.4347C44.7492 29.4309 44.6709 29.4251 44.6709 29.4179C44.6707 29.4105 44.7487 29.4024 44.8896 29.3937C45.0307 29.3849 45.2346 29.3762 45.4869 29.3683C45.9916 29.3524 46.6885 29.3441 47.4581 29.3309C48.2144 29.3196 48.8985 29.3095 49.4288 29.3017C49.6627 29.3017 49.8621 29.3019 50.0266 29.3019C50.1676 29.3042 50.2459 29.3089 50.2461 29.3163Z" fill="#263238"/>
<path d="M42.1386 19.5198C42.1404 19.5196 42.1451 19.5346 42.1523 19.5646C42.1604 19.601 42.1702 19.6447 42.1821 19.6981C42.2079 19.8248 42.2429 19.9966 42.2871 20.2131C42.3757 20.6709 42.5004 21.3169 42.6538 22.1111C42.9551 23.7239 43.3682 25.9362 43.8247 28.3801C43.8534 28.5363 43.8821 28.6917 43.9086 28.8362L43.9099 28.844L43.909 28.8519C43.6318 31.2171 43.3832 33.3377 43.2027 34.8784C43.1089 35.6368 43.0329 36.2516 42.9791 36.6876C42.9515 36.8933 42.9295 37.0566 42.9133 37.1773C42.8972 37.289 42.8871 37.3473 42.8835 37.3468C42.8799 37.3464 42.8833 37.2874 42.8927 37.1748C42.9041 37.0535 42.9198 36.8897 42.9394 36.6829C42.9853 36.2462 43.0502 35.6298 43.1302 34.8701C43.3025 33.3285 43.5396 31.2066 43.8043 28.84L43.8047 28.8554C43.778 28.711 43.7495 28.5556 43.7206 28.3994C43.276 25.9534 42.8736 23.7391 42.5802 22.1248C42.4405 21.3281 42.327 20.6801 42.2465 20.2207C42.2106 20.0025 42.1821 19.8295 42.161 19.7021C42.1532 19.6479 42.1467 19.6034 42.1415 19.5667C42.1379 19.5359 42.1368 19.5202 42.1386 19.5198Z" fill="#263238"/>
<path d="M52.6966 14.0923C52.6945 14.0993 52.6075 14.08 52.4523 14.0394C52.2769 13.9938 52.0566 13.9366 51.7949 13.8687C51.2395 13.726 50.4686 13.5448 49.6122 13.3694C48.7553 13.1947 47.9757 13.0569 47.4107 12.9625C47.144 12.9176 46.9199 12.88 46.7413 12.8501C46.5832 12.823 46.4962 12.8044 46.4971 12.7972C46.498 12.79 46.5866 12.7947 46.7465 12.8093C46.9062 12.8239 47.137 12.8501 47.4212 12.8887C47.99 12.9643 48.7733 13.0906 49.6324 13.2658C50.491 13.4416 51.2615 13.635 51.8137 13.7965C52.09 13.8763 52.3119 13.947 52.4639 13.9999C52.6156 14.0528 52.6986 14.0854 52.6966 14.0923Z" fill="#263238"/>
<path d="M54.3844 15.3034C54.3821 15.3247 54.1145 15.2646 53.6895 15.3235C53.2705 15.3798 52.6853 15.5866 52.23 16.0563C51.7728 16.5229 51.5613 17.1025 51.4884 17.5201C51.4126 17.9427 51.4476 18.213 51.4272 18.2139C51.4209 18.2146 51.4065 18.1484 51.396 18.0264C51.3859 17.9046 51.385 17.726 51.4146 17.5082C51.47 17.0769 51.6771 16.4697 52.1544 15.9823C52.6303 15.4915 53.2465 15.2877 53.6803 15.2493C53.8997 15.2289 54.0784 15.239 54.1993 15.2587C54.3207 15.2771 54.3855 15.2973 54.3844 15.3034Z" fill="#263238"/>
<path d="M41.7421 16.3908C41.7704 16.3836 41.8807 16.7275 41.9882 17.1584C42.0958 17.5895 42.16 17.9445 42.1317 17.9515C42.1034 17.9587 41.9931 17.615 41.8856 17.1839C41.778 16.753 41.7136 16.3977 41.7421 16.3908Z" fill="#263238"/>
<path d="M52.366 22.0957C52.368 22.0957 52.3707 22.126 52.3739 22.1852C52.3775 22.25 52.3822 22.337 52.3882 22.4479C52.4021 22.6787 52.4313 23.0185 52.4878 23.4541C52.5979 24.3257 52.8184 25.5793 53.0387 27.1369L53.0596 27.2838L53.0647 27.3208L53.0661 27.3307L53.0667 27.3361C53.0309 27.3441 53.1484 27.3314 52.986 27.3594C52.9815 27.3453 52.9831 27.3484 52.9817 27.3432L52.9808 27.3388C52.9095 27.3592 53.0829 27.3233 53.0634 27.3237L53.0764 27.3971C53.0968 27.4949 53.1172 27.5936 53.1381 27.6936C53.1872 27.8914 53.2421 28.0929 53.32 28.2902C53.4709 28.6855 53.6921 29.0764 54.0106 29.4017C54.3318 29.7233 54.7481 29.9667 55.2126 30.1044C55.6776 30.2464 56.1854 30.2758 56.6989 30.2488C58.7736 30.1127 61.0537 29.9633 63.447 29.8063C63.8754 29.7785 64.3 29.7511 64.7206 29.7238L64.6669 29.7913C64.4727 28.5913 64.2841 27.4258 64.1031 26.3088L64.1535 26.3556C61.6025 26.1239 59.3001 25.9149 57.4014 25.7424L57.3688 25.7395L57.3628 25.7079C57.0225 23.9581 56.7464 22.5378 56.554 21.548C56.462 21.0608 56.3902 20.6799 56.34 20.4141C56.3178 20.2887 56.3003 20.1909 56.2875 20.1185C56.2763 20.0519 56.2716 20.0175 56.2738 20.0171C56.2758 20.0169 56.2848 20.0505 56.3 20.1165C56.316 20.1882 56.3373 20.2856 56.3649 20.4101C56.4203 20.6747 56.4999 21.0543 56.6017 21.5397C56.8029 22.527 57.0921 23.9442 57.4478 25.6899L57.4092 25.6554C59.3086 25.8207 61.6117 26.0212 64.1636 26.2433L64.2071 26.2471L64.2141 26.2901C64.3962 27.4072 64.5864 28.5722 64.782 29.772L64.7923 29.8352L64.7282 29.8395C64.3078 29.8669 63.883 29.8945 63.4546 29.9223C61.0606 30.0759 58.7802 30.2224 56.7049 30.3556C56.183 30.3814 55.6626 30.3502 55.1835 30.202C54.7046 30.0582 54.2728 29.8036 53.9417 29.4687C53.6131 29.1303 53.3879 28.7263 53.2359 28.3214C53.1576 28.1189 53.1026 27.9136 53.054 27.712C53.0335 27.6104 53.0134 27.5099 52.9932 27.4105L52.9804 27.3358C52.96 27.3314 53.1336 27.295 53.0632 27.3206L53.064 27.3253L53.0649 27.3293C53.054 27.3329 53.0905 27.3255 53.04 27.337C52.995 27.3484 52.9674 27.3417 52.9835 27.3437L52.9831 27.3399L52.982 27.3311L52.977 27.2943L52.9571 27.1474C52.7476 25.5899 52.5394 24.3342 52.443 23.4588C52.3932 23.0214 52.3712 22.6798 52.3649 22.4483C52.3604 22.3326 52.3615 22.244 52.3622 22.1847C52.3627 22.1262 52.364 22.0957 52.366 22.0957Z" fill="#263238"/>
<defs>
<linearGradient id="paint0_linear_203_839" x1="86.1064" y1="70.4986" x2="93.2876" y2="72.0964" gradientUnits="userSpaceOnUse">
<stop stop-color="#4AA09B"/>
<stop offset="1" stop-color="#41CFC7"/>
</linearGradient>
<linearGradient id="paint1_linear_203_839" x1="91.5791" y1="69.3996" x2="95.7208" y2="69.5668" gradientUnits="userSpaceOnUse">
<stop stop-color="#4AA09B"/>
<stop offset="1" stop-color="#41CFC7"/>
</linearGradient>
<linearGradient id="paint2_linear_203_839" x1="81.748" y1="39.3727" x2="98.53" y2="39.8957" gradientUnits="userSpaceOnUse">
<stop stop-color="#4AA09B"/>
<stop offset="1" stop-color="#41CFC7"/>
</linearGradient>
<linearGradient id="paint3_linear_203_839" x1="45.136" y1="66.9934" x2="54.8412" y2="67.9173" gradientUnits="userSpaceOnUse">
<stop stop-color="#4AA09B"/>
<stop offset="1" stop-color="#41CFC7"/>
</linearGradient>
<linearGradient id="paint4_linear_203_839" x1="48.7375" y1="70.3562" x2="49.6227" y2="70.4587" gradientUnits="userSpaceOnUse">
<stop stop-color="#4AA09B"/>
<stop offset="1" stop-color="#41CFC7"/>
</linearGradient>
<linearGradient id="paint5_linear_203_839" x1="49.929" y1="70.8052" x2="50.5806" y2="70.8486" gradientUnits="userSpaceOnUse">
<stop stop-color="#4AA09B"/>
<stop offset="1" stop-color="#41CFC7"/>
</linearGradient>
<linearGradient id="paint6_linear_203_839" x1="50.9954" y1="71.2096" x2="51.4398" y2="71.2282" gradientUnits="userSpaceOnUse">
<stop stop-color="#4AA09B"/>
<stop offset="1" stop-color="#41CFC7"/>
</linearGradient>
<linearGradient id="paint7_linear_203_839" x1="48.5618" y1="69.1204" x2="49.4804" y2="69.4258" gradientUnits="userSpaceOnUse">
<stop stop-color="#4AA09B"/>
<stop offset="1" stop-color="#41CFC7"/>
</linearGradient>
<linearGradient id="paint8_linear_203_839" x1="49.509" y1="69.8702" x2="54.4826" y2="70.3389" gradientUnits="userSpaceOnUse">
<stop stop-color="#4AA09B"/>
<stop offset="1" stop-color="#41CFC7"/>
</linearGradient>
<linearGradient id="paint9_linear_203_839" x1="42.9211" y1="39.9844" x2="55.5608" y2="40.3005" gradientUnits="userSpaceOnUse">
<stop stop-color="#4AA09B"/>
<stop offset="1" stop-color="#41CFC7"/>
</linearGradient>
<linearGradient id="paint10_linear_203_839" x1="46.4555" y1="65.4825" x2="55.9101" y2="66.1753" gradientUnits="userSpaceOnUse">
<stop stop-color="#4AA09B"/>
<stop offset="1" stop-color="#41CFC7"/>
</linearGradient>
<linearGradient id="paint11_linear_203_839" x1="50.6312" y1="68.0832" x2="51.5778" y2="68.3161" gradientUnits="userSpaceOnUse">
<stop stop-color="#4AA09B"/>
<stop offset="1" stop-color="#41CFC7"/>
</linearGradient>
<linearGradient id="paint12_linear_203_839" x1="46.5422" y1="40.1841" x2="57.5484" y2="40.427" gradientUnits="userSpaceOnUse">
<stop stop-color="#4AA09B"/>
<stop offset="1" stop-color="#41CFC7"/>
</linearGradient>
</defs>
</svg>
