<svg width="119" height="102" viewBox="0 0 119 102" fill="none" xmlns="http://www.w3.org/2000/svg">
<path d="M102.493 51.3949C101.829 50.8397 101.172 50.2675 100.527 49.6891L98.589 47.9518C98.2708 47.6907 97.9877 47.2256 97.9356 46.7806C97.8736 46.3368 97.9605 45.9747 98.062 45.6804C98.278 45.0918 98.5893 44.6894 98.8994 44.3089C99.5371 43.5653 100.234 42.9954 101.01 42.4727L101.748 43.3363C101.22 43.9697 100.69 44.6553 100.295 45.319C100.1 45.6454 99.9418 45.9937 99.8966 46.2402C99.8714 46.3608 99.8891 46.4424 99.9038 46.4299C99.9235 46.4168 99.8845 46.3457 99.9061 46.3572L100.432 46.738L100.961 47.1404C101.312 47.4091 101.657 47.6815 101.997 47.9584C102.681 48.5099 103.346 49.0756 103.999 49.6638L102.493 51.3949Z" fill="#F7F1EB"/>
<path d="M103.749 52.0058C102.583 52.1769 99.8879 49.4447 99.8879 49.4447L101.736 47.3296C101.736 47.3296 103.185 48.2305 104.23 49.3241C105.301 50.4472 105.028 51.818 103.749 52.0058Z" fill="#FFF2CA"/>
<path d="M103.749 52.0058C102.583 52.1769 99.8879 49.4447 99.8879 49.4447L101.736 47.3296C101.736 47.3296 103.185 48.2305 104.23 49.3241C105.301 50.4472 105.028 51.818 103.749 52.0058Z" fill="#E0E0E0"/>
<path d="M100.76 42.9632L101.068 41.4747L102.411 42.4946C102.411 42.4946 102.056 43.8061 101.388 43.5947L100.76 42.9632Z" fill="#F9E8DA"/>
<path d="M102.098 40.3743L102.954 41.6429L102.413 42.4946L101.071 41.4747L102.098 40.3743Z" fill="#F9E8DA"/>
<path opacity="0.2" d="M103.242 50.5299C102.697 50.9926 101.477 50.5728 100.756 50.2592C101.606 51.0126 102.877 52.0079 103.636 52.0056C103.726 51.1866 103.763 50.0878 103.242 50.5299Z" fill="#4A4A4C"/>
<path d="M95.9979 96.9322L94.4947 96.3862L95.3225 92.7633L96.8258 93.3096L95.9979 96.9322Z" fill="#F9E8DA"/>
<path d="M107.858 98.9289H106.262L105.809 95.2332H107.405L107.858 98.9289Z" fill="#F9E8DA"/>
<path d="M106.049 98.744H107.995C108.06 98.744 108.117 98.7892 108.132 98.8528L108.461 100.271C108.496 100.419 108.382 100.558 108.231 100.555C107.605 100.544 107.148 100.508 106.359 100.508C105.874 100.508 104.412 100.558 103.742 100.558C103.087 100.558 102.978 99.8959 103.252 99.8359C104.479 99.5669 105.402 99.1959 105.792 98.8423C105.862 98.7784 105.954 98.744 106.049 98.744Z" fill="#FFF2CA"/>
<path d="M94.4392 96.0806L96.147 96.447C96.2109 96.4607 96.2571 96.5168 96.2584 96.582L96.283 98.0348C96.2856 98.1855 96.1483 98.2983 96.0012 98.2638C95.3873 98.1213 94.5045 97.8942 93.7301 97.7283C92.8246 97.534 92.2635 97.3511 91.2017 97.1234C90.5597 96.9857 90.5142 96.3002 90.795 96.2988C92.0731 96.2943 92.8472 96.5446 94.0375 96.1209C94.1669 96.0753 94.3042 96.0517 94.4392 96.0806Z" fill="#FFF2CA"/>
<path opacity="0.2" d="M95.3241 92.7645L94.897 94.6315L96.4009 95.1778L96.828 93.3108L95.3241 92.7645Z" fill="#4A4A4C"/>
<path opacity="0.2" d="M107.406 95.2341H105.809L106.044 97.1391H107.64L107.406 95.2341Z" fill="#4A4A4C"/>
<path d="M112.52 50.3882C111.821 52.0749 111.293 54.1448 110.885 55.7958C110.587 57.0038 110.355 58.1636 110.171 59.2189C109.739 61.6918 109.564 63.5978 109.412 64.2313C108.186 63.9832 103.561 63.0476 101.04 62.5364C100.979 53.3734 103.736 49.0176 103.736 49.0176C103.736 49.0176 104.693 48.9534 105.787 49.0324C105.931 49.0419 106.078 49.056 106.226 49.0724C107.185 49.1772 108.726 49.5253 109.785 49.7927C110.008 49.8491 110.232 49.9123 110.45 49.9772C111.558 50.3095 112.52 50.3882 112.52 50.3882Z" fill="#FFF2CA"/>
<path d="M112.52 50.3882C111.821 52.0749 111.293 54.1448 110.885 55.7958C110.587 57.0038 110.355 58.1636 110.171 59.2189C109.739 61.6918 109.564 63.5978 109.412 64.2313C108.186 63.9832 103.561 63.0476 101.04 62.5364C100.979 53.3734 103.736 49.0176 103.736 49.0176C103.736 49.0176 104.693 48.9534 105.787 49.0324C105.931 49.0419 106.078 49.056 106.226 49.0724C107.185 49.1772 108.726 49.5253 109.785 49.7927C110.008 49.8491 110.232 49.9123 110.45 49.9772C111.558 50.3095 112.52 50.3882 112.52 50.3882Z" fill="#FFF2CA"/>
<path d="M106.339 50.8122C106.01 51.4447 104.057 59.2591 103.529 60.9501C103.591 61.327 103.672 61.7075 103.772 62.0916C104.04 61.7665 104.324 61.4443 104.621 61.1245C104.981 59.4751 106.364 51.6859 106.728 50.8721L106.339 50.8122Z" fill="#E0E0E0"/>
<path d="M106.328 51.3013L106.192 50.4568L106.807 50.3234L107.181 50.6685L106.328 51.3013Z" fill="#FFF2CA"/>
<path d="M110.206 45.7119C109.762 46.8121 109.134 48.8659 109.788 49.7927C109.084 50.2787 108.115 50.6176 106.834 50.3292C105.853 50.1083 105.936 49.4093 106.229 49.072C107.565 49.0255 107.714 48.0712 107.663 47.1359L110.206 45.7119Z" fill="#F9E8DA"/>
<path d="M106.806 50.3233C106.806 50.3233 107.082 50.8758 107.424 51.4362C108.142 51.2291 109.849 50.6297 109.969 49.7662C109.937 49.5004 109.64 49.2808 109.64 49.2808C109.64 49.2808 108.492 49.9871 106.806 50.3233Z" fill="white"/>
<path d="M106.804 50.3231C106.804 50.3231 106.21 50.6285 105.766 51.0827C105.369 50.6593 105.968 49.1322 106.181 48.9945C106.608 48.8359 106.858 48.9172 106.858 48.9172C106.858 48.9172 106.101 49.9819 106.804 50.3231Z" fill="white"/>
<path opacity="0.2" d="M109.167 46.2931L107.661 47.135C107.674 47.3565 107.674 47.5787 107.649 47.7891C108.151 47.8173 108.924 47.4175 109.074 46.9171C109.149 46.6673 109.185 46.4202 109.167 46.2931Z" fill="#4A4A4C"/>
<path d="M107.299 41.7281C106.864 42.203 106.427 43.3916 107.378 43.3827C108.329 43.3736 108.047 40.9117 107.299 41.7281Z" fill="#4A4A4C"/>
<path d="M110.962 44.3515C110.38 45.8223 110.114 46.7137 109.106 47.2292C107.589 48.0049 105.962 46.6934 106.093 45.0735C106.211 43.6155 107.143 41.4551 108.805 41.3519C110.443 41.2506 111.544 42.8807 110.962 44.3515Z" fill="#F9E8DA"/>
<path d="M107.701 42.308C106.713 41.8151 106.403 40.4374 108.039 40.0828C108.075 40.075 108.112 40.0681 108.15 40.0622C108.519 40.0038 108.823 40.2752 108.881 40.6445C108.886 40.6757 108.894 40.7078 108.906 40.7405C109.074 40.5678 109.455 40.3227 109.924 40.2896C110.306 40.2627 110.587 40.6052 110.562 40.9867C110.545 41.2433 110.662 41.4927 110.986 41.5015C111.844 41.5248 112.84 42.1481 112.343 43.0097C113.068 43.9165 111.939 45.1752 110.337 45.3037C109.902 44.4248 110.606 43.1247 110.606 43.1247C109.801 43.1093 108.596 42.7547 107.701 42.308Z" fill="#4A4A4C"/>
<path d="M112.102 43.0419C112.102 43.0419 112.833 42.9394 112.585 42.2521C113.132 42.7096 112.732 43.1314 112.102 43.0419Z" fill="#4A4A4C"/>
<path d="M111.954 43.1549C111.954 43.1549 112.663 42.9484 112.718 43.6773C113.029 43.0359 112.492 42.8151 111.954 43.1549Z" fill="#4A4A4C"/>
<path d="M111.129 45.7915C110.883 46.1389 110.499 46.3381 110.153 46.3889C109.633 46.4653 109.435 45.9809 109.632 45.5218C109.809 45.1085 110.293 44.5711 110.79 44.7048C111.28 44.8368 111.41 45.3946 111.129 45.7915Z" fill="#F9E8DA"/>
<path d="M94.4531 94.0802L96.9988 95.0037C96.9988 95.0037 98.9877 86.247 100.045 81.3925C100.366 79.9158 101.013 77.8853 101.779 75.7217C102.745 72.9961 103.898 70.0633 104.829 67.7703C105.811 65.3553 106.542 63.6509 106.542 63.6509L101.038 62.5363C101.038 62.5363 96.8379 74.6219 95.8944 79.3984C94.9129 84.365 94.4531 94.0802 94.4531 94.0802Z" fill="#4A4A4C"/>
<path opacity="0.6" d="M101.781 75.7212C102.747 72.9956 103.9 70.0629 104.831 67.7698L104.405 66.4524C102.83 67.9101 101.847 72.932 101.781 75.7212Z" fill="#4A4A4C"/>
<path d="M104.01 63.1376C104.01 63.1376 103.027 76.9175 102.968 81.5999C102.903 86.7274 105.301 96.77 105.301 96.77H108.224C108.224 96.77 107.056 87.7086 107.445 82.6286C107.879 76.948 109.413 64.2318 109.413 64.2318L104.01 63.1376Z" fill="#4A4A4C"/>
<path d="M104.951 96.8332H108.393L108.382 95.8049L104.789 95.5974L104.951 96.8332Z" fill="#4A4A4C"/>
<path d="M94.1141 94.0473L97.1629 95.1055L97.4946 94.1217L94.1607 92.9075L94.1141 94.0473Z" fill="#4A4A4C"/>
<path d="M108.549 44.0049C108.509 44.1271 108.412 44.2044 108.332 44.1776C108.252 44.1507 108.22 44.0298 108.26 43.9075C108.3 43.7853 108.397 43.708 108.477 43.7348C108.557 43.7617 108.589 43.8826 108.549 44.0049Z" fill="#4A4A4C"/>
<path d="M107.17 43.5401C107.13 43.6623 107.033 43.7397 106.953 43.7128C106.873 43.6859 106.841 43.565 106.881 43.4427C106.921 43.3205 107.018 43.2432 107.098 43.27C107.177 43.2966 107.209 43.4175 107.17 43.5401Z" fill="#4A4A4C"/>
<path d="M107.589 43.7483C107.589 43.7483 107.083 44.3316 106.668 44.5574C106.818 44.8203 107.216 44.8514 107.216 44.8514L107.589 43.7483Z" fill="#F7F1EB"/>
<path d="M109.119 43.702C109.094 43.6971 109.071 43.6784 109.062 43.6516C108.952 43.3311 108.683 43.2576 108.681 43.257C108.64 43.2465 108.616 43.2052 108.626 43.1646C108.636 43.1243 108.677 43.1 108.717 43.1105C108.732 43.1141 109.068 43.2062 109.204 43.6037C109.218 43.6434 109.197 43.6863 109.158 43.6997C109.145 43.704 109.132 43.7047 109.119 43.702Z" fill="#4A4A4C"/>
<path d="M106.729 42.8639C106.715 42.8613 106.702 42.8544 106.691 42.8436C106.661 42.8144 106.66 42.7663 106.689 42.7364C106.979 42.4369 107.32 42.5047 107.335 42.5057C107.376 42.5139 107.403 42.5539 107.395 42.5949C107.387 42.6358 107.348 42.6624 107.307 42.6542C107.293 42.6509 107.03 42.6021 106.797 42.8423C106.779 42.8616 106.753 42.8685 106.729 42.8639Z" fill="#4A4A4C"/>
<path d="M105.527 99.0229C105.405 99.0229 105.292 99.0023 105.219 98.9416C105.161 98.8935 105.134 98.8263 105.138 98.7417C105.142 98.6788 105.175 98.649 105.202 98.6349C105.377 98.5438 105.896 98.8604 105.954 98.8967C105.967 98.9049 105.974 98.9197 105.972 98.9348C105.97 98.9498 105.958 98.962 105.944 98.9656C105.833 98.9924 105.674 99.0229 105.527 99.0229ZM105.286 98.6926C105.267 98.6926 105.25 98.6955 105.237 98.7021C105.227 98.7073 105.216 98.7172 105.214 98.7463C105.211 98.8063 105.228 98.8512 105.267 98.8836C105.355 98.9567 105.563 98.9669 105.834 98.9125C105.652 98.8083 105.409 98.6926 105.286 98.6926Z" fill="#FFF2CA"/>
<path d="M105.935 98.9669C105.929 98.9669 105.923 98.9652 105.917 98.9623C105.751 98.8725 105.428 98.5228 105.46 98.3449C105.466 98.3124 105.489 98.2567 105.58 98.2456C105.638 98.2387 105.693 98.2547 105.741 98.2941C105.928 98.4455 105.971 98.9062 105.972 98.9256C105.974 98.9393 105.967 98.9528 105.956 98.9603C105.95 98.9649 105.942 98.9669 105.935 98.9669ZM105.606 98.32C105.601 98.32 105.595 98.3203 105.589 98.3209C105.54 98.3268 105.536 98.3494 105.535 98.3593C105.516 98.4641 105.722 98.7286 105.887 98.8532C105.867 98.7188 105.814 98.4504 105.694 98.3531C105.666 98.3308 105.638 98.32 105.606 98.32Z" fill="#FFF2CA"/>
<path d="M94.2423 96.2628C94.2407 96.2631 94.239 96.2631 94.2371 96.2631C93.9749 96.2592 93.5141 96.2244 93.3738 96.0363C93.3316 95.9796 93.3208 95.9141 93.3414 95.8417C93.3539 95.7984 93.382 95.7689 93.4227 95.7565C93.6354 95.6899 94.1977 96.1445 94.2613 96.1962C94.2738 96.2064 94.2787 96.2234 94.2731 96.2385C94.2682 96.2516 94.2564 96.2611 94.2423 96.2628ZM93.46 95.8256C93.4548 95.8263 93.4499 95.8272 93.4453 95.8285C93.4286 95.8338 93.4194 95.8439 93.4138 95.863C93.3997 95.9121 93.4063 95.9541 93.4341 95.9914C93.5131 96.0969 93.7671 96.1671 94.1243 96.1841C93.9008 96.0127 93.5865 95.8102 93.46 95.8256Z" fill="#FFF2CA"/>
<path d="M94.2416 96.2629C94.2321 96.2639 94.2226 96.2616 94.2144 96.2557C94.043 96.1305 93.7382 95.7133 93.8031 95.5429C93.8185 95.5029 93.8585 95.458 93.9624 95.4692C94.0394 95.4777 94.1043 95.5137 94.1547 95.5767C94.3202 95.7825 94.2763 96.2115 94.2744 96.2298C94.2731 96.2432 94.2645 96.2547 94.2521 96.2599C94.2488 96.2616 94.2452 96.2622 94.2416 96.2629ZM93.9155 95.5439C93.8827 95.5478 93.8765 95.5642 93.8742 95.5704C93.8355 95.6727 94.0351 95.9922 94.2039 96.1489C94.2091 96.0217 94.2049 95.7585 94.0961 95.6235C94.0581 95.5767 94.0119 95.5504 93.9548 95.5442C93.9384 95.5426 93.9257 95.5429 93.9155 95.5439Z" fill="#FFF2CA"/>
<path opacity="0.2" d="M111.542 51.3012L110.417 51.777V52.4882C110.417 52.4882 110.612 53.9246 111.226 54.445C111.475 53.4913 111.762 52.4823 112.092 51.5283C111.787 51.3762 111.542 51.3012 111.542 51.3012Z" fill="#4A4A4C"/>
<path d="M111.782 50.8154C112.241 50.744 112.734 50.6778 113.206 50.5923C113.683 50.5175 114.157 50.4343 114.618 50.3353C115.075 50.2318 115.534 50.1315 115.927 49.9955C116.12 49.9296 116.305 49.8569 116.411 49.7992C116.425 49.7887 116.463 49.7723 116.461 49.7723C116.458 49.7759 116.481 49.7592 116.46 49.7818C116.432 49.8139 116.413 49.8411 116.4 49.8634C116.354 49.9529 116.379 49.9421 116.388 49.8985C116.415 49.8011 116.433 49.6006 116.426 49.3964C116.422 49.189 116.402 48.9645 116.374 48.7367C116.325 48.2776 116.234 47.805 116.148 47.3269C116.058 46.8491 115.954 46.3683 115.839 45.8885C115.739 45.4058 115.614 44.9208 115.506 44.4439L116.568 44.0425C116.809 44.5059 117.011 44.9696 117.22 45.4405C117.415 45.9147 117.602 46.3942 117.776 46.8838C117.952 47.3734 118.099 47.8765 118.228 48.4044C118.289 48.6702 118.342 48.9425 118.379 49.2349C118.413 49.5298 118.445 49.8346 118.393 50.2334C118.359 50.4359 118.317 50.6722 118.137 50.9747C118.091 51.0498 118.034 51.1271 117.962 51.2048C117.898 51.2736 117.871 51.2949 117.823 51.3414C117.731 51.4292 117.658 51.4768 117.573 51.5426C117.26 51.7599 116.985 51.8926 116.711 52.0103C116.169 52.2374 115.656 52.3977 115.138 52.5297C114.105 52.7952 113.105 52.9803 112.05 53.0931L111.782 50.8154Z" fill="#F7F1EB"/>
<path d="M110.843 52.9113C111.774 53.6218 115.173 52.8887 115.173 52.8887L114.61 49.955C114.61 49.955 113.033 50.0703 111.585 50.4882C110.009 50.9437 109.715 52.0507 110.843 52.9113Z" fill="#FFF2CA"/>
<path d="M110.843 52.9113C111.774 53.6218 115.173 52.8887 115.173 52.8887L114.61 49.955C114.61 49.955 113.033 50.0703 111.585 50.4882C110.009 50.9437 109.715 52.0507 110.843 52.9113Z" fill="#E0E0E0"/>
<path d="M116.748 44.4094L116.862 42.8646L115.03 43.5616C115.03 43.5616 115.226 44.8954 115.948 44.8646L116.748 44.4094Z" fill="#F9E8DA"/>
<path d="M116.157 41.8086L114.669 42.4551L115.03 43.5615L116.862 42.8645L116.157 41.8086Z" fill="#F9E8DA"/>
<path d="M106.888 45.3816C106.888 45.3816 107.265 45.3268 108.297 45.4202C108.139 45.7319 107.882 45.9747 107.354 45.922C106.827 45.8689 106.888 45.3816 106.888 45.3816Z" fill="white"/>
<path d="M47.641 1.58826H51.4324L57.444 69.2588H53.6527C51.9036 69.2588 50.3601 67.8411 50.2047 66.0921L44.7554 4.75467C44.6004 3.00597 45.8923 1.58826 47.641 1.58826Z" fill="#4AA09B"/>
<path d="M96.1714 69.2588H54.7745C52.8151 69.2588 51.088 67.6704 50.9166 65.7113L45.617 5.13581C45.4456 3.17638 46.8948 1.58826 48.8543 1.58826H90.2511C92.2105 1.58826 93.9376 3.17638 94.109 5.13581L99.4086 65.7113C99.58 67.6704 98.1308 69.2588 96.1714 69.2588Z" fill="#4AA09B"/>
<path opacity="0.5" d="M96.1714 69.2588H54.7745C52.8151 69.2588 51.088 67.6704 50.9166 65.7113L45.617 5.13581C45.4456 3.17638 46.8948 1.58826 48.8543 1.58826H90.2511C92.2105 1.58826 93.9376 3.17638 94.109 5.13581L99.4086 65.7113C99.58 67.6704 98.1308 69.2588 96.1714 69.2588Z" fill="white"/>
<path opacity="0.2" d="M55.1893 61.5269H95.7391L90.6122 3.81836H50.0625L55.1893 61.5269Z" fill="#4A4A4C"/>
<path d="M56.9623 60.7371H97.512L90.6122 3.81836H50.0625L56.9623 60.7371Z" fill="#4AA09B"/>
<path d="M56.9623 60.7371H97.512L90.6122 3.81836H50.0625L56.9623 60.7371Z" fill="#F2F3F7"/>
<path d="M88.123 19.5736H62.7576C62.4669 19.5736 62.2103 19.338 62.185 19.047C62.1595 18.7563 62.3748 18.5203 62.6655 18.5203H88.0309C88.322 18.5203 88.5782 18.756 88.6035 19.047C88.629 19.3377 88.4137 19.5736 88.123 19.5736Z" fill="#CCE8E5"/>
<path d="M87.3328 22.5576H58.5443C58.2536 22.5576 57.997 22.322 57.9715 22.031C57.9459 21.7403 58.1612 21.5043 58.4519 21.5043H87.2404C87.5311 21.5043 87.7877 21.74 87.8129 22.031C87.8388 22.322 87.6235 22.5576 87.3328 22.5576Z" fill="#CCE8E5"/>
<path d="M88.6476 25.5422H58.8058C58.5152 25.5422 58.2586 25.3066 58.2333 25.0156C58.2078 24.7249 58.4231 24.489 58.7138 24.489H88.5556C88.8463 24.489 89.1029 24.7246 89.1284 25.0156C89.1536 25.3066 88.9387 25.5422 88.6476 25.5422Z" fill="#CCE8E5"/>
<path d="M85.2204 28.5259H59.0651C58.7745 28.5259 58.5179 28.2903 58.4923 27.9992C58.4667 27.7086 58.682 27.4726 58.9727 27.4726H85.128C85.4187 27.4726 85.6753 27.7082 85.7005 27.9992C85.7264 28.2899 85.5115 28.5259 85.2204 28.5259Z" fill="#CCE8E5"/>
<path d="M89.1698 31.5101H63.8043C63.5136 31.5101 63.257 31.2745 63.2314 30.9835C63.2059 30.6924 63.4212 30.4568 63.7119 30.4568H89.0773C89.3684 30.4568 89.6246 30.6924 89.6499 30.9835C89.6758 31.2745 89.4604 31.5101 89.1698 31.5101Z" fill="#CCE8E5"/>
<path d="M88.1148 34.4946H59.5894C59.2987 34.4946 59.0421 34.259 59.0169 33.968C58.9913 33.6773 59.2066 33.4413 59.4973 33.4413H88.0223C88.3134 33.4413 88.5696 33.6769 88.5952 33.968C88.6208 34.2586 88.4055 34.4946 88.1148 34.4946Z" fill="#CCE8E5"/>
<path d="M89.6925 37.4784H59.8507C59.56 37.4784 59.3034 37.2427 59.2778 36.9517C59.2523 36.661 59.4676 36.4251 59.7582 36.4251H89.6C89.8907 36.4251 90.1473 36.6607 90.1726 36.9517C90.1985 37.2427 89.9832 37.4784 89.6925 37.4784Z" fill="#CCE8E5"/>
<path d="M87.8474 40.4629H60.1122C59.8215 40.4629 59.5649 40.2272 59.5397 39.9362C59.5141 39.6452 59.7294 39.4096 60.0201 39.4096H87.7553C88.046 39.4096 88.3026 39.6452 88.3282 39.9362C88.3534 40.2269 88.1381 40.4629 87.8474 40.4629Z" fill="#CCE8E5"/>
<g opacity="0.3">
<path d="M88.123 19.5736H62.7576C62.4669 19.5736 62.2103 19.338 62.185 19.047C62.1595 18.7563 62.3748 18.5203 62.6655 18.5203H88.0309C88.322 18.5203 88.5782 18.756 88.6035 19.047C88.629 19.3377 88.4137 19.5736 88.123 19.5736Z" fill="#CCE8E5"/>
<path d="M87.3328 22.5576H58.5443C58.2536 22.5576 57.997 22.322 57.9715 22.031C57.9459 21.7403 58.1612 21.5043 58.4519 21.5043H87.2404C87.5311 21.5043 87.7877 21.74 87.8129 22.031C87.8388 22.322 87.6235 22.5576 87.3328 22.5576Z" fill="#CCE8E5"/>
<path d="M88.6476 25.5422H58.8058C58.5152 25.5422 58.2586 25.3066 58.2333 25.0156C58.2078 24.7249 58.4231 24.489 58.7138 24.489H88.5556C88.8463 24.489 89.1029 24.7246 89.1284 25.0156C89.1536 25.3066 88.9387 25.5422 88.6476 25.5422Z" fill="#CCE8E5"/>
<path d="M85.2204 28.5259H59.0651C58.7745 28.5259 58.5179 28.2903 58.4923 27.9992C58.4667 27.7086 58.682 27.4726 58.9727 27.4726H85.128C85.4187 27.4726 85.6753 27.7082 85.7005 27.9992C85.7264 28.2899 85.5115 28.5259 85.2204 28.5259Z" fill="#CCE8E5"/>
<path d="M89.1698 31.5101H63.8043C63.5136 31.5101 63.257 31.2745 63.2314 30.9835C63.2059 30.6924 63.4212 30.4568 63.7119 30.4568H89.0773C89.3684 30.4568 89.6246 30.6924 89.6499 30.9835C89.6758 31.2745 89.4604 31.5101 89.1698 31.5101Z" fill="#CCE8E5"/>
<path d="M88.1148 34.4946H59.5894C59.2987 34.4946 59.0421 34.259 59.0169 33.968C58.9913 33.6773 59.2066 33.4413 59.4973 33.4413H88.0223C88.3134 33.4413 88.5696 33.6769 88.5952 33.968C88.6208 34.2586 88.4055 34.4946 88.1148 34.4946Z" fill="#CCE8E5"/>
<path d="M89.6925 37.4784H59.8507C59.56 37.4784 59.3034 37.2427 59.2778 36.9517C59.2523 36.661 59.4676 36.4251 59.7582 36.4251H89.6C89.8907 36.4251 90.1473 36.6607 90.1726 36.9517C90.1985 37.2427 89.9832 37.4784 89.6925 37.4784Z" fill="#CCE8E5"/>
<path d="M87.8474 40.4629H60.1122C59.8215 40.4629 59.5649 40.2272 59.5397 39.9362C59.5141 39.6452 59.7294 39.4096 60.0201 39.4096H87.7553C88.046 39.4096 88.3026 39.6452 88.3282 39.9362C88.3534 40.2269 88.1381 40.4629 87.8474 40.4629Z" fill="#CCE8E5"/>
</g>
<path d="M64.5985 10.5199H65.3749L65.6131 13.2426H67.2956L67.351 13.8754H64.8921L64.5985 10.5199Z" fill="#4AA09B"/>
<path d="M68.3981 13.7077C68.1052 13.5576 67.8682 13.3505 67.687 13.087C67.5058 12.8232 67.4006 12.527 67.3717 12.1976C67.3429 11.8689 67.3963 11.5723 67.5313 11.3085C67.6663 11.0447 67.8672 10.8379 68.1337 10.6875C68.4001 10.5377 68.7075 10.4623 69.0559 10.4623C69.4042 10.4623 69.7241 10.5377 70.0151 10.6875C70.3061 10.8382 70.5431 11.0447 70.7263 11.3085C70.9091 11.5723 71.015 11.8686 71.0438 12.1976C71.0727 12.527 71.0186 12.8232 70.8819 13.087C70.7449 13.3502 70.5444 13.5576 70.2796 13.7077C70.0148 13.8578 69.708 13.9329 69.3597 13.9329C69.0113 13.9329 68.6908 13.8578 68.3981 13.7077ZM69.8267 13.1352C69.9784 13.0438 70.0928 12.9166 70.1695 12.7541C70.2461 12.5912 70.2756 12.4057 70.2573 12.1979C70.2393 11.9905 70.1777 11.805 70.0721 11.6421C69.9669 11.4789 69.8303 11.3518 69.6625 11.261C69.4947 11.1696 69.3118 11.1243 69.1136 11.1243C68.9153 11.1243 68.7406 11.1696 68.5889 11.261C68.4368 11.3518 68.3224 11.4789 68.2457 11.6421C68.1691 11.805 68.1396 11.9905 68.1579 12.1979C68.1763 12.4057 68.2379 12.5912 68.3431 12.7541C68.4483 12.9166 68.5849 13.0438 68.7527 13.1352C68.9205 13.226 69.1034 13.2719 69.3013 13.2719C69.4993 13.2719 69.6749 13.226 69.8267 13.1352Z" fill="#4AA09B"/>
<path d="M73.8765 13.1564H72.3185L72.0842 13.8754H71.2885L72.4905 10.5199H73.2574L75.0513 13.8754H74.2363L73.8765 13.1564ZM73.5805 12.5665L72.9359 11.2818L72.5161 12.5665H73.5805Z" fill="#4AA09B"/>
<path d="M78.181 10.5199L78.4746 13.8754H77.8369L75.9859 11.8383L76.1642 13.8754H75.3973L75.1037 10.5199H75.746L77.5924 12.5573L77.4141 10.5199H78.181Z" fill="#4AA09B"/>
<g opacity="0.3">
<path d="M64.5985 10.5199H65.3749L65.6131 13.2426H67.2956L67.351 13.8754H64.8921L64.5985 10.5199Z" fill="#4AA09B"/>
<path d="M68.3981 13.7077C68.1052 13.5576 67.8682 13.3505 67.687 13.087C67.5058 12.8232 67.4006 12.527 67.3717 12.1976C67.3429 11.8689 67.3963 11.5723 67.5313 11.3085C67.6663 11.0447 67.8672 10.8379 68.1337 10.6875C68.4001 10.5377 68.7075 10.4623 69.0559 10.4623C69.4042 10.4623 69.7241 10.5377 70.0151 10.6875C70.3061 10.8382 70.5431 11.0447 70.7263 11.3085C70.9091 11.5723 71.015 11.8686 71.0438 12.1976C71.0727 12.527 71.0186 12.8232 70.8819 13.087C70.7449 13.3502 70.5444 13.5576 70.2796 13.7077C70.0148 13.8578 69.708 13.9329 69.3597 13.9329C69.0113 13.9329 68.6908 13.8578 68.3981 13.7077ZM69.8267 13.1352C69.9784 13.0438 70.0928 12.9166 70.1695 12.7541C70.2461 12.5912 70.2756 12.4057 70.2573 12.1979C70.2393 11.9905 70.1777 11.805 70.0721 11.6421C69.9669 11.4789 69.8303 11.3518 69.6625 11.261C69.4947 11.1696 69.3118 11.1243 69.1136 11.1243C68.9153 11.1243 68.7406 11.1696 68.5889 11.261C68.4368 11.3518 68.3224 11.4789 68.2457 11.6421C68.1691 11.805 68.1396 11.9905 68.1579 12.1979C68.1763 12.4057 68.2379 12.5912 68.3431 12.7541C68.4483 12.9166 68.5849 13.0438 68.7527 13.1352C68.9205 13.226 69.1034 13.2719 69.3013 13.2719C69.4993 13.2719 69.6749 13.226 69.8267 13.1352Z" fill="#4AA09B"/>
<path d="M73.8765 13.1564H72.3185L72.0842 13.8754H71.2885L72.4905 10.5199H73.2574L75.0513 13.8754H74.2363L73.8765 13.1564ZM73.5805 12.5665L72.9359 11.2818L72.5161 12.5665H73.5805Z" fill="#4AA09B"/>
<path d="M78.181 10.5199L78.4746 13.8754H77.8369L75.9859 11.8383L76.1642 13.8754H75.3973L75.1037 10.5199H75.746L77.5924 12.5573L77.4141 10.5199H78.181Z" fill="#4AA09B"/>
</g>
<path d="M89.3047 56.6123H80.4035C80.1125 56.6123 79.8562 56.3767 79.831 56.0857C79.8054 55.7947 80.0207 55.5591 80.3114 55.5591H89.2126C89.5033 55.5591 89.7599 55.7947 89.7851 56.0857C89.8107 56.3764 89.5957 56.6123 89.3047 56.6123Z" fill="#4AA09B"/>
<path d="M79.7536 54.7906L79.7533 54.7899C79.6786 54.6929 79.6907 54.5618 79.7815 54.4953C80.4117 54.0316 81.1074 53.4886 81.7583 52.9442C81.9113 51.9457 82.5841 50.6662 83.2671 50.0714C83.7783 49.6261 84.1585 49.6808 84.3873 49.8047C84.5462 49.8912 84.6458 50.0318 84.6674 50.2009C84.75 50.8442 83.446 52.1138 82.1601 53.1956C82.1397 53.4066 82.1532 53.5885 82.2079 53.7232C82.2646 53.8631 82.3587 53.9277 82.5225 53.9379C83.2419 53.9844 83.6348 53.6033 84.0146 53.2346C84.4416 52.8207 84.8831 52.392 85.6863 52.7876C86.3949 53.1363 86.4119 53.4869 86.3722 53.7881C86.3677 53.8232 86.3604 53.8766 86.3647 53.893C86.368 53.893 86.4561 53.9762 87.0057 54.0457C88.2334 54.203 88.8954 53.3109 89.1179 52.9321C89.1713 52.8413 89.2873 52.8125 89.3886 52.8639C89.5056 52.9236 89.5541 53.0658 89.4921 53.1707C89.226 53.621 88.4483 54.6533 86.989 54.4691C86.4394 54.3996 86.1714 54.3046 86.0327 54.1296C85.9108 53.9755 85.9318 53.8143 85.9475 53.6967C85.9698 53.5279 85.9872 53.3948 85.5244 53.1671C85.0178 52.9173 84.7651 53.1274 84.3273 53.5528C83.9284 53.9398 83.4323 54.4219 82.5327 54.3636C82.1935 54.3416 81.9379 54.1604 81.813 53.852C81.7757 53.7602 81.7511 53.6567 81.738 53.5446C81.0514 54.1037 80.4156 54.5808 80.0551 54.846C79.963 54.9135 79.8287 54.8879 79.7536 54.7906ZM84.0772 50.1435C83.894 50.1435 83.6866 50.2966 83.5647 50.4031C83.0531 50.8485 82.5717 51.7002 82.3243 52.4598C83.4336 51.4882 84.2899 50.5876 84.2424 50.2183C84.2401 50.2015 84.2391 50.1924 84.2083 50.1757C84.1673 50.1534 84.1228 50.1435 84.0772 50.1435Z" fill="#4AA09B"/>
<g opacity="0.3">
<path d="M89.3047 56.6123H80.4035C80.1125 56.6123 79.8562 56.3767 79.831 56.0857C79.8054 55.7947 80.0207 55.5591 80.3114 55.5591H89.2126C89.5033 55.5591 89.7599 55.7947 89.7851 56.0857C89.8107 56.3764 89.5957 56.6123 89.3047 56.6123Z" fill="#4AA09B"/>
<path d="M79.7536 54.7906L79.7533 54.7899C79.6786 54.6929 79.6907 54.5618 79.7815 54.4953C80.4117 54.0316 81.1074 53.4886 81.7583 52.9442C81.9113 51.9457 82.5841 50.6662 83.2671 50.0714C83.7783 49.6261 84.1585 49.6808 84.3873 49.8047C84.5462 49.8912 84.6458 50.0318 84.6674 50.2009C84.75 50.8442 83.446 52.1138 82.1601 53.1956C82.1397 53.4066 82.1532 53.5885 82.2079 53.7232C82.2646 53.8631 82.3587 53.9277 82.5225 53.9379C83.2419 53.9844 83.6348 53.6033 84.0146 53.2346C84.4416 52.8207 84.8831 52.392 85.6863 52.7876C86.3949 53.1363 86.4119 53.4869 86.3722 53.7881C86.3677 53.8232 86.3604 53.8766 86.3647 53.893C86.368 53.893 86.4561 53.9762 87.0057 54.0457C88.2334 54.203 88.8954 53.3109 89.1179 52.9321C89.1713 52.8413 89.2873 52.8125 89.3886 52.8639C89.5056 52.9236 89.5541 53.0658 89.4921 53.1707C89.226 53.621 88.4483 54.6533 86.989 54.4691C86.4394 54.3996 86.1714 54.3046 86.0327 54.1296C85.9108 53.9755 85.9318 53.8143 85.9475 53.6967C85.9698 53.5279 85.9872 53.3948 85.5244 53.1671C85.0178 52.9173 84.7651 53.1274 84.3273 53.5528C83.9284 53.9398 83.4323 54.4219 82.5327 54.3636C82.1935 54.3416 81.9379 54.1604 81.813 53.852C81.7757 53.7602 81.7511 53.6567 81.738 53.5446C81.0514 54.1037 80.4156 54.5808 80.0551 54.846C79.963 54.9135 79.8287 54.8879 79.7536 54.7906ZM84.0772 50.1435C83.894 50.1435 83.6866 50.2966 83.5647 50.4031C83.0531 50.8485 82.5717 51.7002 82.3243 52.4598C83.4336 51.4882 84.2899 50.5876 84.2424 50.2183C84.2401 50.2015 84.2391 50.1924 84.2083 50.1757C84.1673 50.1534 84.1228 50.1435 84.0772 50.1435Z" fill="#4AA09B"/>
</g>
<path d="M79.0448 51.6375C77.9404 51.6375 76.9156 50.8008 76.6997 49.6784L76.6187 49.2579C76.3877 48.0581 77.1667 46.9799 78.3553 46.8538L89.3024 45.6927C89.8786 45.6311 90.4632 45.8005 90.9492 46.1679C91.4356 46.5356 91.7649 47.0579 91.877 47.6393L91.9579 48.0598C92.07 48.6408 91.9507 49.2111 91.623 49.6653C91.295 50.1192 90.7975 50.403 90.2217 50.4639L79.2746 51.6254C79.1972 51.6332 79.1209 51.6375 79.0448 51.6375ZM89.5676 46.0725C89.504 46.0725 89.4407 46.0758 89.3772 46.0827L78.43 47.2438C77.9574 47.2939 77.5491 47.5266 77.28 47.8995C77.011 48.2721 76.9133 48.7401 77.0051 49.217L77.086 49.6374C77.2758 50.6219 78.2242 51.336 79.1989 51.235L90.146 50.0736C90.6186 50.0235 91.0269 49.7908 91.296 49.4182C91.565 49.0456 91.6627 48.5776 91.5709 48.1007L91.49 47.6803C91.3982 47.2035 91.1278 46.7748 90.7287 46.473C90.3833 46.2114 89.9772 46.0725 89.5676 46.0725Z" fill="#4AA09B"/>
<path d="M79.0596 49.6167L78.2272 49.7049L78.1312 50.1181L77.9008 50.1427L78.3056 48.4867L78.5271 48.4631L79.543 49.9684L79.308 49.9933L79.0596 49.6167ZM78.9466 49.4443L78.4596 48.7056L78.2708 49.5161L78.9466 49.4443Z" fill="#4AA09B"/>
<path d="M80.5897 48.3943C80.725 48.4799 80.8089 48.6083 80.842 48.7801C80.8751 48.9518 80.843 49.0927 80.7453 49.2028C80.6477 49.3129 80.4976 49.3788 80.2947 49.4004L79.9077 49.4414L79.9998 49.9202L79.7759 49.9438L79.4715 48.3632L80.0824 48.2983C80.2855 48.277 80.4547 48.3091 80.5897 48.3943ZM80.5572 49.0789C80.6201 49.0101 80.6405 48.9183 80.6185 48.804C80.5966 48.6896 80.5425 48.6057 80.456 48.5526C80.3694 48.4995 80.2554 48.4805 80.1138 48.4956L79.7333 48.5359L79.87 49.2451L80.2505 49.2048C80.3921 49.1897 80.4943 49.1477 80.5572 49.0789Z" fill="#4AA09B"/>
<path d="M82.1822 48.2253C82.3176 48.3108 82.4015 48.4393 82.4346 48.611C82.4676 48.7827 82.4355 48.9236 82.3379 49.0334C82.2405 49.1439 82.0901 49.2094 81.8873 49.231L81.5002 49.272L81.5923 49.7508L81.3685 49.7744L81.064 48.1938L81.6749 48.1289C81.8781 48.1076 82.0469 48.1397 82.1822 48.2253ZM82.1498 48.9096C82.2127 48.8407 82.233 48.749 82.211 48.6346C82.1891 48.5202 82.135 48.4363 82.0485 48.3832C81.962 48.3301 81.8479 48.3111 81.7064 48.3262L81.3259 48.3665L81.4625 49.0757L81.843 49.0354C81.9846 49.0203 82.0868 48.9784 82.1498 48.9096Z" fill="#4AA09B"/>
<path d="M84.008 49.4947L83.5767 49.0451C83.5354 49.0526 83.503 49.0575 83.4791 49.0602L83.092 49.1011L83.1848 49.5819L82.961 49.6058L82.6565 48.0249L83.2674 47.96C83.4702 47.9384 83.6393 47.9705 83.7743 48.056C83.9097 48.1416 83.9936 48.27 84.0267 48.4418C84.0503 48.5637 84.0405 48.6705 83.9972 48.7626C83.9539 48.8547 83.8812 48.9261 83.7783 48.9773L84.2518 49.4685L84.008 49.4947ZM83.7419 48.742C83.8045 48.6725 83.8248 48.5804 83.8029 48.466C83.7809 48.3516 83.7268 48.2677 83.6403 48.2147C83.5538 48.1616 83.4397 48.1426 83.2982 48.1576L82.9177 48.1979L83.0547 48.9094L83.4352 48.8691C83.5771 48.8537 83.6793 48.8114 83.7419 48.742Z" fill="#4AA09B"/>
<path d="M84.8518 49.3165C84.7116 49.2598 84.5933 49.174 84.4973 49.058C84.4012 48.9423 84.3383 48.8082 84.3091 48.6562C84.28 48.5041 84.2895 48.3625 84.338 48.2315C84.3865 48.1004 84.4674 47.9932 84.5808 47.9096C84.6942 47.8264 84.8299 47.7762 84.9879 47.7592C85.1445 47.7425 85.293 47.7628 85.4332 47.8192C85.5735 47.8759 85.6911 47.9617 85.7865 48.0768C85.8815 48.1918 85.9441 48.3265 85.9736 48.4799C86.0031 48.6336 85.9939 48.7751 85.9461 48.9056C85.8979 49.036 85.8173 49.1428 85.7043 49.2261C85.5909 49.3096 85.4558 49.3595 85.2992 49.3762C85.1412 49.3929 84.9921 49.3732 84.8518 49.3165ZM85.5555 49.0635C85.6371 49.0009 85.6954 48.9206 85.7305 48.8227C85.7655 48.7243 85.7721 48.6182 85.7501 48.5038C85.7282 48.3894 85.6816 48.2888 85.6108 48.202C85.5401 48.1151 85.4539 48.0499 85.3519 48.007C85.25 47.964 85.1419 47.9486 85.0268 47.9608C84.9121 47.9729 84.8132 48.0102 84.7299 48.0728C84.647 48.1354 84.5877 48.2157 84.5526 48.314C84.5176 48.412 84.511 48.5185 84.533 48.6329C84.5549 48.7473 84.6015 48.8479 84.6723 48.9351C84.743 49.0219 84.8302 49.0868 84.9334 49.1297C85.0367 49.1723 85.1458 49.1877 85.2608 49.1756C85.3755 49.1632 85.4739 49.1258 85.5555 49.0635Z" fill="#4AA09B"/>
<path d="M87.4731 47.5142L87.0907 49.1678L86.8691 49.1914L85.8755 47.6839L86.117 47.6584L86.9307 48.8971L87.249 47.5384L87.4731 47.5142Z" fill="#4AA09B"/>
<path d="M89.0749 48.7567L89.1126 48.953L87.976 49.0736L87.6716 47.493L88.777 47.3757L88.8147 47.572L87.9331 47.6654L88.0265 48.1511L88.8117 48.0678L88.8487 48.2599L88.0635 48.3431L88.1618 48.8534L89.0749 48.7567Z" fill="#4AA09B"/>
<path d="M89.172 47.334L89.832 47.2639C89.9975 47.2462 90.1509 47.2639 90.2921 47.3166C90.4331 47.3694 90.5507 47.4517 90.6444 47.5641C90.7382 47.6761 90.8001 47.8099 90.8299 47.9649C90.8597 48.1199 90.8509 48.2611 90.8031 48.3883C90.7552 48.5154 90.6736 48.619 90.5583 48.6986C90.4426 48.7786 90.3023 48.8271 90.1365 48.8448L89.4764 48.9149L89.172 47.334ZM90.085 48.6498C90.2119 48.6364 90.3184 48.5997 90.4052 48.5397C90.4917 48.48 90.5527 48.4024 90.5877 48.3073C90.6228 48.2123 90.629 48.1058 90.6064 47.9885C90.5838 47.8711 90.5376 47.7702 90.4681 47.6863C90.3986 47.6021 90.3111 47.5405 90.2053 47.5011C90.0994 47.4618 89.9831 47.4487 89.8566 47.4621L89.4338 47.507L89.6626 48.695L90.085 48.6498Z" fill="#4AA09B"/>
<path d="M62.4792 0.000183105H65.6548L66.1693 5.79293H62.9941C61.9231 5.79293 60.9776 4.92481 60.8826 3.8535L60.7125 1.93929C60.6168 0.868309 61.4079 0.000183105 62.4792 0.000183105Z" fill="#4A4A4C"/>
<path d="M76.6128 5.79296H63.7796C62.5799 5.79296 61.522 4.82029 61.4168 3.62018L61.29 2.17265C61.1851 0.972875 62.0726 -0.00012207 63.2727 -0.00012207H76.1058C77.3056 -0.00012207 78.3635 0.972548 78.4687 2.17265L78.5952 3.62018C78.7004 4.82029 77.8126 5.79296 76.6128 5.79296Z" fill="#4A4A4C"/>
<path opacity="0.5" d="M76.6128 5.79296H63.7796C62.5799 5.79296 61.522 4.82029 61.4168 3.62018L61.29 2.17265C61.1851 0.972875 62.0726 -0.00012207 63.2727 -0.00012207H76.1058C77.3056 -0.00012207 78.3635 0.972548 78.4687 2.17265L78.5952 3.62018C78.7004 4.82029 77.8126 5.79296 76.6128 5.79296Z" fill="white"/>
<path d="M76.5146 3.51099C76.5421 3.82625 76.3091 4.08155 75.9939 4.08155C75.6786 4.08155 75.401 3.82625 75.3735 3.51099C75.346 3.19605 75.579 2.94043 75.8942 2.94043C76.2095 2.94043 76.4871 3.19572 76.5146 3.51099Z" fill="#4A4A4C"/>
<path d="M64.6229 3.51099C64.6505 3.82625 64.4175 4.08155 64.1022 4.08155C63.7873 4.08155 63.5094 3.82625 63.4818 3.51099C63.4543 3.19605 63.6873 2.94043 64.0026 2.94043C64.3178 2.94043 64.5954 3.19572 64.6229 3.51099Z" fill="#4A4A4C"/>
<path d="M47.0549 48.2495L46.7567 47.6767C46.5319 47.2447 46.6374 46.7148 47.0104 46.4018L47.5436 45.9542C47.7245 45.8021 47.8483 45.593 47.8946 45.3613L48.3481 43.0811C48.3943 42.8494 48.3599 42.6088 48.2508 42.3991L47.7756 41.4861C47.5508 41.0541 47.6563 40.5242 48.0292 40.2112L48.9272 39.4571C49.1081 39.3051 49.232 39.096 49.2782 38.8643L50.0106 35.1821L47.4498 34.6728L44.889 34.1635L44.1566 37.8458C44.1104 38.0775 44.1448 38.318 44.2539 38.5277L44.7953 39.5679C45.0201 39.9998 44.9146 40.5298 44.5417 40.8427L43.7532 41.5044C43.5723 41.6565 43.4484 41.8656 43.4022 42.0972L42.9486 44.3775C42.9024 44.6092 42.9368 44.8498 43.0459 45.0595L43.3674 45.6772C43.5923 46.1092 43.4867 46.6391 43.1138 46.9521L42.6193 47.3673C42.2463 47.6803 42.1411 48.2102 42.3656 48.6421L42.5671 49.0291C42.792 49.4611 42.6864 49.991 42.3135 50.304C41.9405 50.6169 41.8354 51.1469 42.0598 51.5788L42.6891 52.7884L43.802 53.0099L44.9153 53.2315L45.9597 52.3548C46.3326 52.0419 46.4382 51.5119 46.2134 51.08C45.9885 50.6481 46.0941 50.1182 46.467 49.8052L46.8013 49.5247C47.1742 49.2114 47.2794 48.6811 47.0549 48.2495Z" fill="#4A6361"/>
<path opacity="0.6" d="M47.0549 48.2495L46.7567 47.6767C46.5319 47.2447 46.6374 46.7148 47.0104 46.4018L47.5436 45.9542C47.7245 45.8021 47.8483 45.593 47.8946 45.3613L48.3481 43.0811C48.3943 42.8494 48.3599 42.6088 48.2508 42.3991L47.7756 41.4861C47.5508 41.0541 47.6563 40.5242 48.0292 40.2112L48.9272 39.4571C49.1081 39.3051 49.232 39.096 49.2782 38.8643L50.0106 35.1821L47.4498 34.6728L44.889 34.1635L44.1566 37.8458C44.1104 38.0775 44.1448 38.318 44.2539 38.5277L44.7953 39.5679C45.0201 39.9998 44.9146 40.5298 44.5417 40.8427L43.7532 41.5044C43.5723 41.6565 43.4484 41.8656 43.4022 42.0972L42.9486 44.3775C42.9024 44.6092 42.9368 44.8498 43.0459 45.0595L43.3674 45.6772C43.5923 46.1092 43.4867 46.6391 43.1138 46.9521L42.6193 47.3673C42.2463 47.6803 42.1411 48.2102 42.3656 48.6421L42.5671 49.0291C42.792 49.4611 42.6864 49.991 42.3135 50.304C41.9405 50.6169 41.8354 51.1469 42.0598 51.5788L42.6891 52.7884L43.802 53.0099L44.9153 53.2315L45.9597 52.3548C46.3326 52.0419 46.4382 51.5119 46.2134 51.08C45.9885 50.6481 46.0941 50.1182 46.467 49.8052L46.8013 49.5247C47.1742 49.2114 47.2794 48.6811 47.0549 48.2495Z" fill="white"/>
<path opacity="0.2" d="M48.9263 39.4571C49.1072 39.3051 49.2311 39.096 49.2773 38.8643L50.0097 35.1821L48.7293 34.9274L47.4489 34.6728L44.8881 34.1635L44.3435 36.9026L46.9043 37.4119L43.8018 53.0103L44.915 53.2318L45.9595 52.3552C46.3324 52.0422 46.4379 51.5123 46.2131 51.0803C45.9883 50.6484 46.0938 50.1185 46.4668 49.8055L46.801 49.525C47.174 49.212 47.2795 48.6821 47.0547 48.2502L46.7568 47.6773C46.532 47.2454 46.6375 46.7155 47.0101 46.4025L47.5437 45.9548C47.7246 45.8028 47.8484 45.5937 47.8946 45.362L48.3482 43.0817C48.3944 42.85 48.36 42.6095 48.2509 42.3997L47.7757 41.4867C47.5509 41.0548 47.6564 40.5249 48.0293 40.2119L48.9263 39.4571Z" fill="#4A6361"/>
<path d="M55.2921 30.1558C54.6144 29.3519 51.6161 27.8795 50.0043 27.5587C48.3926 27.2382 45.059 27.4512 44.125 27.9346C42.0506 29.0078 40.761 32.8149 42.8119 34.5371C43.6417 35.2338 46.8209 36.0187 48.2533 36.3625C49.6858 36.7063 52.9148 37.0645 53.9789 36.7584C56.6085 36.0017 56.7976 31.9412 55.2921 30.1558ZM51.7973 30.4835L47.2282 29.5748C46.892 29.5079 46.851 29.095 47.1735 29.0144C48.1622 28.7666 49.1644 28.6454 49.7644 28.765C50.3648 28.8843 51.2441 29.3798 52.0624 29.9871C52.3295 30.1847 52.1335 30.5504 51.7973 30.4835Z" fill="#4A6361"/>
<path opacity="0.6" d="M55.2921 30.1558C54.6144 29.3519 51.6161 27.8795 50.0043 27.5587C48.3926 27.2382 45.059 27.4512 44.125 27.9346C42.0506 29.0078 40.761 32.8149 42.8119 34.5371C43.6417 35.2338 46.8209 36.0187 48.2533 36.3625C49.6858 36.7063 52.9148 37.0645 53.9789 36.7584C56.6085 36.0017 56.7976 31.9412 55.2921 30.1558ZM51.7973 30.4835L47.2282 29.5748C46.892 29.5079 46.851 29.095 47.1735 29.0144C48.1622 28.7666 49.1644 28.6454 49.7644 28.765C50.3648 28.8843 51.2441 29.3798 52.0624 29.9871C52.3295 30.1847 52.1335 30.5504 51.7973 30.4835Z" fill="#4A6361"/>
<path d="M54.1779 29.9342C53.5001 29.1303 50.5018 27.6578 48.8901 27.337C47.2784 27.0165 43.9448 27.2295 43.0108 27.7129C40.9367 28.7862 39.6468 32.5933 41.6977 34.3154C42.5274 35.0121 45.7066 35.797 47.1391 36.1408C48.5712 36.4846 51.8006 36.8431 52.8647 36.5367C55.4943 35.78 55.6834 31.7199 54.1779 29.9342ZM50.6831 30.2622L46.1137 29.3534C45.7774 29.2866 45.7365 28.8737 46.0589 28.793C47.0477 28.5453 48.0498 28.424 48.6499 28.5436C49.2503 28.6629 50.1295 29.1584 50.9479 29.7657C51.215 29.9633 51.019 30.3287 50.6831 30.2622Z" fill="#4A6361"/>
<path d="M47.7264 30.0862C46.5698 32.8787 43.406 34.245 40.5949 33.2074C37.7778 32.1679 36.2467 28.9913 37.2115 26.1477C38.2962 22.9515 41.969 21.1762 44.8437 22.3668L45.2842 22.5493C45.4939 22.6362 45.5936 22.8767 45.5067 23.0865C45.4199 23.2962 45.1793 23.3958 44.9696 23.309L44.5291 23.1265C42.1116 22.1249 39.0212 23.6085 38.0328 26.2919C37.1758 28.619 38.3061 31.2909 40.5677 32.3078C43.0406 33.4198 45.9364 32.2583 46.9664 29.7709C48.0885 27.062 46.1002 25.1128 44.0569 24.2663L43.4526 24.0159C43.2428 23.929 43.1432 23.6885 43.2301 23.4787C43.3169 23.269 43.5575 23.1694 43.7672 23.2562L44.3715 23.5066C47.4757 24.7926 48.8239 27.4366 47.7264 30.0862Z" fill="#4A6361"/>
<g opacity="0.5">
<path d="M47.7264 30.0862C46.5698 32.8787 43.406 34.245 40.5949 33.2074C37.7778 32.1679 36.2467 28.9913 37.2115 26.1477C38.2962 22.9515 41.969 21.1762 44.8437 22.3668L45.2842 22.5493C45.4939 22.6362 45.5936 22.8767 45.5067 23.0865C45.4199 23.2962 45.1793 23.3958 44.9696 23.309L44.5291 23.1265C42.1116 22.1249 39.0212 23.6085 38.0328 26.2919C37.1758 28.619 38.3061 31.2909 40.5677 32.3078C43.0406 33.4198 45.9364 32.2583 46.9664 29.7709C48.0885 27.062 46.1002 25.1128 44.0569 24.2663L43.4526 24.0159C43.2428 23.929 43.1432 23.6885 43.2301 23.4787C43.3169 23.269 43.5575 23.1694 43.7672 23.2562L44.3715 23.5066C47.4757 24.7926 48.8239 27.4366 47.7264 30.0862Z" fill="white"/>
</g>
<path d="M43.8507 35.7867C43.6364 34.1573 41.3673 31.2003 39.8489 30.5714C38.3306 29.9425 34.6353 30.4289 33.3316 31.4294C30.4359 33.6513 26.6458 41.4369 27.7446 44.9176C28.189 46.3262 31.0874 47.8776 32.3992 48.5563C33.7111 49.235 36.9329 49.916 38.2634 49.2747C41.5518 47.6908 44.3272 39.4051 43.8507 35.7867ZM41.1031 33.6307L36.7992 31.8479C36.4826 31.7168 36.5468 31.2459 36.8873 31.2085C37.9318 31.0948 38.9572 31.1256 39.5225 31.3596C40.0882 31.5939 40.8347 32.2972 41.4928 33.1162C41.7071 33.3833 41.4197 33.7618 41.1031 33.6307Z" fill="#4A6361"/>
<path opacity="0.6" d="M43.8507 35.7867C43.6364 34.1573 41.3673 31.2003 39.8489 30.5714C38.3306 29.9425 34.6353 30.4289 33.3316 31.4294C30.4359 33.6513 26.6458 41.4369 27.7446 44.9176C28.189 46.3262 31.0874 47.8776 32.3992 48.5563C33.7111 49.235 36.9329 49.916 38.2634 49.2747C41.5518 47.6908 44.3272 39.4051 43.8507 35.7867ZM41.1031 33.6307L36.7992 31.8479C36.4826 31.7168 36.5468 31.2459 36.8873 31.2085C37.9318 31.0948 38.9572 31.1256 39.5225 31.3596C40.0882 31.5939 40.8347 32.2972 41.4928 33.1162C41.7071 33.3833 41.4197 33.7618 41.1031 33.6307Z" fill="#4A6361"/>
<path d="M42.7987 35.3513C42.584 33.7218 40.3152 30.7648 38.7969 30.1359C37.2786 29.5071 33.5832 29.9934 32.2795 30.9939C29.3838 33.2158 25.5937 41.0018 26.6926 44.4822C27.1373 45.8907 30.0356 47.4421 31.3475 48.1208C32.6593 48.7995 35.8812 49.4805 37.2117 48.8392C40.4997 47.2553 43.2752 38.9699 42.7987 35.3513ZM40.0511 33.1952L35.7471 31.4124C35.4305 31.2813 35.4948 30.8104 35.8353 30.7734C36.8797 30.6596 37.9052 30.6905 38.4708 30.9244C39.0364 31.1588 39.783 31.862 40.441 32.681C40.655 32.9481 40.3676 33.3266 40.0511 33.1952Z" fill="#4A6361"/>
<path d="M39.7935 39.7555L31.3157 36.244C30.7114 37.2337 30.1483 38.3719 29.7158 39.4874L38.6491 43.1877C39.1269 42.0944 39.5277 40.8888 39.7935 39.7555Z" fill="#C4EDDE"/>
<path d="M29.3827 40.4204C28.9331 41.8103 28.7378 43.0805 28.9855 43.8651C29.014 43.9303 29.3883 44.6519 32.2998 46.1581C33.3334 46.6962 35.5599 46.9977 36.0738 46.7641C36.8052 46.4111 37.5646 45.3844 38.2266 44.0836L29.3827 40.4204Z" fill="#C4EDDE"/>
<path d="M39.9945 38.7677C40.1364 37.9221 40.1832 37.1572 40.1052 36.5654C39.9889 35.6822 38.3516 33.5484 37.5287 33.2076C36.7058 32.8668 34.0392 33.2177 33.3329 33.7598C32.8653 34.1186 32.3612 34.6951 31.8657 35.4007L39.9945 38.7677Z" fill="#C4EDDE"/>
<path d="M35.8088 39.8812L34.0641 39.1585L33.5374 40.4302L35.282 41.1529L35.8088 39.8812Z" fill="#FFF2CA"/>
<path d="M35.4506 40.081L35.214 39.983L35.4736 39.3561C35.565 39.1352 35.4598 38.8812 35.2389 38.7898C35.018 38.6983 34.7641 38.8035 34.6726 39.0244L34.4131 39.6513L34.1765 39.5533L34.436 38.9268C34.5815 38.5758 34.9856 38.408 35.3369 38.5535C35.6882 38.699 35.8557 39.1034 35.7102 39.4544L35.4506 40.081Z" fill="#FFF2CA"/>
<path d="M34.0636 44.0858L32.319 43.3631L31.7922 44.6348L33.5368 45.3575L34.0636 44.0858Z" fill="#FFF2CA"/>
<path d="M32.6695 43.8554L32.4329 43.7574L32.6924 43.1305C32.8379 42.7795 33.242 42.612 33.5933 42.7575C33.9446 42.903 34.1121 43.3075 33.9666 43.6584L33.73 43.5605C33.8214 43.3396 33.7162 43.0856 33.495 42.9942C33.2741 42.9027 33.0201 43.0079 32.9287 43.2288L32.6695 43.8554Z" fill="#FFF2CA"/>
<path d="M38.3118 35.5799L37.5872 35.2797L36.981 34.2959L36.0732 36.4873L37.1976 36.2202L37.9222 36.5204L38.3118 35.5799Z" fill="#FFF2CA"/>
<path d="M35.1378 36.0656C34.7934 35.2342 35.1896 34.2769 36.0214 33.9328L36.1518 34.2481C35.4941 34.5204 35.1804 35.2771 35.4531 35.9352L35.1378 36.0656Z" fill="#FFF2CA"/>
<path d="M35.8845 35.7574C35.8 35.5533 35.8 35.3288 35.8845 35.1249C35.9691 34.9208 36.128 34.7622 36.3319 34.6776L36.4623 34.9929C36.3423 35.0424 36.2493 35.1354 36.1998 35.2554C36.1503 35.375 36.1503 35.5067 36.1998 35.6267L35.8845 35.7574Z" fill="#FFF2CA"/>
<path d="M2.90826 93.759L23.4527 94.4328H68.8965L88.505 93.4355V89.1539L85.9923 85.5221L79.1555 83.1065L70.4804 85.5221L67.0393 88.7695L28.1273 89.1539L20.5032 83.5981L14.5456 81.4482L5.81054 83.7072L3.68037 87.6116L2.42389 91.5462L2.90826 93.759Z" fill="#4A4A4C"/>
<path opacity="0.6" d="M2.90826 93.759L23.4527 94.4328H68.8965L88.505 93.4355V89.1539L85.9923 85.5221L79.1555 83.1065L70.4804 85.5221L67.0393 88.7695L28.1273 89.1539L20.5032 83.5981L14.5456 81.4482L5.81054 83.7072L3.68037 87.6116L2.42389 91.5462L2.90826 93.759Z" fill="#4A4A4C"/>
<path d="M4.10145 90.5123C4.83488 88.7207 7.74634 85.7395 9.53176 84.9913C11.2687 84.2634 15.3914 84.1277 17.065 84.9913C18.8351 85.9046 21.0747 89.5875 21.6803 91.485C21.9035 92.1837 21.8386 93.8701 21.7645 94.9811L70.2673 95.4924C70.1654 94.1444 70.0979 92.2843 70.4148 91.5106C71.1483 89.7189 74.0597 86.7377 75.8451 85.9895C77.5821 85.2616 81.7048 85.126 83.3784 85.9895C85.1484 86.9028 87.3881 90.5858 87.9937 92.4832C88.1395 92.9404 88.1621 93.8213 88.1399 94.6868C88.502 94.4145 88.832 94.0953 89.1083 93.7223L89.5648 93.1059C90.1727 92.2853 90.5011 91.291 90.5011 90.2695V88.6702C90.5011 87.7982 90.2618 86.9432 89.8093 86.1979L88.6439 84.2785V71.2671C88.6439 70.6261 88.5144 69.9919 88.2637 69.4024L83.6036 58.4467C82.8786 56.7426 81.2328 55.6126 79.3822 55.55C74.3792 55.3809 64.5582 55.0853 60.5695 55.2207C54.7702 55.4173 39.2156 57.0035 34.5807 57.4855C33.7224 57.5747 32.9178 57.9381 32.2824 58.5218L18.5126 71.1697L4.84897 77.1359C3.6859 77.6438 2.83121 78.6715 2.54445 79.908L1.25225 85.4805L0.825562 86.0387C0.188803 86.8714 -0.0969657 87.9204 0.0292063 88.9612L0.292363 91.1294C0.417552 92.1598 0.936661 93.1013 1.74088 93.7571L1.91064 93.8954C2.50381 94.3791 3.22086 94.6783 3.97495 94.7674C3.86287 93.411 3.76226 91.3405 4.10145 90.5123Z" fill="#4AA09B"/>
<path d="M12.6703 101.214C16.788 101.214 20.126 97.8764 20.126 93.7588C20.126 89.6412 16.788 86.3032 12.6703 86.3032C8.55271 86.3032 5.21472 89.6412 5.21472 93.7588C5.21472 97.8764 8.55271 101.214 12.6703 101.214Z" fill="#4A4A4C"/>
<path opacity="0.5" d="M12.6685 98.9534C15.5374 98.9534 17.8632 96.6277 17.8632 93.7588C17.8632 90.8899 15.5374 88.5641 12.6685 88.5641C9.79955 88.5641 7.47382 90.8899 7.47382 93.7588C7.47382 96.6277 9.79955 98.9534 12.6685 98.9534Z" fill="white"/>
<g opacity="0.5">
<path d="M10.7569 92.0493L10.3941 90.9682C10.2253 90.4648 9.56855 90.3157 9.21723 90.7142C8.81741 91.1678 8.50575 91.7006 8.30847 92.2863C8.13805 92.7916 8.59325 93.2897 9.11629 93.1839L10.2325 92.9578C10.6444 92.8742 10.8906 92.4482 10.7569 92.0493Z" fill="#4A4A4C"/>
<path d="M13.1933 91.2479L13.949 90.3926C14.3 89.9954 14.1024 89.3537 13.5832 89.2469C13.288 89.1863 12.9822 89.1538 12.6689 89.1538C12.3553 89.1538 12.0499 89.1859 11.7546 89.2469C11.2355 89.3537 11.0382 89.9954 11.3888 90.3926L12.1446 91.2479C12.4228 91.5632 12.9147 91.5632 13.1933 91.2479Z" fill="#4A4A4C"/>
<path d="M15.1061 92.9576L16.2223 93.1837C16.745 93.2896 17.2002 92.7915 17.0301 92.2861C16.8328 91.7005 16.5211 91.1673 16.1213 90.7141C15.77 90.3159 15.1133 90.4647 14.9445 90.968L14.582 92.0492C14.4477 92.448 14.6938 92.8741 15.1061 92.9576Z" fill="#4A4A4C"/>
<path d="M14.5819 95.4686L14.9443 96.5498C15.1131 97.0532 15.7699 97.2023 16.1212 96.8041C16.521 96.3505 16.8327 95.8177 17.0299 95.232C17.2 94.7267 16.7448 94.2286 16.2221 94.3344L15.1059 94.5605C14.694 94.6438 14.4478 95.0695 14.5819 95.4686Z" fill="#4A4A4C"/>
<path d="M12.1446 96.2698L11.3888 97.1252C11.0382 97.5224 11.2355 98.1641 11.7546 98.2709C12.0499 98.3315 12.3556 98.364 12.6689 98.364C12.9822 98.364 13.288 98.3318 13.5832 98.2709C14.1024 98.1641 14.2996 97.5224 13.949 97.1252L13.1933 96.2698C12.915 95.9542 12.4231 95.9542 12.1446 96.2698Z" fill="#4A4A4C"/>
<path d="M10.2324 94.5602L9.11617 94.3341C8.59346 94.2283 8.13826 94.7264 8.30834 95.2317C8.50563 95.8174 8.81729 96.3506 9.21711 96.8038C9.56843 97.202 10.2252 97.0532 10.3939 96.5498L10.7567 95.4687C10.8908 95.0695 10.6447 94.6438 10.2324 94.5602Z" fill="#4A4A4C"/>
</g>
<g opacity="0.5">
<path d="M11.9985 93.4354C12.1919 93.4354 12.3488 93.2786 12.3488 93.0851C12.3488 92.8916 12.1919 92.7348 11.9985 92.7348C11.805 92.7348 11.6481 92.8916 11.6481 93.0851C11.6481 93.2786 11.805 93.4354 11.9985 93.4354Z" fill="white"/>
<path d="M13.6965 93.0851C13.6965 93.2785 13.5395 93.4354 13.3462 93.4354C13.1528 93.4354 12.9958 93.2785 12.9958 93.0851C12.9958 92.8917 13.1528 92.7348 13.3462 92.7348C13.5395 92.7348 13.6965 92.8914 13.6965 93.0851Z" fill="white"/>
<path d="M12.3488 94.4328C12.3488 94.6261 12.1918 94.7831 11.9985 94.7831C11.8051 94.7831 11.6481 94.6261 11.6481 94.4328C11.6481 94.2394 11.8051 94.0825 11.9985 94.0825C12.1918 94.0825 12.3488 94.2391 12.3488 94.4328Z" fill="white"/>
<path d="M13.6965 94.4328C13.6965 94.6261 13.5395 94.7831 13.3462 94.7831C13.1528 94.7831 12.9958 94.6261 12.9958 94.4328C12.9958 94.2394 13.1528 94.0825 13.3462 94.0825C13.5395 94.0825 13.6965 94.2391 13.6965 94.4328Z" fill="white"/>
</g>
<path d="M79.4771 101.214C83.5947 101.214 86.9327 97.8762 86.9327 93.7586C86.9327 89.641 83.5947 86.303 79.4771 86.303C75.3595 86.303 72.0215 89.641 72.0215 93.7586C72.0215 97.8762 75.3595 101.214 79.4771 101.214Z" fill="#4A4A4C"/>
<path opacity="0.5" d="M79.4776 98.9536C82.3466 98.9536 84.6723 96.6279 84.6723 93.759C84.6723 90.89 82.3466 88.5643 79.4776 88.5643C76.6087 88.5643 74.283 90.89 74.283 93.759C74.283 96.6279 76.6087 98.9536 79.4776 98.9536Z" fill="white"/>
<g opacity="0.5">
<path d="M77.5625 92.0491L77.1997 90.968C77.031 90.4646 76.3742 90.3155 76.0229 90.714C75.6231 91.1676 75.3114 91.7004 75.1141 92.2861C74.9441 92.7914 75.3989 93.2896 75.922 93.1837L77.0382 92.9576C77.4505 92.874 77.6966 92.448 77.5625 92.0491Z" fill="#4A4A4C"/>
<path d="M79.999 91.2478L80.7548 90.3924C81.1054 89.9952 80.9081 89.3536 80.389 89.2467C80.0938 89.1861 79.788 89.1537 79.4747 89.1537C79.1614 89.1537 78.8556 89.1858 78.5604 89.2467C78.0413 89.3536 77.844 89.9952 78.1946 90.3924L78.9503 91.2478C79.2286 91.563 79.7205 91.563 79.999 91.2478Z" fill="#4A4A4C"/>
<path d="M81.9122 92.9574L83.0281 93.1836C83.5508 93.2894 84.006 92.7913 83.8359 92.2859C83.6386 91.7003 83.327 91.1671 82.9271 90.7139C82.5758 90.3157 81.9191 90.4645 81.7503 90.9679L81.3875 92.049C81.2538 92.4478 81.4999 92.8739 81.9122 92.9574Z" fill="#4A4A4C"/>
<path d="M81.3877 95.4685L81.7504 96.5496C81.9192 97.053 82.576 97.2021 82.9273 96.8039C83.3271 96.3504 83.6388 95.8175 83.8361 95.2319C84.0065 94.7265 83.5513 94.2284 83.0282 94.3342L81.9123 94.5604C81.4997 94.6436 81.2536 95.0693 81.3877 95.4685Z" fill="#4A4A4C"/>
<path d="M78.9503 96.2697L78.1946 97.125C77.844 97.5222 78.0413 98.1639 78.5604 98.2707C78.8556 98.3314 79.1614 98.3638 79.4747 98.3638C79.7883 98.3638 80.0938 98.3317 80.389 98.2707C80.9081 98.1639 81.1054 97.5222 80.7548 97.125L79.9991 96.2697C79.7208 95.9541 79.2289 95.9541 78.9503 96.2697Z" fill="#4A4A4C"/>
<path d="M77.0382 94.5601L75.922 94.3339C75.3992 94.2281 74.944 94.7262 75.1141 95.2315C75.3114 95.8172 75.6231 96.3504 76.0229 96.8036C76.3742 97.2018 77.031 97.053 77.1997 96.5496L77.5625 95.4685C77.6966 95.0693 77.4504 94.6436 77.0382 94.5601Z" fill="#4A4A4C"/>
</g>
<g opacity="0.5">
<path d="M79.1546 93.085C79.1546 93.2783 78.9976 93.4353 78.8043 93.4353C78.6109 93.4353 78.4539 93.2783 78.4539 93.085C78.4539 92.8916 78.6109 92.7346 78.8043 92.7346C78.9976 92.7346 79.1546 92.8913 79.1546 93.085Z" fill="white"/>
<path d="M80.1495 93.4353C80.343 93.4353 80.4999 93.2784 80.4999 93.085C80.4999 92.8915 80.343 92.7346 80.1495 92.7346C79.956 92.7346 79.7992 92.8915 79.7992 93.085C79.7992 93.2784 79.956 93.4353 80.1495 93.4353Z" fill="white"/>
<path d="M79.1546 94.4326C79.1546 94.626 78.9976 94.783 78.8043 94.783C78.6109 94.783 78.4539 94.626 78.4539 94.4326C78.4539 94.2393 78.6109 94.0823 78.8043 94.0823C78.9976 94.0823 79.1546 94.239 79.1546 94.4326Z" fill="white"/>
<path d="M80.4999 94.4326C80.4999 94.626 80.3429 94.783 80.1495 94.783C79.9562 94.783 79.7992 94.626 79.7992 94.4326C79.7992 94.2393 79.9562 94.0823 80.1495 94.0823C80.3429 94.0823 80.4999 94.239 80.4999 94.4326Z" fill="white"/>
</g>
<path d="M31.8829 60.6435C32.4115 60.1578 32.4492 59.3395 31.9723 58.8056L18.5116 71.1698L18.1187 71.3415C18.1432 71.374 18.1635 71.4084 18.1917 71.4389C18.6817 71.9721 19.5108 72.0074 20.044 71.5175L31.8829 60.6435Z" fill="#4A4A4C"/>
<path opacity="0.5" d="M3.05791 86.3032C2.96975 86.3032 2.90061 86.2272 2.90946 86.1393L3.53081 79.7668C3.53999 79.6718 3.63535 79.6095 3.72613 79.6394L4.29866 79.8278C5.00555 80.0601 5.42306 80.789 5.26576 81.5165L4.47923 85.1562C4.33471 85.8254 3.74252 86.3032 3.05791 86.3032Z" fill="white"/>
<g opacity="0.2">
<path d="M6.60202 82.0939C6.59678 81.8226 6.81242 81.5981 7.0841 81.5929L84.9718 80.0827C85.2432 80.0775 85.4677 80.2931 85.4729 80.5648C85.4782 80.8362 85.2625 81.0606 84.9908 81.0659L7.10278 82.576C6.83143 82.5813 6.60727 82.3656 6.60202 82.0939Z" fill="white"/>
</g>
<path d="M55.7728 72.8869L70.2672 72.6366C71.8383 72.6094 73.0275 71.2067 72.7972 69.6524L71.3522 59.9021C71.2677 59.3312 70.784 58.9048 70.2072 58.8914C67.6939 58.8334 65.1738 58.7911 63.1701 58.7911C62.2043 58.7911 61.3591 58.8009 60.6915 58.8239C59.3882 58.8681 57.3141 59.0163 54.8932 59.2178C54.3105 59.2663 53.8491 59.7333 53.8088 60.3166L53.1311 70.1046C53.0255 71.6275 54.2466 72.9135 55.7728 72.8869Z" fill="#4A4A4C"/>
<path d="M84.8583 70.6078L80.2856 59.8583C80.1093 59.4441 79.7108 59.1691 79.2609 59.1541C78.4566 59.1269 77.4355 59.0934 76.2812 59.0577C75.5435 59.0351 74.9635 59.6853 75.0716 60.4154L76.5309 70.2627C76.7227 71.5559 77.8438 72.5063 79.1507 72.4837L83.6225 72.4063C84.2202 72.3962 84.7751 72.0121 84.9219 71.4327C84.9917 71.1538 84.9674 70.8647 84.8583 70.6078Z" fill="#4A4A4C"/>
<path d="M48.8541 59.7581C43.5476 60.2579 38.1586 60.8157 35.8662 61.0559C35.1223 61.1339 34.4249 61.4491 33.874 61.9548L25.8351 69.3386C24.2594 70.7858 25.3094 73.4132 27.4484 73.3761L46.931 73.0392C48.2812 73.016 49.3896 71.9637 49.4826 70.6164L50.1469 61.0188C50.1977 60.29 49.5819 59.6896 48.8541 59.7581Z" fill="#4A4A4C"/>
<path d="M71.1004 75.4243L67.7141 75.4898C67.4463 75.4951 67.232 75.7137 67.232 75.9814C67.232 76.2567 67.4581 76.4782 67.7331 76.473L71.1194 76.4074C71.3871 76.4022 71.6015 76.1836 71.6015 75.9159C71.6015 75.6406 71.3754 75.419 71.1004 75.4243Z" fill="#4A4A4C"/>
<path d="M47.3503 76.3864C47.3503 76.1111 47.1245 75.8896 46.8492 75.8948L43.4629 75.9604C43.1952 75.9656 42.9808 76.1842 42.9808 76.452C42.9808 76.7272 43.207 76.9488 43.4819 76.9435L46.8682 76.878C47.136 76.8727 47.3503 76.6542 47.3503 76.3864Z" fill="#4A4A4C"/>
<g opacity="0.2">
<path d="M4.10287 90.5125C4.35358 89.9 4.86187 89.1486 5.48945 88.3951L1.38968 88.4748C0.805359 88.4862 0.303949 88.1257 0.100763 87.6122C0.00375835 88.0514 -0.0244247 88.5066 0.0309599 88.9614L0.294116 91.1296C0.419305 92.16 0.938415 93.1015 1.74264 93.7573L1.9124 93.8956C2.50557 94.3793 3.22262 94.6785 3.9767 94.7676C3.86429 93.4112 3.76368 91.3407 4.10287 90.5125Z" fill="#4A4A4C"/>
<path d="M70.2694 95.4924C70.1675 94.1445 70.0999 92.2844 70.4169 91.5106C70.9461 90.2178 72.609 88.3092 74.165 87.0635L19.971 88.1142C20.7549 89.3179 21.3986 90.5966 21.6824 91.4851C21.9055 92.1838 21.8406 93.8702 21.7666 94.9812L70.2694 95.4924Z" fill="#4A4A4C"/>
<path d="M87.9957 92.483C88.1415 92.9401 88.1641 93.8211 88.1419 94.6866C88.504 94.4142 88.834 94.095 89.1103 93.7221L89.5668 93.1056C90.1747 92.285 90.5031 91.2907 90.5031 90.2692V88.67C90.5031 87.7979 90.2638 86.9429 89.8113 86.1977L89.401 85.5219C89.3544 86.2196 88.7875 86.7794 88.0757 86.7931L84.5074 86.8623C85.9986 88.339 87.5139 90.9738 87.9957 92.483Z" fill="#4A4A4C"/>
</g>
<g opacity="0.2">
<path d="M24.7353 90.9042C24.7284 90.5424 25.0161 90.2432 25.3779 90.2363L67.1147 89.4272C67.4768 89.42 67.776 89.708 67.7829 90.0699C67.7898 90.4317 67.502 90.7309 67.1402 90.7377L25.4035 91.5469C25.0414 91.5541 24.7422 91.266 24.7353 90.9042Z" fill="white"/>
</g>
<path opacity="0.6" d="M28.1258 67.2351L25.8351 69.339C24.2594 70.7862 25.3094 73.4135 27.4481 73.3765L28.1258 73.3647V67.2351Z" fill="#4A4A4C"/>
<path d="M31.2579 67.7832H30.0997C29.521 67.7832 29.052 68.2522 29.052 68.8309V70.442L27.1158 70.8166C26.8763 70.8631 26.7032 71.0725 26.7032 71.3167V71.7748C26.7032 72.1327 27.0628 72.3791 27.3964 72.25L29.2352 71.5382C29.4662 71.8794 29.8864 72.0766 30.3268 71.9787L31.4191 71.7358C31.7593 71.6601 32.0012 71.3586 32.0012 71.0103V68.5268C32.0015 68.1158 31.6685 67.7832 31.2579 67.7832Z" fill="#4AA09B"/>
</svg>
