<svg width="108" height="108" viewBox="0 0 108 108" fill="none" xmlns="http://www.w3.org/2000/svg">
<path d="M55.8558 52.4665H55.0074" stroke="#4AA09B" stroke-width="0.72" stroke-miterlimit="10"/>
<path d="M53.9903 52.4664H32.6412L27.0258 46.8067" stroke="#4AA09B" stroke-width="0.72" stroke-miterlimit="10" stroke-dasharray="3.59 2.16"/>
<path d="M26.6669 46.4447L26.0669 45.8399" stroke="#4AA09B" stroke-width="0.72" stroke-miterlimit="10"/>
<path d="M26.2862 45.6249C26.2862 45.865 26.0931 46.06 25.8545 46.06C25.6163 46.06 25.4229 45.865 25.4229 45.6249C25.4229 45.3847 25.6163 45.1897 25.8545 45.1897C26.0928 45.1897 26.2862 45.3844 26.2862 45.6249Z" stroke="#4AA09B" stroke-width="0.72" stroke-miterlimit="10"/>
<path d="M75.3747 57.0598H55.9343C55.2966 57.0598 54.7794 56.5385 54.7794 55.8957V36.3341C54.7794 35.6913 55.2963 35.17 55.9343 35.17H75.3747C76.0124 35.17 76.5296 35.691 76.5296 36.3341V55.8957C76.5296 56.5388 76.0124 57.0598 75.3747 57.0598Z" fill="#4AA09B"/>
<g clip-path="url(#clip0_203_4500)">
<path fill-rule="evenodd" clip-rule="evenodd" d="M68.8095 43.1043C68.8095 43.1487 68.7964 43.192 68.772 43.2288C68.7475 43.2657 68.7128 43.2944 68.6722 43.3114C68.6315 43.3283 68.5868 43.3328 68.5437 43.3241C68.5005 43.3154 68.4609 43.2941 68.4298 43.2627C68.3987 43.2314 68.3776 43.1914 68.369 43.1479C68.3604 43.1045 68.3648 43.0594 68.3817 43.0184C68.3985 42.9775 68.427 42.9425 68.4636 42.9179C68.5002 42.8933 68.5432 42.8801 68.5872 42.8801C68.6461 42.8802 68.7027 42.9038 68.7444 42.9459C68.786 42.9879 68.8095 43.0449 68.8095 43.1043ZM68.0261 43.1043C68.0261 43.2162 68.059 43.3255 68.1206 43.4186C68.1823 43.5116 68.2699 43.5841 68.3725 43.6269C68.475 43.6697 68.5878 43.6809 68.6967 43.659C68.8055 43.6372 68.9055 43.5833 68.984 43.5042C69.0625 43.4251 69.1159 43.3243 69.1375 43.2146C69.1592 43.1049 69.1481 42.9912 69.1056 42.8878C69.0631 42.7845 68.9912 42.6962 68.8989 42.634C68.8066 42.5719 68.6981 42.5387 68.5871 42.5387C68.4383 42.5389 68.2957 42.5985 68.1905 42.7046C68.0853 42.8106 68.0262 42.9544 68.026 43.1043H68.0261ZM67.1708 41.4518C67.2148 41.4518 67.2578 41.4649 67.2944 41.4896C67.3309 41.5142 67.3594 41.5492 67.3762 41.5902C67.3931 41.6311 67.3975 41.6762 67.3889 41.7196C67.3803 41.7631 67.3591 41.803 67.328 41.8344C67.297 41.8657 67.2573 41.8871 67.2142 41.8957C67.1711 41.9044 67.1264 41.9 67.0857 41.883C67.0451 41.8661 67.0104 41.8374 66.9859 41.8005C66.9615 41.7637 66.9484 41.7204 66.9484 41.676C66.9485 41.6166 66.9719 41.5596 67.0136 41.5175C67.0553 41.4755 67.1119 41.4519 67.1708 41.4518ZM67.1708 42.2416C67.2818 42.2416 67.3903 42.2085 67.4826 42.1463C67.5749 42.0842 67.6469 41.9959 67.6893 41.8925C67.7318 41.7892 67.743 41.6755 67.7213 41.5657C67.6997 41.456 67.6462 41.3552 67.5678 41.2761C67.4893 41.197 67.3893 41.1431 67.2805 41.1213C67.1716 41.0995 67.0588 41.1107 66.9563 41.1535C66.8537 41.1963 66.7661 41.2688 66.7044 41.3618C66.6428 41.4548 66.6098 41.5642 66.6099 41.676C66.61 41.826 66.6691 41.9697 66.7743 42.0757C66.8795 42.1818 67.0221 42.2414 67.1708 42.2416ZM67.1096 43.37C67.0982 43.3894 67.0908 43.4109 67.0877 43.4333C67.0847 43.4556 67.086 43.4783 67.0917 43.5001C67.0974 43.5219 67.1073 43.5424 67.1209 43.5603C67.1345 43.5782 67.1514 43.5933 67.1708 43.6045C67.1902 43.6158 67.2116 43.6231 67.2337 43.626C67.2559 43.6289 67.2785 43.6273 67.3 43.6214C67.3216 43.6155 67.3418 43.6053 67.3595 43.5914C67.3771 43.5776 67.3919 43.5603 67.4029 43.5407L68.6484 41.3665C68.6709 41.3273 68.677 41.2807 68.6654 41.2369C68.6537 41.1932 68.6253 41.1559 68.5864 41.1332C68.5475 41.1106 68.5013 41.1045 68.4579 41.1162C68.4145 41.1279 68.3775 41.1565 68.355 41.1957L67.1096 43.3699V43.37ZM71.3674 50.4037C71.3671 50.4247 71.3588 50.4447 71.344 50.4596C71.3293 50.4744 71.3095 50.4829 71.2887 50.4832H60.1479C60.1271 50.4829 60.1072 50.4744 60.0925 50.4596C60.0778 50.4447 60.0694 50.4247 60.0691 50.4037V50.1718C60.0694 50.1508 60.0778 50.1308 60.0925 50.1159C60.1072 50.1011 60.1271 50.0927 60.1479 50.0924H71.2887C71.3095 50.0927 71.3293 50.1011 71.344 50.1159C71.3588 50.1308 71.3672 50.1508 71.3674 50.1718V50.4037ZM70.4097 51.8975C70.4101 51.9935 70.3728 52.0857 70.3059 52.154C70.239 52.2222 70.1479 52.261 70.0527 52.2616H69.4348C69.3396 52.2609 69.2486 52.2222 69.1818 52.1539C69.1149 52.0856 69.0777 51.9934 69.0782 51.8975V50.8246H70.4097V51.8974V51.8975ZM62.3584 51.8975C62.3589 51.9934 62.3217 52.0856 62.2548 52.1539C62.1879 52.2221 62.097 52.2609 62.0018 52.2616H61.3838C61.2886 52.2609 61.1976 52.2222 61.1307 52.154C61.0638 52.0857 61.0264 51.9935 61.0269 51.8975V50.8246H62.3584V51.8974V51.8975ZM60.4589 47.9843C60.4593 47.6439 60.5935 47.3176 60.8323 47.077C61.071 46.8363 61.3947 46.7009 61.7324 46.7005H69.704C70.0417 46.7008 70.3655 46.8362 70.6042 47.0769C70.843 47.3176 70.9773 47.6439 70.9777 47.9843V49.6688C70.9776 49.6976 70.9702 49.7259 70.9561 49.7509H60.4805C60.4664 49.7259 60.459 49.6976 60.4589 49.6688V47.9843ZM61.5193 46.2052V46.3739C61.5899 46.3642 61.6611 46.3593 61.7324 46.3592H69.704C69.7237 46.3592 69.7432 46.36 69.7629 46.3607V46.0718L69.1303 44.6784C68.8057 44.8589 68.4464 44.9672 68.0767 44.9958C67.7071 45.0244 67.3356 44.9728 66.9874 44.8443C66.6393 44.7158 66.3225 44.5136 66.0585 44.2512C65.7945 43.9887 65.5895 43.6723 65.4572 43.3232H63.0071C62.7781 43.3232 62.6742 43.5268 62.5233 43.8592L61.5193 46.0716V46.2052ZM60.1724 45.5962C60.1725 45.5252 60.2004 45.4571 60.2502 45.4069C60.3 45.3567 60.3675 45.3284 60.438 45.3283H60.9147C60.9851 45.3284 61.0527 45.3567 61.1025 45.4069C61.1523 45.4571 61.1803 45.5252 61.1804 45.5962V45.8639H60.438C60.3676 45.8638 60.3001 45.8355 60.2503 45.7854C60.2005 45.7352 60.1725 45.6671 60.1724 45.5962ZM67.879 40.1183C67.4332 40.1183 66.9974 40.2516 66.6268 40.5012C66.2561 40.7509 65.9672 41.1057 65.7966 41.5208C65.626 41.936 65.5814 42.3928 65.6684 42.8335C65.7554 43.2742 65.9701 43.679 66.2853 43.9968C66.6006 44.3145 67.0022 44.5308 67.4394 44.6185C67.8767 44.7061 68.3299 44.6611 68.7417 44.4892C69.1536 44.3172 69.5056 44.026 69.7533 43.6524C70.0009 43.2787 70.1331 42.8395 70.1331 42.3901C70.1324 41.7878 69.8947 41.2103 69.4721 40.7843C69.0496 40.3584 68.4766 40.1189 67.879 40.1183ZM70.1014 45.5961C70.1015 45.5251 70.1295 45.457 70.1793 45.4068C70.2291 45.3566 70.2966 45.3284 70.3671 45.3283H70.8438C70.9143 45.3283 70.9818 45.3565 71.0317 45.4067C71.0815 45.4569 71.1095 45.525 71.1095 45.596C71.1095 45.6671 71.0815 45.7352 71.0317 45.7854C70.9818 45.8356 70.9143 45.8638 70.8438 45.8638H70.1014V45.5961ZM71.3094 49.7521C71.314 49.7246 71.3163 49.6968 71.3164 49.6689V47.9843C71.3159 47.6231 71.1963 47.2723 70.9764 46.9871C70.7564 46.702 70.4486 46.4986 70.1014 46.4092V46.2052H70.8438C71.0041 46.2052 71.1578 46.141 71.2711 46.0268C71.3845 45.9126 71.4481 45.7576 71.4481 45.5961C71.4481 45.4345 71.3845 45.2796 71.2711 45.1654C71.1578 45.0512 71.0041 44.987 70.8438 44.987H70.3671C70.2486 44.9871 70.1327 45.0223 70.0339 45.0882C69.935 45.154 69.8575 45.2477 69.811 45.3576L69.4181 44.4918C69.794 44.2117 70.0876 43.8343 70.268 43.3996C70.4484 42.9649 70.5088 42.4891 70.4427 42.0226C70.3766 41.5562 70.1866 41.1164 69.8927 40.75C69.5989 40.3835 69.2122 40.104 68.7735 39.9411C68.3349 39.7781 67.8607 39.7378 67.4012 39.8244C66.9417 39.911 66.514 40.1213 66.1635 40.433C65.8129 40.7447 65.5525 41.1462 65.4098 41.5949C65.2672 42.0436 65.2477 42.5228 65.3533 42.9818H63.0071C62.549 42.9818 62.3639 43.3896 62.2152 43.7173L61.4709 45.3576C61.4244 45.2477 61.3469 45.154 61.248 45.0881C61.1492 45.0223 61.0333 44.9871 60.9148 44.987H60.4381C60.2778 44.987 60.1241 45.0512 60.0108 45.1654C59.8974 45.2796 59.8338 45.4345 59.8338 45.5961C59.8338 45.7576 59.8974 45.9126 60.0108 46.0268C60.1241 46.141 60.2778 46.2052 60.4381 46.2052H61.1805V46.4572C60.8699 46.5717 60.6017 46.7796 60.4121 47.0527C60.2225 47.3258 60.1206 47.651 60.1202 47.9843V49.6688C60.1202 49.6967 60.1226 49.7245 60.1271 49.752C60.0203 49.7574 59.9195 49.8039 59.8457 49.882C59.7719 49.9601 59.7306 50.0637 59.7305 50.1716V50.4037C59.7306 50.5153 59.7746 50.6223 59.8529 50.7012C59.9311 50.7801 60.0372 50.8245 60.1479 50.8246H60.6884V51.8975C60.688 52.0839 60.761 52.2629 60.8914 52.3952C61.0218 52.5275 61.1989 52.6022 61.3838 52.603H62.0018C62.1868 52.6022 62.3639 52.5275 62.4942 52.3952C62.6246 52.2629 62.6976 52.0839 62.6972 51.8975V50.8246H68.7394V51.8974C68.739 52.0839 68.812 52.2629 68.9423 52.3952C69.0727 52.5274 69.2498 52.6022 69.4348 52.603H70.0527C70.2377 52.6022 70.4148 52.5274 70.5452 52.3951C70.6756 52.2629 70.7486 52.0839 70.7482 51.8974V50.8246H71.2887C71.3993 50.8244 71.5054 50.78 71.5837 50.7011C71.6619 50.6222 71.706 50.5153 71.7061 50.4037V50.1718C71.7059 50.0639 71.6647 49.9602 71.5909 49.8821C71.517 49.8041 71.4163 49.7575 71.3094 49.7522V49.7521ZM64.4862 49.0613C64.4862 49.1065 64.504 49.1499 64.5358 49.1819C64.5675 49.2139 64.6106 49.2319 64.6555 49.2319H66.7811C66.8256 49.2313 66.8682 49.2131 66.8995 49.1812C66.9308 49.1492 66.9483 49.1061 66.9483 49.0612C66.9483 49.0163 66.9308 48.9732 66.8995 48.9413C66.8682 48.9093 66.8256 48.8911 66.7811 48.8905H64.6555C64.6332 48.8905 64.6112 48.895 64.5907 48.9035C64.5701 48.9121 64.5515 48.9247 64.5357 48.9406C64.52 48.9564 64.5076 48.9752 64.4991 48.996C64.4906 49.0167 64.4862 49.0389 64.4862 49.0613ZM64.4862 48.3586C64.4862 48.381 64.4906 48.4032 64.4991 48.4239C64.5076 48.4446 64.52 48.4634 64.5358 48.4792C64.5515 48.4951 64.5701 48.5077 64.5907 48.5162C64.6112 48.5248 64.6332 48.5292 64.6555 48.5292H66.7811C66.8256 48.5286 66.8681 48.5104 66.8994 48.4785C66.9307 48.4465 66.9483 48.4035 66.9483 48.3586C66.9483 48.3137 66.9307 48.2706 66.8994 48.2387C66.8681 48.2067 66.8256 48.1885 66.7811 48.188H64.6555C64.6106 48.188 64.5675 48.2059 64.5358 48.2379C64.504 48.2699 64.4862 48.3133 64.4862 48.3586ZM61.8656 48.4368V48.7046C61.8657 48.7755 61.8937 48.8436 61.9434 48.8938C61.9932 48.944 62.0608 48.9723 62.1312 48.9723H62.6079C62.643 48.9727 62.6778 48.966 62.7104 48.9527C62.7429 48.9394 62.7725 48.9198 62.7974 48.8949C62.8224 48.87 62.8422 48.8403 62.8557 48.8077C62.8692 48.775 62.8762 48.74 62.8762 48.7046C62.8762 48.6692 62.8692 48.6342 62.8557 48.6015C62.8422 48.5688 62.8224 48.5392 62.7974 48.5143C62.7725 48.4894 62.7429 48.4698 62.7104 48.4565C62.6778 48.4432 62.643 48.4365 62.6079 48.4368L61.8656 48.4368ZM62.1312 49.3136H62.6079C62.7682 49.3136 62.9219 49.2494 63.0352 49.1352C63.1485 49.021 63.2122 48.866 63.2122 48.7045C63.2122 48.5429 63.1485 48.388 63.0352 48.2738C62.9219 48.1596 62.7682 48.0954 62.6079 48.0954H61.6961C61.6739 48.0954 61.6518 48.0998 61.6313 48.1083C61.6107 48.1169 61.5921 48.1295 61.5763 48.1453C61.5606 48.1611 61.5481 48.18 61.5396 48.2007C61.5311 48.2214 61.5267 48.2436 61.5267 48.266V48.7046C61.5269 48.8661 61.5906 49.0209 61.7039 49.1351C61.8172 49.2493 61.9709 49.3135 62.1311 49.3136H62.1312ZM68.8496 48.4368C68.7796 48.4375 68.7127 48.466 68.6635 48.5161C68.6142 48.5663 68.5866 48.634 68.5866 48.7045C68.5866 48.7751 68.6142 48.8428 68.6635 48.8929C68.7127 48.943 68.7796 48.9716 68.8496 48.9723H69.3264C69.3968 48.9722 69.4643 48.944 69.5141 48.8938C69.5639 48.8436 69.5919 48.7756 69.592 48.7046V48.4368H68.8496ZM68.8496 49.3136H69.3264C69.4866 49.3134 69.6402 49.2492 69.7535 49.135C69.8668 49.0208 69.9305 48.866 69.9307 48.7046V48.266C69.9307 48.2208 69.9128 48.1774 69.8811 48.1454C69.8493 48.1134 69.8063 48.0955 69.7614 48.0955H68.8496C68.7702 48.0955 68.6917 48.1112 68.6183 48.1418C68.545 48.1724 68.4784 48.2173 68.4223 48.2739C68.3662 48.3304 68.3217 48.3976 68.2913 48.4715C68.2609 48.5454 68.2453 48.6246 68.2453 48.7046C68.2453 48.7846 68.2609 48.8638 68.2913 48.9377C68.3217 49.0116 68.3662 49.0787 68.4223 49.1353C68.4784 49.1919 68.545 49.2367 68.6183 49.2673C68.6917 49.2979 68.7702 49.3137 68.8496 49.3137V49.3136Z" fill="white"/>
</g>
<path d="M89.126 73.6013C93.406 77.9153 100.345 77.9153 104.626 73.6013C108.905 69.2874 108.905 62.2928 104.626 57.9785C100.655 53.9761 94.3966 53.6898 90.095 57.1137L86.1581 54.987L88.2681 58.9551C84.8712 63.291 85.1553 69.599 89.126 73.6013Z" fill="#4AA09B"/>
<path d="M89.126 73.6013C93.406 77.9153 100.345 77.9153 104.626 73.6013C108.905 69.2874 108.905 62.2928 104.626 57.9785C100.655 53.9761 94.3966 53.6898 90.095 57.1137L86.1581 54.987L88.2681 58.9551C84.8712 63.291 85.1553 69.599 89.126 73.6013Z" fill="#E0FFFA"/>
<path d="M96.8777 77.0031C94.0276 77.0031 91.1778 75.9095 89.0078 73.7226C85.0449 69.7277 84.6488 63.3917 88.0678 58.9378L86.0101 55.0678C85.9748 55.0014 85.987 54.9193 86.0396 54.866C86.0926 54.813 86.174 54.8006 86.2398 54.8362L90.0793 56.9103C94.498 53.4645 100.784 53.8627 104.747 57.8578C109.087 62.2317 109.087 69.3487 104.747 73.7226C102.578 75.9091 99.7275 77.0031 96.8777 77.0031ZM86.5748 55.4054L88.4194 58.8745C88.4513 58.9347 88.4448 59.0079 88.4031 59.0613C85.0167 63.3835 85.3802 69.5823 89.2478 73.4807C93.4547 77.7212 100.3 77.7212 104.507 73.4807C108.715 69.2399 108.715 62.3405 104.507 58.0997C100.64 54.2013 94.4895 53.8346 90.2021 57.2482C90.1492 57.291 90.0762 57.2972 90.0168 57.2647L86.5748 55.4054Z" fill="#4AA09B"/>
<g opacity="0.7">
<path d="M96.8777 77.0031C94.0276 77.0031 91.1778 75.9095 89.0078 73.7226C85.0449 69.7277 84.6488 63.3917 88.0678 58.9378L86.0101 55.0678C85.9748 55.0014 85.987 54.9193 86.0396 54.866C86.0926 54.813 86.174 54.8006 86.2398 54.8362L90.0793 56.9103C94.498 53.4645 100.784 53.8627 104.747 57.8578C109.087 62.2317 109.087 69.3487 104.747 73.7226C102.578 75.9091 99.7275 77.0031 96.8777 77.0031ZM86.5748 55.4054L88.4194 58.8745C88.4513 58.9347 88.4448 59.0079 88.4031 59.0613C85.0167 63.3835 85.3802 69.5823 89.2478 73.4807C93.4547 77.7212 100.3 77.7212 104.507 73.4807C108.715 69.2399 108.715 62.3405 104.507 58.0997C100.64 54.2013 94.4895 53.8346 90.2021 57.2482C90.1492 57.291 90.0762 57.2972 90.0168 57.2647L86.5748 55.4054Z" fill="#4AA09B"/>
</g>
<path d="M104.627 34.2518C108.907 29.9378 108.907 22.9433 104.627 18.629C100.347 14.315 93.4077 14.315 89.1278 18.629C85.157 22.6313 84.873 28.9393 88.2699 33.2752L86.1599 37.2433L90.0967 35.1166C94.3984 38.5405 100.657 38.2542 104.627 34.2518Z" fill="#4AA09B"/>
<path d="M104.627 34.2518C108.907 29.9378 108.907 22.9433 104.627 18.629C100.347 14.315 93.4077 14.315 89.1278 18.629C85.157 22.6313 84.873 28.9393 88.2699 33.2752L86.1599 37.2433L90.0967 35.1166C94.3984 38.5405 100.657 38.2542 104.627 34.2518Z" fill="#E0FFFA"/>
<path d="M96.8736 37.6593C94.4854 37.6593 92.0893 36.8875 90.0795 35.3201L86.2401 37.3942C86.1743 37.4294 86.0928 37.4174 86.0399 37.3644C85.9869 37.311 85.975 37.2289 86.0103 37.1626L88.068 33.2926C84.6488 28.8387 85.0448 22.5027 89.0081 18.5082C93.3474 14.1343 100.408 14.1343 104.748 18.5082C109.087 22.882 109.087 29.9987 104.748 34.3729C102.587 36.5503 99.7359 37.6593 96.8736 37.6593ZM90.0972 34.9455C90.1345 34.9455 90.1718 34.9582 90.2024 34.9822C94.4901 38.3951 100.64 38.0291 104.508 34.1307C108.715 29.8903 108.715 22.9901 104.508 18.7497C100.301 14.5092 93.4553 14.5092 89.248 18.7497C85.3805 22.648 85.017 28.8469 88.4033 33.1688C88.4451 33.2221 88.4515 33.2957 88.4196 33.3556L86.5747 36.8249L90.0167 34.9657C90.0422 34.9524 90.0697 34.9455 90.0972 34.9455Z" fill="#4AA09B"/>
<g opacity="0.7">
<path d="M96.8736 37.6593C94.4854 37.6593 92.0893 36.8875 90.0795 35.3201L86.2401 37.3942C86.1743 37.4294 86.0928 37.4174 86.0399 37.3644C85.9869 37.311 85.975 37.2289 86.0103 37.1626L88.068 33.2926C84.6488 28.8387 85.0448 22.5027 89.0081 18.5082C93.3474 14.1343 100.408 14.1343 104.748 18.5082C109.087 22.882 109.087 29.9987 104.748 34.3729C102.587 36.5503 99.7359 37.6593 96.8736 37.6593ZM90.0972 34.9455C90.1345 34.9455 90.1718 34.9582 90.2024 34.9822C94.4901 38.3951 100.64 38.0291 104.508 34.1307C108.715 29.8903 108.715 22.9901 104.508 18.7497C100.301 14.5092 93.4553 14.5092 89.248 18.7497C85.3805 22.648 85.017 28.8469 88.4033 33.1688C88.4451 33.2221 88.4515 33.2957 88.4196 33.3556L86.5747 36.8249L90.0167 34.9657C90.0422 34.9524 90.0697 34.9455 90.0972 34.9455Z" fill="#4AA09B"/>
</g>
<path d="M54.6935 81.0125C54.6935 87.1135 59.6003 92.0593 65.6532 92.0593C71.706 92.0593 76.6128 87.1135 76.6128 81.0125C76.6128 75.3524 72.3885 70.6891 66.9448 70.0443L65.6528 65.7347L64.3608 70.0443C58.9178 70.6891 54.6935 75.3524 54.6935 81.0125Z" fill="#4AA09B"/>
<path d="M54.6935 81.0125C54.6935 87.1135 59.6003 92.0593 65.6532 92.0593C71.706 92.0593 76.6128 87.1135 76.6128 81.0125C76.6128 75.3524 72.3885 70.6891 66.9448 70.0443L65.6528 65.7347L64.3608 70.0443C58.9178 70.6891 54.6935 75.3524 54.6935 81.0125Z" fill="#E0FFFA"/>
<path d="M65.6513 92.2305C59.5146 92.2305 54.522 87.1982 54.522 81.0126C54.522 75.3632 58.6872 70.6007 64.2293 69.8881L65.4891 65.6853C65.5322 65.541 65.7708 65.541 65.8139 65.6853L67.0736 69.8881C72.6157 70.6007 76.7809 75.3632 76.7809 81.0126C76.7809 87.1982 71.7883 92.2305 65.6513 92.2305ZM65.6513 66.326L64.5218 70.0941C64.5021 70.1591 64.4461 70.2066 64.3793 70.2148C58.9529 70.8573 54.8614 75.4993 54.8614 81.0126C54.8614 87.0093 59.7019 91.8884 65.6513 91.8884C71.601 91.8884 76.4416 87.0093 76.4416 81.0126C76.4416 75.4993 72.3496 70.8569 66.9236 70.2148C66.8568 70.207 66.8008 70.1594 66.7811 70.0941L65.6513 66.326Z" fill="#4AA09B"/>
<g opacity="0.7">
<path d="M65.6513 92.2305C59.5146 92.2305 54.522 87.1982 54.522 81.0126C54.522 75.3632 58.6872 70.6007 64.2293 69.8881L65.4891 65.6853C65.5322 65.541 65.7708 65.541 65.8139 65.6853L67.0736 69.8881C72.6157 70.6007 76.7809 75.3632 76.7809 81.0126C76.7809 87.1982 71.7883 92.2305 65.6513 92.2305ZM65.6513 66.326L64.5218 70.0941C64.5021 70.1591 64.4461 70.2066 64.3793 70.2148C58.9529 70.8573 54.8614 75.4993 54.8614 81.0126C54.8614 87.0093 59.7019 91.8884 65.6513 91.8884C71.601 91.8884 76.4416 87.0093 76.4416 81.0126C76.4416 75.4993 72.3496 70.8569 66.9236 70.2148C66.8568 70.207 66.8008 70.1594 66.7811 70.0941L65.6513 66.326Z" fill="#4AA09B"/>
</g>
<path d="M76.6128 11.2177C76.6128 5.11672 71.706 0.170898 65.6532 0.170898C59.6003 0.170898 54.6935 5.11672 54.6935 11.2177C54.6935 16.8778 58.9178 21.5411 64.3615 22.1859L65.6535 26.4955L66.9455 22.1859C72.3885 21.5407 76.6128 16.8778 76.6128 11.2177Z" fill="#4AA09B"/>
<path d="M76.6128 11.2177C76.6128 5.11672 71.706 0.170898 65.6532 0.170898C59.6003 0.170898 54.6935 5.11672 54.6935 11.2177C54.6935 16.8778 58.9178 21.5411 64.3615 22.1859L65.6535 26.4955L66.9455 22.1859C72.3885 21.5407 76.6128 16.8778 76.6128 11.2177Z" fill="#E0FFFA"/>
<path d="M65.6513 26.6661C65.5766 26.6661 65.5104 26.6165 65.4891 26.5447L64.2293 22.3419C58.6872 21.6297 54.522 16.8669 54.522 11.2177C54.522 5.03187 59.5146 -0.000152588 65.6513 -0.000152588C71.7883 -0.000152588 76.7809 5.03222 76.7809 11.2177C76.7809 16.8669 72.6157 21.6297 67.0736 22.3419L65.8139 26.5447C65.7925 26.6169 65.7263 26.6661 65.6513 26.6661ZM65.6513 0.341587C59.7016 0.341587 54.8614 5.2207 54.8614 11.2174C54.8614 16.7307 58.9533 21.3728 64.3793 22.0156C64.4461 22.0234 64.5021 22.071 64.5218 22.136L65.6513 25.9037L66.7807 22.136C66.8004 22.071 66.8564 22.0234 66.9233 22.0156C72.3496 21.3728 76.4412 16.7307 76.4412 11.2174C76.4416 5.2207 71.601 0.341587 65.6513 0.341587Z" fill="#4AA09B"/>
<g opacity="0.7">
<path d="M65.6513 26.6661C65.5766 26.6661 65.5104 26.6165 65.4891 26.5447L64.2293 22.3419C58.6872 21.6297 54.522 16.8669 54.522 11.2177C54.522 5.03187 59.5146 -0.000152588 65.6513 -0.000152588C71.7883 -0.000152588 76.7809 5.03222 76.7809 11.2177C76.7809 16.8669 72.6157 21.6297 67.0736 22.3419L65.8139 26.5447C65.7925 26.6169 65.7263 26.6661 65.6513 26.6661ZM65.6513 0.341587C59.7016 0.341587 54.8614 5.2207 54.8614 11.2174C54.8614 16.7307 58.9533 21.3728 64.3793 22.0156C64.4461 22.0234 64.5021 22.071 64.5218 22.136L65.6513 25.9037L66.7807 22.136C66.8004 22.071 66.8564 22.0234 66.9233 22.0156C72.3496 21.3728 76.4412 16.7307 76.4412 11.2174C76.4416 5.2207 71.601 0.341587 65.6513 0.341587Z" fill="#4AA09B"/>
</g>
<path d="M26.6806 34.0829C22.4007 29.7689 22.4007 22.7743 26.6806 18.46C30.9605 14.146 37.8998 14.146 42.1801 18.46C46.1509 22.4624 46.4349 28.7704 43.0381 33.1062L45.148 37.0744L41.2112 34.9477C36.9095 38.3719 30.6513 38.0852 26.6806 34.0829Z" fill="#4AA09B"/>
<path d="M26.6806 34.0829C22.4007 29.7689 22.4007 22.7743 26.6806 18.46C30.9605 14.146 37.8998 14.146 42.1801 18.46C46.1509 22.4624 46.4349 28.7704 43.0381 33.1062L45.148 37.0744L41.2112 34.9477C36.9095 38.3719 30.6513 38.0852 26.6806 34.0829Z" fill="#E0FFFA"/>
<path d="M34.4373 37.4905C31.5746 37.4905 28.7242 36.3818 26.5633 34.2038C22.224 29.8299 22.224 22.7129 26.5633 18.3391C30.9027 13.9652 37.9635 13.9652 42.3028 18.3391C46.2657 22.3336 46.6618 28.6699 43.2429 33.1239L45.3005 36.9938C45.3358 37.0602 45.3236 37.1423 45.271 37.1957C45.2181 37.249 45.1366 37.261 45.0708 37.2254L41.2314 35.1514C39.2219 36.7184 36.8252 37.4905 34.4373 37.4905ZM34.4332 15.4003C31.67 15.4003 28.9071 16.4604 26.8036 18.5806C22.5966 22.821 22.5966 29.7208 26.8036 33.9616C30.6712 37.86 36.8211 38.2257 41.1089 34.813C41.1621 34.7713 41.2348 34.7648 41.2942 34.7966L44.7362 36.6562L42.8913 33.1868C42.8594 33.1266 42.8658 33.0534 42.9076 33C46.2936 28.6782 45.9304 22.4793 42.0629 18.5809C39.9594 16.4607 37.1965 15.4003 34.4332 15.4003Z" fill="#4AA09B"/>
<path d="M37.3314 82.3576H0.928101V78.136C0.928101 77.342 1.56681 76.6985 2.35418 76.6985H35.905C36.6927 76.6985 37.3311 77.342 37.3311 78.136L37.3314 82.3576Z" fill="#E0E0E0"/>
<path opacity="0.6" d="M37.3314 82.3576H0.928101V78.136C0.928101 77.342 1.56681 76.6985 2.35418 76.6985H35.905C36.6927 76.6985 37.3311 77.342 37.3311 78.136L37.3314 82.3576Z" fill="white"/>
<path opacity="0.6" d="M14.1178 82.3576H0.928101V78.136C0.928101 77.342 1.56681 76.6985 2.35418 76.6985H12.6914C13.4791 76.6985 14.1175 77.342 14.1175 78.136L14.1178 82.3576Z" fill="white"/>
<path d="M26.0166 108H24.9344L24.2128 82.0474H26.0166V108Z" fill="#2E353A"/>
<path d="M1.94288 108H0.860596V82.0474H2.66441L1.94288 108Z" fill="#2E353A"/>
<path d="M12.9117 108H11.8294V82.0474H13.6332L12.9117 108Z" fill="#2E353A"/>
<path d="M36.9885 108H35.9059L35.1844 82.0474H36.9885V108Z" fill="#2E353A"/>
<path d="M0.492441 84.9363H38.1966C38.4688 84.9363 38.6891 84.7139 38.6891 84.4399V82.5441C38.6891 82.2697 38.4685 82.0477 38.1966 82.0477H0.492441C0.220597 82.0477 3.91071e-07 82.2701 3.91071e-07 82.5441V84.4399C-0.00033899 84.7139 0.220257 84.9363 0.492441 84.9363Z" fill="#E0E0E0"/>
<path d="M0.492441 84.9363H38.1966C38.4688 84.9363 38.6891 84.7139 38.6891 84.4399V82.5441C38.6891 82.2697 38.4685 82.0477 38.1966 82.0477H0.492441C0.220597 82.0477 3.91071e-07 82.2701 3.91071e-07 82.5441V84.4399C-0.00033899 84.7139 0.220257 84.9363 0.492441 84.9363Z" fill="#4AA09B"/>
<path d="M18.4907 41.4913C18.4907 41.4913 17.7855 42.7755 18.6977 44.0932C19.61 45.4109 20.5694 48.2122 19.8435 49.6308" stroke="#263238" stroke-width="0.36" stroke-miterlimit="10" stroke-linecap="round" stroke-linejoin="round"/>
<path d="M18.9399 41.4913C18.9399 41.4913 20.8078 37.2991 17.4415 34.8837C14.721 32.9318 10.3929 34.1236 8.87111 38.8658C7.45928 43.2664 9.6768 43.3998 7.26007 45.6011C4.84334 47.802 4.91495 49.6387 7.09445 52.7352C9.27395 55.8317 14.0066 56.7099 16.6304 54.5342C19.2541 52.3582 19.5616 46.7649 18.4009 44.464C17.2402 42.1632 18.9399 41.4913 18.9399 41.4913Z" fill="#263238"/>
<path d="M15.0182 34.7202C15.0182 34.7202 11.599 33.8308 9.36145 36.8244C7.12391 39.8176 8.77975 42.3001 8.01886 43.9506C7.25797 45.6012 3.92321 47.888 5.02043 50.0551" stroke="#263238" stroke-width="0.36" stroke-miterlimit="10" stroke-linecap="round" stroke-linejoin="round"/>
<path d="M19.2098 48.3928C20.1003 48.208 21.968 52.8689 21.968 52.8689L21.6652 50.8616L23.3693 50.579C23.3693 50.579 25.1585 56.9369 23.5498 57.331C22.6209 57.5585 20.0827 54.9967 18.53 53.119L19.2098 48.3928Z" fill="#EBB376"/>
<path opacity="0.1" d="M19.2098 48.3928C20.1003 48.208 21.968 52.8689 21.968 52.8689L21.6652 50.8616L23.3693 50.579C23.3693 50.579 25.1585 56.9369 23.5498 57.331C22.6209 57.5585 20.0827 54.9967 18.53 53.119L19.2098 48.3928Z" fill="black"/>
<path d="M33.3879 104.935L31.4592 104.739L31.4127 102L31.3744 99.4871L33.7015 99.3438L33.5369 102.304L33.3879 104.935Z" fill="#EBB376"/>
<path d="M30.9443 104.726C30.9198 104.512 33.5432 104.314 33.5432 104.314C33.5432 104.314 35.3698 105.729 36.9751 105.88C38.5803 106.03 37.8415 107.092 36.1045 107.336C34.3676 107.58 33.042 107.766 31.8076 107.939C30.5733 108.112 31.1981 106.945 30.9443 104.726Z" fill="#2E353A"/>
<path d="M33.9 104.546C33.9 104.546 34.1064 103.53 34.6209 103.693C35.2131 103.88 33.9 104.546 33.9 104.546ZM33.9 104.546C33.9 104.546 35.0244 104.042 35.1839 104.436C35.4245 105.031 33.9 104.546 33.9 104.546Z" stroke="#577AFA" stroke-width="0.347832" stroke-miterlimit="10" stroke-linecap="round" stroke-linejoin="round"/>
<path opacity="0.2" d="M33.53 102.364L31.4072 102.053L31.3716 99.5138L33.6997 99.3571L33.53 102.364Z" fill="black"/>
<path d="M38.8315 75.1771C38.3204 72.2605 34.3897 69.2936 19.1464 66.7834L12.0469 77.5337C12.0469 77.5337 22.4255 77.0421 31.8827 77.0421C31.8827 77.0421 30.5506 92.1656 31.1011 100.884L33.8989 100.936C33.8989 100.936 39.3423 78.0937 38.8315 75.1771Z" fill="#2E353A"/>
<path opacity="0.8" d="M38.8315 75.1771C38.3204 72.2605 34.3897 69.2936 19.1464 66.7834L12.0469 77.5337C12.0469 77.5337 22.4255 77.0421 31.8827 77.0421C31.8827 77.0421 30.5506 92.1656 31.1011 100.884L33.8989 100.936C33.8989 100.936 39.3423 78.0937 38.8315 75.1771Z" fill="#4A6361"/>
<path d="M22.8287 105.215L20.9513 104.73L21.3124 102.015L21.6477 99.5248L23.9697 99.7345L23.367 102.637L22.8287 105.215Z" fill="#EBB376"/>
<path d="M20.4444 104.64C20.4518 104.424 23.0756 104.625 23.0756 104.625C23.0756 104.625 24.671 106.3 26.2355 106.691C27.8001 107.083 26.9119 108.021 25.1584 108C23.4048 107.978 22.0666 107.962 20.8204 107.947C19.5742 107.932 20.3656 106.871 20.4444 104.64Z" fill="#2E353A"/>
<path d="M23.3953 104.908C23.3953 104.908 23.7503 103.935 24.235 104.173C24.7929 104.448 23.3953 104.908 23.3953 104.908ZM23.3953 104.908C23.3953 104.908 24.5821 104.58 24.6809 104.993C24.8309 105.618 23.3953 104.908 23.3953 104.908Z" stroke="#577AFA" stroke-width="0.347832" stroke-miterlimit="10" stroke-linecap="round" stroke-linejoin="round"/>
<path opacity="0.2" d="M23.3502 102.695L21.2972 102.067L21.6393 99.5508L23.9648 99.7475L23.3502 102.695Z" fill="black"/>
<path d="M21.2984 68.2739C21.2984 68.2739 20.7347 67.444 19.4328 63.1296L9.09086 63.8138C9.09086 63.8138 4.36362 72.5954 8.02045 76.3419C8.83123 77.1728 10.4209 77.5467 12.0448 77.5333C12.0448 77.5333 15.7706 77.5477 24.9959 77.1143C24.9959 77.1143 21.9205 92.1607 21.1684 100.863L23.9272 101.337C23.9272 101.337 32.7118 78.118 32.6402 75.1572C32.5689 72.1969 31.92 70.6619 21.2984 68.2739Z" fill="#4A6361"/>
<path d="M20.7667 100.021L24.5583 100.455L23.8266 101.954L20.7572 101.557L20.7667 100.021Z" fill="#E0E0E0"/>
<path d="M30.5757 100.111L34.3893 99.9674L33.8887 101.559L30.7949 101.631L30.5757 100.111Z" fill="#E0E0E0"/>
<path opacity="0.6" d="M15.3516 64.3406C15.3516 64.632 15.5857 64.8681 15.8749 64.8681C16.164 64.8681 16.3982 64.632 16.3982 64.3406C16.3982 64.0491 16.164 63.8131 15.8749 63.8131C15.5861 63.8131 15.3516 64.0491 15.3516 64.3406Z" fill="white"/>
<path opacity="0.5" d="M9.0908 63.8131L8.65503 64.8975L19.6642 64.3406L19.4327 63.0078L9.0908 63.8131Z" fill="black"/>
<path d="M14.903 63.4094L15.0316 64.6279C15.0459 64.7617 15.163 64.8595 15.2956 64.8489L16.9074 64.7196C17.0441 64.7087 17.1456 64.5869 17.1327 64.449L17.0194 63.248C17.0068 63.1142 16.8907 63.015 16.7577 63.0242L15.1307 63.1361C14.9919 63.1453 14.8884 63.2695 14.903 63.4094Z" fill="white"/>
<path d="M12.2031 63.5563L12.0751 64.9899H11.6757L11.7395 63.5563H12.2031Z" fill="#263238"/>
<path d="M18.0038 63.1191L18.1636 64.6195H18.5312L18.4036 63.0569L18.0038 63.1191Z" fill="#263238"/>
<path d="M14.9799 47.3249C14.7525 48.3251 15.0766 49.6309 15.0766 49.6309L11.6034 49.1181C12.2465 48.6939 12.4546 46.1724 12.5706 45.1424C12.6263 44.6481 12.647 44.1938 12.6514 43.8767C12.6565 43.6075 12.6534 43.4395 12.6534 43.4395L13.9217 44.0248L15.994 44.9792C15.433 45.8153 15.1343 46.6383 14.9799 47.3249Z" fill="#EBB376"/>
<path opacity="0.2" d="M15.9939 44.9792C15.4333 45.8153 15.1346 46.6383 14.9802 47.3249C13.77 46.8805 13.0138 45.9357 12.5709 45.1424C12.6266 44.6481 12.6473 44.1938 12.6517 43.8767C13.101 43.9215 13.5236 43.9708 13.922 44.0248L15.9939 44.9792Z" fill="black"/>
<path d="M15.7118 36.4907C18.4805 36.8013 19.2068 38.3955 19.0921 41.2943C18.9489 44.9169 17.8761 47.3816 14.4989 46.2257C9.91251 44.6559 11.1139 35.9752 15.7118 36.4907Z" fill="#EBB376"/>
<path d="M17.3199 40.9374C17.3199 40.9374 17.623 41.7095 17.9977 42.1853C17.9977 42.1853 17.7187 42.5384 17.233 42.4193L17.3199 40.9374Z" fill="#D58745"/>
<path d="M15.6519 40.5195C15.6319 40.7494 15.4924 40.9249 15.3404 40.9112C15.1884 40.8979 15.0814 40.7005 15.1015 40.4706C15.1215 40.2407 15.261 40.0652 15.413 40.0789C15.5651 40.0922 15.672 40.2896 15.6519 40.5195Z" fill="#263238"/>
<path d="M15.3494 40.0843L15.8622 39.9321C15.8622 39.9321 15.5788 40.3309 15.3494 40.0843Z" fill="#263238"/>
<path d="M18.4914 40.7221C18.4714 40.952 18.3319 41.1275 18.1799 41.1142C18.0278 41.1008 17.9209 40.9034 17.9409 40.6736C17.961 40.4437 18.1005 40.2682 18.2525 40.2815C18.4045 40.2952 18.5115 40.4923 18.4914 40.7221Z" fill="#263238"/>
<path d="M18.1888 40.2871L18.702 40.1349C18.702 40.1349 18.4183 40.5338 18.1888 40.2871Z" fill="#263238"/>
<path d="M15.8369 38.5891C15.8369 38.5891 15.0702 38.3999 14.5893 38.8764" stroke="#263238" stroke-width="0.521784" stroke-miterlimit="10" stroke-linecap="round" stroke-linejoin="round"/>
<path d="M17.863 38.6968C17.863 38.6968 18.3721 38.5692 18.9413 39.0498" stroke="#263238" stroke-width="0.521784" stroke-miterlimit="10" stroke-linecap="round" stroke-linejoin="round"/>
<path d="M12.1687 40.8552C12.1687 40.8552 13.7163 38.7073 13.7156 36.9151C13.7156 36.9151 19.4518 35.2711 19.1029 40.9151C19.1029 40.9151 20.1893 35.9908 15.442 35.3457C10.7022 34.7019 9.93998 41.7217 12.1673 44.0886C12.1673 44.0886 11.2096 42.1993 12.1687 40.8552Z" fill="#263238"/>
<path d="M12.5558 41.4951C12.587 41.0435 12.211 40.2314 11.3717 40.2297C10.5032 40.2277 9.89845 41.9576 11.9853 42.6236C12.285 42.7194 12.491 42.4368 12.5558 41.4951Z" fill="#EBB376"/>
<path d="M11.5651 39.6967C11.5651 39.6967 12.5432 35.5428 16.2855 35.7802C19.5891 35.9896 19.4587 38.8658 19.4587 38.8658C19.4587 38.8658 19.7384 35.434 16.0089 35.2171C12.0226 34.9852 11.2003 39.4172 11.2003 39.4172L11.5651 39.6967Z" fill="#E0E0E0"/>
<path d="M15.6046 42.6414C15.6046 42.6414 15.7298 43.3923 16.804 43.5955" stroke="#263238" stroke-width="0.521784" stroke-miterlimit="10" stroke-linecap="round" stroke-linejoin="round"/>
<path d="M23.6812 46.6723C23.6812 46.6723 25.1829 46.9946 25.1738 47.2723C25.1646 47.5501 24.5598 49.7323 24.2897 49.996C24.0192 50.2597 23.3713 50.5796 23.3713 50.5796L23.2332 52.813L22.271 52.9205L21.6673 50.8622C21.6673 50.8622 20.958 49.7459 21.4898 48.6639C22.0213 47.5819 23.6812 46.6723 23.6812 46.6723Z" fill="#EBB376"/>
<path opacity="0.1" d="M23.6812 46.6723C23.6812 46.6723 25.1829 46.9946 25.1738 47.2723C25.1646 47.5501 24.5598 49.7323 24.2897 49.996C24.0192 50.2597 23.3713 50.5796 23.3713 50.5796L23.2332 52.813L22.271 52.9205L21.6673 50.8622C21.6673 50.8622 20.958 49.7459 21.4898 48.6639C22.0213 47.5819 23.6812 46.6723 23.6812 46.6723Z" fill="black"/>
<path d="M20.6986 48.0057C20.6606 48.148 20.7475 48.2814 20.8931 48.3037L23.4829 48.6991C23.6285 48.7214 23.7775 48.6239 23.8155 48.4816L25.1676 43.4181C25.2056 43.2758 25.1242 43.1064 24.9786 43.0842L22.3887 42.6891C22.2431 42.6669 22.0891 42.7999 22.0507 42.9422L20.6986 48.0057Z" fill="#263238"/>
<path opacity="0.5" d="M22.3414 42.9521L20.9741 48.0645C20.9354 48.2086 20.9961 48.3197 21.1407 48.342L23.3368 48.6772C23.4841 48.6998 23.7665 48.6591 23.8048 48.5151L25.1749 43.3849C25.2136 43.2408 24.9798 43.0849 24.8325 43.0623L22.6363 42.727C22.4918 42.7048 22.3801 42.8081 22.3414 42.9521Z" fill="white"/>
<path d="M19.4336 63.1308L9.09264 63.815C9.09264 63.815 9.01798 61.0202 8.65823 58.4375C8.52587 57.4728 8.3494 56.5321 8.1254 55.7829C7.85729 54.8935 7.52131 53.8946 7.09369 52.735C7.04278 52.5913 6.98848 52.4476 6.93078 52.2971C6.79503 51.9379 6.65588 51.5616 6.49977 51.1682C6.49638 51.1614 6.49638 51.158 6.49298 51.1511C6.157 50.2652 6.68304 49.2936 7.60276 49.0918C8.26116 48.9516 8.92295 48.825 9.59492 48.7189C9.78837 48.6882 9.98182 48.6574 10.1753 48.63C11.7194 48.3974 13.284 48.2571 14.8519 48.2092C15.6631 48.2024 16.5285 48.2332 17.2683 48.2674C17.4855 48.2777 17.6892 48.2879 17.8826 48.2982C18.6666 48.3461 19.2096 48.394 19.2096 48.394C19.2096 48.394 19.5388 48.4624 19.7492 50.2959C19.7594 50.3849 19.7696 50.4875 19.7797 50.5936C19.8069 50.9733 19.8273 51.4522 19.8374 52.0269C19.8782 54.3975 19.7526 58.3451 19.4336 63.1308Z" fill="#E0E0E0"/>
<path opacity="0.4" d="M15.4488 53.5831C15.4488 53.5831 16.5274 54.6573 18.4418 54.9025C18.4418 54.9025 18.603 58.2594 16.0312 60.0557C16.0312 60.0557 13.4169 59.2798 12.5084 55.5983C12.5084 55.5983 14.8026 54.7866 15.4488 53.5831Z" fill="white"/>
<path opacity="0.4" d="M15.5178 54.0885C14.8336 54.9526 13.5053 55.5653 12.9134 55.8075C13.6926 58.5527 15.4476 59.4571 15.976 59.6726C17.8144 58.2862 18.0669 55.9881 18.0981 55.1965C16.8339 54.9728 15.9529 54.4203 15.5178 54.0885ZM15.865 57.5955C15.8368 57.6356 15.7927 57.6616 15.7442 57.6667C15.7411 57.667 15.7381 57.6674 15.735 57.6674C15.6895 57.6698 15.6451 57.6533 15.6115 57.6219L14.5092 56.5915C14.4406 56.5272 14.4365 56.4191 14.5003 56.3497C14.5641 56.2809 14.6714 56.2765 14.7403 56.3408L15.7007 57.2384L16.6795 55.8495C16.7338 55.7722 16.8393 55.7548 16.916 55.8088C16.9924 55.8636 17.0104 55.9706 16.9561 56.0473L15.865 57.5955Z" fill="white"/>
<path d="M17.2191 51.2796L18.7093 49.2329C18.7093 49.2329 19.7254 46.2547 19.9538 45.964C20.1822 45.6732 22.6159 46.3704 22.8868 46.4118C23.1576 46.4531 22.4079 49.4881 22.0774 49.747C21.7468 50.006 20.6815 50.0296 20.6815 50.0296L18.4399 52.6937L17.2191 51.2796Z" fill="#EBB376"/>
<path d="M6.51011 49.5557C7.40099 48.8295 8.71541 49.0176 9.37076 49.9648C11.0018 52.3228 13.0826 54.5641 13.4128 54.7567C13.8866 55.0328 14.9346 54.2532 18.1098 50.0576L19.8071 51.0694C19.8071 51.0694 15.5081 58.3459 14.1584 58.0414C11.5509 57.453 7.96165 54.9688 6.11847 52.2216C5.54322 51.3643 5.71155 50.2067 6.51011 49.5557Z" fill="#EBB376"/>
<path d="M17.8849 48.2982C17.8713 49.6391 17.4234 51.9071 14.5352 51.9071C12.3937 51.9071 10.4593 49.8136 9.59723 48.7189C9.79068 48.6882 9.98412 48.6574 10.1776 48.63C11.7218 48.3974 13.2863 48.2571 14.8542 48.2092C15.6654 48.2024 16.5308 48.2332 17.2706 48.2674C17.4878 48.2777 17.6915 48.2879 17.8849 48.2982Z" fill="#EBB376"/>
<g clip-path="url(#clip1_203_4500)">
<path d="M32.799 19.9532C32.2975 19.9532 31.8594 20.3028 31.7596 20.8088H31.1034C30.7545 20.8088 30.4658 21.0977 30.4658 21.4493V22.305C30.4658 22.6566 30.7545 22.9455 31.1034 22.9455H34.4963C34.8452 22.9455 35.1318 22.6566 35.1318 22.305V21.4493C35.1318 21.0977 34.8452 20.8088 34.4963 20.8088H33.8384C33.7339 20.2957 33.3005 19.9532 32.799 19.9532ZM32.799 20.3812C33.1552 20.3812 33.4362 20.6627 33.4362 21.0217C33.4357 21.1398 33.5303 21.2359 33.6475 21.2364H34.4963C34.6175 21.2364 34.7076 21.3272 34.7076 21.4493V22.305C34.7076 22.4271 34.6175 22.5196 34.4963 22.5196H31.1034C30.9822 22.5196 30.8904 22.4271 30.8904 22.305V21.4493C30.8904 21.3272 30.9822 21.2364 31.1034 21.2364H31.9501C32.0679 21.2368 32.1635 21.1405 32.1631 21.0217C32.1631 20.6627 32.4428 20.3812 32.799 20.3812ZM28.7693 21.236C28.4204 21.236 28.1329 21.5257 28.1329 21.8774V32.1398C28.1329 32.4914 28.4204 32.7812 28.7693 32.7812H36.8296C37.1784 32.7812 37.4659 32.4914 37.4659 32.1398V30.2156C37.4699 29.9265 37.0376 29.9265 37.0417 30.2156V32.1398C37.0417 32.2619 36.9508 32.3536 36.8296 32.3536H28.7693C28.6481 32.3536 28.5572 32.2619 28.5572 32.1398V21.8774C28.5572 21.7552 28.6481 21.6636 28.7693 21.6636H29.8303C30.1171 21.6676 30.1171 21.2319 29.8303 21.236H28.7693ZM35.7694 21.236C35.4826 21.2319 35.4826 21.6677 35.7694 21.6636H36.8296C36.9508 21.6636 37.0417 21.7552 37.0417 21.8774V25.512C37.0377 25.8011 37.47 25.8011 37.4659 25.512V21.8774C37.4659 21.5257 37.1784 21.236 36.8296 21.236H35.7694ZM29.1935 22.0912C29.0764 22.0912 28.9814 22.1869 28.9814 22.305V31.7122C28.9814 31.8303 29.0764 31.926 29.1935 31.926H36.4053C36.5225 31.926 36.6174 31.8303 36.6175 31.7122V30.857C36.6215 30.5679 36.1892 30.5679 36.1932 30.857V31.4984H29.4056V22.5188H29.8303C30.1171 22.5228 30.1171 22.0871 29.8303 22.0912H29.1935ZM35.7694 22.0912C35.4826 22.0871 35.4826 22.5228 35.7694 22.5188H36.1932V26.3672C36.1892 26.6563 36.6215 26.6563 36.6175 26.3672V22.305C36.6174 22.1869 36.5225 22.0912 36.4053 22.0912H35.7694ZM31.3146 23.8011C31.1975 23.8016 31.1029 23.8977 31.1034 24.0158V26.5802C31.1027 26.6984 31.1973 26.7947 31.3146 26.7952H34.285C34.4024 26.7947 34.497 26.6984 34.4963 26.5802V24.0158C34.4967 23.8977 34.4022 23.8016 34.285 23.8011H31.3146ZM39.7557 24.3991L39.3414 24.8159C39.1592 24.7489 38.9452 24.7871 38.8007 24.9328L34.9831 28.782C34.9575 28.8074 34.9387 28.8389 34.9284 28.8735L34.5042 30.3713C34.459 30.5328 34.6074 30.6814 34.7673 30.6348L36.2516 30.2073C36.2865 30.1976 36.3183 30.179 36.344 30.1534L40.0109 26.4557L40.0469 26.492C40.2157 26.6622 40.2157 26.9261 40.0469 27.0963L39.0121 28.1398C38.8116 28.3418 39.1124 28.6446 39.3128 28.4426L40.3477 27.3994C40.6775 27.067 40.6775 26.5229 40.3477 26.1905L40.2793 26.1208C40.3213 26.0052 40.3267 25.8756 40.2769 25.76L40.692 25.3429C40.9488 25.084 40.9491 24.6577 40.692 24.3991C40.4035 24.1088 39.9875 24.1659 39.7557 24.3991ZM31.5259 24.2288H32.1631V25.084C32.1631 25.2429 32.329 25.3463 32.4701 25.2752L32.799 25.1094L33.1292 25.2752C33.2702 25.3462 33.4362 25.2429 33.4362 25.084V24.2288H34.0721V26.3672H31.5259V24.2288ZM32.5877 24.2288H33.012V24.7386L32.8947 24.6802C32.835 24.65 32.7647 24.65 32.705 24.6802L32.5877 24.7386V24.2288ZM40.3916 24.7006C40.4974 24.8075 40.4691 24.962 40.3916 25.0401L40.0113 25.4234L39.6753 25.084L40.0548 24.7006C40.1432 24.6113 40.2972 24.6053 40.3916 24.7006ZM39.225 25.2355L39.8609 25.8765C39.8979 25.9139 39.8979 25.9653 39.8609 26.0026L37.678 28.2029L36.9174 27.4362L39.1015 25.2355C39.1467 25.19 39.204 25.2144 39.225 25.2355ZM30.4127 27.4358C30.1236 27.4293 30.1236 27.8698 30.4127 27.8634H34.7076C34.9842 27.8569 34.9842 27.4419 34.7076 27.4358H30.4127ZM36.6175 27.7385L37.3781 28.5052L36.1936 29.6991L35.4318 28.9328L36.6175 27.7385ZM32.9585 28.9336H33.8604C34.1496 28.9401 34.1496 28.4996 33.8604 28.506H32.9477C32.6612 28.5269 32.6821 28.941 32.9585 28.9336ZM30.4127 28.9336H32.1635C32.4527 28.9401 32.4527 28.4996 32.1635 28.506H30.4026C30.1162 28.5257 30.136 28.9407 30.4127 28.9336ZM35.2379 29.3404L35.7881 29.8962L35.0179 30.1187L35.2379 29.3404ZM32.6221 29.7701C32.3935 29.7817 32.1308 29.8575 31.8424 30.0319C31.3585 30.3245 31.0916 30.2627 30.9136 30.163C30.7356 30.0633 30.6555 29.9058 30.6555 29.9058C30.5362 29.6309 30.1301 29.8354 30.2764 30.0966C30.2764 30.0966 30.408 30.3679 30.7073 30.5355C31.0066 30.7031 31.4833 30.7468 32.0599 30.3981C32.5438 30.1054 32.8104 30.169 32.9883 30.2686C33.1663 30.3683 33.2468 30.5246 33.2468 30.5246C33.3678 30.7957 33.7687 30.5934 33.6259 30.3334C33.6259 30.3334 33.4927 30.0621 33.1934 29.8945C33.0438 29.8107 32.8507 29.7584 32.6221 29.7701Z" fill="#4AA09B"/>
</g>
<g clip-path="url(#clip2_203_4500)">
<path d="M66.3536 14.0953H64.4446V12.8125C64.4446 12.3408 64.0641 11.9573 63.5962 11.9573H63.384C63.267 11.9573 63.1719 12.0529 63.1719 12.1711V13.3654L62.4478 14.0953H61.0508V5.11565H68.6869V6.61226C68.6869 6.73049 68.7819 6.82606 68.899 6.82606H70.3838V11.3159H70.808V6.61226C70.808 6.55304 70.7842 6.49959 70.7456 6.46089L69.0492 4.75091C69.0108 4.712 68.9577 4.68805 68.899 4.68805H60.8387C60.7216 4.68805 60.6266 4.78362 60.6266 4.90185V14.0953H59.1418V14.5229H61.6871V17.0885H59.1418V17.5161H62.4855L63.2892 17.9213C63.3185 17.936 63.3512 17.9437 63.384 17.9437H65.9294C66.2802 17.9437 66.5657 17.6559 66.5657 17.3023V16.8747V16.0195V15.1643V14.3091C66.5657 14.1909 66.4707 14.0953 66.3536 14.0953ZM69.1111 5.41797L70.0838 6.39846H69.1111V5.41797ZM66.1415 17.3023C66.1415 17.4203 66.0463 17.5161 65.9294 17.5161H63.4341L62.6304 17.111C62.6011 17.0962 62.5685 17.0885 62.5356 17.0885H62.1114V14.5229H62.5356C62.5918 14.5229 62.6459 14.5005 62.6856 14.4603L63.534 13.6051C63.5739 13.5651 63.5962 13.5108 63.5962 13.4539V12.3849C63.8301 12.3849 64.0204 12.5767 64.0204 12.8125V14.3091C64.0204 14.4273 64.1154 14.5229 64.2325 14.5229H66.1415V14.9505H64.4446V15.3781H66.1415V15.8057H64.4446V16.2333H66.1415V16.6609H64.4446V17.0885H66.1415V17.3023Z" fill="#4AA09B"/>
<path d="M71.6565 15.8057H71.4443V15.5919C71.4443 15.2383 71.1588 14.9505 70.808 14.9505H70.3838V14.5761C70.3838 14.0149 70.5155 13.4528 70.7645 12.9506L70.7857 12.9081C70.8004 12.8786 70.808 12.8456 70.808 12.8125V12.5987C70.808 12.0092 70.3322 11.5297 69.7474 11.5297C69.1626 11.5297 68.6869 12.0092 68.6869 12.5987V12.8125C68.6869 12.8456 68.6945 12.8786 68.7092 12.9081L68.7304 12.9506C68.9794 13.4528 69.1111 14.0149 69.1111 14.5761V14.9505H68.6869C68.336 14.9505 68.0505 15.2383 68.0505 15.5919V15.8057H67.8384C67.4876 15.8057 67.2021 16.0935 67.2021 16.4471V16.8747C67.2021 16.993 67.2971 17.0885 67.4142 17.0885H67.6263V17.7299C67.6263 17.8482 67.7213 17.9437 67.8384 17.9437H71.6565C71.7735 17.9437 71.8686 17.8482 71.8686 17.7299V17.0885H72.0807C72.1978 17.0885 72.2928 16.993 72.2928 16.8747V16.4471C72.2928 16.0935 72.0073 15.8057 71.6565 15.8057ZM69.1111 12.762V12.5987C69.1111 12.2451 69.3966 11.9573 69.7474 11.9573C70.0983 11.9573 70.3838 12.2451 70.3838 12.5987V12.762C70.1061 13.3226 69.9596 13.9499 69.9596 14.5761V14.9505H69.5353V14.5761C69.5353 13.9497 69.3888 13.3226 69.1111 12.762ZM68.4748 15.5919C68.4748 15.4739 68.57 15.3781 68.6869 15.3781H70.808C70.9249 15.3781 71.0201 15.4739 71.0201 15.5919V15.8057H68.4748V15.5919ZM71.4443 17.5161H68.0505V17.0885H71.4443V17.5161ZM71.8686 16.6609H67.6263V16.4471C67.6263 16.3291 67.7216 16.2333 67.8384 16.2333H71.6565C71.7733 16.2333 71.8686 16.3291 71.8686 16.4471V16.6609Z" fill="#4AA09B"/>
<path d="M61.475 5.54324H68.2627V5.97085H61.475V5.54324Z" fill="#4AA09B"/>
<path d="M61.475 6.39847H68.2627V6.82607H61.475V6.39847Z" fill="#4AA09B"/>
<path d="M61.475 7.25366H68.2627V7.68126H61.475V7.25366Z" fill="#4AA09B"/>
<path d="M68.899 10.4607C68.899 9.164 67.8523 8.10889 66.5658 8.10889C65.2793 8.10889 64.2325 9.164 64.2325 10.4607C64.2325 11.7574 65.2793 12.8125 66.5658 12.8125C67.8523 12.8125 68.899 11.7574 68.899 10.4607ZM66.5658 12.3849C65.5133 12.3849 64.6568 11.5218 64.6568 10.4607C64.6568 9.3996 65.5133 8.53649 66.5658 8.53649C67.6183 8.53649 68.4748 9.3996 68.4748 10.4607C68.4748 11.5218 67.6183 12.3849 66.5658 12.3849Z" fill="#4AA09B"/>
<path d="M66.4883 11.1493L65.8672 10.5233L65.5673 10.8256L66.4158 11.6808C66.4559 11.7212 66.51 11.7435 66.5657 11.7435C66.5799 11.7435 66.5942 11.742 66.6084 11.739C66.6782 11.7247 66.7363 11.6757 66.7628 11.609L67.6112 9.47099L67.2173 9.31235L66.4883 11.1493Z" fill="#4AA09B"/>
</g>
<g clip-path="url(#clip3_203_4500)">
<path d="M95.9115 30.0102H91.1808C90.9613 30.0063 90.752 29.9158 90.5981 29.7579C90.4442 29.6001 90.358 29.3876 90.358 29.1664V20.577C90.3586 20.3537 90.4467 20.1397 90.6031 19.9817C90.7595 19.8236 90.9716 19.7343 91.1931 19.7332H96.0823C96.1093 19.733 96.1362 19.7383 96.1612 19.7486C96.1863 19.7589 96.2091 19.7741 96.2283 19.7933L98.1083 21.6862C98.1277 21.7054 98.1432 21.7283 98.1537 21.7535C98.1643 21.7788 98.1698 21.8059 98.17 21.8334V22.9301C98.17 22.9851 98.1483 23.0378 98.1097 23.0767C98.0711 23.1156 98.0188 23.1374 97.9643 23.1374C97.9097 23.1374 97.8574 23.1156 97.8188 23.0767C97.7803 23.0378 97.7586 22.9851 97.7586 22.9301V21.9204L95.9979 20.1478H91.1931C91.0806 20.1484 90.9728 20.1938 90.8934 20.2743C90.814 20.3547 90.7694 20.4635 90.7694 20.577V29.1664C90.7694 29.2798 90.814 29.3887 90.8934 29.4691C90.9728 29.5495 91.0806 29.595 91.1931 29.5955H95.9115C95.9661 29.5955 96.0184 29.6174 96.057 29.6562C96.0956 29.6951 96.1172 29.7478 96.1172 29.8028C96.1172 29.8578 96.0956 29.9105 96.057 29.9494C96.0184 29.9883 95.9661 30.0102 95.9115 30.0102Z" fill="#4AA09B"/>
<path d="M97.9684 22.0407H96.4052C96.3364 22.0412 96.2682 22.0281 96.2045 22.002C96.1408 21.9759 96.0828 21.9374 96.0339 21.8887C95.9849 21.8399 95.946 21.7819 95.9194 21.718C95.8928 21.6541 95.8789 21.5855 95.8787 21.5162V19.9405C95.8789 19.8996 95.8911 19.8596 95.9138 19.8257C95.9365 19.7918 95.9686 19.7653 96.0062 19.7498C96.0436 19.7339 96.0849 19.7296 96.1248 19.7373C96.1647 19.7451 96.2015 19.7646 96.2304 19.7933L98.1083 21.6862C98.1372 21.7151 98.1569 21.7519 98.165 21.7921C98.1731 21.8323 98.1692 21.874 98.1538 21.9119C98.1384 21.9499 98.1122 21.9824 98.0784 22.0053C98.0447 22.0282 98.005 22.0405 97.9643 22.0407H97.9684ZM96.29 20.4402V21.5162C96.2906 21.5455 96.3025 21.5735 96.3233 21.594C96.3441 21.6146 96.372 21.6261 96.4011 21.6261H97.4666L96.29 20.4402Z" fill="#4AA09B"/>
<path d="M95.1772 22.1506H91.4749C91.4204 22.1506 91.368 22.1287 91.3295 22.0899C91.2909 22.051 91.2692 21.9982 91.2692 21.9433C91.2692 21.8883 91.2909 21.8355 91.3295 21.7967C91.368 21.7578 91.4204 21.7359 91.4749 21.7359H95.1772C95.2318 21.7359 95.2841 21.7578 95.3227 21.7967C95.3613 21.8355 95.3829 21.8883 95.3829 21.9433C95.3829 21.9982 95.3613 22.051 95.3227 22.0899C95.2841 22.1287 95.2318 22.1506 95.1772 22.1506Z" fill="#4AA09B"/>
<path d="M93.4042 23.465H91.4708C91.4162 23.465 91.3639 23.4432 91.3253 23.4043C91.2867 23.3654 91.2651 23.3127 91.2651 23.2577C91.2651 23.2027 91.2867 23.15 91.3253 23.1111C91.3639 23.0722 91.4162 23.0504 91.4708 23.0504H93.4042C93.4588 23.0504 93.5111 23.0722 93.5496 23.1111C93.5882 23.15 93.6099 23.2027 93.6099 23.2577C93.6099 23.3127 93.5882 23.3654 93.5496 23.4043C93.5111 23.4432 93.4588 23.465 93.4042 23.465Z" fill="#4AA09B"/>
<path d="M91.9459 24.7629H91.4708C91.4162 24.7629 91.3639 24.741 91.3253 24.7021C91.2867 24.6632 91.2651 24.6105 91.2651 24.5555C91.2651 24.5005 91.2867 24.4478 91.3253 24.4089C91.3639 24.37 91.4162 24.3482 91.4708 24.3482H91.9459C92.0004 24.3482 92.0528 24.37 92.0913 24.4089C92.1299 24.4478 92.1516 24.5005 92.1516 24.5555C92.1516 24.6105 92.1299 24.6632 92.0913 24.7021C92.0528 24.741 92.0004 24.7629 91.9459 24.7629Z" fill="#4AA09B"/>
<path d="M92.0611 26.069H91.4708C91.4162 26.069 91.3639 26.0471 91.3253 26.0082C91.2867 25.9694 91.2651 25.9166 91.2651 25.8616C91.2651 25.8067 91.2867 25.7539 91.3253 25.7151C91.3639 25.6762 91.4162 25.6543 91.4708 25.6543H92.0611C92.1156 25.6543 92.1679 25.6762 92.2065 25.7151C92.2451 25.7539 92.2668 25.8067 92.2668 25.8616C92.2668 25.9166 92.2451 25.9694 92.2065 26.0082C92.1679 26.0471 92.1156 26.069 92.0611 26.069Z" fill="#4AA09B"/>
<path d="M93.5441 27.3751H91.4708C91.4162 27.3751 91.3639 27.3533 91.3253 27.3144C91.2867 27.2755 91.2651 27.2228 91.2651 27.1678C91.2651 27.1128 91.2867 27.0601 91.3253 27.0212C91.3639 26.9823 91.4162 26.9604 91.4708 26.9604H93.5441C93.5986 26.9604 93.6509 26.9823 93.6895 27.0212C93.7281 27.0601 93.7498 27.1128 93.7498 27.1678C93.7498 27.2228 93.7281 27.2755 93.6895 27.3144C93.6509 27.3533 93.5986 27.3751 93.5441 27.3751Z" fill="#4AA09B"/>
<path d="M94.4265 28.6792H91.4708C91.4162 28.6792 91.3639 28.6573 91.3253 28.6184C91.2867 28.5796 91.2651 28.5268 91.2651 28.4718C91.2651 28.4169 91.2867 28.3641 91.3253 28.3252C91.3639 28.2864 91.4162 28.2645 91.4708 28.2645H94.4265C94.481 28.2645 94.5333 28.2864 94.5719 28.3252C94.6105 28.3641 94.6321 28.4169 94.6321 28.4718C94.6321 28.5268 94.6105 28.5796 94.5719 28.6184C94.5333 28.6573 94.481 28.6792 94.4265 28.6792Z" fill="#4AA09B"/>
<path d="M95.9116 27.004C95.857 27.004 95.8047 26.9822 95.7661 26.9433C95.7275 26.9044 95.7059 26.8517 95.7059 26.7967V25.9363C95.7059 25.8813 95.7275 25.8286 95.7661 25.7897C95.8047 25.7508 95.857 25.729 95.9116 25.729C95.9661 25.729 96.0184 25.7508 96.057 25.7897C96.0956 25.8286 96.1172 25.8813 96.1172 25.9363V26.7967C96.1172 26.8517 96.0956 26.9044 96.057 26.9433C96.0184 26.9822 95.9661 27.004 95.9116 27.004Z" fill="#4AA09B"/>
<path d="M102.683 33.0018H96.5451C96.435 33.0021 96.3259 32.9805 96.2241 32.9382C96.1223 32.8959 96.0297 32.8338 95.9518 32.7554C95.8738 32.677 95.812 32.5839 95.7698 32.4814C95.7276 32.3789 95.7059 32.269 95.7059 32.158V28.3765C95.7059 28.3215 95.7275 28.2687 95.7661 28.2299C95.8047 28.191 95.857 28.1691 95.9116 28.1691C95.9661 28.1691 96.0184 28.191 96.057 28.2299C96.0956 28.2687 96.1172 28.3215 96.1172 28.3765V32.158C96.1172 32.2146 96.1283 32.2705 96.1498 32.3227C96.1714 32.3749 96.2029 32.4223 96.2427 32.4622C96.2824 32.5021 96.3296 32.5337 96.3815 32.5551C96.4334 32.5766 96.489 32.5875 96.5451 32.5872H102.683C102.796 32.5872 102.904 32.542 102.985 32.4616C103.065 32.3812 103.11 32.272 103.111 32.158V24.9163L101.35 23.1436H96.5451C96.4329 23.1431 96.325 23.1872 96.2448 23.2664C96.1647 23.3456 96.1189 23.4535 96.1172 23.5666V24.3565C96.1172 24.4115 96.0956 24.4642 96.057 24.5031C96.0184 24.542 95.9661 24.5638 95.9116 24.5638C95.857 24.5638 95.8047 24.542 95.7661 24.5031C95.7275 24.4642 95.7059 24.4115 95.7059 24.3565V23.5666C95.7059 23.3432 95.7938 23.1288 95.9503 22.9707C96.1069 22.8125 96.3193 22.7233 96.541 22.7228H101.434C101.461 22.7226 101.488 22.7279 101.513 22.7382C101.538 22.7485 101.561 22.7637 101.58 22.7829L103.46 24.6758C103.48 24.695 103.495 24.7179 103.506 24.7431C103.516 24.7684 103.522 24.7955 103.522 24.823V32.158C103.521 32.382 103.433 32.5966 103.275 32.7548C103.118 32.913 102.905 33.0018 102.683 33.0018Z" fill="#4AA09B"/>
<path d="M103.316 25.0324H101.753C101.684 25.0324 101.616 25.0186 101.552 24.9919C101.488 24.9652 101.431 24.926 101.382 24.8767C101.334 24.8273 101.295 24.7688 101.269 24.7044C101.243 24.64 101.23 24.5711 101.231 24.5016V22.9322C101.23 22.8909 101.242 22.8505 101.265 22.8162C101.288 22.7818 101.32 22.7551 101.358 22.7394C101.396 22.7238 101.437 22.7198 101.477 22.7279C101.517 22.736 101.554 22.7559 101.582 22.785L103.46 24.6778C103.489 24.7067 103.509 24.7436 103.517 24.7838C103.525 24.8239 103.521 24.8656 103.506 24.9036C103.49 24.9415 103.464 24.974 103.43 24.9969C103.397 25.0199 103.357 25.0322 103.316 25.0324ZM101.642 23.4318V24.5016C101.642 24.5313 101.654 24.5598 101.674 24.5808C101.695 24.6018 101.724 24.6136 101.753 24.6136H102.818L101.642 23.4318Z" fill="#4AA09B"/>
<path d="M100.529 25.1422H98.3798C98.3252 25.1422 98.2729 25.1204 98.2343 25.0815C98.1957 25.0426 98.1741 24.9899 98.1741 24.9349C98.1741 24.8799 98.1957 24.8272 98.2343 24.7883C98.2729 24.7494 98.3252 24.7276 98.3798 24.7276H100.529C100.584 24.7276 100.636 24.7494 100.675 24.7883C100.713 24.8272 100.735 24.8799 100.735 24.9349C100.735 24.9899 100.713 25.0426 100.675 25.0815C100.636 25.1204 100.584 25.1422 100.529 25.1422Z" fill="#4AA09B"/>
<path d="M102.407 26.4484H99.9985C99.9439 26.4484 99.8916 26.4265 99.853 26.3876C99.8145 26.3488 99.7928 26.296 99.7928 26.241C99.7928 26.1861 99.8145 26.1333 99.853 26.0944C99.8916 26.0556 99.9439 26.0337 99.9985 26.0337H102.407C102.462 26.0337 102.514 26.0556 102.552 26.0944C102.591 26.1333 102.613 26.1861 102.613 26.241C102.613 26.296 102.591 26.3488 102.552 26.3876C102.514 26.4265 102.462 26.4484 102.407 26.4484Z" fill="#4AA09B"/>
<path d="M102.407 27.7545H101.033C100.979 27.7545 100.926 27.7327 100.888 27.6938C100.849 27.6549 100.827 27.6022 100.827 27.5472C100.827 27.4922 100.849 27.4395 100.888 27.4006C100.926 27.3617 100.979 27.3399 101.033 27.3399H102.407C102.462 27.3399 102.514 27.3617 102.552 27.4006C102.591 27.4395 102.613 27.4922 102.613 27.5472C102.613 27.6022 102.591 27.6549 102.552 27.6938C102.514 27.7327 102.462 27.7545 102.407 27.7545Z" fill="#4AA09B"/>
<path d="M102.407 29.0627H100.087C100.032 29.0627 99.9801 29.0408 99.9415 29.002C99.903 28.9631 99.8813 28.9103 99.8813 28.8554C99.8813 28.8004 99.903 28.7476 99.9415 28.7088C99.9801 28.6699 100.032 28.648 100.087 28.648H102.407C102.462 28.648 102.514 28.6699 102.553 28.7088C102.591 28.7476 102.613 28.8004 102.613 28.8554C102.613 28.9103 102.591 28.9631 102.553 29.002C102.514 29.0408 102.462 29.0627 102.407 29.0627Z" fill="#4AA09B"/>
<path d="M102.407 30.3647H96.8228C96.7682 30.3647 96.7159 30.3428 96.6773 30.304C96.6387 30.2651 96.6171 30.2124 96.6171 30.1574C96.6171 30.1024 96.6387 30.0496 96.6773 30.0108C96.7159 29.9719 96.7682 29.95 96.8228 29.95H102.407C102.462 29.95 102.514 29.9719 102.553 30.0108C102.591 30.0496 102.613 30.1024 102.613 30.1574C102.613 30.2124 102.591 30.2651 102.553 30.304C102.514 30.3428 102.462 30.3647 102.407 30.3647Z" fill="#4AA09B"/>
<path d="M102.407 31.6708H96.8228C96.7682 31.6708 96.7159 31.649 96.6773 31.6101C96.6387 31.5712 96.6171 31.5185 96.6171 31.4635C96.6171 31.4085 96.6387 31.3558 96.6773 31.3169C96.7159 31.278 96.7682 31.2562 96.8228 31.2562H102.407C102.462 31.2562 102.514 31.278 102.553 31.3169C102.591 31.3558 102.613 31.4085 102.613 31.4635C102.613 31.5185 102.591 31.5712 102.553 31.6101C102.514 31.649 102.462 31.6708 102.407 31.6708Z" fill="#4AA09B"/>
<path d="M94.3298 26.9294C94.254 26.9274 94.1812 26.8988 94.1241 26.8485L92.4787 25.3972C92.4433 25.3663 92.415 25.3281 92.3955 25.2852C92.376 25.2423 92.3658 25.1957 92.3655 25.1485C92.3661 25.1013 92.3765 25.0549 92.396 25.012C92.4155 24.9692 92.4436 24.9309 92.4787 24.8997L94.1241 23.4484C94.1713 23.4076 94.229 23.381 94.2905 23.3718C94.352 23.3627 94.4149 23.3712 94.4718 23.3966C94.5295 23.4218 94.5786 23.4635 94.6129 23.5166C94.6473 23.5697 94.6654 23.6317 94.6651 23.6951V24.1492H97.4316C97.4751 24.1489 97.5183 24.1573 97.5586 24.174C97.5989 24.1907 97.6355 24.2153 97.6663 24.2463C97.6971 24.2774 97.7215 24.3143 97.7381 24.3549C97.7546 24.3955 97.763 24.439 97.7627 24.483V25.8119C97.7627 25.8995 97.7283 25.9836 97.6671 26.0457C97.6058 26.1079 97.5226 26.1431 97.4357 26.1436H94.661V26.5976C94.6599 26.6856 94.6246 26.7697 94.5627 26.8317C94.5008 26.8938 94.4171 26.9288 94.3298 26.9294ZM92.8119 25.1485L94.2517 26.4131V26.0109C94.2517 25.9361 94.2811 25.8644 94.3336 25.8115C94.3861 25.7587 94.4572 25.729 94.5314 25.729H97.3514V24.5638H94.5293C94.4571 24.5644 94.3875 24.5366 94.3352 24.4863C94.283 24.4359 94.2523 24.3671 94.2496 24.2943V23.8796L92.8119 25.1485Z" fill="#4AA09B"/>
<path d="M98.4435 29.3675C98.4001 29.368 98.3571 29.3598 98.3169 29.3433C98.2767 29.3269 98.2402 29.3025 98.2096 29.2715C98.1789 29.2406 98.1547 29.2038 98.1383 29.1633C98.122 29.1228 98.1139 29.0795 98.1144 29.0357V28.5838H95.3438C95.3006 28.5835 95.2579 28.5747 95.218 28.5577C95.1782 28.5408 95.1421 28.5162 95.1117 28.4852C95.0814 28.4542 95.0573 28.4174 95.0411 28.3771C95.0248 28.3367 95.0165 28.2936 95.0168 28.25V26.9211C95.0168 26.8334 95.0512 26.7494 95.1125 26.6872C95.1737 26.6251 95.2569 26.5899 95.3438 26.5893H98.1144V26.1353C98.1142 26.0718 98.1321 26.0096 98.1661 25.9561C98.2002 25.9027 98.2488 25.8602 98.3061 25.834C98.3635 25.8077 98.4271 25.7987 98.4895 25.808C98.5518 25.8173 98.6101 25.8446 98.6574 25.8865L100.303 27.3378C100.339 27.3685 100.367 27.4067 100.387 27.4496C100.406 27.4926 100.416 27.5393 100.416 27.5866C100.416 27.6338 100.406 27.6805 100.387 27.7235C100.367 27.7664 100.339 27.8046 100.303 27.8353L98.6574 29.2866C98.5982 29.3388 98.5222 29.3675 98.4435 29.3675ZM95.4282 28.1691H98.2461C98.3202 28.1691 98.3914 28.1988 98.4439 28.2517C98.4963 28.3046 98.5258 28.3763 98.5258 28.4511V28.8554L99.9656 27.5886L98.5258 26.3219V26.7241C98.5258 26.7989 98.4963 26.8706 98.4439 26.9235C98.3914 26.9764 98.3202 27.0061 98.2461 27.0061H95.4282V28.1691Z" fill="#4AA09B"/>
</g>
<g clip-path="url(#clip4_203_4500)">
<path d="M102.384 62.4227C102.438 62.4227 102.479 62.3816 102.492 62.3269V62.1764H102.642C102.696 62.1764 102.737 62.1353 102.75 62.0806C102.75 62.0258 102.709 61.9848 102.655 61.9711H102.506V61.8206C102.506 61.7659 102.465 61.7248 102.411 61.7111C102.356 61.7111 102.316 61.7522 102.302 61.8069V61.9574H102.153C102.098 61.9574 102.058 61.9985 102.044 62.0532C102.044 62.1079 102.085 62.149 102.139 62.1627H102.289V62.3132C102.289 62.3679 102.329 62.4227 102.384 62.4227Z" fill="#4AA09B"/>
<path d="M91.0754 62.1353C91.1026 62.19 91.1569 62.2174 91.1976 62.19L91.3334 62.1353L91.3877 62.2721C91.4148 62.3269 91.4691 62.3542 91.5099 62.3269C91.5642 62.2995 91.5913 62.2448 91.5642 62.2037L91.5099 62.0669L91.6456 62.0121C91.6999 61.9985 91.7271 61.93 91.6999 61.8753C91.6863 61.8206 91.6185 61.7932 91.5777 61.8206L91.442 61.8753L91.3877 61.7385C91.3741 61.6837 91.3062 61.6564 91.2519 61.6837C91.1976 61.6974 91.1705 61.7658 91.1976 61.8069L91.2519 61.9437L91.1162 61.9985C91.0754 62.0258 91.0483 62.0806 91.0754 62.1353Z" fill="#4AA09B"/>
<path d="M90.7904 66.254C90.8175 66.3087 90.8718 66.3361 90.9125 66.3087L91.0483 66.254L91.1026 66.3908C91.1297 66.4455 91.184 66.4729 91.2248 66.4455C91.2791 66.4182 91.3062 66.3634 91.2791 66.3224L91.2248 66.1855L91.3741 66.1171C91.4284 66.1034 91.4555 66.035 91.4284 65.9803C91.4148 65.9256 91.3469 65.8982 91.3062 65.9256L91.1705 65.9803L91.1162 65.8435C91.1026 65.7887 91.0347 65.7614 90.9804 65.7887C90.9261 65.8024 90.899 65.8708 90.9261 65.9119L90.9804 66.0487L90.8447 66.1034C90.7904 66.1445 90.7768 66.1992 90.7904 66.254Z" fill="#4AA09B"/>
<path d="M99.9265 69.7842H99.7771V69.6337C99.7771 69.579 99.7364 69.5379 99.6685 69.5379C99.6142 69.5379 99.5735 69.579 99.5735 69.6337V69.7842H99.4242C99.3699 69.7842 99.3292 69.8253 99.3292 69.88C99.3292 69.9347 99.3699 69.9758 99.4242 69.9758H99.5735V70.1263C99.5735 70.181 99.6142 70.2221 99.6685 70.2221C99.7228 70.2221 99.7636 70.181 99.7636 70.1263V69.9758H99.9129C99.9672 69.9758 100.008 69.9347 100.008 69.8663C100.021 69.8253 99.9808 69.7842 99.9265 69.7842Z" fill="#4AA09B"/>
<path d="M103.049 69.0727H100.021C99.94 69.0727 99.8857 69.1274 99.8857 69.2095C99.8857 69.2916 99.94 69.3464 100.021 69.3464H103.049C103.13 69.3464 103.185 69.2916 103.185 69.2095C103.185 69.1274 103.13 69.0727 103.049 69.0727Z" fill="#4AA09B"/>
<path d="M90.6953 69.2095C90.6953 69.2916 90.7496 69.3464 90.8311 69.3464H91.2247C91.3062 69.3464 91.3605 69.2916 91.3605 69.2095C91.3605 69.1274 91.3062 69.0727 91.2247 69.0727H90.8311C90.7496 69.0727 90.6953 69.1411 90.6953 69.2095Z" fill="#4AA09B"/>
<path d="M95.4331 68.9496C95.5606 68.9496 95.6639 68.8454 95.6639 68.717C95.6639 68.5885 95.5606 68.4843 95.4331 68.4843C95.3057 68.4843 95.2023 68.5885 95.2023 68.717C95.2023 68.8454 95.3057 68.9496 95.4331 68.9496Z" fill="#4AA09B"/>
<path d="M95.3652 61.9437H96.1798C96.2476 61.9437 96.3155 61.889 96.3155 61.8069C96.3155 61.7385 96.2612 61.6701 96.1798 61.6701H95.3652C95.2838 61.6701 95.2295 61.7248 95.2295 61.8069C95.2295 61.8753 95.2838 61.9437 95.3652 61.9437Z" fill="#4AA09B"/>
<path d="M94.6729 61.9437H94.8358C94.9036 61.9437 94.9715 61.889 94.9715 61.8069C94.9715 61.7385 94.9172 61.6701 94.8358 61.6701H94.6729C94.605 61.6701 94.5371 61.7248 94.5371 61.8069C94.5371 61.8753 94.5914 61.9437 94.6729 61.9437Z" fill="#4AA09B"/>
<path d="M99.6957 64.7625H99.1798C99.0984 64.7625 99.0305 64.8309 99.0305 64.913C99.0305 64.9951 99.0984 65.0635 99.1798 65.0635H99.6957C99.7772 65.0635 99.845 64.9951 99.845 64.913C99.845 64.8172 99.7772 64.7625 99.6957 64.7625Z" fill="#4AA09B"/>
<path d="M97.4694 64.352H99.6822C99.7636 64.352 99.8315 64.2836 99.8315 64.2015C99.8315 64.1194 99.7636 64.051 99.6822 64.051H97.4694C97.3879 64.051 97.3201 64.1194 97.3201 64.2015C97.3336 64.2836 97.3879 64.352 97.4694 64.352Z" fill="#4AA09B"/>
<path d="M97.4694 65.0498H98.5011C98.5826 65.0498 98.6504 64.9814 98.6504 64.8993C98.6504 64.8172 98.5826 64.7488 98.5011 64.7488H97.4694C97.3879 64.7488 97.3201 64.8172 97.3201 64.8993C97.3336 64.9951 97.3879 65.0498 97.4694 65.0498Z" fill="#4AA09B"/>
<path d="M97.8088 66.1718H97.4694C97.3879 66.1718 97.3201 66.2403 97.3201 66.3224C97.3201 66.4045 97.3879 66.4729 97.4694 66.4729H97.8088C97.8902 66.4729 97.9581 66.4045 97.9581 66.3224C97.9581 66.2403 97.8902 66.1718 97.8088 66.1718Z" fill="#4AA09B"/>
<path d="M97.1571 65.7887C97.0756 65.6245 96.967 65.4877 96.8177 65.3919C97.0892 65.0635 97.0621 64.5846 96.7498 64.2973C96.5869 64.1467 96.3697 64.0783 96.139 64.1057C95.7996 64.1467 95.5145 64.4204 95.4602 64.7488C95.4195 64.9814 95.4873 65.214 95.6367 65.3782C95.4873 65.474 95.3787 65.6109 95.2973 65.7751C95.243 65.8708 95.2701 66.0077 95.3516 66.0761C95.5959 66.2813 95.8946 66.4045 96.2204 66.4045C96.5326 66.4045 96.8449 66.295 97.0892 66.0761C97.1843 66.0214 97.2114 65.8982 97.1571 65.7887ZM95.5552 65.8982C95.6367 65.7477 95.7724 65.6245 95.9353 65.5561C95.9761 65.5424 96.0168 65.4877 96.0168 65.4467C96.0168 65.3919 96.0032 65.3509 95.9625 65.3235C95.7996 65.214 95.7181 65.0225 95.7453 64.8172C95.786 64.5983 95.9625 64.4204 96.1797 64.393C96.4919 64.352 96.7363 64.5983 96.7363 64.8993C96.7363 65.0635 96.6548 65.2277 96.5191 65.3235C96.4783 65.3509 96.4512 65.4056 96.4648 65.4467C96.4648 65.5014 96.5055 65.5424 96.5462 65.5561C96.7091 65.6245 96.8449 65.7477 96.9263 65.8982C96.5191 66.2266 95.9489 66.2266 95.5552 65.8982Z" fill="#4AA09B"/>
<path d="M101.284 66.4729C101.284 65.994 100.985 65.5835 100.578 65.4056V63.8046C100.578 63.531 100.361 63.3121 100.089 63.3121H98.2703C98.2703 62.8605 98.2703 62.4774 98.2703 61.7795C98.2703 61.4511 97.9988 61.1775 97.673 61.1775H93.1932C92.8673 61.1775 92.5958 61.4511 92.5958 61.7795V68.7443C92.5958 68.8675 92.6366 68.9769 92.6909 69.0727H92.2022C92.1207 69.0727 92.0664 69.1274 92.0664 69.2095C92.0664 69.2916 92.1207 69.3464 92.2022 69.3464H98.759C98.8404 69.3464 98.8947 69.2916 98.8947 69.2095C98.8947 69.1274 98.8404 69.0727 98.759 69.0727H98.1617C98.2296 68.9769 98.2567 68.8675 98.2567 68.7443C98.2567 68.0465 98.2567 67.6633 98.2567 67.2118H99.2613C99.4785 67.4581 99.7907 67.6223 100.144 67.6223C100.782 67.636 101.284 67.116 101.284 66.4729ZM93.1932 61.4511H97.673C97.8495 61.4511 97.9988 61.6016 97.9988 61.7795V62.1627H92.8673V61.7795C92.8673 61.6016 93.0031 61.4511 93.1932 61.4511ZM92.8673 68.3612H97.9988V68.7443C97.9988 68.9222 97.8495 69.0727 97.673 69.0727H93.1932C93.0167 69.0727 92.8673 68.9222 92.8673 68.7443V68.3612ZM97.9988 68.0875H92.8673V62.4363H97.9988V63.3121H95.0394C94.7679 63.3121 94.5507 63.531 94.5507 63.8046V66.7192C94.5507 66.9929 94.7679 67.2118 95.0394 67.2118H97.9988V68.0875ZM95.0394 66.9381C94.9172 66.9381 94.8222 66.8423 94.8222 66.7192V63.8046C94.8222 63.6815 94.9172 63.5857 95.0394 63.5857H100.089C100.212 63.5857 100.307 63.6815 100.307 63.8046V65.3372C100.252 65.3235 100.198 65.3235 100.144 65.3235C99.94 65.3235 99.75 65.3782 99.5871 65.474H97.4693C97.3879 65.474 97.32 65.5424 97.32 65.6245C97.32 65.7066 97.3879 65.775 97.4693 65.775H99.2341C99.1391 65.8982 99.0712 66.035 99.0305 66.1855H98.4739C98.3925 66.1855 98.3246 66.254 98.3246 66.3361C98.3246 66.4182 98.3925 66.4866 98.4739 66.4866H99.0034C99.0034 66.6508 99.0441 66.815 99.0984 66.9518H95.0394V66.9381ZM99.2613 66.4729C99.2613 65.9803 99.655 65.5835 100.144 65.5835C100.632 65.5835 101.026 65.9803 101.026 66.4729C101.026 66.9655 100.632 67.3623 100.144 67.3623C99.655 67.3623 99.2613 66.9655 99.2613 66.4729Z" fill="#4AA09B"/>
<path d="M100.687 66.0624C100.646 66.0213 100.578 66.0213 100.537 66.0624L99.9536 66.6644L99.75 66.4592C99.7093 66.4181 99.6414 66.4181 99.6007 66.4592C99.5599 66.5002 99.5599 66.5687 99.6007 66.6097L99.8722 66.8834C99.9129 66.9244 99.9808 66.9244 100.022 66.8834L100.687 66.2129C100.727 66.1718 100.727 66.1034 100.687 66.0624Z" fill="#4AA09B"/>
</g>
<g clip-path="url(#clip5_203_4500)">
<path d="M102.384 62.4227C102.438 62.4227 102.479 62.3816 102.492 62.3269V62.1764H102.642C102.696 62.1764 102.737 62.1353 102.75 62.0806C102.75 62.0258 102.709 61.9848 102.655 61.9711H102.506V61.8206C102.506 61.7659 102.465 61.7248 102.411 61.7111C102.356 61.7111 102.316 61.7522 102.302 61.8069V61.9574H102.153C102.098 61.9574 102.058 61.9985 102.044 62.0532C102.044 62.1079 102.085 62.149 102.139 62.1627H102.289V62.3132C102.289 62.3679 102.329 62.4227 102.384 62.4227Z" fill="#4AA09B"/>
<path d="M91.0754 62.1353C91.1026 62.19 91.1569 62.2174 91.1976 62.19L91.3334 62.1353L91.3877 62.2721C91.4148 62.3269 91.4691 62.3542 91.5099 62.3269C91.5642 62.2995 91.5913 62.2448 91.5642 62.2037L91.5099 62.0669L91.6456 62.0121C91.6999 61.9985 91.7271 61.93 91.6999 61.8753C91.6863 61.8206 91.6185 61.7932 91.5777 61.8206L91.442 61.8753L91.3877 61.7385C91.3741 61.6837 91.3062 61.6564 91.2519 61.6837C91.1976 61.6974 91.1705 61.7658 91.1976 61.8069L91.2519 61.9437L91.1162 61.9985C91.0754 62.0258 91.0483 62.0806 91.0754 62.1353Z" fill="#4AA09B"/>
<path d="M90.7904 66.254C90.8175 66.3087 90.8718 66.3361 90.9125 66.3087L91.0483 66.254L91.1026 66.3908C91.1297 66.4455 91.184 66.4729 91.2248 66.4455C91.2791 66.4182 91.3062 66.3634 91.2791 66.3224L91.2248 66.1855L91.3741 66.1171C91.4284 66.1034 91.4555 66.035 91.4284 65.9803C91.4148 65.9256 91.3469 65.8982 91.3062 65.9256L91.1705 65.9803L91.1162 65.8435C91.1026 65.7887 91.0347 65.7614 90.9804 65.7887C90.9261 65.8024 90.899 65.8708 90.9261 65.9119L90.9804 66.0487L90.8447 66.1034C90.7904 66.1445 90.7768 66.1992 90.7904 66.254Z" fill="#4AA09B"/>
<path d="M99.9265 69.7842H99.7771V69.6337C99.7771 69.579 99.7364 69.5379 99.6685 69.5379C99.6142 69.5379 99.5735 69.579 99.5735 69.6337V69.7842H99.4242C99.3699 69.7842 99.3292 69.8253 99.3292 69.88C99.3292 69.9347 99.3699 69.9758 99.4242 69.9758H99.5735V70.1263C99.5735 70.181 99.6142 70.2221 99.6685 70.2221C99.7228 70.2221 99.7636 70.181 99.7636 70.1263V69.9758H99.9129C99.9672 69.9758 100.008 69.9347 100.008 69.8663C100.021 69.8253 99.9808 69.7842 99.9265 69.7842Z" fill="#4AA09B"/>
<path d="M103.049 69.0727H100.021C99.94 69.0727 99.8857 69.1274 99.8857 69.2095C99.8857 69.2916 99.94 69.3464 100.021 69.3464H103.049C103.13 69.3464 103.185 69.2916 103.185 69.2095C103.185 69.1274 103.13 69.0727 103.049 69.0727Z" fill="#4AA09B"/>
<path d="M90.6953 69.2095C90.6953 69.2916 90.7496 69.3464 90.8311 69.3464H91.2247C91.3062 69.3464 91.3605 69.2916 91.3605 69.2095C91.3605 69.1274 91.3062 69.0727 91.2247 69.0727H90.8311C90.7496 69.0727 90.6953 69.1411 90.6953 69.2095Z" fill="#4AA09B"/>
<path d="M95.4331 68.9496C95.5606 68.9496 95.6639 68.8454 95.6639 68.717C95.6639 68.5885 95.5606 68.4843 95.4331 68.4843C95.3057 68.4843 95.2023 68.5885 95.2023 68.717C95.2023 68.8454 95.3057 68.9496 95.4331 68.9496Z" fill="#4AA09B"/>
<path d="M95.3652 61.9437H96.1798C96.2476 61.9437 96.3155 61.889 96.3155 61.8069C96.3155 61.7385 96.2612 61.6701 96.1798 61.6701H95.3652C95.2838 61.6701 95.2295 61.7248 95.2295 61.8069C95.2295 61.8753 95.2838 61.9437 95.3652 61.9437Z" fill="#4AA09B"/>
<path d="M94.6729 61.9437H94.8358C94.9036 61.9437 94.9715 61.889 94.9715 61.8069C94.9715 61.7385 94.9172 61.6701 94.8358 61.6701H94.6729C94.605 61.6701 94.5371 61.7248 94.5371 61.8069C94.5371 61.8753 94.5914 61.9437 94.6729 61.9437Z" fill="#4AA09B"/>
<path d="M99.6957 64.7625H99.1798C99.0984 64.7625 99.0305 64.8309 99.0305 64.913C99.0305 64.9951 99.0984 65.0635 99.1798 65.0635H99.6957C99.7772 65.0635 99.845 64.9951 99.845 64.913C99.845 64.8172 99.7772 64.7625 99.6957 64.7625Z" fill="#4AA09B"/>
<path d="M97.4694 64.352H99.6822C99.7636 64.352 99.8315 64.2836 99.8315 64.2015C99.8315 64.1194 99.7636 64.051 99.6822 64.051H97.4694C97.3879 64.051 97.3201 64.1194 97.3201 64.2015C97.3336 64.2836 97.3879 64.352 97.4694 64.352Z" fill="#4AA09B"/>
<path d="M97.4694 65.0498H98.5011C98.5826 65.0498 98.6504 64.9814 98.6504 64.8993C98.6504 64.8172 98.5826 64.7488 98.5011 64.7488H97.4694C97.3879 64.7488 97.3201 64.8172 97.3201 64.8993C97.3336 64.9951 97.3879 65.0498 97.4694 65.0498Z" fill="#4AA09B"/>
<path d="M97.8088 66.1718H97.4694C97.3879 66.1718 97.3201 66.2403 97.3201 66.3224C97.3201 66.4045 97.3879 66.4729 97.4694 66.4729H97.8088C97.8902 66.4729 97.9581 66.4045 97.9581 66.3224C97.9581 66.2403 97.8902 66.1718 97.8088 66.1718Z" fill="#4AA09B"/>
<path d="M97.1571 65.7887C97.0756 65.6245 96.967 65.4877 96.8177 65.3919C97.0892 65.0635 97.0621 64.5846 96.7498 64.2973C96.5869 64.1467 96.3697 64.0783 96.139 64.1057C95.7996 64.1467 95.5145 64.4204 95.4602 64.7488C95.4195 64.9814 95.4873 65.214 95.6367 65.3782C95.4873 65.474 95.3787 65.6109 95.2973 65.7751C95.243 65.8708 95.2701 66.0077 95.3516 66.0761C95.5959 66.2813 95.8946 66.4045 96.2204 66.4045C96.5326 66.4045 96.8449 66.295 97.0892 66.0761C97.1843 66.0214 97.2114 65.8982 97.1571 65.7887ZM95.5552 65.8982C95.6367 65.7477 95.7724 65.6245 95.9353 65.5561C95.9761 65.5424 96.0168 65.4877 96.0168 65.4467C96.0168 65.3919 96.0032 65.3509 95.9625 65.3235C95.7996 65.214 95.7181 65.0225 95.7453 64.8172C95.786 64.5983 95.9625 64.4204 96.1797 64.393C96.4919 64.352 96.7363 64.5983 96.7363 64.8993C96.7363 65.0635 96.6548 65.2277 96.5191 65.3235C96.4783 65.3509 96.4512 65.4056 96.4648 65.4467C96.4648 65.5014 96.5055 65.5424 96.5462 65.5561C96.7091 65.6245 96.8449 65.7477 96.9263 65.8982C96.5191 66.2266 95.9489 66.2266 95.5552 65.8982Z" fill="#4AA09B"/>
<path d="M101.284 66.4729C101.284 65.994 100.985 65.5835 100.578 65.4056V63.8046C100.578 63.531 100.361 63.3121 100.089 63.3121H98.2703C98.2703 62.8605 98.2703 62.4774 98.2703 61.7795C98.2703 61.4511 97.9988 61.1775 97.673 61.1775H93.1932C92.8673 61.1775 92.5958 61.4511 92.5958 61.7795V68.7443C92.5958 68.8675 92.6366 68.9769 92.6909 69.0727H92.2022C92.1207 69.0727 92.0664 69.1274 92.0664 69.2095C92.0664 69.2916 92.1207 69.3464 92.2022 69.3464H98.759C98.8404 69.3464 98.8947 69.2916 98.8947 69.2095C98.8947 69.1274 98.8404 69.0727 98.759 69.0727H98.1617C98.2296 68.9769 98.2567 68.8675 98.2567 68.7443C98.2567 68.0465 98.2567 67.6633 98.2567 67.2118H99.2613C99.4785 67.4581 99.7907 67.6223 100.144 67.6223C100.782 67.636 101.284 67.116 101.284 66.4729ZM93.1932 61.4511H97.673C97.8495 61.4511 97.9988 61.6016 97.9988 61.7795V62.1627H92.8673V61.7795C92.8673 61.6016 93.0031 61.4511 93.1932 61.4511ZM92.8673 68.3612H97.9988V68.7443C97.9988 68.9222 97.8495 69.0727 97.673 69.0727H93.1932C93.0167 69.0727 92.8673 68.9222 92.8673 68.7443V68.3612ZM97.9988 68.0875H92.8673V62.4363H97.9988V63.3121H95.0394C94.7679 63.3121 94.5507 63.531 94.5507 63.8046V66.7192C94.5507 66.9929 94.7679 67.2118 95.0394 67.2118H97.9988V68.0875ZM95.0394 66.9381C94.9172 66.9381 94.8222 66.8423 94.8222 66.7192V63.8046C94.8222 63.6815 94.9172 63.5857 95.0394 63.5857H100.089C100.212 63.5857 100.307 63.6815 100.307 63.8046V65.3372C100.252 65.3235 100.198 65.3235 100.144 65.3235C99.94 65.3235 99.75 65.3782 99.5871 65.474H97.4693C97.3879 65.474 97.32 65.5424 97.32 65.6245C97.32 65.7066 97.3879 65.775 97.4693 65.775H99.2341C99.1391 65.8982 99.0712 66.035 99.0305 66.1855H98.4739C98.3925 66.1855 98.3246 66.254 98.3246 66.3361C98.3246 66.4182 98.3925 66.4866 98.4739 66.4866H99.0034C99.0034 66.6508 99.0441 66.815 99.0984 66.9518H95.0394V66.9381ZM99.2613 66.4729C99.2613 65.9803 99.655 65.5835 100.144 65.5835C100.632 65.5835 101.026 65.9803 101.026 66.4729C101.026 66.9655 100.632 67.3623 100.144 67.3623C99.655 67.3623 99.2613 66.9655 99.2613 66.4729Z" fill="#4AA09B"/>
<path d="M100.687 66.0624C100.646 66.0213 100.578 66.0213 100.537 66.0624L99.9536 66.6644L99.75 66.4592C99.7093 66.4181 99.6414 66.4181 99.6007 66.4592C99.5599 66.5002 99.5599 66.5687 99.6007 66.6097L99.8722 66.8834C99.9129 66.9244 99.9808 66.9244 100.022 66.8834L100.687 66.2129C100.727 66.1718 100.727 66.1034 100.687 66.0624Z" fill="#4AA09B"/>
</g>
<path d="M65.5402 86.8032C65.5975 86.8211 65.6572 86.8303 65.7173 86.8304C65.7759 86.8302 65.8341 86.8214 65.8902 86.8041C66.7429 86.5577 67.5487 86.1692 68.2741 85.6545C68.3172 85.6207 68.3457 85.5714 68.3537 85.517C68.3617 85.4626 68.3486 85.4071 68.3171 85.3622C68.2855 85.3173 68.238 85.2863 68.1844 85.2758C68.1308 85.2653 68.0753 85.276 68.0293 85.3057C67.3416 85.7933 66.5776 86.1612 65.7693 86.3942C65.7341 86.4055 65.6963 86.4055 65.6611 86.3942C64.6052 86.0921 63.6288 85.5582 62.8018 84.8309C62.7812 84.8105 62.7567 84.7945 62.7298 84.784C62.7029 84.7734 62.6742 84.7685 62.6453 84.7696C62.6165 84.7706 62.5881 84.7776 62.562 84.7901C62.536 84.8026 62.5127 84.8203 62.4936 84.8421C62.4746 84.864 62.4601 84.8895 62.4512 84.9172C62.4423 84.9449 62.4391 84.9741 62.4418 85.0031C62.4444 85.032 62.453 85.0602 62.4668 85.0857C62.4806 85.1112 62.4995 85.1337 62.5222 85.1516C63.3951 85.9197 64.4257 86.4837 65.5402 86.8032Z" fill="#4AA09B"/>
<path d="M60.1109 76.793C60.0833 76.7893 60.0552 76.7911 60.0283 76.7983C60.0014 76.8055 59.9761 76.818 59.954 76.8351C59.9318 76.8521 59.9132 76.8734 59.8992 76.8977C59.8853 76.922 59.8762 76.9488 59.8725 76.9767C59.723 78.1036 59.5448 80.9936 61.1144 83.491C61.1293 83.5147 61.1487 83.5353 61.1715 83.5514C61.1943 83.5676 61.22 83.5791 61.2472 83.5852C61.2743 83.5914 61.3025 83.5921 61.3299 83.5873C61.3574 83.5825 61.3836 83.5723 61.4071 83.5573C61.4307 83.5422 61.451 83.5227 61.4671 83.4997C61.4831 83.4768 61.4945 83.4509 61.5006 83.4235C61.5067 83.3961 61.5074 83.3677 61.5027 83.3401C61.4979 83.3124 61.4878 83.2859 61.4729 83.2622C59.9775 80.8839 60.1495 78.1139 60.2927 77.0333C60.3002 76.9772 60.2852 76.9203 60.2511 76.8753C60.2171 76.8302 60.1666 76.8006 60.1109 76.793Z" fill="#4AA09B"/>
<path d="M61.6954 83.9541C61.6737 83.9717 61.6556 83.9935 61.6422 84.0181C61.6289 84.0428 61.6204 84.0699 61.6174 84.0978C61.6144 84.1257 61.6169 84.154 61.6248 84.181C61.6326 84.2079 61.6457 84.2331 61.6632 84.2549C61.7268 84.3345 61.7949 84.414 61.8649 84.4935C61.8834 84.5146 61.9058 84.5318 61.9309 84.5441C61.9559 84.5564 61.9832 84.5637 62.011 84.5654C62.0389 84.5671 62.0668 84.5633 62.0931 84.5541C62.1195 84.545 62.1438 84.5307 62.1647 84.512C62.1856 84.4934 62.2027 84.4708 62.2149 84.4456C62.2271 84.4203 62.2343 84.3928 62.236 84.3648C62.2377 84.3367 62.2339 84.3086 62.2248 84.282C62.2157 84.2554 62.2016 84.2309 62.1831 84.2098C62.1175 84.1352 62.0539 84.0602 61.9945 83.9866C61.977 83.9646 61.9554 83.9463 61.9309 83.9328C61.9064 83.9192 61.8795 83.9107 61.8517 83.9077C61.8239 83.9047 61.7958 83.9072 61.769 83.9152C61.7421 83.9232 61.7172 83.9364 61.6954 83.9541Z" fill="#4AA09B"/>
<path d="M71.0176 76.2727C70.2469 76.1375 69.4919 75.9236 68.7641 75.6345C67.8121 75.2547 66.9145 74.749 66.0949 74.1306C65.9859 74.048 65.8533 74.0034 65.717 74.0034C65.5807 74.0034 65.4481 74.048 65.3391 74.1306C64.9308 74.4385 64.5028 74.719 64.0579 74.9704C64.0336 74.9841 64.0121 75.0025 63.9949 75.0246C63.9776 75.0467 63.9648 75.072 63.9572 75.099C63.9496 75.1261 63.9474 75.1544 63.9507 75.1823C63.954 75.2102 63.9627 75.2372 63.9764 75.2617C63.99 75.2863 64.0083 75.3078 64.0303 75.3252C64.0522 75.3426 64.0773 75.3554 64.1042 75.363C64.1311 75.3706 64.1592 75.3727 64.1869 75.3693C64.2145 75.366 64.2413 75.3571 64.2656 75.3433C64.727 75.0821 65.1708 74.7906 65.5943 74.4708C65.6295 74.4435 65.6727 74.4287 65.7171 74.4287C65.7615 74.4287 65.8047 74.4435 65.8399 74.4708C66.69 75.1125 67.621 75.6374 68.6084 76.0315C69.3636 76.3317 70.1472 76.5538 70.947 76.6943C70.9905 76.7017 71.0305 76.7231 71.061 76.7552C71.0916 76.7873 71.1111 76.8285 71.1166 76.8726C71.253 77.7761 71.4607 80.1198 70.4442 82.3596C70.4321 82.3852 70.4252 82.4129 70.4238 82.4413C70.4224 82.4696 70.4267 82.4979 70.4363 82.5246C70.4459 82.5512 70.4606 82.5757 70.4797 82.5966C70.4987 82.6174 70.5217 82.6342 70.5473 82.6461C70.5729 82.6579 70.6005 82.6644 70.6287 82.6654C70.6568 82.6663 70.6848 82.6616 70.7111 82.6515C70.7374 82.6414 70.7614 82.6262 70.7818 82.6066C70.8022 82.5871 70.8185 82.5636 70.8299 82.5377C71.894 80.1929 71.6783 77.7498 71.5362 76.8078C71.517 76.6748 71.4564 76.5514 71.3632 76.4552C71.2701 76.3591 71.149 76.2952 71.0176 76.2727Z" fill="#4AA09B"/>
<path d="M65.5126 85.2968C65.5782 85.321 65.6475 85.3335 65.7173 85.3338C65.7861 85.3337 65.8543 85.3215 65.9188 85.2976C66.2114 85.1939 66.4968 85.0702 66.7728 84.9275C66.7976 84.9147 66.8196 84.897 66.8376 84.8756C66.8556 84.8542 66.8692 84.8294 66.8777 84.8026C66.8862 84.7759 66.8894 84.7477 66.8871 84.7197C66.8848 84.6917 66.8771 84.6644 66.8643 84.6394C66.8515 84.6145 66.834 84.5923 66.8128 84.5741C66.7915 84.556 66.7669 84.5422 66.7404 84.5337C66.7138 84.5251 66.6859 84.5219 66.6581 84.5242C66.6303 84.5265 66.6033 84.5343 66.5785 84.5472C66.3191 84.6816 66.0508 84.7981 65.7756 84.8957C65.7371 84.9109 65.6943 84.9109 65.6558 84.8957C64.7048 84.5673 63.8501 84.0051 63.169 83.2599C61.568 81.5001 61.4269 79.144 61.485 77.9008C61.487 77.8676 61.4953 77.8352 61.5094 77.8052C61.53 77.7547 61.5306 77.6982 61.5112 77.6473C61.4917 77.5964 61.4538 77.5549 61.405 77.5313C61.3562 77.5077 61.3003 77.5038 61.2487 77.5203C61.1971 77.5369 61.1538 77.5727 61.1276 77.6205C61.0898 77.701 61.0677 77.7881 61.0625 77.877C61.001 79.1913 61.1524 81.6761 62.8572 83.5498C63.5845 84.3455 64.4972 84.9459 65.5126 85.2968Z" fill="#4AA09B"/>
<path d="M69.6146 81.4853C69.6379 81.4941 69.6625 81.4986 69.6874 81.4986C69.7309 81.4986 69.7733 81.4851 69.8089 81.46C69.8445 81.4349 69.8716 81.3993 69.8866 81.3581C70.273 80.2406 70.438 79.0575 70.3723 77.876C70.3682 77.7895 70.3472 77.7048 70.3104 77.6266C70.2736 77.5485 70.2218 77.4784 70.1581 77.4206C70.1378 77.3995 70.1135 77.3828 70.0867 77.3716C70.0598 77.3604 70.0309 77.3549 70.0019 77.3554C69.9728 77.3559 69.9441 77.3625 69.9177 77.3746C69.8912 77.3867 69.8675 77.4043 69.848 77.426C69.8286 77.4478 69.8137 77.4734 69.8045 77.5012C69.7952 77.5289 69.7917 77.5584 69.7942 77.5876C69.7967 77.6168 69.8052 77.6451 69.819 77.6709C69.8328 77.6967 69.8518 77.7193 69.8747 77.7374C69.8969 77.7577 69.9149 77.7822 69.9276 77.8096C69.9403 77.8369 69.9476 77.8665 69.9489 77.8967C70.012 79.021 69.8557 80.1469 69.4888 81.2106C69.4792 81.237 69.4748 81.265 69.4759 81.2931C69.477 81.3212 69.4835 81.3487 69.4952 81.3743C69.5069 81.3998 69.5235 81.4227 69.544 81.4418C69.5644 81.4608 69.5885 81.4756 69.6146 81.4853Z" fill="#4AA09B"/>
<path d="M65.6348 75.9441C65.6648 75.9303 65.6977 75.9244 65.7306 75.9269C65.7634 75.9293 65.7951 75.9401 65.8228 75.9582C66.4333 76.3554 67.076 76.7 67.7441 76.9883C67.7954 77.0085 67.8525 77.0078 67.9033 76.9863C67.9541 76.9648 67.9947 76.9243 68.0163 76.8732C68.038 76.8221 68.0391 76.7646 68.0194 76.7127C67.9997 76.6608 67.9608 76.6187 67.9108 76.5953C67.2647 76.3162 66.6431 75.9828 66.0525 75.5985C65.9659 75.5423 65.8667 75.5087 65.764 75.5008C65.6613 75.4928 65.5582 75.5107 65.4641 75.5528C65.4155 75.5773 65.3782 75.6197 65.3597 75.6712C65.3412 75.7227 65.343 75.7794 65.3648 75.8296C65.3866 75.8797 65.4266 75.9196 65.4766 75.9409C65.5267 75.9622 65.5829 75.9633 65.6338 75.9441H65.6348Z" fill="#4AA09B"/>
<path d="M69.003 77.4606C69.0228 77.4666 69.0434 77.4696 69.064 77.4695C69.115 77.4695 69.1642 77.451 69.2027 77.4174C69.2412 77.3838 69.2664 77.3374 69.2738 77.2866C69.2811 77.2359 69.2701 77.1841 69.2428 77.1408C69.2154 77.0975 69.1735 77.0656 69.1247 77.0509C69.0223 77.0199 68.92 76.9849 68.8176 76.9477C68.7646 76.9284 68.7063 76.9312 68.6554 76.9553C68.6045 76.9795 68.5651 77.023 68.5461 77.0764C68.527 77.1297 68.5297 77.1885 68.5537 77.2399C68.5776 77.2912 68.6208 77.3308 68.6738 77.35C68.7836 77.3898 68.8933 77.4274 69.003 77.4606Z" fill="#4AA09B"/>
<path d="M64.5742 79.8778C64.4482 79.7533 64.2787 79.6835 64.1022 79.6835C63.9257 79.6835 63.7562 79.7533 63.6301 79.8778L63.3646 80.1508C63.241 80.2793 63.1719 80.4512 63.1719 80.6301C63.1719 80.8091 63.241 80.981 63.3646 81.1095L64.9898 82.7812C65.0511 82.8447 65.1245 82.8952 65.2056 82.9297C65.2866 82.9641 65.3737 82.9819 65.4617 82.9819C65.5497 82.9819 65.6368 82.9641 65.7178 82.9297C65.7989 82.8952 65.8723 82.8447 65.9337 82.7812L68.9185 79.7108C69.0421 79.5823 69.1112 79.4104 69.1112 79.2314C69.1112 79.0525 69.0421 78.8806 68.9185 78.7521L68.653 78.4791C68.5917 78.4154 68.5184 78.3648 68.4373 78.3303C68.3563 78.2959 68.2692 78.2782 68.1812 78.2783C68.0932 78.2782 68.006 78.2958 67.9249 78.3303C67.8438 78.3648 67.7704 78.4154 67.709 78.4791L65.6303 80.6171C65.5854 80.6619 65.5247 80.687 65.4615 80.687C65.3983 80.687 65.3376 80.6619 65.2927 80.6171L64.5742 79.8778ZM65.9337 80.9162L68.0124 78.7782C68.0343 78.7553 68.0605 78.7371 68.0895 78.7247C68.1186 78.7123 68.1498 78.7059 68.1813 78.7059C68.2129 78.7059 68.2441 78.7123 68.2731 78.7247C68.3021 78.7371 68.3284 78.7553 68.3503 78.7782L68.6158 79.0514C68.6623 79.0997 68.6882 79.1642 68.6882 79.2314C68.6882 79.2987 68.6623 79.3632 68.6158 79.4115L65.6306 82.4821C65.5856 82.5269 65.5249 82.552 65.4617 82.552C65.3985 82.552 65.3378 82.5269 65.2929 82.4821L63.6677 80.8102C63.6212 80.7619 63.5952 80.6973 63.5952 80.6301C63.5952 80.5629 63.6212 80.4983 63.6677 80.4501L63.9332 80.1769C63.9782 80.1321 64.0389 80.107 64.1022 80.107C64.1654 80.107 64.2261 80.1321 64.2711 80.1769L64.9898 80.9162C65.1158 81.0406 65.2853 81.1103 65.4617 81.1103C65.6382 81.1103 65.8076 81.0406 65.9337 80.9162Z" fill="#4AA09B"/>
<path d="M60.8387 76.5679C60.8388 76.6179 60.8562 76.6663 60.8879 76.7047C60.9196 76.7431 60.9637 76.769 61.0125 76.7781C62.3575 77.0278 62.5036 77.1751 62.7518 78.5312C62.7609 78.5803 62.7867 78.6246 62.8248 78.6565C62.8629 78.6883 62.9108 78.7058 62.9603 78.7058C63.0098 78.7058 63.0577 78.6883 63.0958 78.6565C63.1339 78.6246 63.1597 78.5803 63.1688 78.5312C63.4166 77.1755 63.5627 77.0282 64.9081 76.7781C64.9568 76.7689 65.0007 76.7429 65.0324 76.7045C65.064 76.6661 65.0813 76.6178 65.0813 76.5679C65.0813 76.518 65.064 76.4697 65.0324 76.4313C65.0007 76.3929 64.9568 76.3669 64.9081 76.3577C63.5631 76.108 63.417 75.9607 63.1688 74.6046C63.1597 74.5555 63.1339 74.5112 63.0958 74.4793C63.0577 74.4475 63.0098 74.43 62.9603 74.43C62.9108 74.43 62.8629 74.4475 62.8248 74.4793C62.7867 74.5112 62.7609 74.5555 62.7518 74.6046C62.504 75.9603 62.3579 76.1076 61.0125 76.3577C60.9637 76.3668 60.9196 76.3928 60.8879 76.4312C60.8562 76.4695 60.8388 76.5179 60.8387 76.5679ZM62.9599 75.5611C63.0229 75.8031 63.1486 76.0239 63.3241 76.2008C63.4996 76.3777 63.7186 76.5044 63.9587 76.5679C63.7186 76.6314 63.4996 76.7581 63.3241 76.935C63.1486 77.1119 63.0229 77.3327 62.9599 77.5747C62.8969 77.3327 62.7712 77.1119 62.5957 76.935C62.4202 76.7581 62.2011 76.6314 61.961 76.5679C62.2011 76.5044 62.4202 76.3777 62.5957 76.2008C62.7712 76.0239 62.8969 75.8031 62.9599 75.5611Z" fill="#4AA09B"/>
<path d="M71.4827 84.0546C70.1377 83.8049 69.9916 83.6576 69.7434 82.3014C69.7343 82.2524 69.7085 82.2081 69.6704 82.1762C69.6323 82.1443 69.5844 82.1269 69.5349 82.1269C69.4854 82.1269 69.4374 82.1443 69.3994 82.1762C69.3613 82.2081 69.3355 82.2524 69.3264 82.3014C69.0786 83.6572 68.9325 83.8045 67.587 84.0546C67.5384 84.0638 67.4944 84.0898 67.4628 84.1282C67.4312 84.1666 67.4139 84.2149 67.4139 84.2648C67.4139 84.3147 67.4312 84.363 67.4628 84.4014C67.4944 84.4398 67.5384 84.4658 67.587 84.4749C68.9321 84.7247 69.0782 84.872 69.3264 86.2281C69.3355 86.2772 69.3613 86.3215 69.3994 86.3533C69.4374 86.3852 69.4854 86.4027 69.5349 86.4027C69.5844 86.4027 69.6323 86.3852 69.6704 86.3533C69.7085 86.3215 69.7343 86.2772 69.7434 86.2281C69.9911 84.8724 70.1373 84.7251 71.4827 84.4749C71.5314 84.4658 71.5753 84.4398 71.6069 84.4014C71.6386 84.363 71.6559 84.3147 71.6559 84.2648C71.6559 84.2149 71.6386 84.1666 71.6069 84.1282C71.5753 84.0898 71.5314 84.0638 71.4827 84.0546ZM69.5353 85.2716C69.4723 85.0296 69.3466 84.8088 69.1711 84.6319C68.9956 84.455 68.7766 84.3283 68.5365 84.2648C68.7766 84.2013 68.9956 84.0746 69.1711 83.8977C69.3466 83.7208 69.4723 83.5 69.5353 83.258C69.5983 83.5 69.724 83.7208 69.8995 83.8977C70.075 84.0746 70.2941 84.2013 70.5341 84.2648C70.2941 84.3283 70.075 84.455 69.8995 84.6319C69.724 84.8088 69.5983 85.0296 69.5353 85.2716Z" fill="#4AA09B"/>
<defs>
<clipPath id="clip0_203_4500">
<rect width="13.5752" height="13.6833" fill="white" transform="translate(58.9307 39.0242)"/>
</clipPath>
<clipPath id="clip1_203_4500">
<rect width="13.5752" height="13.6833" fill="white" transform="translate(27.7087 19.5258)"/>
</clipPath>
<clipPath id="clip2_203_4500">
<rect width="13.5752" height="13.6833" fill="white" transform="translate(58.9297 4.47424)"/>
</clipPath>
<clipPath id="clip3_203_4500">
<rect width="13.5752" height="13.6833" fill="white" transform="translate(90.1523 19.5259)"/>
</clipPath>
<clipPath id="clip4_203_4500">
<rect width="13.5752" height="13.6833" fill="white" transform="translate(90.1523 58.865)"/>
</clipPath>
<clipPath id="clip5_203_4500">
<rect width="13.5752" height="13.6833" fill="white" transform="translate(90.1523 58.865)"/>
</clipPath>
</defs>
</svg>
