<svg width="130" height="112" viewBox="0 0 130 112" fill="none" xmlns="http://www.w3.org/2000/svg">
<path d="M64.1392 12.9203L71.4336 102.154C71.6085 104.293 70.2918 106.028 68.4926 106.028H10.8845C9.0853 106.028 7.48496 104.293 7.31005 102.154L0.0155928 12.9203C-0.159324 10.7806 1.15745 9.04608 2.95669 9.04608H60.5647C62.3639 9.04608 63.9643 10.7806 64.1392 12.9203Z" fill="#CCE8E5"/>
<path d="M49.4034 9.6093C49.5514 11.4193 48.4347 12.8902 46.9128 12.8902H17.2356C15.7099 12.8902 14.3565 11.4193 14.2085 9.6093C14.0608 7.80221 15.1673 6.3284 16.6992 6.3284H28.5049L28.2821 3.60238C28.1193 1.6118 29.3466 0 31.0205 0C32.6786 0 34.1799 1.59325 34.3441 3.60238L34.567 6.3284H46.3764C47.8984 6.3284 49.2551 7.79486 49.4034 9.6093Z" fill="#CCE8E5"/>
<path d="M66.0378 12.9205L73.3322 102.154C73.5072 104.293 72.1904 106.028 70.3911 106.028H12.7832C10.984 106.028 9.38358 104.293 9.20867 102.154L1.91421 12.9205C1.7393 10.7808 3.05607 9.0462 4.85531 9.0462H62.4633C64.2625 9.0462 65.8629 10.7808 66.0378 12.9205Z" fill="#4AA09B"/>
<path d="M12.6372 104.266C11.6578 104.266 10.7832 103.319 10.688 102.154L3.39359 12.9208C3.29837 11.7558 4.01791 10.8079 4.99742 10.8079H62.6053C63.585 10.8079 64.4595 11.7558 64.5548 12.9208L71.8492 102.154C71.9444 103.319 71.2249 104.266 70.2452 104.266L12.6372 104.266Z" fill="white"/>
<path d="M51.3042 9.60936C51.4521 11.4193 50.3355 12.8903 48.8135 12.8903H19.1364C17.6107 12.8903 16.2572 11.4194 16.1093 9.60936C15.9616 7.80227 17.0681 6.32846 18.6 6.32846H30.4057L30.1828 3.60244C30.0201 1.61186 31.2474 6.10352e-05 32.9212 6.10352e-05C34.5794 6.10352e-05 36.0806 1.59331 36.2449 3.60244L36.4677 6.32846H48.2771C49.7991 6.32846 51.1559 7.79492 51.3042 9.60936Z" fill="#4A6361"/>
<path d="M34.5343 3.30033C34.6067 4.18553 34.0618 4.90338 33.3174 4.90338C32.5731 4.90338 31.9108 4.18553 31.8384 3.30033C31.7661 2.41517 32.311 1.69733 33.0553 1.69733C33.7997 1.69733 34.462 2.41517 34.5343 3.30033Z" fill="white"/>
<path d="M47.2246 16.7938H21.3074C20.1694 16.7938 19.1535 15.6933 19.0427 14.3409L18.8528 12.0152H48.9488L49.1341 14.28C49.2471 15.6633 48.3895 16.7938 47.2246 16.7938ZM19.4301 12.6385L19.5642 14.2806C19.6497 15.3226 20.4317 16.1705 21.3074 16.1705H47.2246C48.0732 16.1705 48.696 15.3644 48.6126 14.3409L48.4734 12.6385H19.4301Z" fill="#4AA09B"/>
<path d="M18.4531 21.7921L18.8907 27.147C18.9017 27.2803 18.9496 27.3935 19.0338 27.4854C19.2003 27.6653 19.4609 27.6741 19.6142 27.4799C19.6899 27.385 19.7226 27.2669 19.7114 27.1287L19.2736 21.7738C19.2202 21.1277 18.3991 21.1408 18.4531 21.7921Z" fill="#4AA09B"/>
<path d="M21.5878 27.1286L21.378 24.5595C21.5174 24.3276 21.6715 24.1401 21.8358 24.0032C22.2364 23.6683 23.1399 23.5841 23.2366 24.7688L23.4311 27.1468C23.4842 27.7904 24.3036 27.7651 24.2518 27.1286L24.0501 24.6641C23.924 23.1157 22.6583 22.4581 21.7444 23.1084C21.5834 23.224 21.4327 23.3707 21.2948 23.5454L21.2835 23.4054C21.232 22.7692 20.409 22.7622 20.4626 23.4236L20.7671 27.1468C20.8201 27.7885 21.6386 27.7641 21.5878 27.1286Z" fill="#4AA09B"/>
<path d="M25.5853 25.5243C26.0587 25.7364 26.592 25.8218 26.9416 26.0082C27.2275 26.162 27.2455 26.7495 26.4249 26.7495C26.1117 26.7495 25.8303 26.6905 25.442 26.4969C24.9965 26.2726 24.7413 26.9611 25.1318 27.2644C25.5607 27.5304 26.0306 27.6656 26.5283 27.6656C28.2744 27.6656 28.2713 25.6021 27.1115 25.0848C26.5234 24.8219 26.07 24.7838 25.7422 24.5973C25.4142 24.4111 25.436 23.786 26.2622 23.786C26.525 23.786 26.8014 23.8371 27.0882 23.9394C27.6171 24.094 27.7001 23.2469 27.2543 23.1006C26.9032 22.9527 26.5324 22.8779 26.1522 22.8779C24.4744 22.8779 24.312 24.9596 25.5853 25.5243Z" fill="#4AA09B"/>
<path d="M31.3271 26.9989L31.3386 27.1389C31.3901 27.7735 32.2133 27.7831 32.1596 27.1206L31.8551 23.3975C31.8031 22.7564 30.9832 22.7793 31.0341 23.4157L31.2442 25.9843C31.1055 26.2155 30.9517 26.4024 30.7861 26.5412C30.3465 26.9091 29.4778 26.9037 29.3858 25.7749L29.1913 23.3975C29.139 22.7516 28.3201 22.7864 28.3704 23.4157L28.5718 25.8808C28.7008 27.4565 29.9985 28.0633 30.8775 27.4359C31.0374 27.3215 31.1882 27.1754 31.3271 26.9989Z" fill="#4AA09B"/>
<path d="M34.7954 23.8296C35.3597 23.8296 35.266 22.8777 34.7475 22.8777H34.7109C34.3197 22.8777 33.977 23.0968 33.6901 23.5302L33.6799 23.4054C33.6276 22.7601 32.806 22.7701 32.859 23.4236L33.1632 27.1468C33.2173 27.7989 34.0343 27.7551 33.9842 27.1285L33.7708 24.5198C34.1434 23.7588 34.7427 23.8471 34.7954 23.8296Z" fill="#4AA09B"/>
<path d="M35.6405 26.2795C35.7088 27.1157 36.3044 27.666 37.015 27.666C37.5248 27.666 37.9465 27.4834 38.2712 27.1225L38.2733 27.1475C38.284 27.2801 38.3321 27.394 38.4163 27.4859C38.6882 27.7793 39.1298 27.5721 39.0942 27.1292L38.8934 24.6733C38.8089 23.6409 38.1476 22.8784 37.1499 22.8784C36.7133 22.8784 36.2865 22.9867 35.8811 23.1997C35.4745 23.4129 35.6962 24.1621 36.1662 24.0153C36.5713 23.8494 36.7974 23.8126 37.0938 23.8126C37.7479 23.8126 38.0169 24.1192 38.0788 24.7707H37.2827C36.3618 24.7706 35.5509 25.1854 35.6405 26.2795ZM37.4218 25.5924H38.146L38.1954 26.1986C37.972 26.5233 37.6082 26.7847 37.2064 26.7847C36.811 26.7847 36.4919 26.6429 36.4543 26.1748C36.4122 25.6628 36.9857 25.5924 37.4218 25.5924Z" fill="#4AA09B"/>
<path d="M40.873 27.1283L40.6632 24.5592C40.8024 24.3273 40.9564 24.1404 41.121 24.0029C41.5217 23.668 42.4249 23.5838 42.5221 24.7685L42.7163 27.1465C42.7695 27.7905 43.5888 27.765 43.537 27.1283L43.3353 24.6638C43.2085 23.1065 41.9261 22.4702 41.0296 23.1081C40.8689 23.2237 40.7182 23.3698 40.5803 23.5451C40.5649 23.462 40.5984 23.2554 40.4216 23.0624C40.2453 22.8713 39.9794 22.8755 39.8389 23.0709C39.6499 23.3304 39.7765 23.295 40.0523 27.1465C40.1042 27.7873 40.9253 27.7637 40.873 27.1283Z" fill="#4AA09B"/>
<path d="M46.331 27.6656C46.7436 27.6656 47.112 27.5693 47.5317 27.2322C47.921 26.9097 47.5119 26.196 47.1079 26.4744C46.7593 26.7002 46.6003 26.7404 46.3289 26.7404C45.5022 26.7404 45.0069 26.12 44.9365 25.2632C44.8669 24.4087 45.2554 23.8036 46.0735 23.8036C46.3373 23.8036 46.5053 23.8388 46.8993 24.0708C47.3477 24.3436 47.653 23.627 47.2192 23.3082C46.7399 22.9667 46.3497 22.8779 45.9548 22.8779C44.8578 22.8779 43.9949 23.7956 44.1156 25.2814C44.2348 26.7321 45.2149 27.6656 46.331 27.6656Z" fill="#4AA09B"/>
<path d="M51.0622 26.4828C50.7468 26.6798 50.4722 26.7409 50.1354 26.7409C49.4214 26.7409 49.0075 26.3222 48.853 25.644H51.2276C51.4848 25.644 51.6315 25.4176 51.6094 25.1504C51.5764 24.7457 51.4743 24.3665 51.3054 24.0232C50.5297 22.4426 48.54 22.4864 48.0812 24.1053C47.9799 24.4638 47.9461 24.8594 47.9807 25.2819C48.1077 26.8351 48.9472 27.6659 50.1374 27.6659C50.6424 27.6659 50.9789 27.5856 51.4246 27.2703C51.9009 26.9224 51.4455 26.2463 51.0622 26.4828ZM50.7587 24.8144H48.7783C48.7806 24.5886 48.8192 24.3969 48.8935 24.2423C49.2266 23.5474 50.1061 23.5812 50.5474 24.2532C50.6474 24.4061 50.7183 24.5947 50.7587 24.8144Z" fill="#4AA09B"/>
<path d="M24.9894 34.4276C24.136 34.9848 23.2315 34.9005 22.6686 34.5281C22.0555 34.1243 21.7232 33.3938 21.6542 32.5475C21.5437 31.1969 22.1494 30.29 23.3391 30.29C23.7816 30.29 24.1512 30.3784 24.6742 30.6887C25.1369 30.9486 25.4059 30.1701 24.9567 29.8974C24.3122 29.4854 23.7982 29.3472 23.2114 29.3472C21.7064 29.3472 20.6711 30.5786 20.8338 32.5658C20.9427 33.9 21.5339 34.8782 22.3439 35.3784C23.18 35.8948 24.336 35.9593 25.3805 35.2159C25.7945 34.9288 25.4151 34.1653 24.9894 34.4276Z" fill="#4AA09B"/>
<path d="M29.3558 32.1209C28.5241 30.543 26.4807 30.6268 25.9436 32.1343C25.5743 33.1727 25.8595 34.8069 26.8948 35.4685C27.7612 36.0252 29.103 35.867 29.558 34.6121C29.8184 33.8952 29.7473 32.864 29.3558 32.1209ZM28.6398 32.5238C28.9023 32.9727 28.9685 33.7798 28.7808 34.225C28.4944 34.9081 27.8182 34.9875 27.3224 34.7034C26.6673 34.3273 26.4576 33.151 26.7208 32.511C27.0588 31.6865 28.1336 31.657 28.6398 32.5238Z" fill="#4AA09B"/>
<path d="M31.6014 31.2099C31.4407 31.3249 31.29 31.471 31.1515 31.6463L31.1403 31.5069C31.0869 30.8606 30.2666 30.8716 30.3193 31.5252L30.6236 35.2483C30.6765 35.8891 31.4954 35.8651 31.4446 35.23L31.2347 32.6609C31.3734 32.4296 31.5275 32.2422 31.6923 32.104C32.1328 31.7375 33.0014 31.7415 33.0934 32.8703L33.2879 35.2483C33.3417 35.901 34.1594 35.8547 34.1085 35.23L33.9069 32.765C33.7804 31.2115 32.508 30.5609 31.6014 31.2099Z" fill="#4AA09B"/>
<path d="M36.7067 34.8217C36.6543 34.83 36.3414 34.9728 36.0818 34.8041C35.9948 34.7493 35.9639 34.5801 35.9531 34.448L35.7474 31.93H36.4851C36.9635 31.93 36.9152 31.0657 36.4299 31.0657H35.6767L35.6269 30.4558C35.6082 30.2379 35.3859 30.0865 35.2202 30.3061L34.3294 31.4522C34.1579 31.6233 34.2746 31.93 34.4781 31.93H34.9249L35.1378 34.5363C35.2046 35.3525 35.621 35.7663 36.3754 35.7663C36.6003 35.7663 36.8114 35.7104 37.0064 35.5984C37.3844 35.3491 37.1371 34.702 36.7067 34.8217Z" fill="#4AA09B"/>
<path d="M39.3519 30.9791H39.3155C38.9243 30.9791 38.5814 31.1982 38.2945 31.6309L38.2845 31.5068C38.2476 31.07 37.7831 30.8584 37.5544 31.172C37.4828 31.2706 37.4523 31.3893 37.4636 31.525C37.8171 35.3879 37.689 35.3462 37.9109 35.586C38.0777 35.7662 38.3381 35.7742 38.4915 35.5811C38.6902 35.3304 38.5512 35.2458 38.3753 32.6212C38.5832 32.1977 38.9256 31.9304 39.3634 31.9304H39.3997C39.9705 31.9304 39.865 30.9791 39.3519 30.9791Z" fill="#4AA09B"/>
<path d="M41.7606 30.9786C41.3233 30.9786 40.8964 31.0863 40.4918 31.2994C40.0815 31.5144 40.3135 32.2642 40.7769 32.1149C41.1768 31.9512 41.4002 31.9129 41.7046 31.9129C42.3605 31.9129 42.6277 32.2195 42.6896 32.8703H41.8935C40.9651 32.8703 40.162 33.2899 40.2513 34.3797C40.298 34.9502 40.5915 35.3865 40.9852 35.6013C41.1861 35.7102 41.4018 35.7662 41.6258 35.7662C42.1353 35.7662 42.557 35.5836 42.882 35.2227L42.8841 35.2476C42.8951 35.3809 42.9432 35.4948 43.0271 35.5854C43.2969 35.8767 43.7406 35.6742 43.705 35.2294L43.5041 32.7729C43.4187 31.7284 42.7502 30.9786 41.7606 30.9786ZM42.8062 34.2988C42.6957 34.4601 42.5537 34.5983 42.3843 34.7096H42.384C42.2077 34.8259 42.017 34.8843 41.8172 34.8843C41.4219 34.8843 41.1026 34.7425 41.0651 34.2745C41.0231 33.7633 41.5957 33.692 42.0326 33.692H42.7568L42.8062 34.2988Z" fill="#4AA09B"/>
<path d="M47.2811 34.575C46.9322 34.8008 46.7761 34.8416 46.5021 34.8416C45.6861 34.8416 45.1804 34.2334 45.11 33.3638C45.0395 32.5054 45.4331 31.9042 46.2467 31.9042C46.5051 31.9042 46.6746 31.9377 47.0726 32.172C47.5215 32.4443 47.8265 31.7255 47.3924 31.4094C46.9223 31.0739 46.5361 30.9791 46.1283 30.9791C45.0174 30.9791 44.1684 31.908 44.2891 33.382C44.4096 34.8576 45.4126 35.7668 46.5042 35.7668C46.8976 35.7668 47.2752 35.68 47.7046 35.3328C47.8188 35.239 47.872 35.1045 47.8592 34.9432C47.8503 34.8343 47.8075 34.7351 47.7323 34.6468C47.6007 34.4928 47.427 34.4758 47.2811 34.575Z" fill="#4AA09B"/>
<path d="M50.2365 34.837C50.0318 34.9118 49.8051 34.8972 49.662 34.8041C49.5747 34.7493 49.5438 34.5801 49.533 34.448L49.3273 31.93H50.0653C50.5432 31.93 50.4957 31.0657 50.0098 31.0657H49.2566L49.2067 30.4558C49.1881 30.2379 48.9658 30.0865 48.8001 30.3061L47.9093 31.4522C47.7378 31.6233 47.8545 31.93 48.058 31.93H48.5048L48.718 34.5363C48.8227 35.8163 49.9373 35.9703 50.5866 35.5984C50.8332 35.4369 50.815 35.0969 50.6452 34.9216C50.4648 34.7329 50.289 34.832 50.2365 34.837Z" fill="#4AA09B"/>
<path d="M26.6617 57.0274C26.9196 60.183 24.9797 62.7385 22.326 62.7385C19.6723 62.7385 17.3146 60.183 17.0567 57.0274C16.7986 53.8711 18.7386 51.3156 21.3922 51.3156C24.0459 51.3156 26.4036 53.8711 26.6617 57.0274Z" fill="#6EB854"/>
<path d="M23.4604 55.5944C23.1979 55.2767 22.781 55.2517 22.5317 55.5384L21.406 56.8355L21.0797 56.4392C20.8177 56.1203 20.4006 56.0953 20.1508 56.3814C19.8971 56.6723 19.9136 57.1662 20.1741 57.4825L20.9768 58.4575C21.2367 58.7722 21.6519 58.8076 21.9065 58.5148L23.485 56.6955C23.7385 56.4034 23.7211 55.9097 23.4604 55.5944Z" fill="white"/>
<path d="M63.827 50.2768L63.9172 51.3802C63.9411 51.6729 63.761 51.9102 63.5149 51.9102H37.2979C37.0518 51.9102 36.8329 51.6729 36.809 51.3802L36.7188 50.2768C36.6949 49.9841 36.875 49.7468 37.1211 49.7468H63.3381C63.5841 49.7469 63.8031 49.9841 63.827 50.2768Z" fill="#F8F7FC"/>
<path d="M64.2606 55.599L64.3508 56.7025C64.3747 56.9952 64.1946 57.2324 63.9485 57.2324H37.7315C37.4854 57.2324 37.2665 56.9952 37.2426 56.7025L37.1524 55.599C37.1285 55.3063 37.3086 55.0691 37.5547 55.0691H63.7716C64.0178 55.0691 64.2366 55.3063 64.2606 55.599Z" fill="#F8F7FC"/>
<path d="M64.6981 60.9201L64.7883 62.0235C64.8122 62.3162 64.6321 62.5535 64.386 62.5535H38.169C37.9229 62.5535 37.704 62.3162 37.6801 62.0235L37.5899 60.9201C37.566 60.6274 37.7461 60.3901 37.9922 60.3901H64.2091C64.4553 60.3901 64.6742 60.6274 64.6981 60.9201Z" fill="#F8F7FC"/>
<path d="M65.1336 66.243L65.2238 67.3464C65.2478 67.6391 65.0676 67.8764 64.8215 67.8764H38.6046C38.3585 67.8764 38.1396 67.6391 38.1157 67.3464L38.0254 66.243C38.0015 65.9503 38.1816 65.713 38.4277 65.713H64.6447C64.8908 65.713 65.1097 65.9503 65.1336 66.243Z" fill="#F8F7FC"/>
<path d="M21.4413 79.5738L21.9545 85.8517C21.9972 86.3742 21.6756 86.7977 21.2363 86.7977H15.6602C15.2209 86.7977 14.8301 86.3742 14.7874 85.8517L14.2742 79.5738C14.2315 79.0513 14.553 78.6278 14.9923 78.6278H20.5684C21.0078 78.6278 21.3985 79.0513 21.4413 79.5738Z" fill="#4A6361"/>
<path d="M22.4061 91.382L22.9193 97.66C22.962 98.1824 22.6405 98.6059 22.2011 98.6059H16.625C16.1857 98.6059 15.795 98.1824 15.7522 97.66L15.239 91.382C15.1963 90.8596 15.5179 90.436 15.9572 90.436H21.5333C21.9726 90.436 22.3633 90.8595 22.4061 91.382Z" fill="#4AA09B"/>
<path d="M17.1221 83.9778L16.3827 82.7601C16.1867 82.4374 16.2503 81.9832 16.5245 81.7456C16.7993 81.5069 17.18 81.5759 17.3754 81.8981L17.7598 82.5309L19.1076 81.2951C19.3806 81.0575 19.7622 81.1239 19.9588 81.446C20.1551 81.7677 20.0924 82.2224 19.8183 82.4609L17.9738 84.1297C17.7013 84.3673 17.3186 84.3016 17.1221 83.9778Z" fill="#F8F7FC"/>
<path d="M18.0791 95.7859L17.3397 94.5681C17.1437 94.2454 17.2073 93.7912 17.4815 93.5536C17.7563 93.3149 18.137 93.3839 18.3324 93.7061L18.7168 94.3389L20.0646 93.103C20.3377 92.8654 20.7192 92.9319 20.9159 93.254C21.1122 93.5757 21.0495 94.0304 20.7753 94.2689L18.9308 95.9377C18.6584 96.1754 18.2756 96.1096 18.0791 95.7859Z" fill="#F8F7FC"/>
<path d="M64.1167 80.4451L64.1645 81.0297C64.181 81.2315 64.0568 81.3951 63.8871 81.3951H25.6305C25.4609 81.3951 25.3099 81.2315 25.2935 81.0297L25.2457 80.4451C25.2292 80.2433 25.3533 80.0797 25.523 80.0797H63.7796C63.9493 80.0797 64.1002 80.2433 64.1167 80.4451Z" fill="#F3F1FC"/>
<path d="M37.8449 83.6387H25.814C25.6444 83.6387 25.5202 83.8022 25.5367 84.004L25.5845 84.5887C25.601 84.7905 25.7519 84.9541 25.9216 84.9541H37.9525C38.1221 84.9541 38.2463 84.7905 38.2298 84.5887L38.182 84.004C38.1655 83.8022 38.0146 83.6387 37.8449 83.6387Z" fill="#F3F1FC"/>
<path d="M42.7691 84.0043L42.8169 84.589C42.8334 84.7908 42.9843 84.9543 43.154 84.9543H61.144C61.3136 84.9543 61.4378 84.7908 61.4213 84.589L61.3735 84.0043C61.357 83.8025 61.2061 83.6389 61.0364 83.6389H43.0465C42.8768 83.6389 42.7526 83.8025 42.7691 84.0043Z" fill="#F3F1FC"/>
<path d="M65.0487 91.9042L65.0965 92.4889C65.113 92.6907 64.9888 92.8542 64.8191 92.8542H26.5626C26.3929 92.8542 26.242 92.6907 26.2255 92.4889L26.1777 91.9042C26.1612 91.7024 26.2854 91.5389 26.455 91.5389H64.7116C64.8813 91.5389 65.0322 91.7024 65.0487 91.9042Z" fill="#F3F1FC"/>
<path d="M38.7749 95.0983H26.744C26.5743 95.0983 26.4501 95.2618 26.4666 95.4636L26.5144 96.0483C26.5309 96.2501 26.6818 96.4137 26.8515 96.4137H38.8824C39.0521 96.4137 39.1763 96.2501 39.1598 96.0483L39.1119 95.4636C39.0954 95.2618 38.9445 95.0983 38.7749 95.0983Z" fill="#F3F1FC"/>
<path d="M43.701 95.4635L43.7488 96.0482C43.7653 96.25 43.9162 96.4135 44.0859 96.4135H62.0759C62.2456 96.4135 62.3697 96.25 62.3532 96.0482L62.3054 95.4635C62.2889 95.2617 62.138 95.0981 61.9684 95.0981H43.9784C43.8087 95.0981 43.6845 95.2617 43.701 95.4635Z" fill="#F3F1FC"/>
<path d="M77.2572 88.8293V91.8135C77.2572 92.4504 76.8231 92.9667 76.2875 92.9667H73.5489C73.0133 92.9667 72.5792 92.4504 72.5792 91.8135V88.8293H77.2572Z" fill="#111D33"/>
<path d="M76.1205 92.9667H73.712V104.014H76.1205V92.9667Z" fill="#4C5C75"/>
<path d="M78.5847 106.343V105.349C78.5847 104.612 78.0823 104.014 77.4625 104.014H72.3618C71.742 104.014 71.2396 104.612 71.2396 105.349V106.343H78.5847Z" fill="#4C5C75"/>
<path d="M83.4347 110.086V110.902H66.3997V110.086C66.3997 108.019 67.8091 106.343 69.5475 106.343H80.2869C82.0254 106.343 83.4347 108.019 83.4347 110.086Z" fill="#111D33"/>
<path d="M57.4981 60.9106L62.9941 87.5944C63.1433 88.3187 63.6892 88.8281 64.3162 88.8281H87.1189V87.8345C87.1189 86.3854 86.1789 85.1817 84.9637 85.0748L78.401 84.5248L72.4646 63.9923C71.5849 60.9496 69.1777 58.9067 66.4722 58.9067H58.8202C57.9373 58.9067 57.288 59.8909 57.4981 60.9106Z" fill="#4C5C75"/>
<path d="M87.6724 104.938L84.6606 105.097L85.0849 109.042L87.9925 108.6C87.6522 107.416 87.5225 106.089 87.6724 104.938Z" fill="#F6A285"/>
<path d="M93.786 109.475C93.796 109.61 93.7083 109.732 93.5955 109.749L85.2326 111.022C85.1154 111.04 85.0041 110.942 84.9886 110.797L84.6679 107.816C84.6208 107.251 85.0871 106.815 85.5386 107.008C85.5386 107.008 85.9744 107.269 86.4478 107.197C86.7679 107.148 87.0994 106.95 87.3265 106.42C87.4179 106.205 87.4524 105.802 87.8897 105.735C88.282 105.675 89.6521 106.955 90.5952 107.16C90.6945 107.188 90.7915 107.195 90.8783 107.193C91.5119 107.162 92.615 107.109 93.2721 107.935C93.5379 108.276 93.733 108.769 93.786 109.475Z" fill="#C6AEFF"/>
<path d="M93.6541 108.7C93.7202 108.925 93.7668 109.181 93.7881 109.475C93.7979 109.61 93.7117 109.732 93.5987 109.749L85.2361 111.021C85.1181 111.039 85.0101 110.94 84.995 110.799L84.9123 110.03L93.6541 108.7Z" fill="#4AA09B"/>
<path d="M85.8296 108.609C85.8726 109.008 86.18 109.291 86.5158 109.24C86.8515 109.189 87.0893 108.823 87.0463 108.424C87.0034 108.025 86.6959 107.742 86.3601 107.793C86.0244 107.844 85.7867 108.21 85.8296 108.609Z" fill="#4AA09B"/>
<path d="M88.2615 106.792C88.1859 106.739 88.1609 106.622 88.2058 106.533L88.5171 105.909C88.5626 105.82 88.6599 105.79 88.7351 105.844C88.8106 105.897 88.8356 106.013 88.7907 106.103L88.4794 106.726C88.4334 106.817 88.3343 106.844 88.2615 106.792Z" fill="#4AA09B"/>
<path d="M88.8865 107.155C88.8111 107.103 88.786 106.986 88.8309 106.896L89.142 106.273C89.187 106.184 89.2848 106.154 89.36 106.208C89.4355 106.26 89.4606 106.377 89.4157 106.467L89.1045 107.09C89.0593 107.18 88.9604 107.208 88.8865 107.155Z" fill="#4AA09B"/>
<path d="M89.4961 107.554C89.4206 107.501 89.3956 107.385 89.4404 107.295L89.7518 106.672C89.7972 106.582 89.8947 106.553 89.9698 106.606C90.0453 106.659 90.0704 106.775 90.0255 106.865L89.7141 107.488C89.6682 107.58 89.5693 107.607 89.4961 107.554Z" fill="#4AA09B"/>
<path d="M93.2769 107.935C93.0384 108.146 92.7556 108.287 92.4402 108.335C91.6557 108.454 90.9289 107.96 90.6 107.16C90.6993 107.188 90.7963 107.195 90.8831 107.193C91.5166 107.162 92.6197 107.109 93.2769 107.935Z" fill="#4AA09B"/>
<path d="M77.9657 105.148L74.9651 104.801L74.9186 108.778L77.8496 108.827C77.6526 107.598 77.6812 106.262 77.9657 105.148Z" fill="#F6A285"/>
<path d="M83.4842 110.663C83.4782 110.798 83.3769 110.904 83.2632 110.903L74.8329 110.763C74.7148 110.761 74.6162 110.646 74.6178 110.5L74.6529 107.495C74.6732 106.928 75.1864 106.574 75.6106 106.841C75.6106 106.841 76.0113 107.172 76.4884 107.18C76.8111 107.185 77.1627 107.045 77.4502 106.558C77.5662 106.36 77.6481 105.966 78.0889 105.974C78.4843 105.98 79.6896 107.476 80.599 107.837C80.6939 107.881 80.7891 107.905 80.8753 107.917C81.5062 107.992 82.6047 108.124 83.1576 109.052C83.3804 109.434 83.5152 109.955 83.4842 110.663Z" fill="#C6AEFF"/>
<path d="M83.4412 109.873C83.4801 110.106 83.496 110.367 83.4822 110.663C83.476 110.798 83.3762 110.904 83.2623 110.902L74.8324 110.763C74.7134 110.761 74.6183 110.644 74.6199 110.503L74.629 109.727L83.4412 109.873Z" fill="#4AA09B"/>
<path d="M75.7116 108.475C75.707 108.877 75.9779 109.208 76.3164 109.214C76.6548 109.219 76.9334 108.897 76.9381 108.495C76.9428 108.092 76.6719 107.761 76.3333 107.755C75.9949 107.75 75.7163 108.072 75.7116 108.475Z" fill="#4AA09B"/>
<path d="M78.3255 107.081C78.257 107.016 78.246 106.897 78.301 106.816L78.683 106.251C78.8167 106.056 79.0623 106.294 78.9309 106.488L78.549 107.053C78.4927 107.136 78.3914 107.146 78.3255 107.081Z" fill="#4AA09B"/>
<path d="M78.9035 107.546C78.835 107.481 78.824 107.361 78.8791 107.28L79.2608 106.715C79.3937 106.52 79.6402 106.758 79.5088 106.953L79.1271 107.517C79.0716 107.599 78.9703 107.611 78.9035 107.546Z" fill="#4AA09B"/>
<path d="M79.4621 108.043C79.3936 107.978 79.3826 107.858 79.4376 107.777L79.8196 107.212C79.9533 107.017 80.1989 107.255 80.0676 107.449L79.6857 108.014C79.6294 108.097 79.5283 108.107 79.4621 108.043Z" fill="#4AA09B"/>
<path d="M83.1569 109.052C82.8959 109.221 82.5992 109.313 82.2812 109.308C81.4904 109.295 80.8293 108.684 80.5983 107.837C80.6932 107.881 80.7884 107.905 80.8746 107.917C81.5056 107.992 82.604 108.124 83.1569 109.052Z" fill="#4AA09B"/>
<path d="M70.0208 87.5572H82.494L84.1014 105.146C84.1014 105.446 84.9447 105.609 85.8384 105.626C86.8475 105.652 87.9251 105.489 87.9251 105.146C87.9251 105.146 90.6641 86.3186 87.0494 81.1455C84.9195 78.1025 71.8084 76.4782 71.8084 76.4782L71.484 78.4925L70.0208 87.5572Z" fill="#4A6361"/>
<path d="M70.0208 87.5571H82.494L84.1013 105.146C84.1013 105.446 84.9447 105.609 85.8384 105.626C85.8529 105.116 85.8168 104.606 85.7808 104.096C84.4941 86.0702 84.6323 86.1724 83.986 84.797C82.7331 82.1409 79.6651 81.8456 77.7476 81.364C75.9961 80.9268 74.2951 80.2197 72.695 79.2683C72.2841 79.0239 71.8805 78.7668 71.484 78.4925L70.0208 87.5571Z" fill="#002220"/>
<path d="M65.1756 86.2971C66.4586 88.2386 73.5007 87.6001 73.5007 87.6001L74.3764 105.266C74.362 105.558 75.1224 105.764 75.9658 105.845C77.0073 105.952 78.1822 105.862 78.1966 105.506C78.1966 105.506 82.4744 86.2715 79.094 80.8799C77.386 78.1522 67.4007 77.9308 65.0891 77.6954C65.0891 77.6954 63.68 84.0342 65.1756 86.2971Z" fill="#4A6361"/>
<path d="M65.1756 86.2972C66.4586 88.2387 73.5007 87.6001 73.5007 87.6001L74.3764 105.266C74.362 105.558 75.1224 105.764 75.9658 105.845C75.9982 104.881 75.7351 103.852 75.5261 102.892C74.1889 96.7266 75.6479 92.836 75.8036 90.2188C75.8792 88.8902 75.7063 87.4844 75.0468 86.4086C73.0526 83.1845 68.4483 84.6563 66.5055 81.3899C65.6443 79.9489 66.2697 78.5349 66.1451 77.7726C65.7018 77.7426 65.3414 77.7211 65.0891 77.6954C65.0891 77.6954 63.68 84.0342 65.1756 86.2972Z" fill="#002220"/>
<path d="M91.5189 54.0619C91.5189 54.0619 88.0847 61.7908 85.9514 62.4053C85.059 62.6627 82.0724 61.3582 82.0724 61.3582L83.2802 56.8133L85.1431 57.3172L85.2212 57.3384L89.8844 51.5464C89.925 51.6088 91.6245 54.2245 91.5189 54.0619Z" fill="#F7A386"/>
<path d="M91.5189 54.0619C91.5189 54.0619 88.0847 61.7908 85.9514 62.4053C85.059 62.6627 82.0724 61.3582 82.0724 61.3582L83.2802 56.8133L85.1431 57.3172C85.089 57.5457 85.0259 57.7782 84.9959 58.0032C84.9208 58.5321 85.0169 59.0752 85.1131 59.6004C85.1761 59.9469 85.2392 60.2972 85.3805 60.608C85.5216 60.9189 85.756 61.1905 86.0445 61.2655C86.4441 61.3726 86.8587 61.0869 87.1051 60.6974C87.3515 60.3079 87.4717 59.829 87.6129 59.3718C88.3039 57.0885 89.605 55.0803 91.2815 53.6974L91.5189 54.0619Z" fill="url(#paint0_linear_203_4788)"/>
<path d="M91.5196 54.0618C91.5815 53.7942 92.1714 53.0709 92.3935 52.9808C92.7872 52.8235 93.0374 52.6698 93.2624 52.4992H93.2652C93.4957 52.3186 93.6953 52.1248 93.9905 51.8907C94.654 51.3725 94.1339 50.8541 94.1339 50.8541C94.8789 50.1754 94.0524 49.8545 94.0524 49.8545C94.8846 49.1591 93.9259 48.7779 93.9259 48.7779C95.7028 48.1493 96.3129 47.7715 96.043 47.4171C95.7112 46.989 93.372 47.6979 92.0366 48.5104C90.7039 49.3195 89.8845 51.5629 89.8845 51.5629L91.5196 54.0618Z" fill="#F7A386"/>
<path d="M92.8658 50.1922C92.663 50.2258 92.6066 50.0979 92.6544 49.8705C92.7437 49.5274 93.035 49.3879 93.2502 49.21C93.4881 49.0564 93.7067 48.8445 93.9763 48.7629C93.9777 48.7625 93.9791 48.7635 93.9795 48.7651C93.9798 48.7667 93.979 48.7683 93.9778 48.7689C93.7231 48.8831 93.509 49.0913 93.2781 49.2628C93.0565 49.4381 92.776 49.5746 92.6946 49.8843C92.6361 50.1317 92.73 50.1686 92.8623 50.1519C93.236 50.1114 93.6495 50.0147 94.0576 49.8514C94.0589 49.8509 94.0604 49.8517 94.0609 49.8534C93.9981 49.8761 93.5434 50.1032 92.8658 50.1922Z" fill="#E27659"/>
<path d="M92.9657 51.2567C92.8121 51.3047 92.7133 51.1729 92.7774 50.9151C92.8751 50.5806 93.161 50.4448 93.375 50.2678C93.6107 50.1154 93.8276 49.9058 94.0947 49.8252C94.0961 49.8248 94.0975 49.8257 94.0979 49.8274C94.0982 49.829 94.0974 49.8306 94.0962 49.8311C93.8437 49.9441 93.6315 50.1502 93.4027 50.3203C93.1833 50.4953 92.9063 50.6282 92.8174 50.9306C92.7678 51.07 92.804 51.2797 92.9622 51.216C93.0958 51.2012 93.2284 51.1735 93.3593 51.1362C93.6252 51.0624 94.1886 50.8332 94.1359 50.8546C93.9516 50.923 93.4775 51.1876 92.9657 51.2567Z" fill="#E27659"/>
<path d="M93.049 51.9971C93.002 51.8723 93.0374 51.6475 93.2618 51.4667C93.461 51.2739 93.6231 51.1818 93.8327 51.029C93.9269 50.9581 94.0253 50.8809 94.1376 50.8521C94.139 50.8517 94.1404 50.8528 94.1407 50.8544C94.141 50.8559 94.1402 50.8574 94.1391 50.858C93.935 50.9647 93.7627 51.149 93.5696 51.2867C93.4713 51.3547 93.3785 51.4285 93.2922 51.5095C93.0879 51.6676 93.0446 51.872 93.0834 51.9777C93.1165 52.0852 93.4925 52.005 94.1892 51.7029C93.9949 51.7961 93.1275 52.2281 93.049 51.9971Z" fill="#E27659"/>
<path d="M91.5316 51.3328C92.5551 50.4986 91.8744 49.6817 91.8744 49.6817C92.5509 49.3336 93.4246 49.0339 93.2688 48.454C93.0793 47.7482 91.2552 48.7384 90.6116 49.44C90.2232 49.8634 89.9877 50.4719 89.8841 51.5614" fill="#F7A386"/>
<path d="M91.5317 51.3327C92.2125 50.7429 92.2079 50.1271 91.8673 49.6901C91.8633 49.6853 91.8634 49.6776 91.8674 49.6728C91.9199 49.6473 92.5034 49.3564 92.6562 49.2713C92.8969 49.1244 93.2006 48.9638 93.2618 48.6388C93.2798 48.4786 93.2041 48.3161 93.0723 48.2744C92.7664 48.15 92.1501 48.4213 91.8538 48.571C90.4556 49.3273 90.0622 49.8915 89.8842 51.5613C90.0466 49.8783 90.4376 49.3078 91.8369 48.5249C92.1618 48.3559 92.7529 48.0834 93.0875 48.2219C93.2375 48.2705 93.328 48.4693 93.3027 48.646C93.197 49.1447 92.5901 49.3348 91.8785 49.6926L91.8817 49.6731C92.2256 50.1246 92.2217 50.7502 91.5317 51.3327Z" fill="#E27659"/>
<path d="M83.7771 62.584L81.4335 61.8658L77.6777 60.7151L76.5239 52.0574L76.5299 52.061L77.242 52.4505L84.6875 56.506C85.1562 56.992 84.1617 62.6662 83.7771 62.584Z" fill="#4AA09B"/>
<path d="M81.4315 61.8657L77.6757 60.715L76.5279 52.0609L77.24 52.4504C77.886 52.8792 78.7153 53.4759 78.8625 53.6331C80.3288 55.2088 81.071 58.2783 81.4315 61.8657Z" fill="#4A6361"/>
<path d="M63.4759 58.9097C63.4759 61.57 64.5259 63.2113 65.4036 66.9053C65.4036 67.0126 65.7868 68.333 65.8822 70.6004C65.9355 71.5531 65.9282 71.7204 65.498 73.5862C64.9419 75.9989 64.1466 79.161 65.3666 78.8204C72.7133 76.7564 77.5528 81.5457 80.6195 77.9066C80.6667 77.8505 80.7004 77.7824 80.7206 77.7022C80.7779 77.4818 80.7476 77.1772 80.66 76.8245C80.3769 75.6462 79.5108 73.9469 79.504 73.1654C79.4636 62.4366 81.1014 57.6232 78.8401 54.1164C77.9167 52.6977 76.4575 51.8641 74.0984 50.9503C74.058 50.9302 74.0142 50.9222 73.9704 50.9022C73.2458 50.6176 72.5853 50.4252 72.0966 50.4052C70.5799 50.3289 68.4457 51.4549 67.1595 52.4492C65.1744 53.9721 63.4759 56.2325 63.4759 58.9097Z" fill="#4AA09B"/>
<path d="M63.6048 60.481C63.9046 62.3778 64.6803 63.8721 65.4011 66.9055C65.4011 66.9274 65.9032 69.0638 65.9032 71.2859C65.9133 71.7308 65.7246 72.5925 65.4955 73.5864C66.7022 74.1263 67.8293 73.4323 68.1376 72.376C68.296 71.823 68.2353 71.2098 68.3971 70.6607C68.7307 69.5465 69.8698 69.0416 70.2944 67.9755C70.7056 66.9415 70.3315 65.7191 69.89 64.7012C69.5227 63.8555 68.9228 62.8134 69.1048 61.8235C69.2699 60.9298 69.1149 60.6452 68.387 60.1563C67.6287 59.6433 66.8266 59.1143 65.9538 59.1062C65.054 59.0983 64.1946 59.6713 63.6048 60.481Z" fill="#4A6361"/>
<path d="M65.3677 78.8209C72.7144 76.7569 77.5539 81.5462 80.6207 77.9071C80.6679 77.851 80.7016 77.7829 80.7218 77.7027C80.6914 77.6586 80.6611 77.6186 80.6274 77.5785C80.0882 76.9333 79.3131 76.6406 78.5514 76.5645C77.7898 76.4924 77.0248 76.6166 76.2632 76.6967C73.5907 76.9652 70.8778 76.6487 68.3031 75.7589C68.1177 75.6948 67.9155 75.6147 67.811 75.4223C67.6493 75.1417 67.7807 74.7329 68.0099 74.5285C68.3478 74.233 68.0492 74.3518 76.4957 73.0416C76.9338 72.9734 77.4663 72.8092 77.5607 72.2961C77.6281 71.9354 77.4124 71.5667 77.1394 71.3944C76.7929 71.1756 77.0907 71.2193 69.8668 70.7291C68.9232 70.6609 67.8549 70.7492 66.9348 70.4846C66.5338 70.3724 66.2136 70.1039 65.8463 69.9436C65.8463 70.0061 65.907 70.8223 65.907 71.2862C65.9372 72.8092 63.6456 79.3018 65.3677 78.8209Z" fill="#4A6361"/>
<path d="M64.9793 65.2649H65.256C64.5923 63.143 63.9146 61.5171 63.9146 59.4291C63.9146 56.7561 65.612 54.4906 67.5949 52.9689C68.8978 51.9624 71.0046 50.8558 72.534 50.9226C73.0194 50.9441 73.6812 51.1385 74.4079 51.4194C75.4675 51.8935 77.363 52.4922 78.6489 53.8486C77.7249 52.5893 76.3026 51.8053 74.099 50.9503C74.0549 50.9349 74.0135 50.9194 73.9719 50.9009C73.2451 50.62 72.5833 50.4255 72.098 50.4039C70.5538 50.3369 68.4563 51.4513 67.1562 52.4472C65.1733 53.972 63.4759 56.2376 63.4759 58.9075C63.476 61.221 64.3339 63.0499 64.9793 65.2649Z" fill="#4A6361"/>
<path d="M74.0982 50.9508C74.0591 51.2832 73.9299 51.5868 73.7195 51.8407C72.6894 53.0654 69.8661 52.8195 69.6302 50.9866C70.2632 50.6856 71.3175 50.3693 72.097 50.4042C72.5838 50.4256 73.2448 50.6186 73.9719 50.9009C74.014 50.9187 74.0561 50.9331 74.0982 50.9508Z" fill="white"/>
<path d="M73.5142 50.7306V46.9218H70.2162V50.7537C70.2237 52.2723 73.5218 52.2492 73.5142 50.7306Z" fill="url(#paint1_linear_203_4788)"/>
<path d="M73.1097 49.4395C74.9084 49.6549 76.2512 48.8246 76.3818 44.9771C76.5126 41.1258 74.9174 40.5161 73.1097 40.5161C69.2225 40.5161 68.2899 48.8622 73.1097 49.4395Z" fill="url(#paint2_linear_203_4788)"/>
<path d="M68.4793 44.9255C67.9255 43.5439 67.1849 41.4284 67.4458 39.9342C67.5723 39.2109 67.935 38.629 68.4156 38.378C68.6838 38.2378 68.998 38.1905 69.3497 38.2389C70.005 38.3282 70.6269 38.8275 71.0698 39.5431C71.1199 39.6237 71.0174 39.7143 70.9671 39.6332C70.5507 38.9613 69.9464 38.4732 69.3353 38.3896C69.0063 38.3454 68.7144 38.3878 68.467 38.5168C68.024 38.7485 67.6889 39.2899 67.571 39.965C67.3172 41.4152 68.0558 43.5155 68.5944 44.8603C68.6096 44.8982 68.5962 44.9434 68.5643 44.9614C68.5332 44.9792 68.4947 44.964 68.4793 44.9255Z" fill="#111D33"/>
<path d="M69.3345 46.7948C69.6184 47.1729 70.2431 47.254 70.2431 47.254C70.2848 46.2803 70.2619 44.3255 70.7655 44.033C71.1686 43.8101 71.2424 44.823 71.4242 45.5118C71.691 45.5454 71.2084 41.6019 73.1163 42.453C73.9282 42.8173 74.5415 42.9796 74.9958 43.0471C75.7463 43.3599 76.5577 43.4453 77.1876 43.3643C77.9129 43.2946 78.3167 42.9715 78.4709 42.0408C78.5958 41.2778 78.5163 40.4743 78.2494 39.7654C77.869 38.435 76.5857 37.2463 74.6835 37.4625C74.0134 37.5367 73.457 37.7462 72.997 38.0096C71.7421 38.7255 71.2424 39.8596 71.2424 39.8596C71.2424 39.8596 71.2424 39.8596 71.2367 39.8531C71.2084 39.7653 70.5383 37.9826 69.0847 38.7656C66.9496 39.9207 68.1648 45.2348 69.3345 46.7948ZM75.5692 43.0877C75.8702 43.0742 76.0065 43.0132 76.0065 43.0132C77.5623 42.8311 78.2892 41.8518 78.3629 40.7648C78.4444 41.4214 78.4016 42.4657 77.9768 42.8919C77.5047 43.3958 76.2034 43.2579 75.5692 43.0877Z" fill="#111D33"/>
<path d="M74.1033 45.0413C74.383 45.0413 74.3839 44.5375 74.1033 44.5375C73.8224 44.5375 73.8236 45.0413 74.1033 45.0413Z" fill="#111D33"/>
<path d="M74.1654 44.892C74.2694 44.892 74.2697 44.705 74.1654 44.705C74.122 44.705 74.0617 44.892 74.1654 44.892Z" fill="white"/>
<path d="M74.5241 44.6567C74.1561 44.4613 73.9127 44.5845 73.5841 44.8121L73.5788 44.8056C73.7854 44.4324 74.2208 44.4253 74.528 44.6489L74.5241 44.6567Z" fill="#111D33"/>
<path d="M75.8078 45.0414C76.0878 45.0414 76.0884 44.5376 75.8078 44.5376C75.6906 44.5376 75.5279 45.0414 75.8078 45.0414Z" fill="#111D33"/>
<path d="M75.8939 44.8928C75.9977 44.8928 75.9982 44.7057 75.8939 44.7057C75.8504 44.7057 75.7901 44.8928 75.8939 44.8928Z" fill="white"/>
<path d="M76.2819 44.6565C75.9139 44.4612 75.6705 44.5843 75.3418 44.8119L75.3365 44.8054C75.5429 44.4327 75.978 44.4246 76.2858 44.6487L76.2819 44.6565Z" fill="#111D33"/>
<path d="M74.5366 43.844C74.4509 43.7876 74.3241 43.7699 74.2283 43.7537C74.0111 43.717 73.7918 43.7559 73.5766 43.8071C73.1677 43.9041 73.0774 44.1698 73.1053 44.1963C73.1729 44.2606 73.411 44.1145 73.4962 44.1103C73.8497 44.0929 74.336 44.1949 74.503 44.0562C74.566 44.0039 74.6126 43.8939 74.5366 43.844Z" fill="#111D33"/>
<path d="M75.3042 43.8574C75.3815 43.8065 75.496 43.7906 75.5824 43.7759C75.7784 43.7428 75.9764 43.7779 76.1708 43.824C76.5398 43.9117 76.6213 44.1514 76.5961 44.1755C76.5351 44.2335 76.3203 44.1017 76.2433 44.0978C75.9287 44.0822 75.4856 44.1743 75.3345 44.049C75.2776 44.0018 75.2356 43.9025 75.3042 43.8574Z" fill="#111D33"/>
<path d="M75.4225 46.0354C75.4225 46.269 75.2646 46.4567 75.0682 46.4567C74.8718 46.4567 74.7139 46.269 74.7139 46.0354C74.7139 45.804 74.8718 46.1748 75.0682 46.1748C75.2646 46.1748 75.4225 45.804 75.4225 46.0354Z" fill="#E27659"/>
<path d="M74.1417 47.1313C74.1417 47.1313 74.8725 47.7945 75.5972 47.2556C75.5972 47.2556 75.3852 48.2498 74.8694 48.0386C74.3536 47.8272 74.1417 47.1313 74.1417 47.1313Z" fill="#E27659"/>
<path d="M80.082 70.9492C80.1149 71.0702 80.7358 71.2453 80.691 71.498C80.6469 71.7469 80.0429 71.823 79.6524 71.6331C79.6852 71.7541 80.3859 71.8519 80.3215 72.1066C80.2209 72.504 78.9717 72.5026 78.6524 72.5355C78.3048 72.5801 77.7501 72.4977 76.9446 71.982C76.9446 71.982 66.7333 72.9158 64.1929 70.6275C62.2589 68.8806 63.3781 63.9614 63.3781 63.9614L69.0963 62.0829C69.0894 62.1455 68.5635 66.9014 68.597 66.5984L77.3596 68.9587C77.9418 68.5038 79.5846 67.1916 79.8895 67.8052C80.1119 68.2528 78.8085 69.0477 79.5588 69.144C79.5588 69.144 81.4633 69.6257 81.2486 70.21C81.151 70.4756 80.3215 70.3682 80.1534 70.281C80.1846 70.405 81.1082 70.4956 80.9894 70.8401C80.8619 71.2099 80.25 71.0363 80.082 70.9492Z" fill="#F7A386"/>
<path d="M78.6524 72.5355C78.3048 72.5801 77.7501 72.4977 76.9446 71.982C76.9446 71.982 66.7333 72.9158 64.1929 70.6275C62.2589 68.8806 63.3781 63.9614 63.3781 63.9614L69.0963 62.0829L68.7647 65.087C68.144 65.6841 67.3543 66.0296 66.5576 66.0291C65.9376 66.0238 65.2566 65.8447 64.745 66.2621C64.0879 66.7956 64.1589 68.0585 64.6878 68.7622C65.7711 70.2135 68.9952 70.4904 77.2627 71.6121C77.5792 71.6545 77.9048 71.7 78.1833 71.8798C78.4027 72.0168 78.5877 72.2596 78.6524 72.5355Z" fill="url(#paint3_linear_203_4788)"/>
<path d="M68.69 56.9186L64.2667 55.7971C63.757 56.7699 62.5681 59.1718 62.9096 65.0933C63.0223 67.0461 67.809 65.6025 69.1276 64.3034C70.1267 63.319 70.2913 59.2713 68.69 56.9186Z" fill="#4AA09B"/>
<path d="M62.9096 65.0949C62.9437 65.689 63.4093 65.9726 64.085 66.0336C63.7784 65.8783 63.5854 65.635 63.5626 65.2571C63.222 59.3349 64.4087 56.9309 64.9198 55.9586L64.2668 55.7963C63.7557 56.7687 62.569 59.1726 62.9096 65.0949Z" fill="#4A6361"/>
<path d="M109.566 72.4557H51.9525V77.388H109.566V72.4557Z" fill="#BE7D5A"/>
<path d="M73.3068 72.4557H51.9525V77.388H73.3068V72.4557Z" fill="#A96256"/>
<path d="M57.4163 77.3882H53.9896V111.024H57.4163V77.3882Z" fill="#BE7D5A"/>
<path d="M57.4183 77.3881H55.974V111.024H57.4183V77.3881Z" fill="#A96256"/>
<path d="M68.7561 77.3882H65.3294V111.024H68.7561V77.3882Z" fill="#BE7D5A"/>
<path d="M68.7542 77.3881H67.3099V111.024H68.7542V77.3881Z" fill="#A96256"/>
<path d="M95.7472 77.3883H92.3205V111.024H95.7472V77.3883Z" fill="#BE7D5A"/>
<path d="M95.7472 77.3884H94.3029V111.024H95.7472V77.3884Z" fill="#A96256"/>
<path d="M107.082 77.3883H103.656V111.024H107.082V77.3883Z" fill="#BE7D5A"/>
<path d="M107.085 77.3883H105.64V111.024H107.085V77.3883Z" fill="#A96256"/>
<path d="M98.1855 71.2333L102.249 60.9878C102.483 60.3981 102.121 59.7194 101.573 59.7194H86.919C86.4421 59.7194 86.0081 60.0467 85.8046 60.5596L81.0862 72.4556H96.5642C97.258 72.4556 97.8895 71.9795 98.1855 71.2333Z" fill="white"/>
<path d="M86.9174 59.7187C86.4408 59.7187 86.0065 60.0453 85.8025 60.5593L81.0847 72.4555H73.305V72.1625C73.305 71.3314 73.8725 70.6541 74.5733 70.6541H80.9251L84.9281 60.5593C85.1321 60.0453 85.5663 59.7187 86.0429 59.7187H86.9174Z" fill="#CCE8E5"/>
<path d="M93.5548 66.4202C93.3445 67.1963 92.6137 67.827 91.9219 67.827C91.2302 67.827 90.8412 67.1963 91.0515 66.4202C91.2622 65.6426 91.9929 65.0119 92.6847 65.0119C93.3765 65.0119 93.7655 65.6426 93.5548 66.4202Z" fill="#F3F1FC"/>
<path d="M93.0005 66.4201C92.883 66.8536 92.4749 67.2058 92.0886 67.2058C91.7022 67.2058 91.485 66.8536 91.6025 66.4201C91.7202 65.9858 92.1282 65.6336 92.5146 65.6336C92.9009 65.6336 93.1181 65.9859 93.0005 66.4201Z" fill="#D0CEF2"/>
<path d="M108.672 108.177C109.321 106.684 111.238 107.103 112.904 107.103C113.785 107.103 114.032 106.376 114.071 105.691L117.246 105.556C117.791 106.608 118.065 108.687 118.057 109.986C118.053 110.616 117.62 111.121 117.09 111.121H109.617C109.254 111.121 108.924 110.879 108.757 110.495C108.511 109.933 108.287 109.062 108.672 108.177Z" fill="#BF7D5A"/>
<path d="M120.376 108.177C121.026 106.685 122.943 107.103 124.609 107.103C125.49 107.103 125.737 106.377 125.776 105.692L128.951 105.556C129.496 106.608 129.769 108.687 129.762 109.986C129.758 110.617 129.325 111.122 128.795 111.122H121.322C120.959 111.122 120.629 110.879 120.462 110.496C120.215 109.933 119.991 109.062 120.376 108.177Z" fill="#BF7D5A"/>
<path d="M108.494 109.571C108.542 109.923 108.645 110.242 108.756 110.495C108.923 110.879 109.253 111.121 109.616 111.121L117.089 111.121C117.619 111.121 118.052 110.616 118.056 109.986C118.056 109.856 118.052 109.714 118.047 109.571H108.494Z" fill="#8A4852"/>
<path d="M120.2 109.571C120.248 109.923 120.351 110.242 120.462 110.495C120.63 110.878 120.96 111.121 121.323 111.121L128.796 111.121C129.326 111.121 129.758 110.616 129.762 109.986C129.763 109.856 129.759 109.714 129.754 109.571H120.2Z" fill="#8A4852"/>
<path d="M113.473 105.464C113.568 105.788 113.831 106.004 114.118 106.004H117.248C117.544 106.004 117.797 105.776 117.898 105.452C119.207 101.162 117.105 93.9164 117.654 86.0631V86.0573C117.759 84.489 117.979 82.8976 118.347 81.3008C119.494 76.3456 119.933 72.0664 120.039 68.6513C120.139 65.2985 119.914 62.7696 119.709 61.2296C119.551 60.0931 119.408 59.4907 119.408 59.4907L111.829 58.1097C111.829 58.1097 111.695 59.2462 111.509 61.1728C111.136 65.0143 110.558 71.9812 110.415 79.3005C110.2 89.9613 111.404 98.5365 113.473 105.464Z" fill="#4C5C75"/>
<path d="M117.656 86.0573C117.761 84.489 117.981 82.8977 118.349 81.3008C119.496 76.3457 119.935 72.0665 120.04 68.6513L119.003 69.3785C119.003 69.3785 117.015 82.3352 117.656 86.0573Z" fill="#111D33"/>
<path d="M119.45 79.9771C120.411 90.9164 121.725 100.412 125.18 105.538C125.835 106.484 129.019 106.709 129.217 105.538C130.355 98.9914 126.537 91.0867 127.535 80.7555C128.787 67.7705 126.274 58.6953 126.274 58.6953H119.125C119.125 58.6953 119.111 58.9453 119.087 59.4171C118.968 61.9401 118.638 70.7483 119.45 79.9771Z" fill="#4C5C75"/>
<path d="M119.087 59.4171C120.36 60.6313 122.077 60.9269 123.349 62.1332C124.773 63.4801 125.38 65.7587 125.423 67.9239C125.471 70.0949 125.041 72.2314 124.773 74.3797C124.133 79.4941 123.856 85.2961 125.505 90.0809C127.23 95.0815 127.722 101.122 125.858 106.027C127.015 106.515 129.06 106.47 129.217 105.538C130.355 98.9914 126.537 91.0867 127.535 80.7555C128.787 67.7705 126.274 58.6953 126.274 58.6953H119.125C119.125 58.6953 119.111 58.9453 119.087 59.4171Z" fill="#111D33"/>
<path d="M99.3389 29.3342C99.3389 29.3342 98.231 29.6556 99.1116 30.5303C99.1116 30.5303 98.1571 30.7989 98.941 31.645C98.941 31.645 98.3154 32.1696 99.0203 32.8262C99.3336 33.1223 99.5428 33.3625 99.7877 33.5912L99.7908 33.5915C100.03 33.8084 100.299 34.0092 100.729 34.23C100.972 34.3561 101.148 34.6083 101.197 34.916C101.536 37.1033 102.983 45.7741 104.774 46.9589C106.827 48.3173 110.719 44.1964 110.719 44.1964C110.681 44.1339 107.931 39.6542 108.106 39.9399L106.631 41.5042C106.717 40.555 105.596 38.7141 104.838 37.8173C104.079 36.9206 103.688 32.9304 103.688 32.9304C103.688 32.9304 100.48 28.0574 99.0461 26.999C98.4076 26.7164 98.1203 27.3317 99.3389 29.3342Z" fill="#F7A386"/>
<path d="M99.7871 33.5921C100.026 33.809 100.296 34.0098 100.726 34.2306C100.968 34.3567 101.145 34.6089 101.193 34.9166C101.533 37.1039 102.979 45.7747 104.771 46.9595C106.824 48.3179 110.716 44.197 110.716 44.197L108.571 40.7061C107.432 41.1367 106.953 42.2669 107.131 43.1215C107.266 43.748 107.728 44.3238 107.576 44.9446C107.424 45.5655 106.769 45.75 106.228 45.8288C105.708 45.902 105.07 45.9142 104.792 45.3871C104.48 44.7998 104.876 44.0595 104.95 43.3665C105.149 41.5867 103.439 40.5774 102.972 38.9992C102.599 37.7433 103.026 36.2794 102.58 35.0581C102.343 34.4062 101.857 33.8887 101.287 33.6731C100.785 33.4831 100.287 33.6381 99.7871 33.5921Z" fill="url(#paint4_linear_203_4788)"/>
<path d="M110.653 44.4947C110.747 44.4911 110.853 44.4406 110.968 44.3539C111.539 43.9313 111.749 43.3825 111.803 43.2885C111.767 43.6027 110.701 53.0855 111.284 57.4984C111.366 58.134 111.488 58.6649 111.646 59.0477C113.37 63.1536 127.43 61.8282 127.256 59.4666C126.913 54.801 126.2 45.7767 126.2 45.7767L128.152 45.7225V45.04H129.999C129.918 43.7114 129.444 36.5643 128.729 35.539C127.558 33.4975 124.512 31.4582 122.768 31.0251C122.759 31.0215 122.75 31.0178 122.741 31.0178C122.009 30.6734 117.762 30.9235 116.334 31.1984C116.316 31.202 116.301 31.2056 116.282 31.2092C115.942 31.2707 115.587 31.3501 115.226 31.4404C113.665 31.8448 111.986 32.5129 110.883 33.4049C108.896 35.0199 107.371 37.6472 106.708 40.1468C106.313 41.6753 109.313 44.5178 110.653 44.4947Z" fill="#4AA09B"/>
<path d="M110.654 44.4956C110.746 44.4917 110.853 44.4427 110.967 44.356C110.221 42.8061 108.412 42.6723 107.431 41.3877C107.184 41.0671 106.997 40.6711 106.93 40.2447C106.902 40.0638 106.943 39.7469 106.892 39.5245C106.822 39.7357 106.762 39.9431 106.708 40.1468C106.301 41.6572 109.305 44.5197 110.654 44.4956Z" fill="#4A6361"/>
<path d="M111.282 57.4947C111.364 58.1321 111.485 58.6638 111.643 59.0448C113.369 63.1522 127.428 61.8246 127.254 59.4634C126.911 54.7978 126.198 45.7761 126.198 45.7761L128.151 45.7195V45.0368H129.997C129.912 43.6414 129.674 40.1904 129.299 37.8029C128.352 37.2976 127.13 37.1356 126.213 37.7274C125.211 38.3762 125.053 39.9339 124.663 41.0917C124.181 42.5175 124.089 44.0938 124.161 45.614C124.349 49.3997 125.466 52.7092 124.031 57.9472C123.773 58.9175 123.436 59.4144 121.903 59.2485C120.21 59.0635 117.895 60.2631 116.819 58.694C116.188 57.77 118.059 55.6767 117.162 55.1335C116.693 54.8507 116.499 56.103 116.198 56.6159C115.9 57.1327 115.557 57.638 115.094 57.9359C114.631 58.234 114.016 58.2717 113.603 57.883C113.191 57.4947 113.93 56.7063 113.559 56.2651C113.359 56.0276 112.091 56.7857 111.282 57.4947Z" fill="#4A6361"/>
<path d="M106.743 40.2704C107.593 37.8227 108.875 35.8825 110.616 34.472C111.717 33.5816 113.398 32.914 114.958 32.5106C115.32 32.4202 115.675 32.3408 116.014 32.2767C117.416 32.0084 121.159 31.7617 122.434 32.073C122.636 32.1087 123.167 32.3099 123.423 32.4202C125.174 33.1857 127.473 34.883 128.463 36.6065C129.14 37.7914 129.549 43.5212 129.665 45.0402H129.998C129.895 43.3705 129.473 37.0697 128.77 35.6146C128.754 35.5845 128.742 35.5617 128.729 35.5391C127.592 33.5581 124.621 31.5121 122.782 31.0282C122.776 31.0282 122.773 31.0245 122.767 31.0245C121.695 30.6627 117.581 30.9562 116.281 31.2093C115.941 31.2736 115.586 31.3527 115.225 31.4432C113.664 31.8466 111.983 32.5144 110.883 33.4045C108.958 34.9659 107.4 37.4233 106.778 39.9724C106.755 40.0675 106.743 40.1649 106.743 40.2704Z" fill="#4A6361"/>
<path d="M116.335 31.1984L117.408 36.6717C117.436 36.8127 117.582 36.8647 117.67 36.7647L122.742 31.0178C122.01 30.6734 117.762 30.9235 116.335 31.1984Z" fill="#4A6361"/>
<path d="M114.497 35.0793C113.97 37.2428 112.691 41.3284 111.772 43.2979C114.199 39.4248 114.497 35.0793 114.497 35.0793Z" fill="#4A6361"/>
<path d="M116.231 31.4924C116.473 31.5912 118.543 33.8481 121.67 31.9601C122.157 31.6668 122.461 31.4077 122.834 31.1342L122.78 31.0285C122.774 31.0285 122.771 31.0247 122.764 31.0247C121.693 30.6629 117.579 30.9564 116.279 31.2095L116.231 31.4924Z" fill="#4A6361"/>
<path d="M121.967 30.8921C121.13 29.265 121.694 25.0736 121.694 25.0736L117.071 27.3692C117.219 29.5025 116.938 31.133 116.938 31.133L117.773 35.3888C117.792 35.4812 117.887 35.5152 117.945 35.4497L121.967 30.8921Z" fill="url(#paint5_linear_203_4788)"/>
<path d="M115.888 20.403C115.888 20.403 114.25 25.9476 116.137 28.1602C117.172 29.3734 118.941 29.6359 121.098 27.0264C123.132 24.5655 122.289 21.005 122.289 21.005L117.874 19.0636C117.006 18.6819 116.058 19.3212 115.888 20.403Z" fill="url(#paint6_linear_203_4788)"/>
<path d="M115.398 19.726C115.494 20.576 115.676 21.2419 115.676 21.2419L116.16 20.0526C118.498 22.725 121.159 21.4209 121.27 21.3652C121.232 21.4487 120.656 22.629 121.264 23.1326C121.832 23.6005 120.699 25.7197 121.004 25.8526C121.27 25.9694 121.576 24.1141 122.502 24.1166L122.476 25.4394C123.489 24.9013 124.243 22.5614 124.103 21.4501C123.937 20.1009 122.795 20.3111 122.795 20.3111L122.797 20.2926C123.6 17.4717 122.455 15.7529 119.044 15.3274C117.282 15.1074 115.048 16.6151 115.398 19.726Z" fill="#BF7D5A"/>
<path opacity="0.4" d="M115.395 18.5344C115.796 16.4745 117.551 15.5055 118.99 15.6857C121.972 16.0546 123.222 17.4198 122.95 19.6373C123.401 17.2026 122.182 15.7193 119.047 15.3273C117.525 15.1397 115.655 16.2301 115.395 18.5344Z" fill="white"/>
<path d="M115.672 21.2343L115.672 21.2378C115.674 21.2423 115.674 21.2423 115.674 21.2423L116.073 20.2642C116.074 20.2605 116.071 20.2599 116.071 20.2599L115.672 21.2343Z" fill="white"/>
<path d="M115.396 19.7257C115.482 20.5773 115.674 21.2416 115.674 21.2416L116.158 20.0523C118.497 22.7247 121.157 21.4206 121.269 21.3649C121.23 21.4484 120.654 22.6287 121.262 23.1323C121.831 23.6002 120.698 25.7194 121.003 25.8523C121.268 25.9691 121.574 24.1138 122.5 24.1163L122.474 25.4391C122.907 25.2092 123.277 24.6851 123.55 24.0744C123.466 23.6643 123.241 23.2728 122.903 23.144C122.475 22.9782 121.691 23.2765 121.681 22.1317C121.682 21.8559 121.719 21.58 121.684 21.3112C121.601 20.652 121.082 20.1723 120.539 20.0133C119.446 19.7002 118.269 20.3914 117.206 19.9551C116.745 19.7633 115.957 19.0529 115.396 19.7257Z" fill="#8A4852"/>
<path d="M121.446 26.8612C121.55 26.8672 121.648 26.7871 121.733 26.704C121.928 26.5209 122.129 26.3334 122.301 26.1167C123.12 25.0866 122.707 23.9098 122.249 23.998C122.146 24.0148 122.058 24.0915 121.979 24.1703C121.494 24.6819 121.423 25.2249 121.344 25.3885C121.264 25.5634 121.181 25.7318 121.132 25.9191C120.997 26.492 121.243 26.8581 121.446 26.8612Z" fill="#F7A386"/>
<path d="M117.718 26.9029C117.794 26.8911 117.848 26.9897 117.803 27.0635C117.593 27.4084 117.29 27.7219 116.84 27.61C116.388 27.4978 116.233 27.0536 116.194 26.6872C116.185 26.6013 116.265 26.5473 116.327 26.5918C116.745 26.8894 117.212 26.9818 117.718 26.9029Z" fill="#E27659"/>
<path d="M118.54 23.1791C118.321 23.1607 118.05 23.2445 117.951 23.2233C117.847 23.2007 117.904 22.9742 117.943 22.7891C117.983 22.5984 118.05 22.5633 118.195 22.5859C118.809 22.6818 119.407 22.9156 119.949 23.2715C120.052 23.3389 120.159 23.4145 120.229 23.5299C120.276 23.6082 120.337 23.7462 120.218 23.7658C120.112 23.7833 119.989 23.7022 119.892 23.662C119.243 23.3925 118.793 23.2001 118.54 23.1791Z" fill="#8A4852"/>
<path d="M117.051 22.3475C116.989 22.1662 116.532 22.1935 116.289 22.2158C115.456 22.2928 115.438 22.2321 115.353 22.5193C115.291 22.7301 115.358 22.8139 115.469 22.8129C115.584 22.8122 115.692 22.706 116.122 22.8475C116.293 22.9039 116.462 22.9766 116.638 23.0051C116.805 23.0322 116.875 22.9839 116.946 22.8346C117.016 22.6865 117.079 22.4314 117.051 22.3475Z" fill="#8A4852"/>
<path d="M119.052 24.3538C119.039 24.58 118.874 24.7486 118.683 24.7332C118.496 24.7181 118.351 24.5243 118.364 24.298C118.377 24.0717 118.542 23.9031 118.73 23.9184C118.92 23.9337 119.065 24.1274 119.052 24.3538Z" fill="#111D33"/>
<path d="M118.088 24.0408C118.091 24.0444 118.097 24.0478 118.1 24.0478C118.296 24.0231 118.493 24.0019 118.687 23.9664C118.888 24.1749 119.103 24.4795 119.493 24.5896C119.499 24.5932 119.505 24.5861 119.505 24.579C119.508 24.5756 119.505 24.5719 119.505 24.5684C119.302 24.1489 118.984 23.9929 118.749 23.8107L118.743 23.8036C118.697 23.7705 118.621 23.8154 118.097 24.0232C118.091 24.0266 118.088 24.0337 118.088 24.0408Z" fill="#111D33"/>
<path d="M118.561 24.3066C118.446 24.2975 118.458 24.0911 118.573 24.1003C118.689 24.1098 118.677 24.3161 118.561 24.3066Z" fill="#FCFCFC"/>
<path d="M117.726 25.1312C117.751 25.1199 117.771 25.1577 117.757 25.1922C117.674 25.393 117.555 25.5621 117.415 25.6541C117.254 25.7598 117.052 25.7743 116.931 25.6218C116.787 25.4396 116.716 25.1092 116.83 25.0581C116.912 25.0211 116.993 25.3162 117.084 25.3467C117.451 25.4706 117.628 25.1756 117.726 25.1312Z" fill="#E27659"/>
<path d="M122.21 25.7198C122.484 25.2452 122.441 24.6711 121.997 24.4884C121.955 24.471 121.933 24.5459 121.974 24.5636C122.369 24.7268 122.406 25.2277 122.16 25.6619C122.144 25.3796 121.856 25.2256 121.776 25.3726C121.767 25.3906 121.771 25.4142 121.785 25.4265C121.786 25.4268 121.786 25.4272 121.787 25.4277C121.802 25.4393 121.823 25.434 121.833 25.4155C121.873 25.3405 122.016 25.4595 122.061 25.5382C122.097 25.6019 122.108 25.687 122.089 25.7601C122.088 25.7629 122.091 25.7645 122.091 25.7673C122.016 25.8782 121.933 25.9825 121.845 26.0846C121.813 26.1212 121.859 26.1791 121.891 26.1419" fill="#E27659"/>
<path d="M122.16 20.8004C122.206 20.7723 123.17 20.2038 123.621 20.8259C123.849 21.1414 123.992 21.6873 124.069 22.261C124.115 21.9487 124.124 21.6669 124.097 21.4498C123.931 20.1007 122.789 20.3109 122.789 20.3109L122.791 20.2924C122.547 20.3878 122.289 20.5758 122.16 20.8004Z" fill="#8A4852"/>
<path d="M99.1003 30.5294C99.5369 30.7624 99.9976 30.9313 100.469 31.0312C100.504 31.0387 100.541 31.0455 100.574 31.0305C100.629 31.0058 100.654 30.9297 100.661 30.86C100.675 30.7 100.618 30.5404 100.534 30.4141C100.45 30.288 100.341 30.1899 100.232 30.0934C100.065 29.9439 99.8975 29.7944 99.7299 29.645C99.588 29.5182 99.4879 29.4209 99.3221 29.3458" fill="#F7A386"/>
<path d="M98.9362 31.6461C99.373 31.8791 99.78 32.1119 100.251 32.2118C100.286 32.2192 100.323 32.226 100.356 32.2111C100.411 32.1863 100.437 32.1103 100.443 32.0407C100.457 31.8807 100.4 31.721 100.316 31.5948C100.232 31.4685 100.123 31.3706 100.015 31.274C99.8472 31.1245 99.6798 30.9752 99.5122 30.8255C99.3703 30.6989 99.2259 30.5705 99.0601 30.4955" fill="#F7A386"/>
<path d="M102.233 33.7421C101.033 32.8855 101.493 30.9874 101.493 30.9874C100.711 30.6501 100.353 30.6115 100.495 29.9461C100.668 29.1361 102.136 29.8752 102.901 30.6132C103.362 31.0585 103.623 31.8562 103.722 33.2663" fill="#F7A386"/>
<path d="M102.234 33.7445C102.055 33.6002 101.876 33.4424 101.753 33.2255C101.626 33.0153 101.528 32.7783 101.475 32.5259C101.368 32.0217 101.382 31.4883 101.485 30.9837L101.491 30.999C101.229 30.883 100.957 30.8006 100.704 30.6484C100.579 30.5744 100.463 30.4345 100.453 30.2549C100.451 30.0862 100.464 29.9088 100.552 29.7642C100.645 29.6224 100.801 29.5735 100.941 29.5706C101.084 29.5643 101.224 29.5942 101.361 29.6338C101.635 29.7162 101.895 29.8471 102.146 29.9988C102.63 30.3069 103.156 30.6772 103.377 31.3191C103.611 31.9326 103.682 32.6054 103.727 33.2658C103.727 33.2675 103.726 33.269 103.725 33.2691C103.723 33.2692 103.722 33.2679 103.722 33.2663C103.667 32.6077 103.583 31.9369 103.343 31.3384C103.115 30.7206 102.604 30.3647 102.124 30.049C101.877 29.8971 101.619 29.7658 101.351 29.6833C101.096 29.6119 100.767 29.5413 100.581 29.7908C100.501 29.9158 100.484 30.0945 100.486 30.2511C100.494 30.4161 100.597 30.5428 100.718 30.6178C100.964 30.7686 101.238 30.856 101.499 30.9753C101.504 30.9777 101.507 30.9845 101.505 30.9907C101.401 31.489 101.384 32.0208 101.488 32.522C101.539 32.7731 101.636 33.0091 101.76 33.219C101.882 33.4356 102.059 33.5939 102.237 33.7391C102.238 33.74 102.239 33.7418 102.238 33.7434C102.237 33.7449 102.236 33.7453 102.234 33.7445Z" fill="#E27659"/>
<path d="M99.1039 30.5273C99.382 30.6709 99.6691 30.7889 99.9619 30.8797C100.108 30.9252 100.256 30.9649 100.405 30.9968C100.478 31.0093 100.56 31.0455 100.603 30.9827C100.647 30.9229 100.65 30.8274 100.641 30.7442C100.59 30.3844 100.293 30.1918 100.06 29.9765C99.8132 29.7678 99.5975 29.5024 99.3238 29.3496C99.3225 29.3489 99.3218 29.3471 99.3224 29.3455C99.3229 29.344 99.3244 29.3433 99.3257 29.3437C99.6179 29.4651 99.8386 29.7312 100.091 29.927C100.317 30.1437 100.628 30.3428 100.682 30.7373C100.69 30.8287 100.689 30.933 100.631 31.0131C100.56 31.0992 100.466 31.0463 100.398 31.0363C100.249 31.0011 100.101 30.9582 99.9551 30.9095C99.6628 30.8104 99.3773 30.6842 99.1018 30.533C99.1005 30.5323 99.0999 30.5305 99.1005 30.5289C99.1011 30.5273 99.1026 30.5266 99.1039 30.5273Z" fill="#E27659"/>
<path d="M98.938 31.6431C99.2174 31.7873 99.4953 31.9381 99.7844 32.0499C99.9286 32.1066 100.076 32.1527 100.225 32.1846C100.299 32.2069 100.375 32.2104 100.404 32.1269C100.433 32.0528 100.429 31.9596 100.413 31.8767C100.336 31.5248 100.035 31.344 99.8027 31.1227C99.5584 30.9071 99.3358 30.6515 99.0598 30.4983C99.0585 30.4976 99.0579 30.4958 99.0584 30.4942C99.0589 30.4927 99.0604 30.492 99.0617 30.4924C99.3546 30.6148 99.5816 30.8744 99.8339 31.0732C100.061 31.2959 100.371 31.4804 100.454 31.8652C100.47 31.9568 100.475 32.0564 100.438 32.1475C100.401 32.2567 100.282 32.2513 100.218 32.2248C100.068 32.1894 99.9201 32.1397 99.7759 32.0796C99.4871 31.9593 99.2123 31.8007 98.9358 31.6489C98.9345 31.6481 98.9339 31.6463 98.9345 31.6447C98.9352 31.6432 98.9367 31.6425 98.938 31.6431Z" fill="#E27659"/>
<path d="M98.8128 32.581C99.0961 32.9182 99.5178 32.9948 99.9124 33.0785C99.9417 33.0846 99.9725 33.0906 100 33.078C100.046 33.0572 100.068 32.9935 100.073 32.9352C100.085 32.8012 100.037 32.6674 99.9671 32.5617C99.8968 32.4561 99.805 32.3739 99.7144 32.2931C99.5741 32.1679 99.4339 32.0426 99.2936 31.9175C99.1747 31.8114 99.0731 31.695 98.9342 31.6321C98.6876 31.8753 98.5178 32.2297 98.8128 32.581Z" fill="#F7A386"/>
<path d="M98.8112 32.5798C98.999 32.7895 99.2431 32.9069 99.4916 32.969C99.616 33.0021 99.7422 33.0258 99.8686 33.0506C99.9322 33.0636 99.9972 33.084 100.026 33.0224C100.056 32.9667 100.055 32.8879 100.044 32.8185C99.9906 32.5213 99.7381 32.3661 99.5418 32.1819C99.3337 32.0057 99.1533 31.778 98.9298 31.636C98.9285 31.6353 98.9279 31.6334 98.9285 31.6318C98.9291 31.6305 98.9305 31.6298 98.9317 31.6302C99.056 31.6765 99.1603 31.7754 99.2611 31.8664L99.5732 32.1322C99.7629 32.3181 100.027 32.4779 100.085 32.8091C100.095 32.887 100.098 32.9731 100.057 33.0478C100.01 33.1362 99.9156 33.1029 99.8627 33.0903C99.7369 33.0625 99.6105 33.0356 99.4855 32.9992C99.2362 32.9286 98.9911 32.8009 98.8076 32.5842C98.8066 32.583 98.8065 32.5811 98.8075 32.5798C98.8086 32.5787 98.8102 32.5787 98.8112 32.5798Z" fill="#E27659"/>
<path d="M105.091 41.2752L108.314 55.1099C108.445 55.675 108.935 56.133 109.408 56.133H117.522C117.995 56.133 118.271 55.675 118.14 55.1099L114.917 41.2752C114.786 40.7103 114.296 40.2521 113.823 40.2521H105.709C105.236 40.2521 104.96 40.7102 105.091 41.2752Z" fill="#4C5C75"/>
<path d="M115.556 51.2071C112.559 51.8484 114.503 52.1765 115.864 52.003C113.156 52.4706 114.735 52.9006 116.086 52.8176C115.633 52.8967 115.077 53.0327 115.065 53.2739C115.049 53.5906 116.43 53.8304 116.695 53.8812C117.437 54.0133 117.7 54.017 118.002 54.3074C118.404 54.5338 120.279 54.9109 120.996 54.975C124.399 55.2766 127.687 54.9221 129.007 52.6894C129.911 51.1544 129.873 47.8693 129.574 44.882H124.621C124.616 45.7185 124.645 46.5386 124.655 46.6925C124.703 48.0879 124.732 48.7782 124.979 50.3433C121.96 50.9544 119.93 50.8261 119.775 50.7431C119.454 50.5735 118.595 49.4874 118.065 49.4306C117.443 49.3628 116.498 48.2152 116.498 48.2152L116.954 50.1726C116.817 50.2101 113.774 50.7507 113.866 51.1128C113.954 51.4614 115.005 51.2783 115.556 51.2071Z" fill="#F7A386"/>
<path d="M116.187 53.7789C117.371 54.0274 117.65 53.9654 118.004 54.3069C118.407 54.5332 120.281 54.9103 120.998 54.9745C124.401 55.2761 127.69 54.9215 129.009 52.6888C129.913 51.1539 129.875 47.8687 129.577 44.8814H124.623C124.618 45.7179 124.647 46.538 124.658 46.6919C124.661 46.6955 124.664 46.6995 124.668 46.6995C125.761 47.3495 126.511 46.7908 127.233 46.5674C127.627 46.4504 128.061 46.4203 128.41 46.6655C128.997 47.0766 129.07 48.0346 129.079 48.8455C129.089 49.7583 129.044 50.8104 128.439 51.3725C127.972 51.8025 127.328 51.7912 126.745 51.878C124.127 52.2707 121.718 55.0939 119.07 54.0391C118.311 53.7359 117.508 53.029 116.688 53.3564C116.491 53.4319 116.311 53.5827 116.187 53.7789Z" fill="url(#paint7_linear_203_4788)"/>
<path d="M116.389 24.0898C116.376 24.3161 116.211 24.4847 116.021 24.4692C115.833 24.454 115.688 24.2602 115.701 24.034C115.714 23.8076 115.88 23.6392 116.067 23.6543C116.258 23.6698 116.402 23.8635 116.389 24.0898Z" fill="#111D33"/>
<path d="M115.425 23.7761C115.428 23.7798 115.434 23.7832 115.437 23.7832C115.634 23.7585 115.83 23.7372 116.024 23.7019C116.14 23.8222 116.25 23.9568 116.375 24.0701C116.509 24.1799 116.655 24.2754 116.831 24.3251C116.837 24.3285 116.843 24.3215 116.843 24.3144C116.846 24.3109 116.843 24.3072 116.843 24.3038C116.753 24.1197 116.634 23.9815 116.506 23.8575C116.372 23.7443 116.223 23.6522 116.086 23.546L116.08 23.539C116.065 23.5283 116.045 23.5248 116.03 23.5318C115.83 23.5991 115.631 23.6805 115.434 23.7584C115.428 23.762 115.425 23.7691 115.425 23.7761Z" fill="#111D33"/>
<path d="M115.984 23.9464C115.981 24.0037 115.939 24.0465 115.891 24.0425C115.843 24.0387 115.807 23.9896 115.81 23.9323C115.813 23.8751 115.855 23.8324 115.903 23.8362C115.951 23.8402 115.988 23.8892 115.984 23.9464Z" fill="#FCFCFC"/>
<path d="M124.109 36.9166L128.984 36.5305C129.614 39.3574 130.086 41.8324 129.976 44.9798C129.936 46.1397 124.959 46.2744 124.26 45.4639C122.858 43.8387 124.109 36.9166 124.109 36.9166Z" fill="#4AA09B"/>
<path d="M124.301 45.5132C125.391 46.3194 129.939 46.0539 129.977 44.9792C130.087 41.8324 129.616 39.357 128.983 36.5288L128.39 36.5775C129.004 39.3445 129.771 41.7555 129.664 44.845C129.629 45.8197 125.459 45.8662 124.301 45.5132Z" fill="#4A6361"/>
<path d="M116.119 39.6946L116.5 40.7828C116.549 40.9222 116.463 41.0758 116.336 41.0758H112.125C112.053 41.0758 111.988 41.0245 111.96 40.9456L111.579 39.8574C111.53 39.718 111.616 39.5644 111.743 39.5644H115.955C116.026 39.5644 116.091 39.6157 116.119 39.6946Z" fill="#111D33"/>
<path d="M50.6013 107.268H26.9392V111.428H50.6013V107.268Z" fill="#FFD375"/>
<path d="M36.4745 107.268H26.9391V111.428H36.4745V107.268Z" fill="#EE9545"/>
<path d="M48.9642 107.268H44.4489V111.429H48.9642V107.268Z" fill="#FFDE9E"/>
<path d="M43.9494 107.268H42.9294V111.428H43.9494V107.268Z" fill="#FFDE9E"/>
<path d="M47.6872 103.107H24.0251V107.267H47.6872V103.107Z" fill="#FFD375"/>
<path d="M33.5605 103.107H24.0251V107.267H33.5605V103.107Z" fill="#EE9545"/>
<path d="M46.0639 103.106H41.5485V107.267H46.0639V103.106Z" fill="#FFDE9E"/>
<path d="M41.037 103.107H40.0171V107.267H41.037V103.107Z" fill="#FFDE9E"/>
<path d="M47.7008 107.005H24.0388V107.268H47.7008V107.005Z" fill="#EE9545"/>
<path d="M25.1579 92.9105C25.1579 98.5418 28.9969 103.107 33.732 103.107C38.4687 103.107 42.3077 98.5419 42.3077 92.9105C42.3077 87.2773 38.4687 82.7122 33.732 82.7122C28.9969 82.7123 25.1579 87.2773 25.1579 92.9105Z" fill="#EE9545"/>
<path d="M26.7419 92.9105C26.7419 98.5418 30.5808 103.107 35.3159 103.107C40.0527 103.107 43.8917 98.5419 43.8917 92.9105C43.8917 87.2773 40.0527 82.7122 35.3159 82.7122C30.5808 82.7123 26.7419 87.2773 26.7419 92.9105Z" fill="#FFDE9E"/>
<path d="M28.4821 92.9105C28.4821 97.5021 31.6123 101.224 35.4731 101.224C39.3353 101.224 42.4653 97.5021 42.4653 92.9105C42.4653 88.3176 39.3353 84.5953 35.4731 84.5953C31.6123 84.5953 28.4821 88.3176 28.4821 92.9105Z" fill="#FFD375"/>
<path d="M35.472 101.379C31.5449 101.379 28.3499 97.5802 28.3499 92.91C28.3499 88.2392 31.5449 84.4388 35.472 84.4388C39.3996 84.4388 42.5951 88.2392 42.5951 92.91C42.595 97.5803 39.3996 101.379 35.472 101.379ZM35.472 84.7504C31.6895 84.7504 28.612 88.4109 28.612 92.91C28.612 97.4079 31.6895 101.068 35.472 101.068C39.2552 101.068 42.333 97.4079 42.333 92.91C42.333 88.4109 39.2552 84.7504 35.472 84.7504Z" fill="#EE9545"/>
<defs>
<linearGradient id="paint0_linear_203_4788" x1="82.0724" y1="58.0682" x2="91.5189" y2="58.0682" gradientUnits="userSpaceOnUse">
<stop offset="1e-07" stop-color="#F7A386"/>
<stop offset="1" stop-color="#FD6B58"/>
</linearGradient>
<linearGradient id="paint1_linear_203_4788" x1="74.0175" y1="49.8709" x2="66.3381" y2="48.2014" gradientUnits="userSpaceOnUse">
<stop offset="1e-07" stop-color="#FEE1BC"/>
<stop offset="1" stop-color="#FD6B58"/>
</linearGradient>
<linearGradient id="paint2_linear_203_4788" x1="77.4489" y1="45.3177" x2="65.394" y2="44.6318" gradientUnits="userSpaceOnUse">
<stop offset="1e-07" stop-color="#FEE1BC"/>
<stop offset="1" stop-color="#FD6B58"/>
</linearGradient>
<linearGradient id="paint3_linear_203_4788" x1="63.4636" y1="63.8103" x2="78.7057" y2="72.4414" gradientUnits="userSpaceOnUse">
<stop offset="1e-07" stop-color="#F7A386"/>
<stop offset="1" stop-color="#FD6B58"/>
</linearGradient>
<linearGradient id="paint4_linear_203_4788" x1="110.928" y1="41.1716" x2="99.3117" y2="40.3551" gradientUnits="userSpaceOnUse">
<stop offset="1e-07" stop-color="#F7A386"/>
<stop offset="1" stop-color="#FD6B58"/>
</linearGradient>
<linearGradient id="paint5_linear_203_4788" x1="114.679" y1="31.0852" x2="126.444" y2="29.7717" gradientUnits="userSpaceOnUse">
<stop offset="1e-07" stop-color="#FEE1BC"/>
<stop offset="1" stop-color="#FD6B58"/>
</linearGradient>
<linearGradient id="paint6_linear_203_4788" x1="114.698" y1="23.5121" x2="127.348" y2="25.0161" gradientUnits="userSpaceOnUse">
<stop offset="1e-07" stop-color="#FEE1BC"/>
<stop offset="1" stop-color="#FD6B58"/>
</linearGradient>
<linearGradient id="paint7_linear_203_4788" x1="129.767" y1="49.9742" x2="116.187" y2="49.9742" gradientUnits="userSpaceOnUse">
<stop offset="1e-07" stop-color="#F7A386"/>
<stop offset="1" stop-color="#FD6B58"/>
</linearGradient>
</defs>
</svg>
